<?xml version="1.0" encoding="utf-8"?>
<!-- Generator: Adobe Illustrator 27.7.0, SVG Export Plug-In . SVG Version: 6.00 Build 0)  -->
<svg version="1.1" id="Layer_1" xmlns="http://www.w3.org/2000/svg" xmlns:xlink="http://www.w3.org/1999/xlink" x="0px" y="0px"
	 viewBox="0 0 157.8 60.5" enable-background="new 0 0 157.8 60.5" xml:space="preserve">
<g id="Layer_x0020_1">
	<g id="_1550027826368">
		<g>
			<g>
				<polygon fill-rule="evenodd" clip-rule="evenodd" fill="#FFFFFF" points="138.2,29.4 126.4,1.2 125.1,1.2 117.8,18.6 
					120.3,24.6 125.3,12.8 137.6,41.8 138.7,41.8 155.8,1.2 150.1,1.2 				"/>
				<polygon fill-rule="evenodd" clip-rule="evenodd" fill="#FFFFFF" points="119.8,41.8 120.9,41.8 128.2,24.5 125.3,17.6 
					120.3,29.4 108.4,1.2 102.7,1.2 				"/>
			</g>
			<polygon fill="#FFFFFF" points="79,36.2 79,24.7 96.8,24.7 96.8,19.2 79,19.2 79,7 102.8,7 100.3,1.3 73.2,1.3 73.2,42 103.4,42 
				103.4,36.2 			"/>
			<polygon fill="#FFFFFF" points="48.2,36.2 48.2,1.3 42.4,1.3 42.4,42 71.4,42 71.4,36.2 			"/>
			<path fill="#FFFFFF" d="M7.8,21.6c0-2,0.4-4,1.2-5.9c0.8-1.8,1.8-3.5,3.2-4.9c1.3-1.4,2.9-2.6,4.7-3.4C18.8,6.5,20.7,6,22.8,6
				c4.6,0,8.7,1,12.8,5.3l4.6-3.8c-6.4-5.6-10.6-7-17.4-6.8c-2.8,0-5.5,0.5-8.1,1.6C12.2,3.5,10,5,8.1,6.9c-1.9,1.9-3.4,4.1-4.5,6.6
				C2.5,16.1,2,18.8,2,21.6s0.5,5.5,1.6,8.1c1.1,2.5,2.6,4.7,4.5,6.6c1.9,1.9,4.1,3.4,6.6,4.5c2.6,1.1,5.3,1.6,8.1,1.6
				c6.9,0.2,11-1.2,17.4-6.8l-4.6-3.8c-4.1,4.3-8.2,5.3-12.8,5.3c-2.1,0-4-0.4-5.9-1.3c-1.8-0.8-3.4-2-4.7-3.4
				C10.8,31,9.8,29.3,9,27.5C8.2,25.6,7.8,23.7,7.8,21.6L7.8,21.6z"/>
		</g>
		<path fill="#FFFFFF" d="M28.2,53.4h-1v4.6h1v-2.5c0-0.9,0.4-1.4,1.1-1.4c0.2,0,0.4,0,0.5,0.1s0.2,0.2,0.3,0.3
			c0.1,0.1,0.1,0.3,0.1,0.4c0,0.1,0,0.3,0,0.5v2.7h1V55c0-0.5-0.1-1-0.4-1.2c-0.3-0.3-0.7-0.4-1.2-0.4c-0.7,0-1.2,0.3-1.5,0.8
			L28.2,53.4L28.2,53.4z M35.5,51.6h-1v1h1V51.6z M35.5,53.4h-1v4.6h1V53.4z M43,56.3h-1c-0.1,0.3-0.2,0.6-0.4,0.8
			c-0.2,0.2-0.4,0.3-0.8,0.3c-0.4,0-0.7-0.1-0.9-0.4c-0.2-0.3-0.3-0.7-0.3-1.2s0.1-0.9,0.3-1.2c0.2-0.3,0.5-0.4,0.9-0.4
			c0.3,0,0.5,0.1,0.7,0.2c0.2,0.2,0.3,0.4,0.4,0.7h1c-0.1-0.5-0.3-0.9-0.6-1.3c-0.4-0.3-0.8-0.4-1.4-0.4c-0.7,0-1.3,0.2-1.7,0.7
			c-0.4,0.5-0.6,1.1-0.6,1.8c0,0.7,0.2,1.3,0.6,1.7c0.4,0.4,1,0.7,1.7,0.7c0.6,0,1.1-0.2,1.5-0.5C42.7,57.3,42.9,56.9,43,56.3
			L43,56.3z M48,53.3c-0.7,0-1.3,0.2-1.7,0.7c-0.4,0.4-0.6,1-0.6,1.8c0,0.8,0.2,1.4,0.6,1.8c0.4,0.4,1,0.7,1.7,0.7
			c0.7,0,1.3-0.2,1.7-0.7c0.4-0.4,0.6-1,0.6-1.8c0-0.7-0.2-1.3-0.6-1.8S48.7,53.3,48,53.3z M48,54.1c0.4,0,0.7,0.1,1,0.4
			c0.2,0.3,0.3,0.7,0.3,1.2c0,0.5-0.1,0.9-0.3,1.2c-0.2,0.3-0.5,0.4-0.9,0.4c-0.4,0-0.7-0.1-1-0.4c-0.2-0.3-0.4-0.7-0.4-1.2
			c0-0.5,0.1-0.9,0.4-1.2C47.3,54.2,47.6,54.1,48,54.1L48,54.1z M55.6,53.4h-0.9V52h-1v1.4h-0.8v0.7h0.8v2.2v0.1v0.1v0.1v0.4
			c0,0.1,0,0.2,0,0.3c0,0.1,0,0.2,0.1,0.3c0,0.1,0.1,0.1,0.1,0.2c0.1,0.1,0.1,0.1,0.2,0.2c0.1,0,0.2,0.1,0.3,0.1c0.1,0,0.3,0,0.5,0
			c0.3,0,0.5,0,0.7,0v-0.8c-0.1,0-0.2,0-0.4,0c-0.1,0-0.2,0-0.3,0c-0.1,0-0.1-0.1-0.2-0.1c0-0.1,0-0.1-0.1-0.2c0-0.1,0-0.2,0-0.3
			v-2.4h0.9C55.6,54.2,55.6,53.4,55.6,53.4z M59.5,51.6h-1v1h1V51.6z M59.5,53.4h-1v4.6h1V53.4z M63.7,53.4h-1v4.6h1v-2.5
			c0-0.9,0.4-1.4,1.1-1.4c0.2,0,0.4,0,0.5,0.1s0.2,0.2,0.3,0.3c0.1,0.1,0.1,0.3,0.1,0.4c0,0.1,0,0.3,0,0.5v2.7h1V55
			c0-0.5-0.1-1-0.4-1.2c-0.3-0.3-0.7-0.4-1.2-0.4c-0.7,0-1.2,0.3-1.5,0.8L63.7,53.4L63.7,53.4z M74.1,56.6h-1
			c-0.1,0.3-0.2,0.5-0.4,0.6c-0.2,0.1-0.4,0.2-0.7,0.2c-0.4,0-0.7-0.1-0.9-0.4c-0.2-0.3-0.3-0.6-0.4-1.1h3.4v-0.1
			c0-0.8-0.2-1.4-0.6-1.9c-0.4-0.5-0.9-0.7-1.6-0.7c-0.7,0-1.2,0.2-1.6,0.7c-0.4,0.5-0.6,1.1-0.6,1.8c0,0.7,0.2,1.3,0.6,1.7
			c0.4,0.5,1,0.7,1.7,0.7c0.5,0,1-0.1,1.4-0.4C73.8,57.5,74,57.1,74.1,56.6L74.1,56.6z M73.2,55.3h-2.4c0-0.4,0.2-0.7,0.4-0.9
			c0.2-0.2,0.5-0.3,0.8-0.3c0.3,0,0.6,0.1,0.8,0.3C73,54.6,73.1,54.9,73.2,55.3L73.2,55.3z M84,53.4h-1v6.4h1v-2.3
			c0.3,0.5,0.9,0.7,1.5,0.7c0.6,0,1.1-0.2,1.5-0.7c0.4-0.4,0.6-1,0.6-1.8c0-0.7-0.2-1.4-0.6-1.8c-0.4-0.4-0.9-0.7-1.5-0.7
			c-0.7,0-1.2,0.3-1.5,0.8L84,53.4L84,53.4z M85.3,54.1c0.4,0,0.7,0.1,0.9,0.4c0.2,0.3,0.3,0.7,0.3,1.2c0,0.5-0.1,0.9-0.3,1.2
			s-0.5,0.4-0.9,0.4c-0.4,0-0.7-0.1-1-0.4c-0.2-0.3-0.3-0.7-0.3-1.2c0-0.5,0.1-0.9,0.3-1.2C84.6,54.2,84.9,54.1,85.3,54.1L85.3,54.1
			z M92.7,53.3c-0.7,0-1.3,0.2-1.7,0.7s-0.6,1-0.6,1.8c0,0.8,0.2,1.4,0.6,1.8c0.4,0.4,1,0.7,1.7,0.7c0.7,0,1.3-0.2,1.7-0.7
			s0.6-1,0.6-1.8c0-0.7-0.2-1.3-0.6-1.8S93.4,53.3,92.7,53.3L92.7,53.3z M92.7,54.1c0.4,0,0.7,0.1,1,0.4c0.2,0.3,0.3,0.7,0.3,1.2
			c0,0.5-0.1,0.9-0.3,1.2c-0.2,0.3-0.5,0.4-0.9,0.4c-0.4,0-0.7-0.1-1-0.4c-0.2-0.3-0.4-0.7-0.4-1.2c0-0.5,0.1-0.9,0.4-1.2
			C92,54.2,92.3,54.1,92.7,54.1L92.7,54.1z M102.1,53.4h-1v2.5c0,0.4-0.1,0.8-0.3,1s-0.5,0.4-0.8,0.4c-0.2,0-0.3,0-0.4-0.1
			c-0.1,0-0.2-0.1-0.3-0.2c-0.1-0.1-0.1-0.2-0.1-0.3c0-0.1-0.1-0.2-0.1-0.3c0-0.1,0-0.2,0-0.4v-2.7h-1v3.1c0,0.5,0.1,1,0.4,1.3
			c0.3,0.3,0.7,0.4,1.2,0.4c0.6,0,1.1-0.3,1.5-0.8v0.7h1L102.1,53.4L102.1,53.4z M109.5,56.3h-1c-0.1,0.3-0.2,0.6-0.4,0.8
			c-0.2,0.2-0.4,0.3-0.8,0.3c-0.4,0-0.7-0.1-0.9-0.4c-0.2-0.3-0.3-0.7-0.3-1.2s0.1-0.9,0.3-1.2c0.2-0.3,0.5-0.4,0.9-0.4
			c0.3,0,0.5,0.1,0.7,0.2c0.2,0.2,0.3,0.4,0.4,0.7h1c-0.1-0.5-0.3-0.9-0.6-1.3c-0.4-0.3-0.8-0.4-1.4-0.4c-0.7,0-1.3,0.2-1.7,0.7
			c-0.4,0.5-0.6,1.1-0.6,1.8c0,0.7,0.2,1.3,0.6,1.7c0.4,0.4,1,0.7,1.7,0.7c0.6,0,1.1-0.2,1.5-0.5C109.2,57.3,109.4,56.9,109.5,56.3
			L109.5,56.3z M113.4,51.6h-1v6.4h1v-2.5c0-0.4,0.1-0.8,0.3-1c0.2-0.3,0.5-0.4,0.9-0.4c0.4,0,0.6,0.1,0.7,0.3
			c0.1,0.2,0.2,0.5,0.2,0.8v2.8h1v-3.2c0-0.5-0.1-0.9-0.4-1.2c-0.3-0.3-0.7-0.4-1.2-0.4c-0.6,0-1.1,0.3-1.5,0.8L113.4,51.6
			L113.4,51.6z M123.8,56.6h-1c-0.1,0.3-0.2,0.5-0.4,0.6c-0.2,0.1-0.4,0.2-0.7,0.2c-0.4,0-0.7-0.1-0.9-0.4c-0.2-0.3-0.3-0.6-0.4-1.1
			h3.4v-0.1c0-0.8-0.2-1.4-0.6-1.9c-0.4-0.5-0.9-0.7-1.6-0.7c-0.7,0-1.2,0.2-1.6,0.7c-0.4,0.5-0.6,1.1-0.6,1.8
			c0,0.7,0.2,1.3,0.6,1.7c0.4,0.5,1,0.7,1.7,0.7c0.5,0,1-0.1,1.4-0.4C123.5,57.5,123.7,57.1,123.8,56.6L123.8,56.6z M122.9,55.3
			h-2.4c0-0.4,0.2-0.7,0.4-0.9c0.2-0.2,0.5-0.3,0.8-0.3c0.3,0,0.6,0.1,0.8,0.3C122.7,54.6,122.9,54.9,122.9,55.3L122.9,55.3z
			 M130.5,54.8c0-0.5-0.2-0.9-0.5-1.1c-0.4-0.2-0.8-0.4-1.4-0.4c-0.6,0-1.1,0.1-1.4,0.4c-0.3,0.2-0.5,0.6-0.5,1c0,0.5,0.2,0.8,0.6,1
			c0.2,0.1,0.6,0.2,1.3,0.4c0,0,0,0,0.1,0c0,0,0,0,0,0l0.1,0c0.2,0,0.3,0.1,0.4,0.1c0.1,0,0.2,0.1,0.3,0.1c0.1,0.1,0.2,0.1,0.2,0.2
			c0,0.1,0.1,0.2,0.1,0.3c0,0.2-0.1,0.4-0.3,0.5c-0.2,0.1-0.4,0.2-0.7,0.2c-0.7,0-1.1-0.3-1.1-0.9h-1c0,0.5,0.2,0.9,0.6,1.2
			c0.4,0.3,0.9,0.4,1.5,0.4c0.6,0,1.1-0.1,1.5-0.4c0.4-0.3,0.5-0.7,0.5-1.1c0-0.2,0-0.4-0.1-0.5s-0.2-0.3-0.3-0.4
			c-0.1-0.1-0.2-0.2-0.4-0.3s-0.4-0.1-0.5-0.2c-0.1,0-0.3-0.1-0.5-0.1c-0.1,0-0.1,0-0.2-0.1c-0.1,0-0.2,0-0.2-0.1c0,0-0.1,0-0.2,0
			c-0.1,0-0.1,0-0.2-0.1s-0.1,0-0.1-0.1c-0.1,0-0.1,0-0.1-0.1c0,0,0-0.1-0.1-0.1c0,0,0-0.1-0.1-0.1c0,0,0-0.1,0-0.1
			c0-0.2,0.1-0.3,0.2-0.4c0.1-0.1,0.3-0.1,0.6-0.1c0.6,0,0.9,0.2,1,0.7L130.5,54.8L130.5,54.8z"/>
	</g>
</g>
</svg>
