<?xml version="1.0" encoding="utf-8"?>
<!-- Generator: Adobe Illustrator 27.7.0, SVG Export Plug-In . SVG Version: 6.00 Build 0)  -->
<svg version="1.1" id="Layer_1" xmlns="http://www.w3.org/2000/svg" xmlns:xlink="http://www.w3.org/1999/xlink" x="0px" y="0px"
	 viewBox="0 0 157.8 46.2" enable-background="new 0 0 157.8 46.2" xml:space="preserve">
<g id="Layer_x0020_1">
	<g id="_1550027826368">
		<g>
			<g>
				<polygon fill-rule="evenodd" clip-rule="evenodd" points="138.8,30.7 126.8,2.3 125.6,2.3 118.2,19.9 120.7,25.9 125.8,13.9 
					138.1,43.3 139.3,43.3 156.6,2.3 150.8,2.3 				"/>
				<polygon fill-rule="evenodd" clip-rule="evenodd" points="120.2,43.3 121.3,43.3 128.7,25.8 125.7,18.8 120.7,30.8 108.7,2.3 
					102.9,2.3 				"/>
			</g>
			<polygon points="79,37.6 79,26 97,26 97,20.4 79,20.4 79,8.1 103,8.1 100.5,2.3 73.1,2.3 73.1,43.4 103.6,43.4 103.6,37.6 			"/>
			<polygon points="47.9,37.6 47.9,2.3 42.1,2.3 42.1,43.4 71.3,43.4 71.3,37.6 			"/>
			<path d="M7.1,22.9c0-2.1,0.4-4.1,1.2-6c0.8-1.8,1.8-3.5,3.2-5c1.4-1.4,3-2.6,4.8-3.4c1.9-0.9,3.9-1.3,6-1.3c4.7,0,8.8,1,12.9,5.4
				l4.7-3.9c-6.5-5.7-10.7-7-17.6-6.9c-2.8,0-5.6,0.5-8.1,1.7C11.6,4.6,9.3,6.1,7.4,8C5.5,10,4,12.2,2.9,14.7
				c-1.1,2.6-1.7,5.3-1.7,8.1s0.5,5.6,1.7,8.1c1.1,2.5,2.6,4.8,4.5,6.7c1.9,1.9,4.2,3.4,6.7,4.5c2.6,1.1,5.3,1.7,8.1,1.7
				c6.9,0.2,11.1-1.2,17.6-6.9l-4.7-3.9c-4.1,4.3-8.3,5.4-12.9,5.4c-2.1,0-4.1-0.4-6-1.3c-1.8-0.8-3.4-2-4.8-3.4
				c-1.4-1.5-2.4-3.1-3.2-5C7.5,26.9,7.1,24.9,7.1,22.9L7.1,22.9z"/>
		</g>
	</g>
</g>
<g id="Layer_x0020_1_00000125573737797181110880000005573304018878179993_">
	<g id="_1550027826368_00000106147928200236602170000008993296340586237110_">
		<g>
			<g>
				<polygon fill-rule="evenodd" clip-rule="evenodd" fill="#FFFFFF" points="-36.8,-76.7 -48.7,-104.9 -49.9,-104.9 -57.3,-87.5 
					-54.8,-81.5 -49.8,-93.3 -37.5,-64.3 -36.4,-64.3 -19.2,-104.9 -24.9,-104.9 				"/>
				<polygon fill-rule="evenodd" clip-rule="evenodd" fill="#FFFFFF" points="-55.2,-64.3 -54.1,-64.3 -46.8,-81.6 -49.8,-88.5 
					-54.8,-76.7 -66.7,-104.9 -72.4,-104.9 				"/>
			</g>
			<polygon fill="#FFFFFF" points="-96.1,-69.9 -96.1,-81.4 -78.2,-81.4 -78.2,-86.9 -96.1,-86.9 -96.1,-99.1 -72.3,-99.1 
				-74.8,-104.8 -101.9,-104.8 -101.9,-64.2 -71.7,-64.2 -71.7,-69.9 			"/>
			<polygon fill="#FFFFFF" points="-126.9,-69.9 -126.9,-104.8 -132.6,-104.8 -132.6,-64.2 -103.7,-64.2 -103.7,-69.9 			"/>
			<path fill="#FFFFFF" d="M-167.3-84.5c0-2,0.4-4,1.2-5.9c0.8-1.8,1.8-3.5,3.2-4.9c1.3-1.4,2.9-2.6,4.7-3.4
				c1.9-0.9,3.8-1.3,5.9-1.3c4.6,0,8.7,1,12.8,5.3l4.6-3.8c-6.4-5.6-10.6-7-17.4-6.8c-2.8,0-5.5,0.5-8.1,1.6
				c-2.5,1.1-4.7,2.6-6.6,4.5c-1.9,1.9-3.4,4.1-4.5,6.6c-1.1,2.6-1.6,5.3-1.6,8.1c0,2.8,0.5,5.5,1.6,8.1c1.1,2.5,2.6,4.7,4.5,6.6
				c1.9,1.9,4.1,3.4,6.6,4.5c2.6,1.1,5.3,1.6,8.1,1.6c6.9,0.2,11-1.2,17.4-6.8l-4.6-3.8c-4.1,4.3-8.2,5.3-12.8,5.3
				c-2.1,0-4-0.4-5.9-1.3c-1.8-0.8-3.4-2-4.7-3.4c-1.4-1.4-2.4-3.1-3.2-4.9C-166.9-80.5-167.3-82.4-167.3-84.5L-167.3-84.5z"/>
		</g>
		<path fill="#FFFFFF" d="M-146.9-52.7h-1v4.6h1v-2.5c0-0.9,0.4-1.4,1.1-1.4c0.2,0,0.4,0,0.5,0.1c0.1,0.1,0.2,0.2,0.3,0.3
			c0.1,0.1,0.1,0.3,0.1,0.4c0,0.1,0,0.3,0,0.5v2.7h1v-3.1c0-0.5-0.1-1-0.4-1.2c-0.3-0.3-0.7-0.4-1.2-0.4c-0.7,0-1.2,0.3-1.5,0.8
			V-52.7L-146.9-52.7z M-139.5-54.5h-1v1h1V-54.5z M-139.5-52.7h-1v4.6h1V-52.7z M-132.1-49.8h-1c-0.1,0.3-0.2,0.6-0.4,0.8
			c-0.2,0.2-0.4,0.3-0.8,0.3c-0.4,0-0.7-0.1-0.9-0.4c-0.2-0.3-0.3-0.7-0.3-1.2s0.1-0.9,0.3-1.2c0.2-0.3,0.5-0.4,0.9-0.4
			c0.3,0,0.5,0.1,0.7,0.2c0.2,0.2,0.3,0.4,0.4,0.7h1c-0.1-0.5-0.3-0.9-0.6-1.3c-0.4-0.3-0.8-0.4-1.4-0.4c-0.7,0-1.3,0.2-1.7,0.7
			c-0.4,0.5-0.6,1.1-0.6,1.8c0,0.7,0.2,1.3,0.6,1.7c0.4,0.4,1,0.7,1.7,0.7c0.6,0,1.1-0.2,1.5-0.5C-132.4-48.8-132.2-49.2-132.1-49.8
			L-132.1-49.8z M-127-52.8c-0.7,0-1.3,0.2-1.7,0.7c-0.4,0.4-0.6,1-0.6,1.8c0,0.8,0.2,1.4,0.6,1.8s1,0.7,1.7,0.7
			c0.7,0,1.3-0.2,1.7-0.7s0.6-1,0.6-1.8c0-0.7-0.2-1.3-0.6-1.8C-125.8-52.6-126.3-52.8-127-52.8z M-127.1-52c0.4,0,0.7,0.1,1,0.4
			c0.2,0.3,0.3,0.7,0.3,1.2c0,0.5-0.1,0.9-0.3,1.2c-0.2,0.3-0.5,0.4-0.9,0.4c-0.4,0-0.7-0.1-1-0.4c-0.2-0.3-0.4-0.7-0.4-1.2
			c0-0.5,0.1-0.9,0.4-1.2C-127.8-51.9-127.5-52-127.1-52L-127.1-52z M-119.5-52.7h-0.9v-1.4h-1v1.4h-0.8v0.7h0.8v2.2v0.1v0.1v0.1
			v0.4c0,0.1,0,0.2,0,0.3c0,0.1,0,0.2,0.1,0.3c0,0.1,0.1,0.1,0.1,0.2c0.1,0.1,0.1,0.1,0.2,0.2c0.1,0,0.2,0.1,0.3,0.1
			c0.1,0,0.3,0,0.5,0c0.3,0,0.5,0,0.7,0v-0.8c-0.1,0-0.2,0-0.4,0c-0.1,0-0.2,0-0.3,0c-0.1,0-0.1-0.1-0.2-0.1c0-0.1,0-0.1-0.1-0.2
			c0-0.1,0-0.2,0-0.3V-52h0.9C-119.5-52-119.5-52.7-119.5-52.7z M-115.6-54.5h-1v1h1V-54.5z M-115.6-52.7h-1v4.6h1V-52.7z
			 M-111.4-52.7h-1v4.6h1v-2.5c0-0.9,0.4-1.4,1.1-1.4c0.2,0,0.4,0,0.5,0.1c0.1,0.1,0.2,0.2,0.3,0.3c0.1,0.1,0.1,0.3,0.1,0.4
			c0,0.1,0,0.3,0,0.5v2.7h1v-3.1c0-0.5-0.1-1-0.4-1.2c-0.3-0.3-0.7-0.4-1.2-0.4c-0.7,0-1.2,0.3-1.5,0.8L-111.4-52.7L-111.4-52.7z
			 M-100.9-49.5h-1c-0.1,0.3-0.2,0.5-0.4,0.6c-0.2,0.1-0.4,0.2-0.7,0.2c-0.4,0-0.7-0.1-0.9-0.4c-0.2-0.3-0.3-0.6-0.4-1.1h3.4v-0.1
			c0-0.8-0.2-1.4-0.6-1.9c-0.4-0.5-0.9-0.7-1.6-0.7c-0.7,0-1.2,0.2-1.6,0.7c-0.4,0.5-0.6,1.1-0.6,1.8c0,0.7,0.2,1.3,0.6,1.7
			c0.4,0.5,1,0.7,1.7,0.7c0.5,0,1-0.1,1.4-0.4C-101.3-48.6-101-49-100.9-49.5L-100.9-49.5z M-101.9-50.8h-2.4c0-0.4,0.2-0.7,0.4-0.9
			c0.2-0.2,0.5-0.3,0.8-0.3c0.3,0,0.6,0.1,0.8,0.3C-102.1-51.5-101.9-51.2-101.9-50.8L-101.9-50.8z M-91.1-52.7h-1v6.4h1v-2.3
			c0.3,0.5,0.9,0.7,1.5,0.7c0.6,0,1.1-0.2,1.5-0.7c0.4-0.4,0.6-1,0.6-1.8c0-0.7-0.2-1.4-0.6-1.8c-0.4-0.4-0.9-0.7-1.5-0.7
			c-0.7,0-1.2,0.3-1.5,0.8L-91.1-52.7L-91.1-52.7z M-89.8-52c0.4,0,0.7,0.1,0.9,0.4c0.2,0.3,0.3,0.7,0.3,1.2c0,0.5-0.1,0.9-0.3,1.2
			s-0.5,0.4-0.9,0.4c-0.4,0-0.7-0.1-1-0.4c-0.2-0.3-0.3-0.7-0.3-1.2c0-0.5,0.1-0.9,0.3-1.2C-90.5-51.9-90.2-52-89.8-52L-89.8-52z
			 M-82.3-52.8c-0.7,0-1.3,0.2-1.7,0.7s-0.6,1-0.6,1.8c0,0.8,0.2,1.4,0.6,1.8s1,0.7,1.7,0.7c0.7,0,1.3-0.2,1.7-0.7s0.6-1,0.6-1.8
			c0-0.7-0.2-1.3-0.6-1.8S-81.6-52.8-82.3-52.8L-82.3-52.8z M-82.4-52c0.4,0,0.7,0.1,1,0.4c0.2,0.3,0.3,0.7,0.3,1.2
			c0,0.5-0.1,0.9-0.3,1.2c-0.2,0.3-0.5,0.4-0.9,0.4c-0.4,0-0.7-0.1-1-0.4c-0.2-0.3-0.4-0.7-0.4-1.2c0-0.5,0.1-0.9,0.4-1.2
			C-83.1-51.9-82.8-52-82.4-52L-82.4-52z M-73-52.7h-1v2.5c0,0.4-0.1,0.8-0.3,1s-0.5,0.4-0.8,0.4c-0.2,0-0.3,0-0.4-0.1
			c-0.1,0-0.2-0.1-0.3-0.2c-0.1-0.1-0.1-0.2-0.1-0.3c0-0.1-0.1-0.2-0.1-0.3c0-0.1,0-0.2,0-0.4v-2.7h-1v3.1c0,0.5,0.1,1,0.4,1.3
			c0.3,0.3,0.7,0.4,1.2,0.4c0.6,0,1.1-0.3,1.5-0.8v0.7h1L-73-52.7L-73-52.7z M-65.6-49.8h-1c-0.1,0.3-0.2,0.6-0.4,0.8
			c-0.2,0.2-0.4,0.3-0.8,0.3c-0.4,0-0.7-0.1-0.9-0.4s-0.3-0.7-0.3-1.2s0.1-0.9,0.3-1.2c0.2-0.3,0.5-0.4,0.9-0.4
			c0.3,0,0.5,0.1,0.7,0.2c0.2,0.2,0.3,0.4,0.4,0.7h1c-0.1-0.5-0.3-0.9-0.6-1.3c-0.4-0.3-0.8-0.4-1.4-0.4c-0.7,0-1.3,0.2-1.7,0.7
			c-0.4,0.5-0.6,1.1-0.6,1.8c0,0.7,0.2,1.3,0.6,1.7c0.4,0.4,1,0.7,1.7,0.7c0.6,0,1.1-0.2,1.5-0.5C-65.9-48.8-65.6-49.2-65.6-49.8
			L-65.6-49.8z M-61.6-54.5h-1v6.4h1v-2.5c0-0.4,0.1-0.8,0.3-1c0.2-0.3,0.5-0.4,0.9-0.4c0.4,0,0.6,0.1,0.7,0.3
			c0.1,0.2,0.2,0.5,0.2,0.8v2.8h1v-3.2c0-0.5-0.1-0.9-0.4-1.2c-0.3-0.3-0.7-0.4-1.2-0.4c-0.6,0-1.1,0.3-1.5,0.8L-61.6-54.5
			L-61.6-54.5z M-51.2-49.5h-1c-0.1,0.3-0.2,0.5-0.4,0.6c-0.2,0.1-0.4,0.2-0.7,0.2c-0.4,0-0.7-0.1-0.9-0.4c-0.2-0.3-0.3-0.6-0.4-1.1
			h3.4v-0.1c0-0.8-0.2-1.4-0.6-1.9c-0.4-0.5-0.9-0.7-1.6-0.7c-0.7,0-1.2,0.2-1.6,0.7c-0.4,0.5-0.6,1.1-0.6,1.8
			c0,0.7,0.2,1.3,0.6,1.7c0.4,0.5,1,0.7,1.7,0.7c0.5,0,1-0.1,1.4-0.4C-51.6-48.6-51.3-49-51.2-49.5L-51.2-49.5z M-52.2-50.8h-2.4
			c0-0.4,0.2-0.7,0.4-0.9c0.2-0.2,0.5-0.3,0.8-0.3c0.3,0,0.6,0.1,0.8,0.3C-52.3-51.5-52.2-51.2-52.2-50.8L-52.2-50.8z M-44.6-51.3
			c0-0.5-0.2-0.9-0.5-1.1c-0.4-0.2-0.8-0.4-1.4-0.4c-0.6,0-1.1,0.1-1.4,0.4c-0.3,0.2-0.5,0.6-0.5,1c0,0.5,0.2,0.8,0.6,1
			c0.2,0.1,0.6,0.2,1.3,0.4c0,0,0,0,0.1,0c0,0,0,0,0,0l0.1,0c0.2,0,0.3,0.1,0.4,0.1c0.1,0,0.2,0.1,0.3,0.1c0.1,0.1,0.2,0.1,0.2,0.2
			c0,0.1,0.1,0.2,0.1,0.3c0,0.2-0.1,0.4-0.3,0.5c-0.2,0.1-0.4,0.2-0.7,0.2c-0.7,0-1.1-0.3-1.1-0.9h-1c0,0.5,0.2,0.9,0.6,1.2
			c0.4,0.3,0.9,0.4,1.5,0.4c0.6,0,1.1-0.1,1.5-0.4s0.5-0.7,0.5-1.1c0-0.2,0-0.4-0.1-0.5c-0.1-0.2-0.2-0.3-0.3-0.4
			c-0.1-0.1-0.2-0.2-0.4-0.3c-0.2-0.1-0.4-0.1-0.5-0.2c-0.1,0-0.3-0.1-0.5-0.1c-0.1,0-0.1,0-0.2-0.1c-0.1,0-0.2,0-0.2-0.1
			c0,0-0.1,0-0.2,0c-0.1,0-0.1,0-0.2-0.1c0,0-0.1,0-0.1-0.1c-0.1,0-0.1,0-0.1-0.1c0,0,0-0.1-0.1-0.1c0,0,0-0.1-0.1-0.1
			c0,0,0-0.1,0-0.1c0-0.2,0.1-0.3,0.2-0.4c0.1-0.1,0.3-0.1,0.6-0.1c0.6,0,0.9,0.2,1,0.7L-44.6-51.3L-44.6-51.3z"/>
	</g>
</g>
</svg>
