<?xml version="1.0" standalone="no"?>
<!DOCTYPE svg PUBLIC "-//W3C//DTD SVG 1.1//EN" "http://www.w3.org/Graphics/SVG/1.1/DTD/svg11.dtd" >
<svg>
<metadata>
Created by FontForge 20090622 at Thu Sep 14 05:36:27 2017
 By deploy user
Copyright &#194;&#169; 2016 by Galin Kastelov. All rights reserved.
</metadata>
<defs>
<font id="Intelo-Regular" horiz-adv-x="577" >
  <font-face 
    font-family="Intelo"
    font-weight="400"
    font-stretch="normal"
    units-per-em="1000"
    panose-1="0 0 5 0 0 0 0 0 0 0"
    ascent="760"
    descent="-240"
    x-height="500"
    cap-height="714"
    bbox="-200 -267 1204 974"
    underline-thickness="50"
    underline-position="-50"
    unicode-range="U+000D-U+25CA"
  />
<missing-glyph horiz-adv-x="130" 
 />
    <glyph glyph-name="f_f" unicode="ff" horiz-adv-x="717" 
d="M627 651q-47 0 -79 -27.5t-32 -92.5v-31h189v-65h-189v-435h-82v435h-246v-435h-82v435h-85v65h85v38q0 56 20.5 96.5t52.5 58.5t60 25.5t54 7.5q78 0 134 -47l-39 -59q-41 31 -89 31q-47 0 -79 -27.5t-32 -92.5v-31h246v38q0 56 20.5 96.5t52.5 58.5t60 25.5t54 7.5
q78 0 134 -47l-39 -59q-41 31 -89 31z" />
    <glyph glyph-name="f_f_i" unicode="ffi" horiz-adv-x="949" 
d="M438 538q0 56 20.5 96.5t52.5 58.5t60 25.5t54 7.5q78 0 134 -47l-39 -59q-41 31 -89 31q-47 0 -79 -27.5t-32 -92.5v-31h189v-65h-189v-435h-82v435h-250v-435h-82v435h-85v65h85v38q0 56 20.5 96.5t52.5 58.5t60 25.5t54 7.5q78 0 134 -47l-39 -59q-41 31 -89 31
q-47 0 -79 -27.5t-32 -92.5v-31h250v38zM833 574q-25 0 -40 15t-15 41t15 41t40 15t40 -15t15 -41t-15 -41t-40 -15zM791 0v500h83v-500h-83z" />
    <glyph glyph-name="f_f_l" unicode="ffl" horiz-adv-x="936" 
d="M439 538q0 56 20.5 96.5t52.5 58.5t60 25.5t54 7.5q78 0 134 -47l-39 -59q-41 31 -89 31q-47 0 -79 -27.5t-32 -92.5v-31h189v-65h-189v-435h-82v435h-251v-435h-82v435h-85v65h85v38q0 56 20.5 96.5t52.5 58.5t60 25.5t54 7.5q78 0 134 -47l-39 -59q-41 31 -89 31
q-47 0 -79 -27.5t-32 -92.5v-31h251v38zM780 714h81v-714h-81v714z" />
    <glyph glyph-name=".notdef" horiz-adv-x="130" 
 />
    <glyph glyph-name=".null" horiz-adv-x="0" 
 />
    <glyph glyph-name="nonmarkingreturn" horiz-adv-x="333" 
 />
    <glyph glyph-name="CR" unicode="&#xd;" horiz-adv-x="130" 
 />
    <glyph glyph-name="space" unicode=" " horiz-adv-x="220" 
 />
    <glyph glyph-name="exclam" unicode="!" horiz-adv-x="291" 
d="M96 198l-18 529h106l-19 -529h-69zM131 -5q-26 0 -41.5 16t-15.5 42t15.5 41.5t41.5 15.5t41.5 -15.5t15.5 -41.5t-15.5 -42t-41.5 -16z" />
    <glyph glyph-name="quotedbl" unicode="&#x22;" horiz-adv-x="361" 
d="M56 466l30 248h91l-59 -248h-62zM198 466l47 248h91l-76 -248h-62z" />
    <glyph glyph-name="numbersign" unicode="#" horiz-adv-x="674" 
d="M639 434h-118l-53 -158h112v-67h-134l-56 -169h-77l56 169h-155l-56 -169h-76l56 169h-104v67h126l53 158h-120v67h142l56 170h76l-56 -170h155l57 170h76l-56 -170h96v-67zM392 276l52 158h-155l-53 -158h156z" />
    <glyph glyph-name="dollar" unicode="$" horiz-adv-x="557" 
d="M522 198q0 -85 -57.5 -139t-146.5 -67v-91h-70v89q-69 4 -127 33t-91 79l57 55q65 -79 161 -89v266q-44 16 -72.5 30.5t-58.5 37t-45 55.5t-15 75q0 82 52.5 131.5t138.5 60.5v82h70v-80q98 -7 177 -66l-45 -64q-63 46 -132 54v-252q38 -13 57.5 -21t52.5 -26t50 -36.5
t30.5 -49t13.5 -67.5zM142 537q0 -43 27 -68t79 -45v224q-47 -9 -76.5 -37.5t-29.5 -73.5zM318 71q52 11 84 44t32 79q0 44 -28.5 69t-87.5 46v-238z" />
    <glyph glyph-name="percent" unicode="%" horiz-adv-x="840" 
d="M204 338q-76 0 -123.5 54t-46.5 140t48.5 140.5t122.5 54.5q74 0 120.5 -54.5t46.5 -140.5t-47 -140t-121 -54zM98 0l560 714h72l-552 -714h-80zM203 401q44 0 69 34.5t25 96.5t-24.5 96.5t-68.5 34.5q-45 0 -70 -34.5t-25 -96.5t25 -96.5t69 -34.5zM639 -13
q-76 0 -123.5 54t-46.5 140t48.5 140.5t122.5 54.5q74 0 120.5 -54.5t46.5 -140.5t-47 -140t-121 -54zM638 50q44 0 69 34.5t25 96.5t-24.5 96.5t-68.5 34.5q-45 0 -70 -34.5t-25 -96.5t25 -96.5t69 -34.5z" />
    <glyph glyph-name="ampersand" unicode="&#x26;" horiz-adv-x="645" 
d="M639 0h-97l-58 64q-93 -76 -203 -76q-108 0 -172.5 62t-64.5 157q0 133 133 201q-51 68 -51 143t53.5 125.5t127.5 50.5q69 0 115.5 -45.5t46.5 -111.5q0 -58 -55 -115l-55 49q37 39 37 77q0 34 -27 58.5t-66 24.5q-44 0 -74.5 -31t-30.5 -80q0 -62 74 -145l210 -234
q35 52 38 115h79q-7 -96 -64 -173zM278 62q85 0 156 58l-211 235q-46 -24 -73 -63.5t-27 -87.5q0 -62 43 -102t112 -40z" />
    <glyph glyph-name="quotesingle" unicode="'" horiz-adv-x="213" 
d="M56 466l30 248h91l-59 -248h-62z" />
    <glyph glyph-name="parenleft" unicode="(" horiz-adv-x="348" 
d="M304 -168q-43 15 -86.5 54t-83.5 99.5t-64.5 151t-24.5 194.5t25.5 195t65 151.5t83 99t85.5 53.5l31 -64q-94 -57 -150 -173.5t-56 -261.5q0 -146 55.5 -263t150.5 -169z" />
    <glyph glyph-name="parenright" unicode=")" horiz-adv-x="348" 
d="M44 -168l-31 67q95 52 150.5 169t55.5 263q0 145 -56 261.5t-150 173.5l31 64q42 -15 85.5 -53.5t83 -99t65 -151.5t25.5 -195t-24.5 -194.5t-64.5 -151t-83.5 -99.5t-86.5 -54z" />
    <glyph glyph-name="asterisk" unicode="*" horiz-adv-x="389" 
d="M111 437l-40 40l79 84l-108 46l27 54l99 -52v116h56v-116l98 52l24 -54l-104 -46l77 -84l-42 -40l-81 93z" />
    <glyph glyph-name="plus" unicode="+" horiz-adv-x="458" 
d="M416 337v-66h-154v-154h-66v154h-154v66h154v154h66v-154h154z" />
    <glyph glyph-name="comma" unicode="," horiz-adv-x="224" 
d="M110 102q28 0 44.5 -21t16.5 -53q0 -43 -29 -89t-80 -75l-24 36q66 46 81 97q-6 -3 -14 -3q-22 0 -36.5 15.5t-14.5 38.5t16.5 38.5t39.5 15.5z" />
    <glyph glyph-name="hyphen" unicode="-" horiz-adv-x="506" 
d="M66 337h374v-66h-374v66z" />
    <glyph glyph-name="period" unicode="." horiz-adv-x="222" 
d="M111 -5q-26 0 -41.5 16t-15.5 42t15.5 41.5t41.5 15.5t41.5 -15.5t15.5 -41.5t-15.5 -42t-41.5 -16z" />
    <glyph glyph-name="slash" unicode="/" horiz-adv-x="548" 
d="M97 0h-77l432 714h77z" />
    <glyph glyph-name="zero" unicode="0" horiz-adv-x="625" 
d="M313 -11q-127 0 -192.5 98.5t-65.5 269.5t65.5 270.5t192.5 99.5q126 0 191.5 -99.5t65.5 -270.5t-65.5 -269.5t-191.5 -98.5zM313 65q88 0 130 78t42 214q0 137 -42 215.5t-130 78.5q-89 0 -131 -78.5t-42 -215.5q0 -136 42 -214t131 -78z" />
    <glyph glyph-name="one" unicode="1" horiz-adv-x="373" 
d="M242 725q18 0 28.5 -9t10.5 -22v-694h-83v616l-149 -105l-43 60l190 136q26 18 46 18z" />
    <glyph glyph-name="two" unicode="2" horiz-adv-x="544" 
d="M166 168q-25 -40 -28 -89h352v-79h-442q0 88 11.5 136.5t47.5 95.5q42 55 146 132t111 84q41 37 41 86q0 51 -37 83.5t-93 32.5q-47 0 -90.5 -30.5t-65.5 -79.5l-71 40q29 66 88.5 106.5t141.5 40.5q102 0 158 -54t56 -136t-69 -151q-31 -31 -86 -68t-100.5 -73
t-70.5 -77z" />
    <glyph glyph-name="three" unicode="3" horiz-adv-x="572" 
d="M387 368q60 -19 95 -67.5t35 -110.5q0 -91 -70 -146t-174 -55q-97 0 -155 41t-84 97l70 44q50 -100 171 -100q66 0 111.5 36t45.5 92q0 57 -43 92t-111 35h-108v78h95q67 0 111 36.5t44 91.5q0 51 -36.5 83t-102.5 32q-102 0 -164 -96l-65 44q76 132 233 132
q104 0 162.5 -59.5t58.5 -135.5q0 -52 -31.5 -96t-87.5 -68z" />
    <glyph glyph-name="four" unicode="4" horiz-adv-x="571" 
d="M528 248v-76h-78v-172h-83v172h-316q-16 0 -26.5 15.5t-10.5 35.5q0 21 12 37l339 445q11 15 43 15q15 0 28.5 -8t13.5 -23v-441h78zM110 248h257v342z" />
    <glyph glyph-name="five" unicode="5" horiz-adv-x="547" 
d="M274 426q106 0 169.5 -61t63.5 -159q0 -102 -68 -160.5t-169 -58.5q-152 0 -224 120l64 46q63 -84 158 -84q69 0 111.5 38.5t42.5 100.5q0 63 -43.5 101.5t-113.5 38.5q-64 0 -137 -37l-53 25v321q0 57 57 57h330v-80h-307v-233q56 25 119 25z" />
    <glyph glyph-name="six" unicode="6" horiz-adv-x="582" 
d="M308 437q100 0 165 -62t65 -158q0 -93 -62 -162t-171 -69q-86 0 -144 48t-83 122.5t-25 169.5q0 108 31.5 197t99.5 146.5t162 57.5q107 0 171 -74l-59 -56q-50 47 -120 47q-88 0 -136 -73t-58 -182q76 48 164 48zM307 65q70 0 108 45.5t38 107.5q0 64 -41 102.5
t-113 38.5q-81 0 -158 -53q4 -105 43.5 -173t122.5 -68z" />
    <glyph glyph-name="seven" unicode="7" horiz-adv-x="482" 
d="M414 714q34 0 46 -27.5t-3 -58.5l-275 -628h-100l292 634h-353v80h393z" />
    <glyph glyph-name="eight" unicode="8" horiz-adv-x="608" 
d="M408 374q69 -22 110 -70t41 -114q0 -82 -69 -142.5t-186 -60.5t-186 60.5t-69 142.5q0 66 41.5 114t109.5 70q-121 53 -121 164q0 75 61.5 132t163.5 57q103 0 164 -57t61 -132q0 -111 -121 -164zM164 533q0 -50 40.5 -83.5t100.5 -33.5t99.5 33.5t39.5 83.5t-40 83.5
t-99 33.5q-60 0 -100.5 -33.5t-40.5 -83.5zM305 64q72 0 120 39t48 96q0 56 -48 94t-120 38t-121 -38t-49 -94q0 -57 48.5 -96t121.5 -39z" />
    <glyph glyph-name="nine" unicode="9" horiz-adv-x="571" 
d="M273 727q126 0 184.5 -93t58.5 -242q0 -186 -66.5 -296t-208.5 -110q-93 0 -168 54l41 71q58 -42 125 -42q164 0 184 254q-72 -47 -153 -47q-100 0 -165 62t-65 158q0 93 62 162t171 69zM125 495q0 -64 41 -102.5t112 -38.5q76 0 148 52q0 52 -7.5 92.5t-24 76
t-47.5 54.5t-76 19q-70 0 -108 -45.5t-38 -107.5z" />
    <glyph glyph-name="colon" unicode=":" horiz-adv-x="276" 
d="M123 348q-26 0 -41.5 16t-15.5 42t15.5 41.5t41.5 15.5t41.5 -15.5t15.5 -41.5t-15.5 -42t-41.5 -16zM123 -5q-26 0 -41.5 16t-15.5 42t15.5 41.5t41.5 15.5t41.5 -15.5t15.5 -41.5t-15.5 -42t-41.5 -16z" />
    <glyph glyph-name="semicolon" unicode=";" horiz-adv-x="268" 
d="M135 348q-26 0 -41.5 16t-15.5 42t15.5 41.5t41.5 15.5t41.5 -15.5t15.5 -41.5t-15.5 -42t-41.5 -16zM135 102q28 0 44.5 -21t16.5 -53q0 -43 -29 -89t-80 -75l-24 36q66 46 81 97q-6 -3 -14 -3q-22 0 -36.5 15.5t-14.5 38.5t16.5 38.5t39.5 15.5z" />
    <glyph glyph-name="less" unicode="&#x3c;" horiz-adv-x="470" 
d="M387 132l-337 180q-20 10 -20 33t20 33l337 180l26 -66l-274 -147l274 -145z" />
    <glyph glyph-name="equal" unicode="=" horiz-adv-x="512" 
d="M69 437h374v-66h-374v66zM69 237h374v-66h-374v66z" />
    <glyph glyph-name="greater" unicode="&#x3e;" horiz-adv-x="477" 
d="M87 127l-31 66l284 152l-284 152l31 66l342 -185q19 -10 19 -33t-19 -33z" />
    <glyph glyph-name="question" unicode="?" horiz-adv-x="493" 
d="M185 161q-6 23 -6 46q0 43 19.5 82.5t47.5 70l56 59.5t47.5 61t19.5 63q0 48 -34.5 76t-84.5 28q-96 0 -154 -101l-70 41q31 69 93 104.5t132 35.5q89 0 146.5 -51.5t57.5 -131.5q0 -43 -20 -81.5t-48 -68l-56 -57.5t-48 -61t-20 -68q0 -22 5 -47h-83zM226 -6
q-25 0 -39 14.5t-14 39.5q0 24 14 38.5t39 14.5t39.5 -14.5t14.5 -38.5q0 -26 -14 -40t-40 -14z" />
    <glyph glyph-name="at" unicode="@" horiz-adv-x="935" 
d="M463 -112q85 0 170 33.5t142 88.5l43 -51q-54 -58 -157.5 -99t-207.5 -41q-175 0 -291 116.5t-116 291.5q0 193 137 330.5t326 137.5q166 0 280 -105.5t114 -256.5q0 -118 -69.5 -201.5t-168.5 -83.5q-48 0 -77.5 21t-34.5 59q-64 -80 -157 -80q-66 0 -105.5 45
t-39.5 123q0 110 74.5 189.5t179.5 79.5q54 0 101 -20.5t65 -46.5l-41 -168q-16 -67 -16 -95q0 -47 59 -47q68 0 113 63.5t45 156.5q0 135 -94.5 215t-225.5 80q-158 0 -273.5 -114.5t-115.5 -278.5q0 -149 97 -245.5t244 -96.5zM568 269l33 124q-42 28 -97 28
q-73 0 -125.5 -58.5t-52.5 -141.5q0 -52 23 -79.5t64 -27.5q51 0 93.5 41.5t61.5 113.5z" />
    <glyph glyph-name="A" unicode="A" horiz-adv-x="674" 
d="M566 0l-83 233h-292l-83 -233h-97l245 658q12 32 30.5 45t50.5 13q33 0 51 -13.5t30 -45.5l245 -657h-97zM219 311h236l-118 329z" />
    <glyph glyph-name="B" unicode="B" horiz-adv-x="655" 
d="M93 0v672q0 21 13.5 31.5t31.5 10.5h220q93 0 152 -49t59 -134q0 -49 -23.5 -87t-63.5 -55v-1q57 -12 92.5 -62.5t35.5 -119.5q0 -92 -58 -149t-150 -57h-309zM180 419h187q50 0 81.5 29t31.5 75q0 52 -34.5 82t-95.5 30h-170v-216zM180 79h193q65 0 105.5 35t40.5 92
q0 65 -39.5 100t-112.5 35h-187v-262z" />
    <glyph glyph-name="C" unicode="C" horiz-adv-x="707" 
d="M384 -11q-65 0 -124 22.5t-106 66t-75 115.5t-28 162q0 171 94 271.5t250 100.5q88 0 160 -39t112 -112l-69 -45q-36 59 -90.5 88t-114.5 29q-114 0 -182.5 -74.5t-68.5 -214.5t72 -213.5t175 -73.5q138 0 237 112l56 -55q-54 -65 -133 -102.5t-165 -37.5z" />
    <glyph glyph-name="D" unicode="D" horiz-adv-x="721" 
d="M93 0v672q0 21 13.5 31.5t31.5 10.5h194q148 0 244 -101.5t96 -252.5q0 -157 -95 -258.5t-242 -101.5h-242zM180 79h149q107 0 180.5 75.5t73.5 205.5q0 123 -74 199t-180 76h-149v-556z" />
    <glyph glyph-name="E" unicode="E" horiz-adv-x="581" 
d="M529 635h-349v-228h316v-79h-316v-249h340v-79h-427v672q0 21 13.5 31.5t31.5 10.5h391v-79z" />
    <glyph glyph-name="F" unicode="F" horiz-adv-x="547" 
d="M519 635h-339v-228h293v-79h-293v-328h-87v672q0 21 13.5 31.5t31.5 10.5h381v-79z" />
    <glyph glyph-name="G" unicode="G" horiz-adv-x="753" 
d="M383 -11q-151 0 -242 100t-91 263q0 169 97 272t254 103q104 0 176.5 -44.5t101.5 -110.5l-77 -35q-24 51 -77.5 80t-126.5 29q-117 0 -187 -76.5t-70 -214.5q0 -134 66.5 -209t175.5 -75q97 0 166.5 58.5t72.5 168.5h-222v79h310v-67q0 -153 -94.5 -237t-232.5 -84z" />
    <glyph glyph-name="H" unicode="H" horiz-adv-x="733" 
d="M93 0v714h87v-304h373v304h87v-714h-87v329h-373v-329h-87z" />
    <glyph glyph-name="I" unicode="I" horiz-adv-x="273" 
d="M93 0v714h87v-714h-87z" />
    <glyph glyph-name="J" unicode="J" horiz-adv-x="490" 
d="M197 -11q-124 0 -183 103l64 48q48 -69 117 -69q59 0 90 40.5t31 114.5v488h87v-509q0 -98 -55 -157t-151 -59z" />
    <glyph glyph-name="K" unicode="K" horiz-adv-x="585" 
d="M591 0h-113l-298 327v-327h-87v714h87v-349l293 349h102l-306 -361z" />
    <glyph glyph-name="L" unicode="L" horiz-adv-x="550" 
d="M133 0q-17 0 -29 12t-12 29v673h87v-635h349v-79h-395z" />
    <glyph glyph-name="M" unicode="M" horiz-adv-x="892" 
d="M750 719q22 0 35.5 -10.5t13.5 -27.5v-681h-87v562l-228 -433h-75l-231 433v-562h-85v681q0 17 14.5 27.5t36.5 10.5q19 0 31 -6.5t17.5 -13.5t14.5 -25l240 -453l241 453q10 18 14.5 25t16.5 13.5t31 6.5z" />
    <glyph glyph-name="N" unicode="N" horiz-adv-x="768" 
d="M592 714h82v-686q0 -15 -13.5 -24.5t-32.5 -9.5q-38 0 -58 29l-395 555v-578h-82v681q0 17 13.5 27.5t35.5 10.5q18 0 31 -5.5t19 -12t16 -20.5l384 -533v566z" />
    <glyph glyph-name="O" unicode="O" horiz-adv-x="776" 
d="M389 -11q-152 0 -245.5 101.5t-93.5 266.5q0 166 93.5 268t245.5 102q151 0 244 -102t93 -268q0 -165 -93 -266.5t-244 -101.5zM389 71q109 0 177.5 75.5t68.5 210.5q0 136 -68.5 212t-177.5 76q-110 0 -179 -76t-69 -212q0 -135 69 -210.5t179 -75.5z" />
    <glyph glyph-name="P" unicode="P" horiz-adv-x="595" 
d="M328 714q112 0 172.5 -63.5t60.5 -160.5q0 -108 -62 -167t-179 -59h-140v-264h-87v673q0 17 12 29t29 12h194zM322 343q148 0 148 149q0 68 -38.5 105.5t-111.5 37.5h-140v-292h142z" />
    <glyph glyph-name="Q" unicode="Q" horiz-adv-x="776" 
d="M595 -73q37 0 83 12l8 -79q-45 -12 -92 -12q-152 0 -249 143q-134 15 -214.5 114t-80.5 252q0 166 93.5 268t245.5 102q151 0 244 -102t93 -268q0 -147 -74.5 -245t-200.5 -118q52 -67 144 -67zM141 357q0 -135 69 -210.5t179 -75.5q109 0 177.5 75.5t68.5 210.5
q0 136 -68.5 212t-177.5 76q-110 0 -179 -76t-69 -212z" />
    <glyph glyph-name="R" unicode="R" horiz-adv-x="613" 
d="M457 0l-178 294h-99v-294h-87v673q0 17 12 29t29 12h195q110 0 168.5 -58.5t58.5 -153.5q0 -83 -46.5 -135.5t-131.5 -67.5l192 -299h-113zM180 635v-265h127q77 0 117.5 35t40.5 100q0 61 -40 95.5t-114 34.5h-131z" />
    <glyph glyph-name="S" unicode="S" horiz-adv-x="565" 
d="M274 -11q-75 0 -139.5 30t-100.5 83l57 55q75 -90 186 -90q70 0 115.5 35.5t45.5 91.5q0 13 -2 24.5t-9 22l-12 17.5t-18.5 15t-20 12.5t-26 12.5t-26.5 10.5l-31 11l-32 11.5q-46 16 -75 30t-61.5 37.5t-48 56.5t-15.5 77q0 93 67 144t169 51q112 0 202 -67l-45 -64
q-78 56 -160 56q-63 0 -105.5 -30t-42.5 -85q0 -27 10.5 -47.5t35.5 -36t44.5 -23.5t58.5 -22q11 -4 17 -6q100 -36 137 -61q77 -52 77 -143q0 -96 -73.5 -152.5t-178.5 -56.5z" />
    <glyph glyph-name="T" unicode="T" horiz-adv-x="570" 
d="M549 714v-79h-220v-635h-87v635h-221v79h528z" />
    <glyph glyph-name="U" unicode="U" horiz-adv-x="687" 
d="M343 -11q-124 0 -190.5 66t-66.5 179v480h87v-476q0 -167 170 -167q171 0 171 167v476h87v-480q0 -113 -67 -179t-191 -66z" />
    <glyph glyph-name="V" unicode="V" horiz-adv-x="640" 
d="M519 714h101l-216 -669q-18 -56 -84 -56t-84 56l-216 669l104 1l198 -634z" />
    <glyph glyph-name="W" unicode="W" horiz-adv-x="948" 
d="M831 714h93l-175 -681q-11 -44 -72 -44q-59 0 -71 44l-132 453l-133 -452q-13 -45 -72 -45q-61 0 -72 44l-171 681h97l150 -629l163 549h77l165 -551z" />
    <glyph glyph-name="X" unicode="X" horiz-adv-x="598" 
d="M591 0h-101l-194 301l-186 -301h-100l234 367l-220 347h100l177 -284l171 284h101l-221 -352z" />
    <glyph glyph-name="Y" unicode="Y" horiz-adv-x="619" 
d="M602 714l-249 -441v-273h-87v273l-248 441h103l190 -353l191 353h100z" />
    <glyph glyph-name="Z" unicode="Z" horiz-adv-x="572" 
d="M60 0q-22 0 -31 28.5t5 51.5l392 553h-367v81h429q26 0 37 -29.5t-5 -56.5l-390 -547h403v-81h-473z" />
    <glyph glyph-name="bracketleft" unicode="[" horiz-adv-x="359" 
d="M88 -179v998h249v-76h-164v-845h164v-77h-249z" />
    <glyph glyph-name="backslash" unicode="\" horiz-adv-x="568" 
d="M451 0l-432 714h77l432 -714h-77z" />
    <glyph glyph-name="bracketright" unicode="]" horiz-adv-x="359" 
d="M22 -179v77h164v845h-164v76h249v-998h-249z" />
    <glyph glyph-name="asciicircum" unicode="^" horiz-adv-x="538" 
d="M99 346l-67 34l204 338q11 19 33 19t33 -19l204 -338l-67 -34l-170 283z" />
    <glyph glyph-name="underscore" unicode="_" horiz-adv-x="466" 
d="M0 -121v64h466v-64h-466z" />
    <glyph glyph-name="grave" unicode="`" horiz-adv-x="449" 
d="M332 591l-34 -42l-181 134l49 64z" />
    <glyph glyph-name="a" unicode="a" horiz-adv-x="535" 
d="M257 513q98 0 153.5 -54t55.5 -154v-305h-77v85q-56 -98 -178 -98q-76 0 -124 43t-48 111q0 58 34.5 96t87 52.5t121.5 14.5q53 0 107 -8v15q0 129 -132 129q-84 0 -158 -63l-44 57q78 79 202 79zM224 52q79 0 120 52t45 134q-58 8 -98 8q-168 0 -168 -105
q0 -40 28 -64.5t73 -24.5z" />
    <glyph glyph-name="b" unicode="b" horiz-adv-x="572" 
d="M319 513q96 0 152.5 -69t56.5 -186q0 -121 -69.5 -196t-193.5 -75q-109 0 -193 61v666h84v-266q74 65 163 65zM264 60q84 0 132 54t48 153q0 84 -36 128.5t-106 44.5q-83 0 -146 -65v-289q47 -26 108 -26z" />
    <glyph glyph-name="c" unicode="c" horiz-adv-x="526" 
d="M284 -13q-109 0 -174.5 73t-65.5 190q0 118 65.5 190.5t177.5 72.5q146 0 205 -113l-67 -41q-43 82 -138 82q-70 0 -115 -49t-45 -142q0 -94 44 -142t113 -48q90 0 151 91l62 -43q-26 -49 -80 -85t-133 -36z" />
    <glyph glyph-name="d" unicode="d" 
d="M420 714h82v-714h-82v56q-71 -69 -165 -69t-152 70t-58 184q0 124 64.5 198t167.5 74q83 0 143 -51v252zM269 60q85 0 151 74v246q-58 60 -140 60q-71 0 -111.5 -49.5t-40.5 -146.5q0 -88 38 -136t103 -48z" />
    <glyph glyph-name="e" unicode="e" horiz-adv-x="536" 
d="M283 62q89 0 158 64l44 -58q-88 -79 -206 -79q-100 0 -167.5 66.5t-67.5 186.5q0 115 67 193t189 78q78 0 136.5 -45t58.5 -127q0 -58 -35 -92t-97 -34h-235q8 -71 47.5 -112t107.5 -41zM295 448q-69 0 -115 -46t-53 -124h226q29 0 47 17.5t18 52.5q0 41 -33.5 70.5
t-89.5 29.5z" />
    <glyph glyph-name="f" unicode="f" horiz-adv-x="389" 
d="M299 651q-47 0 -79 -27.5t-32 -92.5v-31h189v-65h-189v-435h-82v435h-85v65h85v38q0 56 20.5 96.5t52.5 58.5t60 25.5t54 7.5q78 0 134 -47l-39 -59q-41 31 -89 31z" />
    <glyph glyph-name="g" unicode="g" horiz-adv-x="527" 
d="M505 491q-19 -22 -70 -50q33 -41 33 -98q0 -76 -56.5 -120t-150.5 -44q-46 0 -80 10q-35 -17 -35 -44q0 -25 28.5 -36.5t85.5 -18.5q122 -15 153 -27q44 -17 65 -44t21 -70q0 -72 -62.5 -111.5t-180.5 -39.5q-108 0 -167.5 37t-59.5 102q0 75 78 119q-38 27 -38 75
q0 51 54 84q-64 42 -64 125q0 76 56 122t148 46q64 0 113 -22q54 23 89 61zM261 242q60 0 95 26.5t35 75.5q0 48 -35 74.5t-94 26.5t-93 -28t-34 -77q0 -98 126 -98zM307 10q-114 15 -138 21q-59 -29 -59 -82q0 -84 147 -84q160 0 160 79q0 30 -24.5 44t-85.5 22z" />
    <glyph glyph-name="h" unicode="h" 
d="M351 513q75 0 115 -40.5t40 -115.5v-357h-83v338q0 55 -20 77.5t-62 22.5q-84 0 -182 -74v-364h-84v714h84v-281q96 80 192 80z" />
    <glyph glyph-name="i" unicode="i" horiz-adv-x="232" 
d="M116 574q-25 0 -40 15t-15 41t15 41t40 15t40 -15t15 -41t-15 -41t-40 -15zM74 0v500h83v-500h-83z" />
    <glyph glyph-name="j" unicode="j" horiz-adv-x="240" 
d="M124 574q-25 0 -40 15t-15 41t15 41t40 15t40 -15t15 -41t-15 -41t-40 -15zM26 -195q-38 0 -73 15l18 68q29 -9 48 -9q63 0 63 78v543h83v-544q0 -76 -36.5 -113.5t-102.5 -37.5z" />
    <glyph glyph-name="k" unicode="k" horiz-adv-x="481" 
d="M483 0h-104l-222 255v-255h-83v714h83v-423l215 209h96l-231 -226z" />
    <glyph glyph-name="l" unicode="l" horiz-adv-x="230" 
d="M74 0v714h81v-714h-81z" />
    <glyph glyph-name="m" unicode="m" horiz-adv-x="913" 
d="M688 513q75 0 114.5 -40t39.5 -116v-357h-83v338q0 53 -19 76.5t-62 23.5q-48 0 -88.5 -18.5t-89.5 -62.5v-357h-83v338q0 53 -19 76.5t-62 23.5q-42 0 -81.5 -19t-95.5 -67v-352h-84v500h82v-81q100 94 189 94q113 0 144 -89q95 89 198 89z" />
    <glyph glyph-name="n" unicode="n" 
d="M351 513q75 0 115 -40.5t40 -115.5v-357h-83v338q0 55 -20 77.5t-62 22.5q-84 0 -182 -74v-364h-84v500h82v-68q97 81 194 81z" />
    <glyph glyph-name="o" unicode="o" horiz-adv-x="566" 
d="M283 -13q-109 0 -174.5 72t-64.5 191t66.5 191t172.5 72q109 0 174 -72t65 -191t-65 -191t-174 -72zM283 60q77 0 116.5 48.5t39.5 141.5t-39.5 141.5t-116.5 48.5q-76 0 -116 -49t-40 -141q0 -93 39.5 -141.5t116.5 -48.5z" />
    <glyph glyph-name="p" unicode="p" 
d="M320 513q97 0 154.5 -70.5t57.5 -184.5q0 -120 -63.5 -195.5t-167.5 -75.5q-78 0 -144 44v-217h-82v686h82v-55q70 68 163 68zM295 60q72 0 113 51.5t41 145.5q0 89 -37 136t-103 47q-87 0 -152 -73v-262q67 -45 138 -45z" />
    <glyph glyph-name="q" unicode="q" horiz-adv-x="572" 
d="M313 513q104 0 187 -60v-639h-84v238q-74 -65 -163 -65q-96 0 -152.5 69t-56.5 186q0 120 73 195.5t196 75.5zM270 60q83 0 146 65v289q-47 26 -104 26q-85 0 -134.5 -54.5t-49.5 -152.5q0 -84 36 -128.5t106 -44.5z" />
    <glyph glyph-name="r" unicode="r" horiz-adv-x="383" 
d="M315 513q33 0 61 -12l-13 -71q-35 7 -53 7q-82 0 -153 -75v-362h-82v500h80v-66q29 38 72 58.5t88 20.5z" />
    <glyph glyph-name="s" unicode="s" horiz-adv-x="460" 
d="M224 -11q-57 0 -109.5 20t-86.5 59l40 53q69 -64 157 -64q47 0 82 19.5t35 57.5q0 12 -3.5 22.5t-12.5 18.5t-16.5 13.5t-22.5 11.5t-23 8.5t-27 8t-25 7.5q-74 23 -114.5 54.5t-40.5 91.5q0 69 52.5 106t131.5 37q97 0 169 -54l-39 -55q-62 43 -130 43q-46 0 -76 -19.5
t-30 -52.5q0 -18 8.5 -31.5t26.5 -23t33 -15t39 -12.5q5 -1 7 -2q86 -26 129.5 -57t43.5 -94q0 -72 -57.5 -111.5t-140.5 -39.5z" />
    <glyph glyph-name="t" unicode="t" horiz-adv-x="397" 
d="M358 96l33 -63q-61 -44 -134 -44q-77 0 -114 46t-37 126v274h-88v65h88v155h81v-155h178v-65h-178v-278q0 -47 24 -69t57 -22q43 0 90 30z" />
    <glyph glyph-name="u" unicode="u" 
d="M420 500h82v-501h-81v83q-101 -95 -195 -95q-74 0 -114.5 40t-40.5 115v358h82v-341q0 -50 20 -73.5t63 -23.5q77 0 184 88v350z" />
    <glyph glyph-name="v" unicode="v" horiz-adv-x="521" 
d="M418 500h88l-184 -467q-16 -39 -61 -39t-61 39l-186 467h93l155 -428z" />
    <glyph glyph-name="w" unicode="w" horiz-adv-x="747" 
d="M637 500h90l-133 -467q-16 -39 -57 -39q-23 0 -36 8.5t-22 30.5l-105 383l-106 -383q-16 -39 -57 -39q-23 0 -36.5 8.5t-22.5 30.5l-131 467h91l100 -409l116 409h93l117 -409z" />
    <glyph glyph-name="x" unicode="x" horiz-adv-x="501" 
d="M489 0h-102l-141 199l-137 -199h-97l186 257l-177 243h103l129 -190l133 190h95l-180 -245z" />
    <glyph glyph-name="y" unicode="y" horiz-adv-x="508" 
d="M405 500h91l-230 -576q-50 -124 -157 -124q-66 0 -104 43l35 54q35 -26 67 -26q31 0 53 20.5t40 67.5l21 55l-206 486h85l161 -392z" />
    <glyph glyph-name="z" unicode="z" horiz-adv-x="475" 
d="M66 0q-27 0 -34.5 28t7.5 44l293 359h-278v69h348q16 0 25 -12.5t7.5 -30t-11.5 -29.5l-294 -359h307v-69h-370z" />
    <glyph glyph-name="braceleft" unicode="{" horiz-adv-x="334" 
d="M309 -176q-193 3 -193 238v91q0 79 -20.5 106t-77.5 39v66q58 12 78 39t20 106v91q0 223 193 238v-74q-59 -4 -85 -50t-26 -116v-110q0 -129 -90 -155q90 -24 90 -157v-112q0 -159 111 -166v-74z" />
    <glyph glyph-name="bar" unicode="|" horiz-adv-x="251" 
d="M164 -114h-77v965h77v-965z" />
    <glyph glyph-name="braceright" unicode="}" horiz-adv-x="334" 
d="M25 -176v74q111 7 111 166v112q0 133 90 157q-90 26 -90 155v110q0 70 -26 116t-85 50v74q193 -15 193 -238v-91q0 -79 20 -106t78 -39v-66q-57 -12 -77.5 -39t-20.5 -106v-91q0 -235 -193 -238z" />
    <glyph glyph-name="asciitilde" unicode="~" horiz-adv-x="601" 
d="M401 229q-37 0 -73 22t-68 44t-59 22q-29 0 -49 -21t-25 -53l-58 17q7 57 46.5 89.5t88.5 32.5q37 0 73 -22t67.5 -44t58.5 -22q61 0 70 76l59 -12q-5 -62 -43.5 -95.5t-87.5 -33.5z" />
    <glyph glyph-name="exclamdown" unicode="&#xa1;" horiz-adv-x="279" 
d="M125 516q26 0 41.5 -16t15.5 -42t-15.5 -41.5t-41.5 -15.5t-41.5 15.5t-15.5 41.5t15.5 42t41.5 16zM90 313h69l19 -529h-106z" />
    <glyph glyph-name="cent" unicode="&#xa2;" horiz-adv-x="534" 
d="M500 108q-23 -43 -68.5 -77t-111.5 -42v-91h-72v92q-93 13 -147 83.5t-54 176.5t53.5 176.5t147.5 83.5v91h72v-89q124 -13 175 -112l-67 -41q-36 67 -108 80v-376q69 13 118 88zM130 250q0 -80 32.5 -126.5t85.5 -59.5v372q-54 -13 -86 -60.5t-32 -125.5z" />
    <glyph glyph-name="sterling" unicode="&#xa3;" horiz-adv-x="563" 
d="M188 220q0 -90 -38 -149h363v-71h-440l-22 58q28 32 41.5 64t14 45t0.5 49v132h-57v67h57v30q0 136 67.5 209t176.5 73q116 0 179 -90l-56 -49q-51 66 -122 66q-81 0 -122.5 -57.5t-41.5 -151.5v-30h253v-67h-253v-128z" />
    <glyph glyph-name="currency" unicode="&#xa4;" horiz-adv-x="579" 
d="M473 310q0 -63 -28 -108l85 -86l-44 -43l-85 85q-45 -31 -111 -31q-65 0 -112 30l-84 -84l-44 43l84 86q-29 45 -28 108q0 60 28 105l-84 85l46 43l82 -82q47 31 113 31t111 -31l82 82l46 -43l-84 -85q27 -43 27 -105zM289 190q114 0 114 120q0 118 -113 118t-113 -119
t112 -119z" />
    <glyph glyph-name="yen" unicode="&#xa5;" horiz-adv-x="633" 
d="M608 714l-213 -377h124v-67h-160v-73h160v-67h-160v-130h-87v130h-156v67h156v73h-156v67h120l-212 377h103l190 -353l191 353h100z" />
    <glyph glyph-name="brokenbar" unicode="&#xa6;" horiz-adv-x="251" 
d="M87 463v388h77v-388h-77zM164 274v-388h-77v388h77z" />
    <glyph glyph-name="section" unicode="&#xa7;" horiz-adv-x="592" 
d="M553 198q0 -85 -62 -144q32 -42 32 -101q0 -96 -73.5 -152.5t-178.5 -56.5q-75 0 -139.5 30t-100.5 83l57 55q75 -90 186 -90q70 0 115.5 35.5t45.5 91.5q0 13 -2 24.5t-9 22l-12 17.5t-18.5 15t-20 12.5t-26 12.5t-26.5 10.5l-31 11l-32 11.5q-46 16 -75 30t-61.5 37.5
t-48 56.5t-15.5 77q0 89 63 141q-33 45 -33 104q0 93 67 144t169 51q112 0 202 -67l-45 -64q-78 56 -160 56q-63 0 -105.5 -30t-42.5 -85q0 -27 10.5 -47.5t35.5 -36t44.5 -23.5t58.5 -22q11 -4 17 -6q100 -36 137 -61q77 -52 77 -143zM143 292q0 -27 10.5 -47.5t35.5 -36
t44.5 -23.5t58.5 -22q11 -4 17 -6q82 -28 117 -48q39 33 39 85q0 13 -2 24.5t-9 22l-12 17.5t-18.5 15t-20 12.5t-26 12.5t-26.5 10.5l-31 11l-32 11.5q-70 25 -104 45q-41 -31 -41 -84z" />
    <glyph glyph-name="dieresis" unicode="&#xa8;" horiz-adv-x="469" 
d="M140 571q-25 0 -39 14.5t-14 39.5t14 39.5t39 14.5t39 -14.5t14 -39.5t-14 -39.5t-39 -14.5zM330 571q-25 0 -39 14.5t-14 39.5t14 39.5t39 14.5t39 -14.5t14 -39.5t-14 -39.5t-39 -14.5z" />
    <glyph glyph-name="copyright" unicode="&#xa9;" horiz-adv-x="834" 
d="M417 -16q-157 0 -263.5 106t-106.5 264t106 264t264 106t264 -106t106 -264t-106.5 -264t-263.5 -106zM417 41q134 0 223.5 89.5t89.5 223.5t-89.5 224t-223.5 90t-223.5 -90t-89.5 -224t89.5 -223.5t223.5 -89.5zM417 169q-80 0 -129.5 56t-49.5 138t50.5 138t131.5 56
q116 0 158 -97l-55 -27q-36 62 -103 62q-53 0 -83.5 -37.5t-30.5 -94.5t30 -94.5t81 -37.5q65 0 116 64l46 -41q-20 -36 -63.5 -60.5t-98.5 -24.5z" />
    <glyph glyph-name="ordfeminine" unicode="&#xaa;" horiz-adv-x="414" 
d="M203 713q68 0 106.5 -37t38.5 -107v-212h-61v50q-38 -59 -119 -59q-53 0 -86 29.5t-33 77.5q0 59 47 86t122 27q32 0 69 -5v10q0 84 -96 84q-52 0 -101 -37l-30 43q57 50 143 50zM181 400q52 0 77.5 33.5t26.5 87.5q-30 3 -62 3q-105 0 -105 -68q0 -25 17.5 -40.5
t45.5 -15.5z" />
    <glyph glyph-name="guillemotleft" unicode="&#xab;" horiz-adv-x="525" 
d="M229 101l-183 179q-6 5 -6 15.5t6 16.5l183 179l44 -46l-152 -149l152 -149zM413 101l-183 179q-6 5 -6 15.5t6 16.5l183 179l44 -46l-152 -149l152 -149z" />
    <glyph glyph-name="logicalnot" unicode="&#xac;" horiz-adv-x="485" 
d="M42 270v66h401v-175h-63v109h-338z" />
    <glyph glyph-name="uni00AD" unicode="&#xad;" horiz-adv-x="506" 
d="M66 337h374v-66h-374v66z" />
    <glyph glyph-name="registered" unicode="&#xae;" horiz-adv-x="564" 
d="M282 745q102 0 170.5 -68t68.5 -170t-69 -170.5t-170 -68.5t-170 68.5t-69 170.5t68.5 170t170.5 68zM282 311q84 0 140 56t56 140q0 83 -56 139.5t-140 56.5t-140 -56.5t-56 -139.5q0 -84 56 -140t140 -56zM380 563q0 -32 -20.5 -53t-55.5 -26l85 -110h-50l-78 109h-24
v-109h-42v248q0 9 6 15t16 6h68q44 0 69.5 -21.5t25.5 -58.5zM237 603v-80h46q52 0 52 40t-51 40h-47z" />
    <glyph glyph-name="macron" unicode="&#xaf;" horiz-adv-x="429" 
d="M71 644h287v-66h-287v66z" />
    <glyph glyph-name="degree" unicode="&#xb0;" horiz-adv-x="337" 
d="M169 508q-54 0 -91 36t-37 89q0 52 37 88t91 36q53 0 90 -36t37 -88t-37 -88.5t-90 -36.5zM169 560q30 0 51 21t21 52q0 30 -21 51t-51 21q-31 0 -52 -21t-21 -51q0 -31 21 -52t52 -21z" />
    <glyph glyph-name="plusminus" unicode="&#xb1;" horiz-adv-x="458" 
d="M262 437h154v-66h-154v-154h-66v154h-154v66h154v154h66v-154zM42 116v66h374v-66h-374z" />
    <glyph glyph-name="uni00B2" unicode="&#xb2;" horiz-adv-x="323" 
d="M122 602q-16 -23 -17 -49h176v-54h-242q-3 89 37 140q19 24 66 59t56 43q22 20 22 40q0 21 -16.5 35.5t-41.5 14.5q-22 0 -44 -15.5t-34 -39.5l-48 28q17 36 50 58.5t77 22.5q55 0 87.5 -29t32.5 -75q0 -40 -36 -74q-16 -15 -62.5 -48.5t-62.5 -56.5z" />
    <glyph glyph-name="uni00B3" unicode="&#xb3;" horiz-adv-x="332" 
d="M227 696q30 -10 47.5 -35.5t17.5 -57.5q0 -51 -39 -80.5t-95 -29.5q-49 0 -81.5 20.5t-47.5 50.5l45 32q26 -47 84 -47q32 0 52.5 17t20.5 42q0 26 -20 41.5t-52 15.5h-56v52h47q33 0 53.5 17t20.5 42q0 23 -16.5 38.5t-46.5 15.5q-48 0 -78 -45l-44 29q40 71 126 71
q54 0 87 -30.5t33 -73.5q0 -58 -58 -85z" />
    <glyph glyph-name="acute" unicode="&#xb4;" horiz-adv-x="495" 
d="M140 591l166 156l49 -64l-181 -134z" />
    <glyph glyph-name="paragraph" unicode="&#xb6;" horiz-adv-x="560" 
d="M249 714h219v-655q0 -114 -50 -180.5t-178 -66.5q-25 0 -55 3l3 86q25 -3 46 -3q82 0 117 44.5t35 144.5v548h-61v-367h-76q-108 0 -164 65.5t-56 158.5q0 92 55.5 157t164.5 65z" />
    <glyph glyph-name="periodcentered" unicode="&#xb7;" horiz-adv-x="274" 
d="M122 193q-26 0 -41.5 16t-15.5 42t15.5 41.5t41.5 15.5t41.5 -15.5t15.5 -41.5t-15.5 -42t-41.5 -16z" />
    <glyph glyph-name="cedilla" unicode="&#xb8;" horiz-adv-x="305" 
d="M143 -238q-59 0 -102 27l21 55q38 -22 76 -22q27 0 43.5 11t16.5 28q0 37 -83 41l8 55q141 -1 141 -100q0 -39 -33.5 -67t-87.5 -28z" />
    <glyph glyph-name="uni00B9" unicode="&#xb9;" horiz-adv-x="288" 
d="M188 553h78v-54h-215v54h77v251l-72 -50l-32 41l119 86h18q12 0 19.5 -8t7.5 -19v-301z" />
    <glyph glyph-name="ordmasculine" unicode="&#xba;" horiz-adv-x="430" 
d="M215 348q-78 0 -124.5 50t-45.5 132q1 83 47 133t123 50q79 0 124.5 -50t45.5 -133t-45.5 -132.5t-124.5 -49.5zM215 405q107 0 107 125t-107 125q-106 0 -106 -125q-2 -125 106 -125z" />
    <glyph glyph-name="guillemotright" unicode="&#xbb;" horiz-adv-x="525" 
d="M112 101l-44 46l152 149l-152 149l44 46l183 -179q6 -6 6 -16.5t-6 -15.5zM296 101l-44 46l152 149l-152 149l44 46l183 -179q6 -6 6 -16.5t-6 -15.5z" />
    <glyph glyph-name="questiondown" unicode="&#xbf;" horiz-adv-x="487" 
d="M264 515q25 0 39 -14.5t14 -39.5q0 -24 -14 -38.5t-39 -14.5t-39.5 14.5t-14.5 38.5q0 25 14 39.5t40 14.5zM305 348q6 -23 6 -46q0 -43 -19.5 -82.5t-47.5 -70l-56 -59.5t-47.5 -61t-19.5 -63q0 -48 34.5 -76t84.5 -28q96 0 154 101l70 -41q-31 -69 -93 -104.5
t-132 -35.5q-89 0 -146.5 51.5t-57.5 131.5q0 43 20 81.5t48 68l56 57.5t48 61t20 68q0 22 -5 47h83z" />
    <glyph glyph-name="Agrave" unicode="&#xc0;" horiz-adv-x="674" 
d="M443 798l-34 -42l-181 134l49 64zM566 0l-83 233h-292l-83 -233h-97l245 658q12 32 30.5 45t50.5 13q33 0 51 -13.5t30 -45.5l245 -657h-97zM219 311h236l-118 329z" />
    <glyph glyph-name="Aacute" unicode="&#xc1;" horiz-adv-x="674" 
d="M462 889l-181 -134l-34 42l166 156zM566 0l-83 233h-292l-83 -233h-97l245 658q12 32 30.5 45t50.5 13q33 0 51 -13.5t30 -45.5l245 -657h-97zM219 311h236l-118 329z" />
    <glyph glyph-name="Acircumflex" unicode="&#xc2;" horiz-adv-x="674" 
d="M338 849l-108 -99l-45 43l109 102q22 22 44 22q21 0 44 -22l109 -102l-44 -43zM566 0l-83 233h-292l-83 -233h-97l245 658q12 32 30.5 45t50.5 13q33 0 51 -13.5t30 -45.5l245 -657h-97zM219 311h236l-118 329z" />
    <glyph glyph-name="Atilde" unicode="&#xc3;" horiz-adv-x="674" 
d="M275 820q-37 0 -55 -58l-59 19q24 101 111 101q28 0 52 -15t43 -30.5t38 -15.5q35 0 49 58l62 -15q-7 -49 -39 -77t-69 -28q-28 0 -52.5 15.5t-44.5 30.5t-36 15zM566 0l-83 233h-292l-83 -233h-97l245 658q12 32 30.5 45t50.5 13q33 0 51 -13.5t30 -45.5l245 -657h-97z
M219 311h236l-118 329z" />
    <glyph glyph-name="Adieresis" unicode="&#xc4;" horiz-adv-x="674" 
d="M247 767q-25 0 -39 14.5t-14 39.5t14 39.5t39 14.5t39 -14.5t14 -39.5t-14 -39.5t-39 -14.5zM437 767q-25 0 -39 14.5t-14 39.5t14 39.5t39 14.5t39 -14.5t14 -39.5t-14 -39.5t-39 -14.5zM566 0l-83 233h-292l-83 -233h-97l245 658q12 32 30.5 45t50.5 13q33 0 51 -13.5
t30 -45.5l245 -657h-97zM219 311h236l-118 329z" />
    <glyph glyph-name="Aring" unicode="&#xc5;" horiz-adv-x="674" 
d="M337 744q-41 0 -68.5 27t-27.5 67q0 39 28 66t68 27t67.5 -27t27.5 -66q0 -40 -27.5 -67t-67.5 -27zM337 884q-20 0 -33.5 -13t-13.5 -33t13.5 -33.5t33.5 -13.5t33 13.5t13 33.5t-13.5 33t-32.5 13zM566 0l-83 233h-292l-83 -233h-97l245 658q12 32 30.5 45t50.5 13
q33 0 51 -13.5t30 -45.5l245 -657h-97zM219 311h236l-118 329z" />
    <glyph glyph-name="AE" unicode="&#xc6;" horiz-adv-x="921" 
d="M870 635h-351v-228h313v-79h-313v-249h343v-79h-430v233h-210l-119 -233h-105l350 650q21 38 49.5 51t79.5 13h393v-79zM261 311h171v324h-6z" />
    <glyph glyph-name="Ccedilla" unicode="&#xc7;" horiz-adv-x="707" 
d="M384 -11q-65 0 -124 22.5t-106 66t-75 115.5t-28 162q0 171 94 271.5t250 100.5q88 0 160 -39t112 -112l-69 -45q-36 59 -90.5 88t-114.5 29q-114 0 -182.5 -74.5t-68.5 -214.5t72 -213.5t175 -73.5q138 0 237 112l56 -55q-54 -65 -133 -102.5t-165 -37.5zM378 -235
q-59 0 -102 27l21 55q38 -22 76 -22q27 0 43.5 11t16.5 28q0 37 -83 41l8 55q141 -1 141 -100q0 -39 -33.5 -67t-87.5 -28z" />
    <glyph glyph-name="Egrave" unicode="&#xc8;" horiz-adv-x="581" 
d="M422 798l-34 -42l-181 134l49 64zM529 635h-349v-228h316v-79h-316v-249h340v-79h-427v672q0 21 13.5 31.5t31.5 10.5h391v-79z" />
    <glyph glyph-name="Eacute" unicode="&#xc9;" horiz-adv-x="581" 
d="M441 889l-181 -134l-34 42l166 156zM529 635h-349v-228h316v-79h-316v-249h340v-79h-427v672q0 21 13.5 31.5t31.5 10.5h391v-79z" />
    <glyph glyph-name="Ecircumflex" unicode="&#xca;" horiz-adv-x="581" 
d="M317 849l-108 -99l-45 43l109 102q22 22 44 22q21 0 44 -22l109 -102l-44 -43zM529 635h-349v-228h316v-79h-316v-249h340v-79h-427v672q0 21 13.5 31.5t31.5 10.5h391v-79z" />
    <glyph glyph-name="Edieresis" unicode="&#xcb;" horiz-adv-x="581" 
d="M226 767q-25 0 -39 14.5t-14 39.5t14 39.5t39 14.5t39 -14.5t14 -39.5t-14 -39.5t-39 -14.5zM416 767q-25 0 -39 14.5t-14 39.5t14 39.5t39 14.5t39 -14.5t14 -39.5t-14 -39.5t-39 -14.5zM529 635h-349v-228h316v-79h-316v-249h340v-79h-427v672q0 21 13.5 31.5
t31.5 10.5h391v-79z" />
    <glyph glyph-name="Igrave" unicode="&#xcc;" horiz-adv-x="273" 
d="M243 798l-34 -42l-181 134l49 64zM93 0v714h87v-714h-87z" />
    <glyph glyph-name="Iacute" unicode="&#xcd;" horiz-adv-x="273" 
d="M47 797l166 156l49 -64l-181 -134zM93 0v714h87v-714h-87z" />
    <glyph glyph-name="Icircumflex" unicode="&#xce;" horiz-adv-x="273" 
d="M30 750l-45 43l109 102q22 22 44 22q21 0 44 -22l109 -102l-44 -43l-109 99zM93 0v714h87v-714h-87z" />
    <glyph glyph-name="Idieresis" unicode="&#xcf;" horiz-adv-x="273" 
d="M47 767q-25 0 -39 14.5t-14 39.5t14 39.5t39 14.5t39 -14.5t14 -39.5t-14 -39.5t-39 -14.5zM237 767q-25 0 -39 14.5t-14 39.5t14 39.5t39 14.5t39 -14.5t14 -39.5t-14 -39.5t-39 -14.5zM93 0v714h87v-714h-87z" />
    <glyph glyph-name="Eth" unicode="&#xd0;" horiz-adv-x="729" 
d="M340 714q148 0 244 -101.5t96 -252.5q0 -157 -95 -258.5t-242 -101.5h-242v318h-82v77h82v277q0 21 13.5 31.5t31.5 10.5h194zM337 79q107 0 180.5 75.5t73.5 205.5q0 123 -74 199t-180 76h-149v-240h162v-77h-162v-239h149z" />
    <glyph glyph-name="Ntilde" unicode="&#xd1;" horiz-adv-x="768" 
d="M328 820q-37 0 -55 -58l-59 19q24 101 111 101q29 0 52.5 -15t42.5 -30.5t38 -15.5q34 0 49 58l62 -15q-7 -49 -39 -77t-69 -28q-35 0 -75 30.5t-58 30.5zM592 714h82v-686q0 -15 -13.5 -24.5t-32.5 -9.5q-38 0 -58 29l-395 555v-578h-82v681q0 17 13.5 27.5t35.5 10.5
q18 0 31 -5.5t19 -12t16 -20.5l384 -533v566z" />
    <glyph glyph-name="Ograve" unicode="&#xd2;" horiz-adv-x="776" 
d="M494 798l-34 -42l-181 134l49 64zM389 -11q-152 0 -245.5 101.5t-93.5 266.5q0 166 93.5 268t245.5 102q151 0 244 -102t93 -268q0 -165 -93 -266.5t-244 -101.5zM389 71q109 0 177.5 75.5t68.5 210.5q0 136 -68.5 212t-177.5 76q-110 0 -179 -76t-69 -212
q0 -135 69 -210.5t179 -75.5z" />
    <glyph glyph-name="Oacute" unicode="&#xd3;" horiz-adv-x="776" 
d="M298 797l166 156l49 -64l-181 -134zM389 -11q-152 0 -245.5 101.5t-93.5 266.5q0 166 93.5 268t245.5 102q151 0 244 -102t93 -268q0 -165 -93 -266.5t-244 -101.5zM389 71q109 0 177.5 75.5t68.5 210.5q0 136 -68.5 212t-177.5 76q-110 0 -179 -76t-69 -212
q0 -135 69 -210.5t179 -75.5z" />
    <glyph glyph-name="Ocircumflex" unicode="&#xd4;" horiz-adv-x="776" 
d="M281 750l-45 43l109 102q22 22 44 22q21 0 44 -22l109 -102l-44 -43l-109 99zM389 -11q-152 0 -245.5 101.5t-93.5 266.5q0 166 93.5 268t245.5 102q151 0 244 -102t93 -268q0 -165 -93 -266.5t-244 -101.5zM389 71q109 0 177.5 75.5t68.5 210.5q0 136 -68.5 212
t-177.5 76q-110 0 -179 -76t-69 -212q0 -135 69 -210.5t179 -75.5z" />
    <glyph glyph-name="Otilde" unicode="&#xd5;" horiz-adv-x="776" 
d="M459 759q-28 0 -52.5 15.5t-44.5 30.5t-36 15q-37 0 -55 -58l-59 19q24 101 111 101q29 0 52.5 -15t42.5 -30.5t38 -15.5q34 0 49 58l62 -15q-7 -49 -39 -77t-69 -28zM389 -11q-152 0 -245.5 101.5t-93.5 266.5q0 166 93.5 268t245.5 102q151 0 244 -102t93 -268
q0 -165 -93 -266.5t-244 -101.5zM389 71q109 0 177.5 75.5t68.5 210.5q0 136 -68.5 212t-177.5 76q-110 0 -179 -76t-69 -212q0 -135 69 -210.5t179 -75.5z" />
    <glyph glyph-name="Odieresis" unicode="&#xd6;" horiz-adv-x="776" 
d="M298 767q-25 0 -39 14.5t-14 39.5t14 39.5t39 14.5t39 -14.5t14 -39.5t-14 -39.5t-39 -14.5zM488 767q-25 0 -39 14.5t-14 39.5t14 39.5t39 14.5t39 -14.5t14 -39.5t-14 -39.5t-39 -14.5zM389 -11q-152 0 -245.5 101.5t-93.5 266.5q0 166 93.5 268t245.5 102
q151 0 244 -102t93 -268q0 -165 -93 -266.5t-244 -101.5zM389 71q109 0 177.5 75.5t68.5 210.5q0 136 -68.5 212t-177.5 76q-110 0 -179 -76t-69 -212q0 -135 69 -210.5t179 -75.5z" />
    <glyph glyph-name="multiply" unicode="&#xd7;" horiz-adv-x="466" 
d="M106 142l-48 44l130 129l-130 129l48 44l127 -127l127 127l48 -44l-130 -129l130 -129l-48 -44l-127 127z" />
    <glyph glyph-name="Oslash" unicode="&#xd8;" horiz-adv-x="776" 
d="M628 630q98 -103 98 -273q0 -165 -93 -266.5t-244 -101.5q-109 0 -189 54l-55 -75l-52 38l57 78q-100 103 -100 273q0 166 93.5 268t245.5 102q107 0 189 -54l50 69l53 -40zM141 357q0 -124 61 -201l326 448q-59 41 -139 41q-110 0 -179 -76t-69 -212zM389 71
q109 0 177.5 75.5t68.5 210.5q0 124 -59 201l-326 -446q59 -41 139 -41z" />
    <glyph glyph-name="Ugrave" unicode="&#xd9;" horiz-adv-x="687" 
d="M424 805l-34 -42l-181 134l49 64zM343 -11q-124 0 -190.5 66t-66.5 179v480h87v-476q0 -167 170 -167q171 0 171 167v476h87v-480q0 -113 -67 -179t-191 -66z" />
    <glyph glyph-name="Uacute" unicode="&#xda;" horiz-adv-x="687" 
d="M254 797l166 156l49 -64l-181 -134zM343 -11q-124 0 -190.5 66t-66.5 179v480h87v-476q0 -167 170 -167q171 0 171 167v476h87v-480q0 -113 -67 -179t-191 -66z" />
    <glyph glyph-name="Ucircumflex" unicode="&#xdb;" horiz-adv-x="687" 
d="M237 750l-45 43l109 102q22 22 44 22q21 0 44 -22l109 -102l-44 -43l-109 99zM343 -11q-124 0 -190.5 66t-66.5 179v480h87v-476q0 -167 170 -167q171 0 171 167v476h87v-480q0 -113 -67 -179t-191 -66z" />
    <glyph glyph-name="Udieresis" unicode="&#xdc;" horiz-adv-x="687" 
d="M254 767q-25 0 -39 14.5t-14 39.5t14 39.5t39 14.5t39 -14.5t14 -39.5t-14 -39.5t-39 -14.5zM444 767q-25 0 -39 14.5t-14 39.5t14 39.5t39 14.5t39 -14.5t14 -39.5t-14 -39.5t-39 -14.5zM343 -11q-124 0 -190.5 66t-66.5 179v480h87v-476q0 -167 170 -167q171 0 171 167
v476h87v-480q0 -113 -67 -179t-191 -66z" />
    <glyph glyph-name="Yacute" unicode="&#xdd;" horiz-adv-x="619" 
d="M435 889l-181 -134l-34 42l166 156zM602 714l-249 -441v-273h-87v273l-248 441h103l190 -353l191 353h100z" />
    <glyph glyph-name="Thorn" unicode="&#xde;" horiz-adv-x="605" 
d="M328 597q112 0 172.5 -63.5t60.5 -160.5q0 -108 -62 -167t-179 -59h-140v-147h-87v714h87v-117h148zM322 226q148 0 148 149q0 68 -38.5 105.5t-111.5 37.5h-140v-292h142z" />
    <glyph glyph-name="germandbls" unicode="&#xdf;" horiz-adv-x="589" 
d="M197 37l34 62q57 -37 109 -37q57 0 91.5 31t34.5 78q0 31 -16.5 55.5t-40 40.5l-47.5 31.5t-40.5 37t-16.5 48.5q0 29 19.5 55.5l39.5 56t20 64.5q0 43 -28 69t-74 26q-55 0 -90 -41t-35 -130v-484h-82v497q0 112 60.5 171t147.5 59q77 0 130 -44.5t53 -116.5
q0 -43 -20 -77.5t-39.5 -57t-19.5 -35.5q0 -12 17 -25t41 -28t47.5 -35t40.5 -54t17 -76q0 -81 -57.5 -135t-152.5 -54q-88 0 -143 48z" />
    <glyph glyph-name="agrave" unicode="&#xe0;" horiz-adv-x="535" 
d="M375 591l-34 -42l-181 134l49 64zM257 513q98 0 153.5 -54t55.5 -154v-305h-77v85q-56 -98 -178 -98q-76 0 -124 43t-48 111q0 58 34.5 96t87 52.5t121.5 14.5q53 0 107 -8v15q0 129 -132 129q-84 0 -158 -63l-44 57q78 79 202 79zM224 52q79 0 120 52t45 134
q-58 8 -98 8q-168 0 -168 -105q0 -40 28 -64.5t73 -24.5z" />
    <glyph glyph-name="aacute" unicode="&#xe1;" horiz-adv-x="535" 
d="M385 683l-181 -134l-34 42l166 156zM257 513q98 0 153.5 -54t55.5 -154v-305h-77v85q-56 -98 -178 -98q-76 0 -124 43t-48 111q0 58 34.5 96t87 52.5t121.5 14.5q53 0 107 -8v15q0 129 -132 129q-84 0 -158 -63l-44 57q78 79 202 79zM224 52q79 0 120 52t45 134
q-58 8 -98 8q-168 0 -168 -105q0 -40 28 -64.5t73 -24.5z" />
    <glyph glyph-name="acircumflex" unicode="&#xe2;" horiz-adv-x="535" 
d="M265 657l-108 -99l-45 43l109 102q22 22 44 22q21 0 44 -22l109 -102l-44 -43zM257 513q98 0 153.5 -54t55.5 -154v-305h-77v85q-56 -98 -178 -98q-76 0 -124 43t-48 111q0 58 34.5 96t87 52.5t121.5 14.5q53 0 107 -8v15q0 129 -132 129q-84 0 -158 -63l-44 57
q78 79 202 79zM224 52q79 0 120 52t45 134q-58 8 -98 8q-168 0 -168 -105q0 -40 28 -64.5t73 -24.5z" />
    <glyph glyph-name="atilde" unicode="&#xe3;" horiz-adv-x="535" 
d="M202 632q-37 0 -55 -58l-59 19q24 101 111 101q29 0 52.5 -15t42.5 -30.5t38 -15.5q34 0 49 58l62 -15q-7 -49 -39 -77t-69 -28q-35 0 -75 30.5t-58 30.5zM257 513q98 0 153.5 -54t55.5 -154v-305h-77v85q-56 -98 -178 -98q-76 0 -124 43t-48 111q0 58 34.5 96t87 52.5
t121.5 14.5q53 0 107 -8v15q0 129 -132 129q-84 0 -158 -63l-44 57q78 79 202 79zM224 52q79 0 120 52t45 134q-58 8 -98 8q-168 0 -168 -105q0 -40 28 -64.5t73 -24.5z" />
    <glyph glyph-name="adieresis" unicode="&#xe4;" horiz-adv-x="535" 
d="M170 571q-25 0 -39 14.5t-14 39.5t14 39.5t39 14.5t39 -14.5t14 -39.5t-14 -39.5t-39 -14.5zM360 571q-25 0 -39 14.5t-14 39.5t14 39.5t39 14.5t39 -14.5t14 -39.5t-14 -39.5t-39 -14.5zM257 513q98 0 153.5 -54t55.5 -154v-305h-77v85q-56 -98 -178 -98q-76 0 -124 43
t-48 111q0 58 34.5 96t87 52.5t121.5 14.5q53 0 107 -8v15q0 129 -132 129q-84 0 -158 -63l-44 57q78 79 202 79zM224 52q79 0 120 52t45 134q-58 8 -98 8q-168 0 -168 -105q0 -40 28 -64.5t73 -24.5z" />
    <glyph glyph-name="aring" unicode="&#xe5;" horiz-adv-x="535" 
d="M265 555q-41 0 -68.5 27t-27.5 67q0 39 28 66t68 27t67.5 -27t27.5 -66q0 -40 -27.5 -67t-67.5 -27zM265 695q-20 0 -33.5 -13t-13.5 -33t13.5 -33.5t33.5 -13.5t33 13.5t13 33.5q0 19 -13.5 32.5t-32.5 13.5zM257 513q98 0 153.5 -54t55.5 -154v-305h-77v85
q-56 -98 -178 -98q-76 0 -124 43t-48 111q0 58 34.5 96t87 52.5t121.5 14.5q53 0 107 -8v15q0 129 -132 129q-84 0 -158 -63l-44 57q78 79 202 79zM224 52q79 0 120 52t45 134q-58 8 -98 8q-168 0 -168 -105q0 -40 28 -64.5t73 -24.5z" />
    <glyph glyph-name="ae" unicode="&#xe6;" horiz-adv-x="880" 
d="M625 60q88 0 157 64l44 -58q-88 -79 -205 -79q-64 0 -116 28.5t-83 82.5q-28 -54 -80.5 -82.5t-119.5 -28.5q-85 0 -134 42.5t-49 113.5q0 84 68 122.5t175 38.5q53 0 107 -8v15q0 129 -132 129q-84 0 -158 -63l-44 57q78 79 202 79q134 0 186 -95q70 95 202 95
q78 0 136.5 -46t58.5 -128q0 -58 -35 -92t-97 -34h-235q7 -71 45.5 -112t106.5 -41zM640 448q-69 0 -114 -46.5t-53 -125.5l225 -1q29 0 47 18t18 53q0 41 -34 71.5t-89 30.5zM229 52q74 0 115 52.5t45 133.5q-58 8 -98 8q-168 0 -168 -103q0 -42 28 -66.5t78 -24.5z" />
    <glyph glyph-name="ccedilla" unicode="&#xe7;" horiz-adv-x="526" 
d="M284 -13q-109 0 -174.5 73t-65.5 190q0 118 65.5 190.5t177.5 72.5q146 0 205 -113l-67 -41q-43 82 -138 82q-70 0 -115 -49t-45 -142q0 -94 44 -142t113 -48q90 0 151 91l62 -43q-26 -49 -80 -85t-133 -36zM263 -238q-59 0 -102 27l21 55q38 -22 76 -22q27 0 43.5 11
t16.5 28q0 37 -83 41l8 55q141 -1 141 -100q0 -39 -33.5 -67t-87.5 -28z" />
    <glyph glyph-name="egrave" unicode="&#xe8;" horiz-adv-x="536" 
d="M400 591l-34 -42l-181 134l49 64zM283 62q89 0 158 64l44 -58q-88 -79 -206 -79q-100 0 -167.5 66.5t-67.5 186.5q0 115 67 193t189 78q78 0 136.5 -45t58.5 -127q0 -58 -35 -92t-97 -34h-235q8 -71 47.5 -112t107.5 -41zM295 448q-69 0 -115 -46t-53 -124h226
q29 0 47 17.5t18 52.5q0 41 -33.5 70.5t-89.5 29.5z" />
    <glyph glyph-name="eacute" unicode="&#xe9;" horiz-adv-x="536" 
d="M410 683l-181 -134l-34 42l166 156zM283 62q89 0 158 64l44 -58q-88 -79 -206 -79q-100 0 -167.5 66.5t-67.5 186.5q0 115 67 193t189 78q78 0 136.5 -45t58.5 -127q0 -58 -35 -92t-97 -34h-235q8 -71 47.5 -112t107.5 -41zM295 448q-69 0 -115 -46t-53 -124h226
q29 0 47 17.5t18 52.5q0 41 -33.5 70.5t-89.5 29.5z" />
    <glyph glyph-name="ecircumflex" unicode="&#xea;" horiz-adv-x="536" 
d="M290 657l-108 -99l-45 43l109 102q22 22 44 22q21 0 44 -22l109 -102l-44 -43zM283 62q89 0 158 64l44 -58q-88 -79 -206 -79q-100 0 -167.5 66.5t-67.5 186.5q0 115 67 193t189 78q78 0 136.5 -45t58.5 -127q0 -58 -35 -92t-97 -34h-235q8 -71 47.5 -112t107.5 -41z
M295 448q-69 0 -115 -46t-53 -124h226q29 0 47 17.5t18 52.5q0 41 -33.5 70.5t-89.5 29.5z" />
    <glyph glyph-name="edieresis" unicode="&#xeb;" horiz-adv-x="536" 
d="M195 571q-25 0 -39 14.5t-14 39.5t14 39.5t39 14.5t39 -14.5t14 -39.5t-14 -39.5t-39 -14.5zM385 571q-25 0 -39 14.5t-14 39.5t14 39.5t39 14.5t39 -14.5t14 -39.5t-14 -39.5t-39 -14.5zM283 62q89 0 158 64l44 -58q-88 -79 -206 -79q-100 0 -167.5 66.5t-67.5 186.5
q0 115 67 193t189 78q78 0 136.5 -45t58.5 -127q0 -58 -35 -92t-97 -34h-235q8 -71 47.5 -112t107.5 -41zM295 448q-69 0 -115 -46t-53 -124h226q29 0 47 17.5t18 52.5q0 41 -33.5 70.5t-89.5 29.5z" />
    <glyph glyph-name="igrave" unicode="&#xec;" horiz-adv-x="232" 
d="M226 591l-34 -42l-181 134l49 64zM74 0v500h83v-500h-83z" />
    <glyph glyph-name="iacute" unicode="&#xed;" horiz-adv-x="232" 
d="M21 591l166 156l49 -64l-181 -134zM74 0v500h83v-500h-83z" />
    <glyph glyph-name="icircumflex" unicode="&#xee;" horiz-adv-x="232" 
d="M8 558l-45 43l109 102q22 22 44 22q21 0 44 -22l109 -102l-44 -43l-109 99zM74 0v500h83v-500h-83z" />
    <glyph glyph-name="idieresis" unicode="&#xef;" horiz-adv-x="232" 
d="M21 571q-25 0 -39 14.5t-14 39.5t14 39.5t39 14.5t39 -14.5t14 -39.5t-14 -39.5t-39 -14.5zM211 571q-25 0 -39 14.5t-14 39.5t14 39.5t39 14.5t39 -14.5t14 -39.5t-14 -39.5t-39 -14.5zM74 0v500h83v-500h-83z" />
    <glyph glyph-name="eth" unicode="&#xf0;" horiz-adv-x="556" 
d="M402 611q100 -111 100 -303q0 -143 -64.5 -232t-179.5 -89q-100 0 -157 65t-57 168q0 112 66.5 182.5t167.5 70.5q74 0 131 -36q-19 77 -68 130l-88 -63l-34 49l75 55q-59 42 -149 64l24 66q113 -27 187 -85l97 70l34 -52zM255 60q81 0 124 72.5t43 193.5v22
q-52 53 -136 53q-70 0 -115 -48t-45 -134q0 -71 33 -115t96 -44z" />
    <glyph glyph-name="ntilde" unicode="&#xf1;" 
d="M235 632q-37 0 -55 -58l-59 19q24 101 111 101q28 0 52 -15t43 -30.5t38 -15.5q35 0 49 58l62 -15q-7 -49 -39 -77t-69 -28q-28 0 -52.5 15.5t-44.5 30.5t-36 15zM351 513q75 0 115 -40.5t40 -115.5v-357h-83v338q0 55 -20 77.5t-62 22.5q-84 0 -182 -74v-364h-84v500h82
v-68q97 81 194 81z" />
    <glyph glyph-name="ograve" unicode="&#xf2;" horiz-adv-x="566" 
d="M393 591l-34 -42l-181 134l49 64zM283 -13q-109 0 -174.5 72t-64.5 191t66.5 191t172.5 72q109 0 174 -72t65 -191t-65 -191t-174 -72zM283 60q77 0 116.5 48.5t39.5 141.5t-39.5 141.5t-116.5 48.5q-76 0 -116 -49t-40 -141q0 -93 39.5 -141.5t116.5 -48.5z" />
    <glyph glyph-name="oacute" unicode="&#xf3;" horiz-adv-x="566" 
d="M188 591l166 156l49 -64l-181 -134zM283 -13q-109 0 -174.5 72t-64.5 191t66.5 191t172.5 72q109 0 174 -72t65 -191t-65 -191t-174 -72zM283 60q77 0 116.5 48.5t39.5 141.5t-39.5 141.5t-116.5 48.5q-76 0 -116 -49t-40 -141q0 -93 39.5 -141.5t116.5 -48.5z" />
    <glyph glyph-name="ocircumflex" unicode="&#xf4;" horiz-adv-x="566" 
d="M175 558l-45 43l109 102q22 22 44 22q21 0 44 -22l109 -102l-44 -43l-109 99zM283 -13q-109 0 -174.5 72t-64.5 191t66.5 191t172.5 72q109 0 174 -72t65 -191t-65 -191t-174 -72zM283 60q77 0 116.5 48.5t39.5 141.5t-39.5 141.5t-116.5 48.5q-76 0 -116 -49t-40 -141
q0 -93 39.5 -141.5t116.5 -48.5z" />
    <glyph glyph-name="otilde" unicode="&#xf5;" horiz-adv-x="566" 
d="M353 571q-35 0 -75 30.5t-58 30.5q-37 0 -55 -58l-59 19q24 101 111 101q29 0 52.5 -15t42.5 -30.5t38 -15.5q34 0 49 58l62 -15q-7 -49 -39 -77t-69 -28zM283 -13q-109 0 -174.5 72t-64.5 191t66.5 191t172.5 72q109 0 174 -72t65 -191t-65 -191t-174 -72zM283 60
q77 0 116.5 48.5t39.5 141.5t-39.5 141.5t-116.5 48.5q-76 0 -116 -49t-40 -141q0 -93 39.5 -141.5t116.5 -48.5z" />
    <glyph glyph-name="odieresis" unicode="&#xf6;" horiz-adv-x="566" 
d="M188 571q-25 0 -39 14.5t-14 39.5t14 39.5t39 14.5t39 -14.5t14 -39.5t-14 -39.5t-39 -14.5zM378 571q-25 0 -39 14.5t-14 39.5t14 39.5t39 14.5t39 -14.5t14 -39.5t-14 -39.5t-39 -14.5zM283 -13q-109 0 -174.5 72t-64.5 191t66.5 191t172.5 72q109 0 174 -72t65 -191
t-65 -191t-174 -72zM283 60q77 0 116.5 48.5t39.5 141.5t-39.5 141.5t-116.5 48.5q-76 0 -116 -49t-40 -141q0 -93 39.5 -141.5t116.5 -48.5z" />
    <glyph glyph-name="divide" unicode="&#xf7;" horiz-adv-x="421" 
d="M214 384q-22 0 -35 13.5t-13 35.5t13 35.5t35 13.5t35.5 -13t13.5 -36t-13.5 -36t-35.5 -13zM42 336h337v-66h-337v66zM214 124q-22 0 -35 13.5t-13 35.5t13 35.5t35 13.5t35.5 -13t13.5 -36t-13.5 -36t-35.5 -13z" />
    <glyph glyph-name="oslash" unicode="&#xf8;" horiz-adv-x="568" 
d="M460 438q63 -71 63 -188q0 -119 -65 -191t-174 -72q-72 0 -128 34l-43 -60l-53 35l47 66q-62 71 -62 188q1 119 66.5 191t172.5 72q71 0 126 -32l49 68l55 -37zM128 250q0 -76 27 -123l211 293q-34 20 -82 20q-76 0 -116 -49t-40 -141zM284 60q77 0 116.5 48.5
t39.5 141.5q0 76 -27 123l-213 -292q34 -21 84 -21z" />
    <glyph glyph-name="ugrave" unicode="&#xf9;" 
d="M396 591l-34 -42l-181 134l49 64zM420 500h82v-501h-81v83q-101 -95 -195 -95q-74 0 -114.5 40t-40.5 115v358h82v-341q0 -50 20 -73.5t63 -23.5q77 0 184 88v350z" />
    <glyph glyph-name="uacute" unicode="&#xfa;" 
d="M406 683l-181 -134l-34 42l166 156zM420 500h82v-501h-81v83q-101 -95 -195 -95q-74 0 -114.5 40t-40.5 115v358h82v-341q0 -50 20 -73.5t63 -23.5q77 0 184 88v350z" />
    <glyph glyph-name="ucircumflex" unicode="&#xfb;" 
d="M286 657l-108 -99l-45 43l109 102q22 22 44 22q21 0 44 -22l109 -102l-44 -43zM420 500h82v-501h-81v83q-101 -95 -195 -95q-74 0 -114.5 40t-40.5 115v358h82v-341q0 -50 20 -73.5t63 -23.5q77 0 184 88v350z" />
    <glyph glyph-name="udieresis" unicode="&#xfc;" 
d="M191 571q-25 0 -39 14.5t-14 39.5t14 39.5t39 14.5t39 -14.5t14 -39.5t-14 -39.5t-39 -14.5zM381 571q-25 0 -39 14.5t-14 39.5t14 39.5t39 14.5t39 -14.5t14 -39.5t-14 -39.5t-39 -14.5zM420 500h82v-501h-81v83q-101 -95 -195 -95q-74 0 -114.5 40t-40.5 115v358h82
v-341q0 -50 20 -73.5t63 -23.5q77 0 184 88v350z" />
    <glyph glyph-name="yacute" unicode="&#xfd;" horiz-adv-x="508" 
d="M373 683l-181 -134l-34 42l166 156zM405 500h91l-230 -576q-50 -124 -157 -124q-66 0 -104 43l35 54q35 -26 67 -26q31 0 53 20.5t40 67.5l21 55l-206 486h85l161 -392z" />
    <glyph glyph-name="thorn" unicode="&#xfe;" 
d="M320 513q97 0 154.5 -70.5t57.5 -184.5q0 -120 -63.5 -195.5t-167.5 -75.5q-78 0 -144 44v-217h-82v900h82v-269q70 68 163 68zM295 60q72 0 113 51.5t41 145.5q0 89 -37 136t-103 47q-87 0 -152 -73v-262q67 -45 138 -45z" />
    <glyph glyph-name="ydieresis" unicode="&#xff;" horiz-adv-x="508" 
d="M158 571q-25 0 -39 14.5t-14 39.5t14 39.5t39 14.5t39 -14.5t14 -39.5t-14 -39.5t-39 -14.5zM348 571q-25 0 -39 14.5t-14 39.5t14 39.5t39 14.5t39 -14.5t14 -39.5t-14 -39.5t-39 -14.5zM405 500h91l-230 -576q-50 -124 -157 -124q-66 0 -104 43l35 54q35 -26 67 -26
q31 0 53 20.5t40 67.5l21 55l-206 486h85l161 -392z" />
    <glyph glyph-name="Amacron" unicode="&#x100;" horiz-adv-x="674" 
d="M481 843v-66h-287v66h287zM566 0l-83 233h-292l-83 -233h-97l245 658q12 32 30.5 45t50.5 13q33 0 51 -13.5t30 -45.5l245 -657h-97zM219 311h236l-118 329z" />
    <glyph glyph-name="amacron" unicode="&#x101;" horiz-adv-x="535" 
d="M408 644v-66h-287v66h287zM257 513q98 0 153.5 -54t55.5 -154v-305h-77v85q-56 -98 -178 -98q-76 0 -124 43t-48 111q0 58 34.5 96t87 52.5t121.5 14.5q53 0 107 -8v15q0 129 -132 129q-84 0 -158 -63l-44 57q78 79 202 79zM224 52q79 0 120 52t45 134q-58 8 -98 8
q-168 0 -168 -105q0 -40 28 -64.5t73 -24.5z" />
    <glyph glyph-name="Abreve" unicode="&#x102;" horiz-adv-x="674" 
d="M336 756q-72 0 -108.5 46t-39.5 107h70q-1 -39 18 -69.5t60 -30.5t60 30.5t18 69.5h70q-3 -61 -39.5 -107t-108.5 -46zM566 0l-83 233h-292l-83 -233h-97l245 658q12 32 30.5 45t50.5 13q33 0 51 -13.5t30 -45.5l245 -657h-97zM219 311h236l-118 329z" />
    <glyph glyph-name="abreve" unicode="&#x103;" horiz-adv-x="535" 
d="M265 561q-72 0 -108.5 46t-39.5 107h70q-1 -39 18 -69.5t60 -30.5t60 30.5t18 69.5h70q-3 -61 -39.5 -107t-108.5 -46zM257 513q98 0 153.5 -54t55.5 -154v-305h-77v85q-56 -98 -178 -98q-76 0 -124 43t-48 111q0 58 34.5 96t87 52.5t121.5 14.5q53 0 107 -8v15
q0 129 -132 129q-84 0 -158 -63l-44 57q78 79 202 79zM224 52q79 0 120 52t45 134q-58 8 -98 8q-168 0 -168 -105q0 -40 28 -64.5t73 -24.5z" />
    <glyph glyph-name="Aogonek" unicode="&#x104;" horiz-adv-x="674" 
d="M673 -136l34 -47q-12 -16 -38.5 -28.5t-55.5 -12.5q-47 0 -76 29.5t-29 74.5q0 68 63 120h-5l-83 233h-292l-83 -233h-97l245 658q12 32 30.5 45t50.5 13q33 0 51 -13.5t30 -45.5l245 -657q-41 -13 -63 -43t-22 -60q0 -22 12.5 -36.5t34.5 -14.5q24 0 48 18zM219 311h236
l-118 329z" />
    <glyph glyph-name="aogonek" unicode="&#x105;" horiz-adv-x="535" 
d="M476 -136l34 -47q-12 -16 -38.5 -28.5t-55.5 -12.5q-47 0 -76 29.5t-29 74.5q0 77 78 131v74q-56 -98 -178 -98q-76 0 -124 43t-48 111q0 58 34.5 96t87 52.5t121.5 14.5q53 0 107 -8v15q0 129 -132 129q-84 0 -158 -63l-44 57q78 79 202 79q98 0 153.5 -54t55.5 -154
v-305q-41 -13 -63 -43t-22 -60q0 -22 12.5 -36.5t34.5 -14.5q24 0 48 18zM224 52q79 0 120 52t45 134q-58 8 -98 8q-168 0 -168 -105q0 -40 28 -64.5t73 -24.5z" />
    <glyph glyph-name="Cacute" unicode="&#x106;" horiz-adv-x="707" 
d="M303 799l166 156l49 -64l-181 -134zM384 -11q-65 0 -124 22.5t-106 66t-75 115.5t-28 162q0 171 94 271.5t250 100.5q88 0 160 -39t112 -112l-69 -45q-36 59 -90.5 88t-114.5 29q-114 0 -182.5 -74.5t-68.5 -214.5t72 -213.5t175 -73.5q138 0 237 112l56 -55
q-54 -65 -133 -102.5t-165 -37.5z" />
    <glyph glyph-name="cacute" unicode="&#x107;" horiz-adv-x="526" 
d="M190 591l166 156l49 -64l-181 -134zM284 -13q-109 0 -174.5 73t-65.5 190q0 118 65.5 190.5t177.5 72.5q146 0 205 -113l-67 -41q-43 82 -138 82q-70 0 -115 -49t-45 -142q0 -94 44 -142t113 -48q90 0 151 91l62 -43q-26 -49 -80 -85t-133 -36z" />
    <glyph glyph-name="Ccircumflex" unicode="&#x108;" horiz-adv-x="707" 
d="M286 752l-45 43l109 102q22 22 44 22q21 0 44 -22l109 -102l-44 -43l-109 99zM384 -11q-65 0 -124 22.5t-106 66t-75 115.5t-28 162q0 171 94 271.5t250 100.5q88 0 160 -39t112 -112l-69 -45q-36 59 -90.5 88t-114.5 29q-114 0 -182.5 -74.5t-68.5 -214.5t72 -213.5
t175 -73.5q138 0 237 112l56 -55q-54 -65 -133 -102.5t-165 -37.5z" />
    <glyph glyph-name="ccircumflex" unicode="&#x109;" horiz-adv-x="526" 
d="M177 558l-45 43l109 102q22 22 44 22q21 0 44 -22l109 -102l-44 -43l-109 99zM284 -13q-109 0 -174.5 73t-65.5 190q0 118 65.5 190.5t177.5 72.5q146 0 205 -113l-67 -41q-43 82 -138 82q-70 0 -115 -49t-45 -142q0 -94 44 -142t113 -48q90 0 151 91l62 -43
q-26 -49 -80 -85t-133 -36z" />
    <glyph glyph-name="Cdotaccent" unicode="&#x10a;" horiz-adv-x="707" 
d="M394 766q-25 0 -40 15t-15 41t15 41t40 15t40 -15t15 -41t-15 -41t-40 -15zM384 -11q-65 0 -124 22.5t-106 66t-75 115.5t-28 162q0 171 94 271.5t250 100.5q88 0 160 -39t112 -112l-69 -45q-36 59 -90.5 88t-114.5 29q-114 0 -182.5 -74.5t-68.5 -214.5t72 -213.5
t175 -73.5q138 0 237 112l56 -55q-54 -65 -133 -102.5t-165 -37.5z" />
    <glyph glyph-name="cdotaccent" unicode="&#x10b;" horiz-adv-x="526" 
d="M285 574q-25 0 -40 15t-15 41t15 41t40 15t40 -15t15 -41t-15 -41t-40 -15zM284 -13q-109 0 -174.5 73t-65.5 190q0 118 65.5 190.5t177.5 72.5q146 0 205 -113l-67 -41q-43 82 -138 82q-70 0 -115 -49t-45 -142q0 -94 44 -142t113 -48q90 0 151 91l62 -43
q-26 -49 -80 -85t-133 -36z" />
    <glyph glyph-name="Ccaron" unicode="&#x10c;" horiz-adv-x="707" 
d="M285 921l108 -99l109 99l44 -43l-109 -102q-23 -22 -44 -22q-22 0 -44 22l-109 102zM384 -11q-65 0 -124 22.5t-106 66t-75 115.5t-28 162q0 171 94 271.5t250 100.5q88 0 160 -39t112 -112l-69 -45q-36 59 -90.5 88t-114.5 29q-114 0 -182.5 -74.5t-68.5 -214.5
t72 -213.5t175 -73.5q138 0 237 112l56 -55q-54 -65 -133 -102.5t-165 -37.5z" />
    <glyph glyph-name="ccaron" unicode="&#x10d;" horiz-adv-x="526" 
d="M177 721l108 -99l109 99l44 -43l-109 -102q-23 -22 -44 -22q-22 0 -44 22l-109 102zM284 -13q-109 0 -174.5 73t-65.5 190q0 118 65.5 190.5t177.5 72.5q146 0 205 -113l-67 -41q-43 82 -138 82q-70 0 -115 -49t-45 -142q0 -94 44 -142t113 -48q90 0 151 91l62 -43
q-26 -49 -80 -85t-133 -36z" />
    <glyph glyph-name="Dcaron" unicode="&#x10e;" horiz-adv-x="721" 
d="M238 919l108 -99l109 99l44 -43l-109 -102q-23 -22 -44 -22q-22 0 -44 22l-109 102zM93 0v672q0 21 13.5 31.5t31.5 10.5h194q148 0 244 -101.5t96 -252.5q0 -157 -95 -258.5t-242 -101.5h-242zM180 79h149q107 0 180.5 75.5t73.5 205.5q0 123 -74 199t-180 76h-149v-556
z" />
    <glyph glyph-name="dcaron" unicode="&#x10f;" horiz-adv-x="601" 
d="M613 745l73 -11l-64 -183l-54 6zM420 462v252h82v-714h-82v56q-71 -69 -165 -69t-152 70t-58 184q0 124 64.5 198t167.5 74q83 0 143 -51zM269 60q85 0 151 74v246q-58 60 -140 60q-71 0 -111.5 -49.5t-40.5 -146.5q0 -88 38 -136t103 -48z" />
    <glyph glyph-name="Dcroat" unicode="&#x110;" horiz-adv-x="729" 
d="M340 714q148 0 244 -101.5t96 -252.5q0 -157 -95 -258.5t-242 -101.5h-242v318h-82v77h82v277q0 21 13.5 31.5t31.5 10.5h194zM337 79q107 0 180.5 75.5t73.5 205.5q0 123 -74 199t-180 76h-149v-240h162v-77h-162v-239h149z" />
    <glyph glyph-name="dcroat" unicode="&#x111;" 
d="M581 613v-61h-79v-552h-82v56q-71 -69 -165 -69t-152 70t-58 184q0 124 64.5 198t167.5 74q83 0 143 -51v90h-146v61h146v101h82v-101h79zM269 60q85 0 151 74v246q-58 60 -140 60q-71 0 -111.5 -49.5t-40.5 -146.5q0 -88 38 -136t103 -48z" />
    <glyph glyph-name="Emacron" unicode="&#x112;" horiz-adv-x="581" 
d="M460 843v-66h-287v66h287zM529 635h-349v-228h316v-79h-316v-249h340v-79h-427v672q0 21 13.5 31.5t31.5 10.5h391v-79z" />
    <glyph glyph-name="emacron" unicode="&#x113;" horiz-adv-x="536" 
d="M433 644v-66h-287v66h287zM283 62q89 0 158 64l44 -58q-88 -79 -206 -79q-100 0 -167.5 66.5t-67.5 186.5q0 115 67 193t189 78q78 0 136.5 -45t58.5 -127q0 -58 -35 -92t-97 -34h-235q8 -71 47.5 -112t107.5 -41zM295 448q-69 0 -115 -46t-53 -124h226q29 0 47 17.5
t18 52.5q0 41 -33.5 70.5t-89.5 29.5z" />
    <glyph glyph-name="Ebreve" unicode="&#x114;" horiz-adv-x="581" 
d="M315 756q-72 0 -108.5 46t-39.5 107h70q-1 -39 18 -69.5t60 -30.5t60 30.5t18 69.5h70q-3 -61 -39.5 -107t-108.5 -46zM529 635h-349v-228h316v-79h-316v-249h340v-79h-427v672q0 21 13.5 31.5t31.5 10.5h391v-79z" />
    <glyph glyph-name="ebreve" unicode="&#x115;" horiz-adv-x="536" 
d="M290 561q-72 0 -108.5 46t-39.5 107h70q-1 -39 18 -69.5t60 -30.5t60 30.5t18 69.5h70q-3 -61 -39.5 -107t-108.5 -46zM283 62q89 0 158 64l44 -58q-88 -79 -206 -79q-100 0 -167.5 66.5t-67.5 186.5q0 115 67 193t189 78q78 0 136.5 -45t58.5 -127q0 -58 -35 -92
t-97 -34h-235q8 -71 47.5 -112t107.5 -41zM295 448q-69 0 -115 -46t-53 -124h226q29 0 47 17.5t18 52.5q0 41 -33.5 70.5t-89.5 29.5z" />
    <glyph glyph-name="Edotaccent" unicode="&#x116;" horiz-adv-x="581" 
d="M317 764q-25 0 -40 15t-15 41t15 41t40 15t40 -15t15 -41t-15 -41t-40 -15zM529 635h-349v-228h316v-79h-316v-249h340v-79h-427v672q0 21 13.5 31.5t31.5 10.5h391v-79z" />
    <glyph glyph-name="edotaccent" unicode="&#x117;" horiz-adv-x="536" 
d="M290 574q-25 0 -40 15t-15 41t15 41t40 15t40 -15t15 -41t-15 -41t-40 -15zM283 62q89 0 158 64l44 -58q-88 -79 -206 -79q-100 0 -167.5 66.5t-67.5 186.5q0 115 67 193t189 78q78 0 136.5 -45t58.5 -127q0 -58 -35 -92t-97 -34h-235q8 -71 47.5 -112t107.5 -41z
M295 448q-69 0 -115 -46t-53 -124h226q29 0 47 17.5t18 52.5q0 41 -33.5 70.5t-89.5 29.5z" />
    <glyph glyph-name="Eogonek" unicode="&#x118;" horiz-adv-x="581" 
d="M523 -141l33 -46q-13 -16 -38.5 -29t-54.5 -13q-47 0 -76 29.5t-29 74.5q0 70 69 125h-334v672q0 21 13.5 31.5t31.5 10.5h391v-79h-349v-228h316v-79h-316v-249h340v-79h-3q-43 -16 -66 -47t-23 -62q0 -22 12.5 -36t34.5 -14q24 0 48 18z" />
    <glyph glyph-name="eogonek" unicode="&#x119;" horiz-adv-x="535" 
d="M440 126l44 -58q-52 -46 -125 -68q-41 -13 -63 -43t-22 -60q0 -22 12.5 -36.5t34.5 -14.5q24 0 48 18l34 -47q-12 -16 -38.5 -28.5t-55.5 -12.5q-47 0 -76 29.5t-29 74.5q0 60 52 110q-92 7 -152.5 73t-60.5 179q0 115 67 193t189 78q78 0 136.5 -45t58.5 -127
q0 -58 -35 -92t-97 -34h-235q8 -71 47.5 -112t107.5 -41q89 0 158 64zM294 448q-69 0 -115 -46t-53 -124h226q29 0 47 17.5t18 52.5q0 41 -33.5 70.5t-89.5 29.5z" />
    <glyph glyph-name="Ecaron" unicode="&#x11a;" horiz-adv-x="581" 
d="M316 752q-22 0 -44 22l-109 102l45 43l108 -99l109 99l44 -43l-109 -102q-23 -22 -44 -22zM529 635h-349v-228h316v-79h-316v-249h340v-79h-427v672q0 21 13.5 31.5t31.5 10.5h391v-79z" />
    <glyph glyph-name="ecaron" unicode="&#x11b;" horiz-adv-x="536" 
d="M290 554q-22 0 -44 22l-109 102l45 43l108 -99l109 99l44 -43l-109 -102q-23 -22 -44 -22zM283 62q89 0 158 64l44 -58q-88 -79 -206 -79q-100 0 -167.5 66.5t-67.5 186.5q0 115 67 193t189 78q78 0 136.5 -45t58.5 -127q0 -58 -35 -92t-97 -34h-235q8 -71 47.5 -112
t107.5 -41zM295 448q-69 0 -115 -46t-53 -124h226q29 0 47 17.5t18 52.5q0 41 -33.5 70.5t-89.5 29.5z" />
    <glyph glyph-name="Gcircumflex" unicode="&#x11c;" horiz-adv-x="753" 
d="M284 750l-45 43l109 102q22 22 44 22q21 0 44 -22l109 -102l-44 -43l-109 99zM383 -11q-151 0 -242 100t-91 263q0 169 97 272t254 103q104 0 176.5 -44.5t101.5 -110.5l-77 -35q-24 51 -77.5 80t-126.5 29q-117 0 -187 -76.5t-70 -214.5q0 -134 66.5 -209t175.5 -75
q97 0 166.5 58.5t72.5 168.5h-222v79h310v-67q0 -153 -94.5 -237t-232.5 -84z" />
    <glyph glyph-name="gcircumflex" unicode="&#x11d;" horiz-adv-x="527" 
d="M267 657l-108 -99l-45 43l109 102q22 22 44 22q21 0 44 -22l109 -102l-44 -43zM505 491q-19 -22 -70 -50q33 -41 33 -98q0 -76 -56.5 -120t-150.5 -44q-46 0 -80 10q-35 -17 -35 -44q0 -25 28.5 -36.5t85.5 -18.5q122 -15 153 -27q44 -17 65 -44t21 -70
q0 -72 -62.5 -111.5t-180.5 -39.5q-108 0 -167.5 37t-59.5 102q0 75 78 119q-38 27 -38 75q0 51 54 84q-64 42 -64 125q0 76 56 122t148 46q64 0 113 -22q54 23 89 61zM261 242q60 0 95 26.5t35 75.5q0 48 -35 74.5t-94 26.5t-93 -28t-34 -77q0 -98 126 -98zM307 10
q-114 15 -138 21q-59 -29 -59 -82q0 -84 147 -84q160 0 160 79q0 30 -24.5 44t-85.5 22z" />
    <glyph glyph-name="Gbreve" unicode="&#x11e;" horiz-adv-x="753" 
d="M390 756q-72 0 -108.5 46t-39.5 107h70q-1 -39 18 -69.5t60 -30.5t60 30.5t18 69.5h70q-3 -61 -39.5 -107t-108.5 -46zM383 -11q-151 0 -242 100t-91 263q0 169 97 272t254 103q104 0 176.5 -44.5t101.5 -110.5l-77 -35q-24 51 -77.5 80t-126.5 29q-117 0 -187 -76.5
t-70 -214.5q0 -134 66.5 -209t175.5 -75q97 0 166.5 58.5t72.5 168.5h-222v79h310v-67q0 -153 -94.5 -237t-232.5 -84z" />
    <glyph glyph-name="gbreve" unicode="&#x11f;" horiz-adv-x="527" 
d="M267 561q-72 0 -108.5 46t-39.5 107h70q-1 -39 18 -69.5t60 -30.5t60 30.5t18 69.5h70q-3 -61 -39.5 -107t-108.5 -46zM505 491q-19 -22 -70 -50q33 -41 33 -98q0 -76 -56.5 -120t-150.5 -44q-46 0 -80 10q-35 -17 -35 -44q0 -25 28.5 -36.5t85.5 -18.5q122 -15 153 -27
q44 -17 65 -44t21 -70q0 -72 -62.5 -111.5t-180.5 -39.5q-108 0 -167.5 37t-59.5 102q0 75 78 119q-38 27 -38 75q0 51 54 84q-64 42 -64 125q0 76 56 122t148 46q64 0 113 -22q54 23 89 61zM261 242q60 0 95 26.5t35 75.5q0 48 -35 74.5t-94 26.5t-93 -28t-34 -77
q0 -98 126 -98zM307 10q-114 15 -138 21q-59 -29 -59 -82q0 -84 147 -84q160 0 160 79q0 30 -24.5 44t-85.5 22z" />
    <glyph glyph-name="Gdotaccent" unicode="&#x120;" horiz-adv-x="753" 
d="M392 764q-25 0 -40 15t-15 41t15 41t40 15t40 -15t15 -41t-15 -41t-40 -15zM383 -11q-151 0 -242 100t-91 263q0 169 97 272t254 103q104 0 176.5 -44.5t101.5 -110.5l-77 -35q-24 51 -77.5 80t-126.5 29q-117 0 -187 -76.5t-70 -214.5q0 -134 66.5 -209t175.5 -75
q97 0 166.5 58.5t72.5 168.5h-222v79h310v-67q0 -153 -94.5 -237t-232.5 -84z" />
    <glyph glyph-name="gdotaccent" unicode="&#x121;" horiz-adv-x="527" 
d="M267 574q-25 0 -40 15t-15 41t15 41t40 15t40 -15t15 -41t-15 -41t-40 -15zM505 491q-19 -22 -70 -50q33 -41 33 -98q0 -76 -56.5 -120t-150.5 -44q-46 0 -80 10q-35 -17 -35 -44q0 -25 28.5 -36.5t85.5 -18.5q122 -15 153 -27q44 -17 65 -44t21 -70q0 -72 -62.5 -111.5
t-180.5 -39.5q-108 0 -167.5 37t-59.5 102q0 75 78 119q-38 27 -38 75q0 51 54 84q-64 42 -64 125q0 76 56 122t148 46q64 0 113 -22q54 23 89 61zM261 242q60 0 95 26.5t35 75.5q0 48 -35 74.5t-94 26.5t-93 -28t-34 -77q0 -98 126 -98zM307 10q-114 15 -138 21
q-59 -29 -59 -82q0 -84 147 -84q160 0 160 79q0 30 -24.5 44t-85.5 22z" />
    <glyph glyph-name="Gcommaaccent" unicode="&#x122;" horiz-adv-x="753" 
d="M400 377h310v-67q0 -153 -94.5 -237t-232.5 -84q-151 0 -242 100t-91 263q0 169 97 272t254 103q104 0 176.5 -44.5t101.5 -110.5l-77 -35q-24 51 -77.5 80t-126.5 29q-117 0 -187 -76.5t-70 -214.5q0 -134 66.5 -209t175.5 -75q97 0 166.5 58.5t72.5 168.5h-222v79z
M390 -49q28 0 44.5 -21t16.5 -53q0 -36 -20.5 -75t-57.5 -69l-31 38q45 36 57 74q-10 -2 -14 -2q-22 0 -36.5 15.5t-14.5 38.5t16.5 38.5t39.5 15.5z" />
    <glyph glyph-name="gcommaaccent" unicode="&#x123;" horiz-adv-x="527" 
d="M263 549q-28 0 -44.5 21t-16.5 53q0 36 20.5 75t57.5 69l31 -38q-45 -36 -57 -74q10 2 14 2q22 0 36.5 -15.5t14.5 -38.5t-16.5 -38.5t-39.5 -15.5zM505 491q-19 -22 -70 -50q33 -41 33 -98q0 -76 -56.5 -120t-150.5 -44q-46 0 -80 10q-35 -17 -35 -44q0 -25 28.5 -36.5
t85.5 -18.5q122 -15 153 -27q44 -17 65 -44t21 -70q0 -72 -62.5 -111.5t-180.5 -39.5q-108 0 -167.5 37t-59.5 102q0 75 78 119q-38 27 -38 75q0 51 54 84q-64 42 -64 125q0 76 56 122t148 46q64 0 113 -22q54 23 89 61zM261 242q60 0 95 26.5t35 75.5q0 48 -35 74.5
t-94 26.5t-93 -28t-34 -77q0 -98 126 -98zM307 10q-114 15 -138 21q-59 -29 -59 -82q0 -84 147 -84q160 0 160 79q0 30 -24.5 44t-85.5 22z" />
    <glyph glyph-name="Hcircumflex" unicode="&#x124;" horiz-adv-x="733" 
d="M260 750l-45 43l109 102q22 22 44 22q21 0 44 -22l109 -102l-44 -43l-109 99zM93 0v714h87v-304h373v304h87v-714h-87v329h-373v-329h-87z" />
    <glyph glyph-name="hcircumflex" unicode="&#x125;" 
d="M227 752l-109 99l-108 -99l-45 43l109 102q22 22 44 22q21 0 44 -22l109 -102zM351 513q75 0 115 -40.5t40 -115.5v-357h-83v338q0 55 -20 77.5t-62 22.5q-84 0 -182 -74v-364h-84v714h84v-281q96 80 192 80z" />
    <glyph glyph-name="Hbar" unicode="&#x126;" horiz-adv-x="757" 
d="M736 595v-73h-84v-522h-87v329h-373v-329h-87v522h-84v73h84v119h87v-119h373v119h87v-119h84zM565 410v112h-373v-112h373z" />
    <glyph glyph-name="hbar" unicode="&#x127;" 
d="M351 513q75 0 115 -40.5t40 -115.5v-357h-83v338q0 55 -20 77.5t-62 22.5q-84 0 -182 -74v-364h-84v552h-65v61h65v101h84v-101h158v-61h-158v-119q96 80 192 80z" />
    <glyph glyph-name="Itilde" unicode="&#x128;" horiz-adv-x="273" 
d="M208 759q-28 0 -52.5 15.5t-44.5 30.5t-36 15q-37 0 -55 -58l-59 19q24 101 111 101q28 0 52 -15t43 -30.5t38 -15.5q35 0 49 58l62 -15q-7 -49 -39 -77t-69 -28zM93 0v714h87v-714h-87z" />
    <glyph glyph-name="itilde" unicode="&#x129;" horiz-adv-x="232" 
d="M186 571q-28 0 -52.5 15.5t-44.5 30.5t-36 15q-37 0 -55 -58l-59 19q24 101 111 101q28 0 52 -15t43 -30.5t38 -15.5q35 0 49 58l62 -15q-7 -49 -39 -77t-69 -28zM74 0v500h83v-500h-83z" />
    <glyph glyph-name="Imacron" unicode="&#x12a;" horiz-adv-x="273" 
d="M-6 843h287v-66h-287v66zM93 0v714h87v-714h-87z" />
    <glyph glyph-name="imacron" unicode="&#x12b;" horiz-adv-x="232" 
d="M-28 644h287v-66h-287v66zM74 0v500h83v-500h-83z" />
    <glyph glyph-name="Ibreve" unicode="&#x12c;" horiz-adv-x="273" 
d="M136 756q-72 0 -108.5 46t-39.5 107h70q-1 -39 18 -69.5t60 -30.5t60 30.5t18 69.5h70q-3 -61 -39.5 -107t-108.5 -46zM93 0v714h87v-714h-87z" />
    <glyph glyph-name="ibreve" unicode="&#x12d;" horiz-adv-x="232" 
d="M116 561q-72 0 -108.5 46t-39.5 107h70q-1 -39 18 -69.5t60 -30.5t60 30.5t18 69.5h70q-3 -61 -39.5 -107t-108.5 -46zM74 0v500h83v-500h-83z" />
    <glyph glyph-name="Iogonek" unicode="&#x12e;" horiz-adv-x="273" 
d="M183 -142l33 -46q-13 -16 -38.5 -29t-54.5 -13q-47 0 -76 29.5t-29 74.5q0 74 75 130v710h87v-714q-44 -16 -68 -47.5t-24 -62.5q0 -22 12.5 -36t34.5 -14q24 0 48 18z" />
    <glyph glyph-name="iogonek" unicode="&#x12f;" horiz-adv-x="233" 
d="M117 574q-25 0 -40 15t-15 41t15 41t40 15t40 -15t15 -41t-15 -41t-40 -15zM168 -136l34 -47q-12 -16 -38.5 -28.5t-55.5 -12.5q-47 0 -76 29.5t-29 74.5q0 73 72 127v493h83v-500q-41 -13 -63 -43t-22 -60q0 -22 12.5 -36.5t34.5 -14.5q24 0 48 18z" />
    <glyph glyph-name="Idotaccent" unicode="&#x130;" horiz-adv-x="273" 
d="M138 764q-25 0 -40 15t-15 41t15 41t40 15t40 -15t15 -41t-15 -41t-40 -15zM93 0v714h87v-714h-87z" />
    <glyph glyph-name="dotlessi" unicode="&#x131;" horiz-adv-x="235" 
d="M76 0v500h83v-500h-83z" />
    <glyph glyph-name="IJ" unicode="&#x132;" horiz-adv-x="733" 
d="M93 0v714h87v-714h-87zM440 -11q-124 0 -183 103l64 48q48 -69 117 -69q59 0 90 40.5t31 114.5v488h87v-509q0 -98 -55 -157t-151 -59z" />
    <glyph glyph-name="ij" unicode="&#x133;" horiz-adv-x="467" 
d="M116 574q-25 0 -40 15t-15 41t15 41t40 15t40 -15t15 -41t-15 -41t-40 -15zM351 574q-25 0 -40 15t-15 41t15 41t40 15t40 -15t15 -41t-15 -41t-40 -15zM74 0v500h83v-500h-83zM253 -195q-39 0 -73 15l18 68q29 -9 48 -9q63 0 63 78v543h83v-544q0 -76 -36.5 -113.5
t-102.5 -37.5z" />
    <glyph glyph-name="Jcircumflex" unicode="&#x134;" horiz-adv-x="490" 
d="M253 750l-45 43l109 102q22 22 44 22q21 0 44 -22l109 -102l-44 -43l-109 99zM197 -11q-124 0 -183 103l64 48q48 -69 117 -69q59 0 90 40.5t31 114.5v488h87v-509q0 -98 -55 -157t-151 -59z" />
    <glyph glyph-name="jcircumflex" unicode="&#x135;" horiz-adv-x="240" 
d="M16 558l-45 43l109 102q22 22 44 22q21 0 44 -22l109 -102l-44 -43l-109 99zM26 -195q-38 0 -73 15l18 68q29 -9 48 -9q63 0 63 78v543h83v-544q0 -76 -36.5 -113.5t-102.5 -37.5z" />
    <glyph glyph-name="Kcommaaccent" unicode="&#x136;" horiz-adv-x="585" 
d="M269 353l322 -353h-113l-298 327v-327h-87v714h87v-349l293 349h102zM322 -49q28 0 44.5 -21t16.5 -53q0 -36 -20.5 -75t-57.5 -69l-31 38q45 36 57 74q-10 -2 -14 -2q-22 0 -36.5 15.5t-14.5 38.5t16.5 38.5t39.5 15.5z" />
    <glyph glyph-name="kcommaaccent" unicode="&#x137;" horiz-adv-x="481" 
d="M237 274l246 -274h-104l-222 255v-255h-83v714h83v-423l215 209h96zM270 -49q28 0 44.5 -21t16.5 -53q0 -36 -20.5 -75t-57.5 -69l-31 38q45 36 57 74q-10 -2 -14 -2q-22 0 -36.5 15.5t-14.5 38.5t16.5 38.5t39.5 15.5z" />
    <glyph glyph-name="kgreenlandic" unicode="&#x138;" horiz-adv-x="482" 
d="M484 0h-104l-222 255v-255h-83v500h83v-209l215 209h96l-231 -226z" />
    <glyph glyph-name="Lacute" unicode="&#x139;" horiz-adv-x="550" 
d="M44 797l166 156l49 -64l-181 -134zM133 0q-17 0 -29 12t-12 29v673h87v-635h349v-79h-395z" />
    <glyph glyph-name="lacute" unicode="&#x13a;" horiz-adv-x="237" 
d="M29 797l166 156l49 -64l-181 -134zM75 0v714h87v-714h-87z" />
    <glyph glyph-name="Lcommaaccent" unicode="&#x13b;" horiz-adv-x="550" 
d="M179 79h349v-79h-395q-17 0 -29 12t-12 29v673h87v-635zM316 -49q28 0 44.5 -21t16.5 -53q0 -36 -20.5 -75t-57.5 -69l-31 38q45 36 57 74q-10 -2 -14 -2q-22 0 -36.5 15.5t-14.5 38.5t16.5 38.5t39.5 15.5z" />
    <glyph glyph-name="lcommaaccent" unicode="&#x13c;" horiz-adv-x="230" 
d="M155 714v-714h-81v714h81zM112 -49q28 0 44.5 -21t16.5 -53q0 -36 -20.5 -75t-57.5 -69l-31 38q45 36 57 74q-10 -2 -14 -2q-22 0 -36.5 15.5t-14.5 38.5t16.5 38.5t39.5 15.5z" />
    <glyph glyph-name="Lcaron" unicode="&#x13d;" horiz-adv-x="553" 
d="M369 550l45 188l73 -11l-64 -183zM133 0q-17 0 -29 12t-12 29v673h87v-635h349v-79h-395z" />
    <glyph glyph-name="lcaron" unicode="&#x13e;" horiz-adv-x="254" 
d="M205 557l45 188l73 -11l-64 -183zM74 0v714h81v-714h-81z" />
    <glyph glyph-name="Ldot" unicode="&#x13f;" horiz-adv-x="551" 
d="M133 0q-17 0 -29 12t-12 29v673h87v-635h349v-79h-395zM392 315q-26 0 -41.5 16t-15.5 42t15.5 41.5t41.5 15.5t41.5 -15.5t15.5 -41.5t-15.5 -42t-41.5 -16z" />
    <glyph glyph-name="ldot" unicode="&#x140;" horiz-adv-x="339" 
d="M74 0v714h81v-714h-81zM282 302q-26 0 -41.5 16t-15.5 42t15.5 41.5t41.5 15.5t41.5 -15.5t15.5 -41.5t-15.5 -42t-41.5 -16z" />
    <glyph glyph-name="Lslash" unicode="&#x141;" horiz-adv-x="559" 
d="M188 79h349v-79h-395q-17 0 -29 12t-12 29v216l-50 -34l-37 54l87 58v379h87v-320l114 76l38 -53l-152 -102v-236z" />
    <glyph glyph-name="lslash" unicode="&#x142;" horiz-adv-x="299" 
d="M284 400l-94 -61v-339h-81v287l-53 -34l-33 53l86 54v354h81v-303l66 42z" />
    <glyph glyph-name="Nacute" unicode="&#x143;" horiz-adv-x="768" 
d="M515 889l-181 -134l-34 42l166 156zM592 714h82v-686q0 -15 -13.5 -24.5t-32.5 -9.5q-38 0 -58 29l-395 555v-578h-82v681q0 17 13.5 27.5t35.5 10.5q18 0 31 -5.5t19 -12t16 -20.5l384 -533v566z" />
    <glyph glyph-name="nacute" unicode="&#x144;" 
d="M418 683l-181 -134l-34 42l166 156zM351 513q75 0 115 -40.5t40 -115.5v-357h-83v338q0 55 -20 77.5t-62 22.5q-84 0 -182 -74v-364h-84v500h82v-68q97 81 194 81z" />
    <glyph glyph-name="Ncommaaccent" unicode="&#x145;" horiz-adv-x="768" 
d="M592 714h82v-686q0 -15 -13.5 -24.5t-32.5 -9.5q-38 0 -58 29l-395 555v-578h-82v681q0 17 13.5 27.5t35.5 10.5q18 0 31 -5.5t19 -12t16 -20.5l384 -533v566zM394 -49q28 0 44.5 -21t16.5 -53q0 -36 -20.5 -75t-57.5 -69l-31 38q45 36 57 74q-10 -2 -14 -2
q-22 0 -36.5 15.5t-14.5 38.5t16.5 38.5t39.5 15.5z" />
    <glyph glyph-name="ncommaaccent" unicode="&#x146;" 
d="M351 513q75 0 115 -40.5t40 -115.5v-357h-83v338q0 55 -20 77.5t-62 22.5q-84 0 -182 -74v-364h-84v500h82v-68q97 81 194 81zM299 -49q28 0 44.5 -21t16.5 -53q0 -36 -20.5 -75t-57.5 -69l-31 38q45 36 57 74q-10 -2 -14 -2q-22 0 -36.5 15.5t-14.5 38.5t16.5 38.5
t39.5 15.5z" />
    <glyph glyph-name="Ncaron" unicode="&#x147;" horiz-adv-x="768" 
d="M390 752q-22 0 -44 22l-109 102l45 43l108 -99l109 99l44 -43l-109 -102q-23 -22 -44 -22zM592 714h82v-686q0 -15 -13.5 -24.5t-32.5 -9.5q-38 0 -58 29l-395 555v-578h-82v681q0 17 13.5 27.5t35.5 10.5q18 0 31 -5.5t19 -12t16 -20.5l384 -533v566z" />
    <glyph glyph-name="ncaron" unicode="&#x148;" 
d="M298 554q-22 0 -44 22l-109 102l45 43l108 -99l109 99l44 -43l-109 -102q-23 -22 -44 -22zM351 513q75 0 115 -40.5t40 -115.5v-357h-83v338q0 55 -20 77.5t-62 22.5q-84 0 -182 -74v-364h-84v500h82v-68q97 81 194 81z" />
    <glyph glyph-name="napostrophe" unicode="&#x149;" 
d="M69 748l69 -18l-83 -188l-50 15zM351 513q75 0 115 -40.5t40 -115.5v-357h-83v338q0 55 -20 77.5t-62 22.5q-84 0 -182 -74v-364h-84v500h82v-68q97 81 194 81z" />
    <glyph glyph-name="Eng" unicode="&#x14a;" horiz-adv-x="758" 
d="M579 714h87v-694q0 -110 -54.5 -168t-143.5 -58q-82 0 -150 41l34 73q57 -32 117 -32q51 0 79 37t31 98l-404 566v-577h-82v681q0 17 13.5 27.5t35.5 10.5q18 0 31 -5.5t19 -12t16 -20.5l371 -515v548z" />
    <glyph glyph-name="eng" unicode="&#x14b;" 
d="M351 513q75 0 115 -40.5t40 -115.5v-414q0 -61 -36 -97t-93 -36q-48 0 -88 20l22 65q29 -12 55 -12q31 0 44 17t13 53v385q0 55 -20 77.5t-62 22.5q-84 0 -182 -74v-364h-84v500h82v-68q97 81 194 81z" />
    <glyph glyph-name="Omacron" unicode="&#x14c;" horiz-adv-x="776" 
d="M245 843h287v-66h-287v66zM389 -11q-152 0 -245.5 101.5t-93.5 266.5q0 166 93.5 268t245.5 102q151 0 244 -102t93 -268q0 -165 -93 -266.5t-244 -101.5zM389 71q109 0 177.5 75.5t68.5 210.5q0 136 -68.5 212t-177.5 76q-110 0 -179 -76t-69 -212q0 -135 69 -210.5
t179 -75.5z" />
    <glyph glyph-name="omacron" unicode="&#x14d;" horiz-adv-x="566" 
d="M139 644h287v-66h-287v66zM283 -13q-109 0 -174.5 72t-64.5 191t66.5 191t172.5 72q109 0 174 -72t65 -191t-65 -191t-174 -72zM283 60q77 0 116.5 48.5t39.5 141.5t-39.5 141.5t-116.5 48.5q-76 0 -116 -49t-40 -141q0 -93 39.5 -141.5t116.5 -48.5z" />
    <glyph glyph-name="Obreve" unicode="&#x14e;" horiz-adv-x="776" 
d="M387 756q-72 0 -108.5 46t-39.5 107h70q-1 -39 18 -69.5t60 -30.5t60 30.5t18 69.5h70q-3 -61 -39.5 -107t-108.5 -46zM389 -11q-152 0 -245.5 101.5t-93.5 266.5q0 166 93.5 268t245.5 102q151 0 244 -102t93 -268q0 -165 -93 -266.5t-244 -101.5zM389 71
q109 0 177.5 75.5t68.5 210.5q0 136 -68.5 212t-177.5 76q-110 0 -179 -76t-69 -212q0 -135 69 -210.5t179 -75.5z" />
    <glyph glyph-name="obreve" unicode="&#x14f;" horiz-adv-x="566" 
d="M283 561q-72 0 -108.5 46t-39.5 107h70q-1 -39 18 -69.5t60 -30.5t60 30.5t18 69.5h70q-3 -61 -39.5 -107t-108.5 -46zM283 -13q-109 0 -174.5 72t-64.5 191t66.5 191t172.5 72q109 0 174 -72t65 -191t-65 -191t-174 -72zM283 60q77 0 116.5 48.5t39.5 141.5t-39.5 141.5
t-116.5 48.5q-76 0 -116 -49t-40 -141q0 -93 39.5 -141.5t116.5 -48.5z" />
    <glyph glyph-name="Ohungarumlaut" unicode="&#x150;" horiz-adv-x="776" 
d="M274 790l96 184l66 -37l-116 -175zM404 790l106 184l66 -37l-126 -175zM389 -11q-152 0 -245.5 101.5t-93.5 266.5q0 166 93.5 268t245.5 102q151 0 244 -102t93 -268q0 -165 -93 -266.5t-244 -101.5zM389 71q109 0 177.5 75.5t68.5 210.5q0 136 -68.5 212t-177.5 76
q-110 0 -179 -76t-69 -212q0 -135 69 -210.5t179 -75.5z" />
    <glyph glyph-name="ohungarumlaut" unicode="&#x151;" horiz-adv-x="566" 
d="M163 581l96 184l66 -37l-116 -175zM293 581l106 184l66 -37l-126 -175zM283 -13q-109 0 -174.5 72t-64.5 191t66.5 191t172.5 72q109 0 174 -72t65 -191t-65 -191t-174 -72zM283 60q77 0 116.5 48.5t39.5 141.5t-39.5 141.5t-116.5 48.5q-76 0 -116 -49t-40 -141
q0 -93 39.5 -141.5t116.5 -48.5z" />
    <glyph glyph-name="OE" unicode="&#x152;" horiz-adv-x="1124" 
d="M1076 637h-354v-230h308v-79h-308v-249h344v-79h-431v99q-93 -110 -248 -110q-150 0 -243.5 101.5t-93.5 266.5t93.5 267.5t243.5 102.5q154 0 248 -107v54q0 21 13.5 31.5t31.5 10.5h396v-79zM387 71q108 0 176 75.5t68 210.5q0 136 -68 212t-176 76t-177 -76t-69 -212
q0 -135 68.5 -210.5t177.5 -75.5z" />
    <glyph glyph-name="oe" unicode="&#x153;" horiz-adv-x="932" 
d="M677 60q88 0 157 64l44 -58q-88 -79 -205 -79q-61 0 -111.5 26t-81.5 76q-62 -102 -193 -102q-111 0 -177.5 72t-65.5 191t67.5 191t175.5 72q138 0 197 -111q70 109 213 109q78 0 136.5 -45t58.5 -127q0 -58 -35 -92t-97 -34h-235q7 -71 45.5 -112t106.5 -41zM692 446
q-69 0 -115 -46t-53 -124h226q29 0 47 17.5t18 52.5q0 41 -33.5 70.5t-89.5 29.5zM284 60q78 0 117.5 48.5t39.5 141.5t-39.5 141.5t-116.5 48.5q-78 0 -118 -48.5t-40 -141.5t39.5 -141.5t117.5 -48.5z" />
    <glyph glyph-name="Racute" unicode="&#x154;" horiz-adv-x="613" 
d="M430 889l-181 -134l-34 42l166 156zM457 0l-178 294h-99v-294h-87v673q0 17 12 29t29 12h195q110 0 168.5 -58.5t58.5 -153.5q0 -83 -46.5 -135.5t-131.5 -67.5l192 -299h-113zM180 635v-265h127q77 0 117.5 35t40.5 100q0 61 -40 95.5t-114 34.5h-131z" />
    <glyph glyph-name="racute" unicode="&#x155;" horiz-adv-x="383" 
d="M342 683l-181 -134l-34 42l166 156zM315 513q33 0 61 -12l-13 -71q-35 7 -53 7q-82 0 -153 -75v-362h-82v500h80v-66q29 38 72 58.5t88 20.5z" />
    <glyph glyph-name="Rcommaaccent" unicode="&#x156;" horiz-adv-x="613" 
d="M378 299l192 -299h-113l-178 294h-99v-294h-87v673q0 17 12 29t29 12h195q110 0 168.5 -58.5t58.5 -153.5q0 -83 -46.5 -135.5t-131.5 -67.5zM180 635v-265h127q77 0 117.5 35t40.5 100q0 61 -40 95.5t-114 34.5h-131zM319 -49q28 0 44.5 -21t16.5 -53q0 -36 -20.5 -75
t-57.5 -69l-31 38q45 36 57 74q-10 -2 -14 -2q-22 0 -36.5 15.5t-14.5 38.5t16.5 38.5t39.5 15.5z" />
    <glyph glyph-name="rcommaaccent" unicode="&#x157;" horiz-adv-x="383" 
d="M315 513q33 0 61 -12l-13 -71q-35 7 -53 7q-82 0 -153 -75v-362h-82v500h80v-66q29 38 72 58.5t88 20.5zM119 -49q28 0 44.5 -21t16.5 -53q0 -36 -20.5 -75t-57.5 -69l-31 38q45 36 57 74q-10 -2 -14 -2q-22 0 -36.5 15.5t-14.5 38.5t16.5 38.5t39.5 15.5z" />
    <glyph glyph-name="Rcaron" unicode="&#x158;" horiz-adv-x="613" 
d="M305 752q-22 0 -44 22l-109 102l45 43l108 -99l109 99l44 -43l-109 -102q-23 -22 -44 -22zM457 0l-178 294h-99v-294h-87v673q0 17 12 29t29 12h195q110 0 168.5 -58.5t58.5 -153.5q0 -83 -46.5 -135.5t-131.5 -67.5l192 -299h-113zM180 635v-265h127q77 0 117.5 35
t40.5 100q0 61 -40 95.5t-114 34.5h-131z" />
    <glyph glyph-name="rcaron" unicode="&#x159;" horiz-adv-x="383" 
d="M222 554q-22 0 -44 22l-109 102l45 43l108 -99l109 99l44 -43l-109 -102q-23 -22 -44 -22zM315 513q33 0 61 -12l-13 -71q-35 7 -53 7q-82 0 -153 -75v-362h-82v500h80v-66q29 38 72 58.5t88 20.5z" />
    <glyph glyph-name="Sacute" unicode="&#x15a;" horiz-adv-x="565" 
d="M195 797l166 156l49 -64l-181 -134zM274 -11q-75 0 -139.5 30t-100.5 83l57 55q75 -90 186 -90q70 0 115.5 35.5t45.5 91.5q0 13 -2 24.5t-9 22l-12 17.5t-18.5 15t-20 12.5t-26 12.5t-26.5 10.5l-31 11l-32 11.5q-46 16 -75 30t-61.5 37.5t-48 56.5t-15.5 77
q0 93 67 144t169 51q112 0 202 -67l-45 -64q-78 56 -160 56q-63 0 -105.5 -30t-42.5 -85q0 -27 10.5 -47.5t35.5 -36t44.5 -23.5t58.5 -22q11 -4 17 -6q100 -36 137 -61q77 -52 77 -143q0 -96 -73.5 -152.5t-178.5 -56.5z" />
    <glyph glyph-name="sacute" unicode="&#x15b;" horiz-adv-x="460" 
d="M149 591l166 156l49 -64l-181 -134zM224 -11q-57 0 -109.5 20t-86.5 59l40 53q69 -64 157 -64q47 0 82 19.5t35 57.5q0 12 -3.5 22.5t-12.5 18.5t-16.5 13.5t-22.5 11.5t-23 8.5t-27 8t-25 7.5q-74 23 -114.5 54.5t-40.5 91.5q0 69 52.5 106t131.5 37q97 0 169 -54
l-39 -55q-62 43 -130 43q-46 0 -76 -19.5t-30 -52.5q0 -18 8.5 -31.5t26.5 -23t33 -15t39 -12.5q5 -1 7 -2q86 -26 129.5 -57t43.5 -94q0 -72 -57.5 -111.5t-140.5 -39.5z" />
    <glyph glyph-name="Scircumflex" unicode="&#x15c;" horiz-adv-x="565" 
d="M178 750l-45 43l109 102q22 22 44 22q21 0 44 -22l109 -102l-44 -43l-109 99zM274 -11q-75 0 -139.5 30t-100.5 83l57 55q75 -90 186 -90q70 0 115.5 35.5t45.5 91.5q0 13 -2 24.5t-9 22l-12 17.5t-18.5 15t-20 12.5t-26 12.5t-26.5 10.5l-31 11l-32 11.5q-46 16 -75 30
t-61.5 37.5t-48 56.5t-15.5 77q0 93 67 144t169 51q112 0 202 -67l-45 -64q-78 56 -160 56q-63 0 -105.5 -30t-42.5 -85q0 -27 10.5 -47.5t35.5 -36t44.5 -23.5t58.5 -22q11 -4 17 -6q100 -36 137 -61q77 -52 77 -143q0 -96 -73.5 -152.5t-178.5 -56.5z" />
    <glyph glyph-name="scircumflex" unicode="&#x15d;" horiz-adv-x="460" 
d="M136 558l-45 43l109 102q22 22 44 22q21 0 44 -22l109 -102l-44 -43l-109 99zM224 -11q-57 0 -109.5 20t-86.5 59l40 53q69 -64 157 -64q47 0 82 19.5t35 57.5q0 12 -3.5 22.5t-12.5 18.5t-16.5 13.5t-22.5 11.5t-23 8.5t-27 8t-25 7.5q-74 23 -114.5 54.5t-40.5 91.5
q0 69 52.5 106t131.5 37q97 0 169 -54l-39 -55q-62 43 -130 43q-46 0 -76 -19.5t-30 -52.5q0 -18 8.5 -31.5t26.5 -23t33 -15t39 -12.5q5 -1 7 -2q86 -26 129.5 -57t43.5 -94q0 -72 -57.5 -111.5t-140.5 -39.5z" />
    <glyph glyph-name="Scedilla" unicode="&#x15e;" horiz-adv-x="565" 
d="M274 -11q-75 0 -139.5 30t-100.5 83l57 55q75 -90 186 -90q70 0 115.5 35.5t45.5 91.5q0 13 -2 24.5t-9 22l-12 17.5t-18.5 15t-20 12.5t-26 12.5t-26.5 10.5l-31 11l-32 11.5q-46 16 -75 30t-61.5 37.5t-48 56.5t-15.5 77q0 93 67 144t169 51q112 0 202 -67l-45 -64
q-78 56 -160 56q-63 0 -105.5 -30t-42.5 -85q0 -27 10.5 -47.5t35.5 -36t44.5 -23.5t58.5 -22q11 -4 17 -6q100 -36 137 -61q77 -52 77 -143q0 -96 -73.5 -152.5t-178.5 -56.5zM246 -235q-59 0 -102 27l21 55q38 -22 76 -22q27 0 43.5 11t16.5 28q0 37 -83 41l8 55
q141 -1 141 -100q0 -39 -33.5 -67t-87.5 -28z" />
    <glyph glyph-name="scedilla" unicode="&#x15f;" horiz-adv-x="460" 
d="M224 -11q-57 0 -109.5 20t-86.5 59l40 53q69 -64 157 -64q47 0 82 19.5t35 57.5q0 12 -3.5 22.5t-12.5 18.5t-16.5 13.5t-22.5 11.5t-23 8.5t-27 8t-25 7.5q-74 23 -114.5 54.5t-40.5 91.5q0 69 52.5 106t131.5 37q97 0 169 -54l-39 -55q-62 43 -130 43q-46 0 -76 -19.5
t-30 -52.5q0 -18 8.5 -31.5t26.5 -23t33 -15t39 -12.5q5 -1 7 -2q86 -26 129.5 -57t43.5 -94q0 -72 -57.5 -111.5t-140.5 -39.5zM202 -238q-59 0 -102 27l21 55q38 -22 76 -22q27 0 43.5 11t16.5 28q0 37 -83 41l8 55q141 -1 141 -100q0 -39 -33.5 -67t-87.5 -28z" />
    <glyph glyph-name="Scaron" unicode="&#x160;" horiz-adv-x="565" 
d="M177 919l108 -99l109 99l44 -43l-109 -102q-23 -22 -44 -22q-22 0 -44 22l-109 102zM274 -11q-75 0 -139.5 30t-100.5 83l57 55q75 -90 186 -90q70 0 115.5 35.5t45.5 91.5q0 13 -2 24.5t-9 22l-12 17.5t-18.5 15t-20 12.5t-26 12.5t-26.5 10.5l-31 11l-32 11.5
q-46 16 -75 30t-61.5 37.5t-48 56.5t-15.5 77q0 93 67 144t169 51q112 0 202 -67l-45 -64q-78 56 -160 56q-63 0 -105.5 -30t-42.5 -85q0 -27 10.5 -47.5t35.5 -36t44.5 -23.5t58.5 -22q11 -4 17 -6q100 -36 137 -61q77 -52 77 -143q0 -96 -73.5 -152.5t-178.5 -56.5z" />
    <glyph glyph-name="scaron" unicode="&#x161;" horiz-adv-x="460" 
d="M136 721l108 -99l109 99l44 -43l-109 -102q-23 -22 -44 -22q-22 0 -44 22l-109 102zM224 -11q-57 0 -109.5 20t-86.5 59l40 53q69 -64 157 -64q47 0 82 19.5t35 57.5q0 12 -3.5 22.5t-12.5 18.5t-16.5 13.5t-22.5 11.5t-23 8.5t-27 8t-25 7.5q-74 23 -114.5 54.5
t-40.5 91.5q0 69 52.5 106t131.5 37q97 0 169 -54l-39 -55q-62 43 -130 43q-46 0 -76 -19.5t-30 -52.5q0 -18 8.5 -31.5t26.5 -23t33 -15t39 -12.5q5 -1 7 -2q86 -26 129.5 -57t43.5 -94q0 -72 -57.5 -111.5t-140.5 -39.5z" />
    <glyph glyph-name="Tcaron" unicode="&#x164;" horiz-adv-x="570" 
d="M177 919l108 -99l109 99l44 -43l-109 -102q-23 -22 -44 -22q-22 0 -44 22l-109 102zM549 714v-79h-220v-635h-87v635h-221v79h528z" />
    <glyph glyph-name="tcaron" unicode="&#x165;" horiz-adv-x="397" 
d="M412 734l-64 -183l-54 6l45 188zM268 66q43 0 90 30l33 -63q-61 -44 -134 -44q-77 0 -114 46t-37 126v274h-88v65h88v155h81v-155h178v-65h-178v-278q0 -47 24 -69t57 -22z" />
    <glyph glyph-name="Tbar" unicode="&#x166;" horiz-adv-x="580" 
d="M554 635h-220v-230h122v-77h-122v-328h-87v328h-122v77h122v230h-221v79h528v-79z" />
    <glyph glyph-name="tbar" unicode="&#x167;" horiz-adv-x="406" 
d="M365 96l33 -63q-61 -44 -134 -44q-77 0 -114 46t-37 126v87h-88v62h88v125h-88v65h88v155h81v-155h178v-65h-178v-125h178v-62h-178v-91q0 -47 24 -69t57 -22q43 0 90 30z" />
    <glyph glyph-name="Utilde" unicode="&#x168;" horiz-adv-x="687" 
d="M415 759q-35 0 -75 30.5t-58 30.5q-37 0 -55 -58l-59 19q24 101 111 101q29 0 52.5 -15t42.5 -30.5t38 -15.5q34 0 49 58l62 -15q-7 -49 -39 -77t-69 -28zM343 -11q-124 0 -190.5 66t-66.5 179v480h87v-476q0 -167 170 -167q171 0 171 167v476h87v-480q0 -113 -67 -179
t-191 -66z" />
    <glyph glyph-name="utilde" unicode="&#x169;" 
d="M223 632q-37 0 -55 -58l-59 19q24 101 111 101q28 0 52 -15t43 -30.5t38 -15.5q35 0 49 58l62 -15q-7 -49 -39 -77t-69 -28q-28 0 -52.5 15.5t-44.5 30.5t-36 15zM420 500h82v-501h-81v83q-101 -95 -195 -95q-74 0 -114.5 40t-40.5 115v358h82v-341q0 -50 20 -73.5
t63 -23.5q77 0 184 88v350z" />
    <glyph glyph-name="Umacron" unicode="&#x16a;" horiz-adv-x="687" 
d="M201 843h287v-66h-287v66zM343 -11q-124 0 -190.5 66t-66.5 179v480h87v-476q0 -167 170 -167q171 0 171 167v476h87v-480q0 -113 -67 -179t-191 -66z" />
    <glyph glyph-name="umacron" unicode="&#x16b;" 
d="M429 644v-66h-287v66h287zM420 500h82v-501h-81v83q-101 -95 -195 -95q-74 0 -114.5 40t-40.5 115v358h82v-341q0 -50 20 -73.5t63 -23.5q77 0 184 88v350z" />
    <glyph glyph-name="Ubreve" unicode="&#x16c;" horiz-adv-x="687" 
d="M343 756q-72 0 -108.5 46t-39.5 107h70q-1 -39 18 -69.5t60 -30.5t60 30.5t18 69.5h70q-3 -61 -39.5 -107t-108.5 -46zM343 -11q-124 0 -190.5 66t-66.5 179v480h87v-476q0 -167 170 -167q171 0 171 167v476h87v-480q0 -113 -67 -179t-191 -66z" />
    <glyph glyph-name="ubreve" unicode="&#x16d;" 
d="M286 561q-72 0 -108.5 46t-39.5 107h70q-1 -39 18 -69.5t60 -30.5t60 30.5t18 69.5h70q-3 -61 -39.5 -107t-108.5 -46zM420 500h82v-501h-81v83q-101 -95 -195 -95q-74 0 -114.5 40t-40.5 115v358h82v-341q0 -50 20 -73.5t63 -23.5q77 0 184 88v350z" />
    <glyph glyph-name="Uring" unicode="&#x16e;" horiz-adv-x="687" 
d="M344 744q-41 0 -68.5 27t-27.5 67q0 39 28 66t68 27t67.5 -27t27.5 -66q0 -40 -27.5 -67t-67.5 -27zM344 791q20 0 33 13.5t13 33.5t-13 33t-33 13t-33.5 -13t-13.5 -33t13.5 -33.5t33.5 -13.5zM343 -11q-124 0 -190.5 66t-66.5 179v480h87v-476q0 -167 170 -167
q171 0 171 167v476h87v-480q0 -113 -67 -179t-191 -66z" />
    <glyph glyph-name="uring" unicode="&#x16f;" 
d="M286 555q-41 0 -68.5 27t-27.5 67q0 39 28 66t68 27t67.5 -27t27.5 -66q0 -40 -27.5 -67t-67.5 -27zM286 695q-20 0 -33.5 -13t-13.5 -33t13.5 -33.5t33.5 -13.5t33 13.5t13 33.5q0 19 -13 32.5t-33 13.5zM420 500h82v-501h-81v83q-101 -95 -195 -95q-74 0 -114.5 40
t-40.5 115v358h82v-341q0 -50 20 -73.5t63 -23.5q77 0 184 88v350z" />
    <glyph glyph-name="Uhungarumlaut" unicode="&#x170;" horiz-adv-x="687" 
d="M230 790l96 184l66 -37l-116 -175zM360 790l106 184l66 -37l-126 -175zM343 -11q-124 0 -190.5 66t-66.5 179v480h87v-476q0 -167 170 -167q171 0 171 167v476h87v-480q0 -113 -67 -179t-191 -66z" />
    <glyph glyph-name="uhungarumlaut" unicode="&#x171;" 
d="M328 728l-116 -175l-46 28l96 184zM342 553l-46 28l106 184l66 -37zM420 500h82v-501h-81v83q-101 -95 -195 -95q-74 0 -114.5 40t-40.5 115v358h82v-341q0 -50 20 -73.5t63 -23.5q77 0 184 88v350z" />
    <glyph glyph-name="Uogonek" unicode="&#x172;" horiz-adv-x="687" 
d="M514 714h87v-480q0 -103 -56 -167.5t-161 -75.5q-74 -41 -74 -100q0 -22 13 -36t35 -14q24 0 48 18l33 -47q-13 -16 -38.5 -28.5t-54.5 -12.5q-47 0 -76 29.5t-29 74.5q0 64 58 116q-103 12 -158 76.5t-55 166.5v480h87v-476q0 -167 170 -167q171 0 171 167v476z" />
    <glyph glyph-name="uogonek" unicode="&#x173;" 
d="M512 -137l34 -47q-12 -16 -38.5 -28.5t-55.5 -12.5q-47 0 -76 29.5t-29 74.5q0 74 74 128v75q-101 -95 -195 -95q-74 0 -114.5 40t-40.5 115v358h82v-341q0 -50 20 -73.5t63 -23.5q77 0 184 88v350h82v-501q-41 -13 -63 -43t-22 -60q0 -22 12.5 -36.5t34.5 -14.5
q24 0 48 18z" />
    <glyph glyph-name="Wcircumflex" unicode="&#x174;" horiz-adv-x="948" 
d="M476 849l-108 -99l-45 43l109 102q22 22 44 22q21 0 44 -22l109 -102l-44 -43zM831 714h93l-175 -681q-11 -44 -72 -44q-59 0 -71 44l-132 453l-133 -452q-13 -45 -72 -45q-61 0 -72 44l-171 681h97l150 -629l163 549h77l165 -551z" />
    <glyph glyph-name="wcircumflex" unicode="&#x175;" horiz-adv-x="747" 
d="M375 657l-108 -99l-45 43l109 102q22 22 44 22q21 0 44 -22l109 -102l-44 -43zM637 500h90l-133 -467q-16 -39 -57 -39q-23 0 -36 8.5t-22 30.5l-105 383l-106 -383q-16 -39 -57 -39q-23 0 -36.5 8.5t-22.5 30.5l-131 467h91l100 -409l116 409h93l117 -409z" />
    <glyph glyph-name="Ycircumflex" unicode="&#x176;" horiz-adv-x="619" 
d="M311 849l-108 -99l-45 43l109 102q22 22 44 22q21 0 44 -22l109 -102l-44 -43zM602 714l-249 -441v-273h-87v273l-248 441h103l190 -353l191 353h100z" />
    <glyph glyph-name="ycircumflex" unicode="&#x177;" horiz-adv-x="508" 
d="M253 657l-108 -99l-45 43l109 102q22 22 44 22q21 0 44 -22l109 -102l-44 -43zM405 500h91l-230 -576q-50 -124 -157 -124q-66 0 -104 43l35 54q35 -26 67 -26q31 0 53 20.5t40 67.5l21 55l-206 486h85l161 -392z" />
    <glyph glyph-name="Ydieresis" unicode="&#x178;" horiz-adv-x="619" 
d="M220 767q-25 0 -39 14.5t-14 39.5t14 39.5t39 14.5t39 -14.5t14 -39.5t-14 -39.5t-39 -14.5zM410 767q-25 0 -39 14.5t-14 39.5t14 39.5t39 14.5t39 -14.5t14 -39.5t-14 -39.5t-39 -14.5zM602 714l-249 -441v-273h-87v273l-248 441h103l190 -353l191 353h100z" />
    <glyph glyph-name="Zacute" unicode="&#x179;" horiz-adv-x="572" 
d="M207 797l166 156l49 -64l-181 -134zM60 0q-22 0 -31 28.5t5 51.5l392 553h-367v81h429q26 0 37 -29.5t-5 -56.5l-390 -547h403v-81h-473z" />
    <glyph glyph-name="zacute" unicode="&#x17a;" horiz-adv-x="475" 
d="M145 591l166 156l49 -64l-181 -134zM66 0q-27 0 -34.5 28t7.5 44l293 359h-278v69h348q16 0 25 -12.5t7.5 -30t-11.5 -29.5l-294 -359h307v-69h-370z" />
    <glyph glyph-name="Zdotaccent" unicode="&#x17b;" horiz-adv-x="572" 
d="M298 764q-25 0 -40 15t-15 41t15 41t40 15t40 -15t15 -41t-15 -41t-40 -15zM60 0q-22 0 -31 28.5t5 51.5l392 553h-367v81h429q26 0 37 -29.5t-5 -56.5l-390 -547h403v-81h-473z" />
    <glyph glyph-name="zdotaccent" unicode="&#x17c;" horiz-adv-x="475" 
d="M240 574q-25 0 -40 15t-15 41t15 41t40 15t40 -15t15 -41t-15 -41t-40 -15zM66 0q-27 0 -34.5 28t7.5 44l293 359h-278v69h348q16 0 25 -12.5t7.5 -30t-11.5 -29.5l-294 -359h307v-69h-370z" />
    <glyph glyph-name="Zcaron" unicode="&#x17d;" horiz-adv-x="572" 
d="M189 919l108 -99l109 99l44 -43l-109 -102q-23 -22 -44 -22q-22 0 -44 22l-109 102zM60 0q-22 0 -31 28.5t5 51.5l392 553h-367v81h429q26 0 37 -29.5t-5 -56.5l-390 -547h403v-81h-473z" />
    <glyph glyph-name="zcaron" unicode="&#x17e;" horiz-adv-x="475" 
d="M132 721l108 -99l109 99l44 -43l-109 -102q-23 -22 -44 -22q-22 0 -44 22l-109 102zM66 0q-27 0 -34.5 28t7.5 44l293 359h-278v69h348q16 0 25 -12.5t7.5 -30t-11.5 -29.5l-294 -359h307v-69h-370z" />
    <glyph glyph-name="Scommaaccent" unicode="&#x218;" horiz-adv-x="565" 
d="M312 402q100 -36 137 -61q77 -52 77 -143q0 -96 -73.5 -152.5t-178.5 -56.5q-75 0 -139.5 30t-100.5 83l57 55q75 -90 186 -90q70 0 115.5 35.5t45.5 91.5q0 13 -2 24.5t-9 22l-12 17.5t-18.5 15t-20 12.5t-26 12.5t-26.5 10.5l-31 11l-32 11.5q-46 16 -75 30t-61.5 37.5
t-48 56.5t-15.5 77q0 93 67 144t169 51q112 0 202 -67l-45 -64q-78 56 -160 56q-63 0 -105.5 -30t-42.5 -85q0 -27 10.5 -47.5t35.5 -36t44.5 -23.5t58.5 -22q11 -4 17 -6zM275 -49q28 0 44.5 -21t16.5 -53q0 -36 -20.5 -75t-57.5 -69l-31 38q45 36 57 74q-10 -2 -14 -2
q-22 0 -36.5 15.5t-14.5 38.5t16.5 38.5t39.5 15.5z" />
    <glyph glyph-name="scommaaccent" unicode="&#x219;" horiz-adv-x="460" 
d="M249 291q86 -26 129.5 -57t43.5 -94q0 -72 -57.5 -111.5t-140.5 -39.5q-57 0 -109.5 20t-86.5 59l40 53q69 -64 157 -64q47 0 82 19.5t35 57.5q0 12 -3.5 22.5t-12.5 18.5t-16.5 13.5t-22.5 11.5t-23 8.5t-27 8t-25 7.5q-74 23 -114.5 54.5t-40.5 91.5q0 69 52.5 106
t131.5 37q97 0 169 -54l-39 -55q-62 43 -130 43q-46 0 -76 -19.5t-30 -52.5q0 -18 8.5 -31.5t26.5 -23t33 -15t39 -12.5q5 -1 7 -2zM221 -49q28 0 44.5 -21t16.5 -53q0 -36 -20.5 -75t-57.5 -69l-31 38q45 36 57 74q-10 -2 -14 -2q-22 0 -36.5 15.5t-14.5 38.5t16.5 38.5
t39.5 15.5z" />
    <glyph glyph-name="uni021A" unicode="&#x21a;" horiz-adv-x="570" 
d="M21 714h528v-79h-220v-635h-87v635h-221v79zM285 -49q28 0 44.5 -21t16.5 -53q0 -36 -20.5 -75t-57.5 -69l-31 38q45 36 57 74q-10 -2 -14 -2q-22 0 -36.5 15.5t-14.5 38.5t16.5 38.5t39.5 15.5z" />
    <glyph glyph-name="uni021B" unicode="&#x21b;" horiz-adv-x="383" 
d="M378 33q-61 -44 -134 -44q-77 0 -114 46t-37 126v274h-88v65h88v155h81v-155h178v-65h-178v-278q0 -47 24 -69t57 -22q43 0 90 30zM206 -44q28 0 44.5 -21t16.5 -53q0 -36 -20.5 -75t-57.5 -69l-31 38q45 36 57 74q-10 -2 -14 -2q-22 0 -36.5 15.5t-14.5 38.5t16.5 38.5
t39.5 15.5z" />
    <glyph glyph-name="uni0237" unicode="&#x237;" horiz-adv-x="235" 
d="M20 -195q-38 0 -73 15l18 68q29 -9 48 -9q63 0 63 78v543h83v-544q0 -76 -36.5 -113.5t-102.5 -37.5z" />
    <glyph glyph-name="circumflex" unicode="&#x2c6;" horiz-adv-x="538" 
d="M161 558l-45 43l109 102q22 22 44 22q21 0 44 -22l109 -102l-44 -43l-109 99z" />
    <glyph glyph-name="caron" unicode="&#x2c7;" horiz-adv-x="513" 
d="M149 721l108 -99l109 99l44 -43l-109 -102q-23 -22 -44 -22q-22 0 -44 22l-109 102z" />
    <glyph glyph-name="breve" unicode="&#x2d8;" horiz-adv-x="400" 
d="M200 561q-72 0 -108.5 46t-39.5 107h70q-1 -39 18 -69.5t60 -30.5t60 30.5t18 69.5h70q-3 -61 -39.5 -107t-108.5 -46z" />
    <glyph glyph-name="dotaccent" unicode="&#x2d9;" horiz-adv-x="304" 
d="M152 569q-25 0 -40 15t-15 41t15 41t40 15t40 -15t15 -41t-15 -41t-40 -15z" />
    <glyph glyph-name="ring" unicode="&#x2da;" horiz-adv-x="356" 
d="M179 555q-41 0 -68.5 27t-27.5 67q0 39 28 66t68 27t67.5 -27t27.5 -66q0 -40 -27.5 -67t-67.5 -27zM179 602q20 0 33 13.5t13 33.5q0 19 -13.5 32.5t-32.5 13.5q-20 0 -33.5 -13t-13.5 -33t13.5 -33.5t33.5 -13.5z" />
    <glyph glyph-name="ogonek" unicode="&#x2db;" horiz-adv-x="384" 
d="M197 -229q-47 0 -76 29.5t-29 74.5q0 86 105 145l59 -19q-45 -16 -69.5 -47.5t-24.5 -62.5q0 -22 12.5 -36t34.5 -14q24 0 48 20l35 -46q-13 -18 -39 -31t-56 -13z" />
    <glyph glyph-name="tilde" unicode="&#x2dc;" horiz-adv-x="496" 
d="M318 571q-28 0 -52.5 15.5t-44.5 30.5t-36 15q-37 0 -55 -58l-59 19q24 101 111 101q28 0 52 -15t43 -30.5t38 -15.5q35 0 49 58l62 -15q-7 -49 -39 -77t-69 -28z" />
    <glyph glyph-name="hungarumlaut" unicode="&#x2dd;" horiz-adv-x="462" 
d="M80 581l96 184l66 -37l-116 -175zM210 581l106 184l66 -37l-126 -175z" />
    <glyph glyph-name="uni0394" unicode="&#x394;" horiz-adv-x="767" 
d="M35 0v69l274 591q15 33 31.5 47.5t43.5 14.5t43 -14.5t31 -47.5l274 -591v-69h-697zM132 82h503l-252 556z" />
    <glyph glyph-name="uni03A9" unicode="&#x3a9;" horiz-adv-x="744" 
d="M709 357q0 -83 -40 -158.5t-104 -121.5h132v-77h-249v67q94 65 132 130t38 160q0 136 -69 212t-177 76t-177 -76t-69 -212q0 -91 38.5 -156.5t131.5 -136.5v-64h-249v77h132q-64 46 -104 121.5t-40 158.5q0 165 93.5 267.5t243.5 102.5t243.5 -102.5t93.5 -267.5z" />
    <glyph glyph-name="uni03BC" unicode="&#x3bc;" horiz-adv-x="581" 
d="M501 133q0 -41 15 -55t52 -24l-15 -67q-106 7 -128 92q-81 -92 -178 -92q-53 0 -89 31v-204h-82v686h82v-343q0 -48 27 -72.5t72 -24.5q85 0 162 93v347h82v-367z" />
    <glyph glyph-name="pi" unicode="&#x3c0;" horiz-adv-x="537" 
d="M532 435h-85v-296q0 -39 9.5 -57t39.5 -36l-39 -69q-49 25 -70.5 54.5t-21.5 91.5v312h-200v-435h-82v435h-83v65h532v-65z" />
    <glyph glyph-name="Wgrave" unicode="&#x1e80;" horiz-adv-x="948" 
d="M581 798l-34 -42l-181 134l49 64zM831 714h93l-175 -681q-11 -44 -72 -44q-59 0 -71 44l-132 453l-133 -452q-13 -45 -72 -45q-61 0 -72 44l-171 681h97l150 -629l163 549h77l165 -551z" />
    <glyph glyph-name="wgrave" unicode="&#x1e81;" horiz-adv-x="747" 
d="M485 591l-34 -42l-181 134l49 64zM637 500h90l-133 -467q-16 -39 -57 -39q-23 0 -36 8.5t-22 30.5l-105 383l-106 -383q-16 -39 -57 -39q-23 0 -36.5 8.5t-22.5 30.5l-131 467h91l100 -409l116 409h93l117 -409z" />
    <glyph glyph-name="Wacute" unicode="&#x1e82;" horiz-adv-x="948" 
d="M600 889l-181 -134l-34 42l166 156zM831 714h93l-175 -681q-11 -44 -72 -44q-59 0 -71 44l-132 453l-133 -452q-13 -45 -72 -45q-61 0 -72 44l-171 681h97l150 -629l163 549h77l165 -551z" />
    <glyph glyph-name="wacute" unicode="&#x1e83;" horiz-adv-x="747" 
d="M495 683l-181 -134l-34 42l166 156zM637 500h90l-133 -467q-16 -39 -57 -39q-23 0 -36 8.5t-22 30.5l-105 383l-106 -383q-16 -39 -57 -39q-23 0 -36.5 8.5t-22.5 30.5l-131 467h91l100 -409l116 409h93l117 -409z" />
    <glyph glyph-name="Wdieresis" unicode="&#x1e84;" horiz-adv-x="948" 
d="M385 767q-25 0 -39 14.5t-14 39.5t14 39.5t39 14.5t39 -14.5t14 -39.5t-14 -39.5t-39 -14.5zM575 767q-25 0 -39 14.5t-14 39.5t14 39.5t39 14.5t39 -14.5t14 -39.5t-14 -39.5t-39 -14.5zM831 714h93l-175 -681q-11 -44 -72 -44q-59 0 -71 44l-132 453l-133 -452
q-13 -45 -72 -45q-61 0 -72 44l-171 681h97l150 -629l163 549h77l165 -551z" />
    <glyph glyph-name="wdieresis" unicode="&#x1e85;" horiz-adv-x="747" 
d="M280 571q-25 0 -39 14.5t-14 39.5t14 39.5t39 14.5t39 -14.5t14 -39.5t-14 -39.5t-39 -14.5zM470 571q-25 0 -39 14.5t-14 39.5t14 39.5t39 14.5t39 -14.5t14 -39.5t-14 -39.5t-39 -14.5zM637 500h90l-133 -467q-16 -39 -57 -39q-23 0 -36 8.5t-22 30.5l-105 383
l-106 -383q-16 -39 -57 -39q-23 0 -36.5 8.5t-22.5 30.5l-131 467h91l100 -409l116 409h93l117 -409z" />
    <glyph glyph-name="Ygrave" unicode="&#x1ef2;" horiz-adv-x="619" 
d="M390 805l-34 -42l-181 134l49 64zM602 714l-249 -441v-273h-87v273l-248 441h103l190 -353l191 353h100z" />
    <glyph glyph-name="ygrave" unicode="&#x1ef3;" horiz-adv-x="508" 
d="M363 591l-34 -42l-181 134l49 64zM405 500h91l-230 -576q-50 -124 -157 -124q-66 0 -104 43l35 54q35 -26 67 -26q31 0 53 20.5t40 67.5l21 55l-206 486h85l161 -392z" />
    <glyph glyph-name="uni2009" unicode="&#x2009;" horiz-adv-x="75" 
 />
    <glyph glyph-name="endash" unicode="&#x2013;" horiz-adv-x="650" 
d="M70 337h510v-66h-510v66z" />
    <glyph glyph-name="emdash" unicode="&#x2014;" horiz-adv-x="890" 
d="M70 337h750v-66h-750v66z" />
    <glyph glyph-name="quoteleft" unicode="&#x2018;" horiz-adv-x="216" 
d="M113 683q22 0 37.5 -16t15.5 -39q0 -24 -17 -40t-42 -16q-29 0 -47.5 21t-18.5 56q0 43 28 86t80 72l23 -39q-64 -37 -77 -88q7 3 18 3z" />
    <glyph glyph-name="quoteright" unicode="&#x2019;" horiz-adv-x="212" 
d="M111 804q29 0 47 -21t18 -52q0 -46 -27.5 -89t-79.5 -73l-21 36q63 39 76 92q-7 -4 -19 -4q-22 0 -37.5 16t-15.5 39q0 24 17 40t42 16z" />
    <glyph glyph-name="quotesinglbase" unicode="&#x201a;" horiz-adv-x="231" 
d="M113 103q29 0 47 -21t18 -52q0 -46 -27.5 -89t-79.5 -73l-21 36q63 39 76 92q-7 -4 -19 -4q-22 0 -37.5 16t-15.5 39q0 24 17 40t42 16z" />
    <glyph glyph-name="quotedblleft" unicode="&#x201c;" horiz-adv-x="376" 
d="M172 768q-64 -37 -77 -88q7 3 18 3q22 0 37.5 -16t15.5 -39q0 -24 -17 -40t-42 -16q-29 0 -47.5 21t-18.5 56q0 43 28 86t80 72zM273 683q22 0 37.5 -16t15.5 -39q0 -24 -17 -40t-42 -16q-29 0 -47.5 21t-18.5 56q0 43 28 86t80 72l23 -39q-64 -37 -77 -88q7 3 18 3z" />
    <glyph glyph-name="quotedblright" unicode="&#x201d;" horiz-adv-x="376" 
d="M111 804q29 0 47 -21t18 -52q0 -46 -27.5 -89t-79.5 -73l-21 36q63 39 76 92q-7 -4 -19 -4q-22 0 -37.5 16t-15.5 39q0 24 17 40t42 16zM275 804q29 0 47 -21t18 -52q0 -46 -27.5 -89t-79.5 -73l-21 36q63 39 76 92q-7 -4 -19 -4q-22 0 -37.5 16t-15.5 39q0 24 17 40
t42 16z" />
    <glyph glyph-name="quotedblbase" unicode="&#x201e;" horiz-adv-x="433" 
d="M113 104q29 0 47 -21t18 -52q0 -46 -27.5 -89t-79.5 -73l-21 36q63 39 76 92q-7 -4 -19 -4q-22 0 -37.5 16t-15.5 39q0 24 17 40t42 16zM277 104q29 0 47 -21t18 -52q0 -46 -27.5 -89t-79.5 -73l-21 36q63 39 76 92q-7 -4 -19 -4q-22 0 -37.5 16t-15.5 39q0 24 17 40
t42 16z" />
    <glyph glyph-name="dagger" unicode="&#x2020;" horiz-adv-x="548" 
d="M461 611v-66h-148v-659h-77v659h-149v66h149v240h77v-240h148z" />
    <glyph glyph-name="daggerdbl" unicode="&#x2021;" horiz-adv-x="554" 
d="M464 545h-148v-334h148v-66h-148v-259h-77v259h-149v66h149v334h-149v66h149v240h77v-240h148v-66z" />
    <glyph glyph-name="bullet" unicode="&#x2022;" horiz-adv-x="377" 
d="M188 261q-49 0 -80 31.5t-31 80.5t31 80.5t80 31.5t80.5 -31.5t31.5 -80.5t-31.5 -80.5t-80.5 -31.5z" />
    <glyph glyph-name="ellipsis" unicode="&#x2026;" horiz-adv-x="656" 
d="M111 -5q-26 0 -41.5 16t-15.5 42t15.5 41.5t41.5 15.5t41.5 -15.5t15.5 -41.5t-15.5 -42t-41.5 -16zM313 -5q-26 0 -41.5 16t-15.5 42t15.5 41.5t41.5 15.5t41.5 -15.5t15.5 -41.5t-15.5 -42t-41.5 -16zM515 -5q-26 0 -41.5 16t-15.5 42t15.5 41.5t41.5 15.5t41.5 -15.5
t15.5 -41.5t-15.5 -42t-41.5 -16z" />
    <glyph glyph-name="perthousand" unicode="&#x2030;" horiz-adv-x="1237" 
d="M204 338q-76 0 -123.5 54t-46.5 140t48.5 140.5t122.5 54.5q74 0 120.5 -54.5t46.5 -140.5t-47 -140t-121 -54zM96 0l566 714h69l-555 -714h-80zM203 401q44 0 69 34.5t25 96.5t-24.5 96.5t-68.5 34.5q-45 0 -70 -34.5t-25 -96.5t25 -96.5t69 -34.5zM639 -13
q-76 0 -123.5 54t-46.5 140t48.5 140.5t122.5 54.5q74 0 120.5 -54.5t46.5 -140.5t-47 -140t-121 -54zM1036 -13q-76 0 -123.5 54t-46.5 140t48.5 140.5t122.5 54.5q74 0 120.5 -54.5t46.5 -140.5t-47 -140t-121 -54zM638 50q44 0 69 34.5t25 96.5t-24.5 96.5t-68.5 34.5
q-45 0 -70 -34.5t-25 -96.5t25 -96.5t69 -34.5zM1035 50q44 0 69 34.5t25 96.5t-24.5 96.5t-68.5 34.5q-45 0 -70 -34.5t-25 -96.5t25 -96.5t69 -34.5z" />
    <glyph glyph-name="guilsinglleft" unicode="&#x2039;" horiz-adv-x="318" 
d="M225 101l-183 179q-6 5 -6 15.5t6 16.5l183 179l44 -46l-152 -149l152 -149z" />
    <glyph glyph-name="guilsinglright" unicode="&#x203a;" horiz-adv-x="318" 
d="M93 101l-44 46l152 149l-152 149l44 46l183 -179q6 -6 6 -16.5t-6 -15.5z" />
    <glyph glyph-name="fraction" unicode="&#x2044;" horiz-adv-x="519" 
d="M478 714h64l-498 -714h-65z" />
    <glyph glyph-name="uni2070" unicode="&#x2070;" horiz-adv-x="370" 
d="M185 493q-71 0 -108 52.5t-37 142.5t37 143t108 53t108 -53t37 -143t-37 -142.5t-108 -52.5zM185 546q84 0 84 142q0 143 -84 143t-84 -143q0 -142 84 -142z" />
    <glyph glyph-name="uni2074" unicode="&#x2074;" horiz-adv-x="339" 
d="M304 637v-51h-41v-87h-59v87h-150q-21 0 -29.5 17t3.5 34l178 236q11 9 27 9q12 0 21 -7t9 -21v-217h41zM89 637h115v154z" />
    <glyph glyph-name="uni2075" unicode="&#x2075;" horiz-adv-x="321" 
d="M163 728q57 0 91 -32t34 -84q0 -56 -38 -88t-93 -32q-82 0 -122 64l43 33q33 -41 77 -41q32 0 52 18t20 46q0 29 -20.5 46.5t-52.5 17.5q-31 0 -65 -19l-37 24v166q0 30 31 30h182v-52h-156l-1 -108q23 11 55 11z" />
    <glyph glyph-name="uni2076" unicode="&#x2076;" horiz-adv-x="338" 
d="M182 732q54 0 88 -32.5t34 -83.5t-34 -87.5t-93 -36.5q-69 0 -103.5 50t-34.5 128q0 89 42 151.5t118 62.5q58 0 94 -40l-37 -39q-25 24 -60 24q-43 0 -66 -34t-29 -86q38 23 81 23zM177 545q32 0 50 21t18 49q0 30 -19 47t-51 17q-39 0 -75 -27q6 -107 77 -107z" />
    <glyph glyph-name="uni2077" unicode="&#x2077;" horiz-adv-x="290" 
d="M228 877q26 0 35 -17.5t-1 -36.5l-139 -324h-69l148 325h-175v53h201z" />
    <glyph glyph-name="uni2078" unicode="&#x2078;" horiz-adv-x="352" 
d="M235 698q79 -27 79 -97q0 -45 -37 -77t-101 -32t-101.5 32t-37.5 77q0 34 21.5 59.5t57.5 37.5q-63 26 -63 85q0 41 33.5 71t89.5 30t89.5 -30t33.5 -71q0 -58 -64 -85zM176 832q-27 0 -45.5 -15.5t-18.5 -38.5t18.5 -39t45.5 -16t45 16t18 39t-18 38.5t-45 15.5z
M176 545q33 0 54.5 17.5t21.5 44.5t-21.5 44.5t-54.5 17.5t-55 -17.5t-22 -44.5t22 -44.5t55 -17.5z" />
    <glyph glyph-name="uni2079" unicode="&#x2079;" horiz-adv-x="335" 
d="M163 884q69 0 100.5 -48.5t31.5 -127.5q0 -93 -39.5 -154.5t-115.5 -61.5q-60 0 -97 42l36 39q28 -27 63 -27q77 0 91 117q-38 -20 -76 -20q-54 0 -88 33t-34 84q0 50 34.5 87t93.5 37zM93 761q0 -30 18.5 -47.5t52.5 -17.5q36 0 71 23q-4 112 -74 112q-32 0 -50 -20.5
t-18 -49.5z" />
    <glyph glyph-name="uni2080" unicode="&#x2080;" horiz-adv-x="370" 
d="M185 -169q-71 0 -108 52.5t-37 142.5t37 143t108 53t108 -53t37 -143t-37 -142.5t-108 -52.5zM185 -116q84 0 84 142q0 143 -84 143t-84 -143q0 -142 84 -142z" />
    <glyph glyph-name="uni2081" unicode="&#x2081;" horiz-adv-x="288" 
d="M188 -109h78v-54h-215v54h77v251l-72 -50l-32 41l119 86h18q12 0 19.5 -8t7.5 -19v-301z" />
    <glyph glyph-name="uni2082" unicode="&#x2082;" horiz-adv-x="323" 
d="M122 -60q-16 -23 -17 -49h176v-54h-242q-3 89 37 140q19 24 66 59t56 43q22 20 22 40q0 21 -16.5 35.5t-41.5 14.5q-22 0 -44 -15.5t-34 -39.5l-48 28q17 36 50 58.5t77 22.5q55 0 87.5 -29t32.5 -75q0 -40 -36 -74q-16 -15 -62.5 -48.5t-62.5 -56.5z" />
    <glyph glyph-name="uni2083" unicode="&#x2083;" horiz-adv-x="332" 
d="M227 34q30 -10 47.5 -35.5t17.5 -57.5q0 -51 -39 -80.5t-95 -29.5q-49 0 -81.5 20.5t-47.5 50.5l45 32q26 -47 84 -47q32 0 52.5 17t20.5 42q0 26 -20 41.5t-52 15.5h-56v52h47q33 0 53.5 17t20.5 42q0 23 -16.5 38.5t-46.5 15.5q-48 0 -78 -45l-44 29q40 71 126 71
q54 0 87 -30.5t33 -73.5q0 -58 -58 -85z" />
    <glyph glyph-name="uni2084" unicode="&#x2084;" horiz-adv-x="339" 
d="M304 -25v-51h-41v-87h-59v87h-150q-21 0 -29.5 17t3.5 34l178 236q11 9 27 9q12 0 21 -7t9 -21v-217h41zM89 -25h115v154z" />
    <glyph glyph-name="uni2085" unicode="&#x2085;" horiz-adv-x="321" 
d="M163 66q57 0 91 -32t34 -84q0 -56 -38 -88t-93 -32q-82 0 -122 64l43 33q33 -41 77 -41q32 0 52 18t20 46q0 29 -20.5 46.5t-52.5 17.5q-31 0 -65 -19l-37 24v166q0 30 31 30h182v-52h-156l-1 -108q23 11 55 11z" />
    <glyph glyph-name="uni2086" unicode="&#x2086;" horiz-adv-x="338" 
d="M182 70q54 0 88 -32.5t34 -83.5t-34 -87.5t-93 -36.5q-69 0 -103.5 50t-34.5 128q0 89 42 151.5t118 62.5q58 0 94 -40l-37 -39q-25 24 -60 24q-43 0 -66 -34t-29 -86q38 23 81 23zM177 -117q32 0 50 21t18 49q0 30 -19 47t-51 17q-39 0 -75 -27q6 -107 77 -107z" />
    <glyph glyph-name="uni2087" unicode="&#x2087;" horiz-adv-x="290" 
d="M228 215q26 0 35 -17.5t-1 -36.5l-139 -324h-69l148 325h-175v53h201z" />
    <glyph glyph-name="uni2088" unicode="&#x2088;" horiz-adv-x="352" 
d="M235 36q79 -27 79 -97q0 -45 -37 -77t-101 -32t-101.5 32t-37.5 77q0 34 21.5 59.5t57.5 37.5q-63 26 -63 85q0 41 33.5 71t89.5 30t89.5 -30t33.5 -71q0 -58 -64 -85zM176 170q-27 0 -45.5 -15.5t-18.5 -38.5t18.5 -39t45.5 -16t45 16t18 39t-18 38.5t-45 15.5z
M176 -117q33 0 54.5 17.5t21.5 44.5t-21.5 44.5t-54.5 17.5t-55 -17.5t-22 -44.5t22 -44.5t55 -17.5z" />
    <glyph glyph-name="uni2089" unicode="&#x2089;" horiz-adv-x="335" 
d="M163 222q69 0 100.5 -48.5t31.5 -127.5q0 -93 -39.5 -154.5t-115.5 -61.5q-60 0 -97 42l36 39q28 -27 63 -27q77 0 91 117q-38 -20 -76 -20q-54 0 -88 33t-34 84q0 50 34.5 87t93.5 37zM93 99q0 -30 18.5 -47.5t52.5 -17.5q36 0 71 23q-4 112 -74 112q-32 0 -50 -20.5
t-18 -49.5z" />
    <glyph glyph-name="Euro" unicode="&#x20ac;" horiz-adv-x="621" 
d="M563 124l39 -63q-90 -74 -210 -74q-122 0 -203.5 73t-107.5 193h-65v67h55q-1 12 -1 37q0 17 1 25h-55v67h62q24 125 107 201.5t207 76.5q121 0 204 -73l-42 -60q-77 59 -160 59q-92 0 -152.5 -56.5t-80.5 -147.5h298v-67h-307q-1 -8 -1 -25q0 -13 2 -37h306v-67h-295
q22 -87 81.5 -139.5t150.5 -52.5q79 0 167 63z" />
    <glyph glyph-name="trademark" unicode="&#x2122;" horiz-adv-x="665" 
d="M32 668v46h236v-46h-95v-240h-46v240h-95zM547 714h43v-286h-45v196l-73 -122q-9 -15 -27 -15t-27 15l-75 124v-198h-44v286h43l103 -170z" />
    <glyph glyph-name="estimated" unicode="&#x212e;" horiz-adv-x="924" 
d="M470 -16q-178 0 -300 105.5t-122 262.5q0 158 122 264t300 106q175 0 298.5 -104.5t123.5 -270.5v-25h-666v-223q104 -71 244 -71q190 0 315 139l32 -30q-58 -71 -149 -112t-198 -41zM226 370h488v238q-105 71 -244 71q-140 0 -244 -72v-237z" />
    <glyph glyph-name="partialdiff" unicode="&#x2202;" horiz-adv-x="552" 
d="M172 738q333 -82 333 -430q0 -143 -64.5 -232t-179.5 -89q-100 0 -157 65t-57 168q0 112 66.5 182.5t167.5 70.5q74 0 131 -36q-45 181 -264 235zM258 60q81 0 124 72.5t43 193.5v22q-52 53 -136 53q-70 0 -115 -48t-45 -134q0 -71 33 -115t96 -44z" />
    <glyph glyph-name="product" unicode="&#x220f;" horiz-adv-x="813" 
d="M754 714v-82h-104v-713h-87v713h-313v-713h-87v713h-104v82h695z" />
    <glyph glyph-name="summation" unicode="&#x2211;" horiz-adv-x="550" 
d="M68 -88v91l208 309l-214 320v39q0 18 12.5 30.5t30.5 12.5h395v-77h-352l201 -298q18 -26 0 -52l-201 -298h352v-77h-432z" />
    <glyph glyph-name="minus" unicode="&#x2212;" horiz-adv-x="458" 
d="M42 337h374v-66h-374v66z" />
    <glyph glyph-name="radical" unicode="&#x221a;" horiz-adv-x="709" 
d="M641 714h84l-394 -802q-11 -22 -40 -22q-30 0 -40 20l-166 322h-80v77h114q17 0 25 -15l147 -289z" />
    <glyph glyph-name="infinity" unicode="&#x221e;" horiz-adv-x="817" 
d="M610 451q69 0 117 -40.5t48 -106.5q0 -67 -48 -107.5t-117 -40.5q-106 0 -203 103q-91 -103 -198 -103q-69 0 -118 40.5t-49 107.5q0 66 49 106.5t118 40.5q108 0 200 -102q94 102 201 102zM208 217q80 0 159 85q-84 88 -159 88q-41 0 -71 -24.5t-30 -64.5
q0 -38 27.5 -61t73.5 -23zM606 217q43 0 73 23t30 65q0 38 -28 61.5t-74 23.5q-77 0 -158 -85q84 -88 157 -88z" />
    <glyph glyph-name="integral" unicode="&#x222b;" horiz-adv-x="417" 
d="M124 -187q-58 0 -99 33l35 65q29 -21 59 -21q38 0 64 28t26 78q0 60 -48.5 296.5t-48.5 306.5q0 86 49.5 136.5t116.5 50.5q70 0 114 -48l-48 -54q-28 25 -61 25q-35 0 -60.5 -28t-25.5 -78q0 -60 48.5 -296.5t48.5 -306.5q0 -86 -50 -136.5t-120 -50.5z" />
    <glyph glyph-name="approxequal" unicode="&#x2248;" horiz-adv-x="573" 
d="M381 324q-43 0 -101 44t-87 44q-28 0 -46.5 -21t-23.5 -53l-54 17q6 57 43.5 89.5t83.5 32.5q35 0 68.5 -22t63.5 -44t55 -22q57 0 66 76l55 -12q-5 -62 -41.5 -95.5t-81.5 -33.5zM381 144q-43 0 -101 44t-87 44q-28 0 -46.5 -21t-23.5 -53l-54 17q6 57 43.5 89.5
t83.5 32.5q35 0 68.5 -22t63.5 -44t55 -22q57 0 66 76l55 -12q-5 -62 -41.5 -95.5t-81.5 -33.5z" />
    <glyph glyph-name="notequal" unicode="&#x2260;" horiz-adv-x="512" 
d="M443 371h-116l-72 -134h188v-66h-223l-52 -98l-49 25l39 73h-89v66h124l71 134h-195v66h230l50 94l50 -25l-37 -69h81v-66z" />
    <glyph glyph-name="lessequal" unicode="&#x2264;" horiz-adv-x="479" 
d="M391 127l-342 185q-19 10 -19 33t19 33l342 185l31 -66l-284 -152l284 -152zM412 0h-376v68h376v-68z" />
    <glyph glyph-name="greaterequal" unicode="&#x2265;" horiz-adv-x="477" 
d="M87 127l-31 66l284 152l-284 152l31 66l342 -185q19 -10 19 -33t-19 -33zM66 0v68h376v-68h-376z" />
    <glyph glyph-name="lozenge" unicode="&#x25ca;" horiz-adv-x="583" 
d="M291 -110l-256 430l257 431l256 -431zM291 27l173 293l-173 293l-173 -293z" />
    <glyph glyph-name="Jacute" horiz-adv-x="504" 
d="M287 797l166 156l49 -64l-181 -134zM214 -11q-124 0 -183 103l64 48q48 -69 117 -69q59 0 90 40.5t31 114.5v488h87v-509q0 -98 -55 -157t-151 -59z" />
    <glyph glyph-name="Cacute.loclPLK" horiz-adv-x="707" 
d="M359 764l82 186h79l-94 -186h-67zM384 -11q-65 0 -124 22.5t-106 66t-75 115.5t-28 162q0 171 94 271.5t250 100.5q88 0 160 -39t112 -112l-69 -45q-36 59 -90.5 88t-114.5 29q-114 0 -182.5 -74.5t-68.5 -214.5t72 -213.5t175 -73.5q138 0 237 112l56 -55
q-54 -65 -133 -102.5t-165 -37.5z" />
    <glyph glyph-name="Nacute.loclPLK" horiz-adv-x="768" 
d="M517 948l-94 -186h-67l82 186h79zM592 714h82v-686q0 -15 -13.5 -24.5t-32.5 -9.5q-38 0 -58 29l-395 555v-578h-82v681q0 17 13.5 27.5t35.5 10.5q18 0 31 -5.5t19 -12t16 -20.5l384 -533v566z" />
    <glyph glyph-name="Oacute.loclPLK" horiz-adv-x="776" 
d="M354 762l82 186h79l-94 -186h-67zM389 -11q-152 0 -245.5 101.5t-93.5 266.5q0 166 93.5 268t245.5 102q151 0 244 -102t93 -268q0 -165 -93 -266.5t-244 -101.5zM389 71q109 0 177.5 75.5t68.5 210.5q0 136 -68.5 212t-177.5 76q-110 0 -179 -76t-69 -212
q0 -135 69 -210.5t179 -75.5z" />
    <glyph glyph-name="Sacute.loclPLK" horiz-adv-x="565" 
d="M251 762l82 186h79l-94 -186h-67zM274 -11q-75 0 -139.5 30t-100.5 83l57 55q75 -90 186 -90q70 0 115.5 35.5t45.5 91.5q0 13 -2 24.5t-9 22l-12 17.5t-18.5 15t-20 12.5t-26 12.5t-26.5 10.5l-31 11l-32 11.5q-46 16 -75 30t-61.5 37.5t-48 56.5t-15.5 77q0 93 67 144
t169 51q112 0 202 -67l-45 -64q-78 56 -160 56q-63 0 -105.5 -30t-42.5 -85q0 -27 10.5 -47.5t35.5 -36t44.5 -23.5t58.5 -22q11 -4 17 -6q100 -36 137 -61q77 -52 77 -143q0 -96 -73.5 -152.5t-178.5 -56.5z" />
    <glyph glyph-name="Zacute.loclPLK" horiz-adv-x="572" 
d="M263 762l82 186h79l-94 -186h-67zM60 0q-22 0 -31 28.5t5 51.5l392 553h-367v81h429q26 0 37 -29.5t-5 -56.5l-390 -547h403v-81h-473z" />
    <glyph glyph-name="i.loclTRK" horiz-adv-x="235" 
d="M118 574q-25 0 -40 15t-15 41t15 41t40 15t40 -15t15 -41t-15 -41t-40 -15zM76 0v500h83v-500h-83z" />
    <glyph glyph-name="jacute" horiz-adv-x="235" 
d="M23 591l166 156l49 -64l-181 -134zM20 -195q-38 0 -73 15l18 68q29 -9 48 -9q63 0 63 78v543h83v-544q0 -76 -36.5 -113.5t-102.5 -37.5z" />
    <glyph glyph-name="cacute.loclPLK" horiz-adv-x="526" 
d="M245 556l73 186h79l-85 -186h-67zM284 -13q-109 0 -174.5 73t-65.5 190q0 118 65.5 190.5t177.5 72.5q146 0 205 -113l-67 -41q-43 82 -138 82q-70 0 -115 -49t-45 -142q0 -94 44 -142t113 -48q90 0 151 91l62 -43q-26 -49 -80 -85t-133 -36z" />
    <glyph glyph-name="nacute.loclPLK" 
d="M410 742l-85 -186h-67l73 186h79zM351 513q75 0 115 -40.5t40 -115.5v-357h-83v338q0 55 -20 77.5t-62 22.5q-84 0 -182 -74v-364h-84v500h82v-68q97 81 194 81z" />
    <glyph glyph-name="oacute.loclPLK" horiz-adv-x="566" 
d="M243 556l73 186h79l-85 -186h-67zM283 -13q-109 0 -174.5 72t-64.5 191t66.5 191t172.5 72q109 0 174 -72t65 -191t-65 -191t-174 -72zM283 60q77 0 116.5 48.5t39.5 141.5t-39.5 141.5t-116.5 48.5q-76 0 -116 -49t-40 -141q0 -93 39.5 -141.5t116.5 -48.5z" />
    <glyph glyph-name="sacute.loclPLK" horiz-adv-x="460" 
d="M204 556l73 186h79l-85 -186h-67zM224 -11q-57 0 -109.5 20t-86.5 59l40 53q69 -64 157 -64q47 0 82 19.5t35 57.5q0 12 -3.5 22.5t-12.5 18.5t-16.5 13.5t-22.5 11.5t-23 8.5t-27 8t-25 7.5q-74 23 -114.5 54.5t-40.5 91.5q0 69 52.5 106t131.5 37q97 0 169 -54l-39 -55
q-62 43 -130 43q-46 0 -76 -19.5t-30 -52.5q0 -18 8.5 -31.5t26.5 -23t33 -15t39 -12.5q5 -1 7 -2q86 -26 129.5 -57t43.5 -94q0 -72 -57.5 -111.5t-140.5 -39.5z" />
    <glyph glyph-name="zacute.loclPLK" horiz-adv-x="475" 
d="M200 556l73 186h79l-85 -186h-67zM66 0q-27 0 -34.5 28t7.5 44l293 359h-278v69h348q16 0 25 -12.5t7.5 -30t-11.5 -29.5l-294 -359h307v-69h-370z" />
    <glyph glyph-name="a.ss01" horiz-adv-x="595" 
d="M441 500h79v-500h-81v65q-60 -78 -163 -78q-104 0 -168.5 72.5t-63.5 191.5q1 117 65.5 189.5t167.5 72.5q107 0 164 -75v62zM286 60q157 0 157 190t-156 190q-79 0 -119.5 -49t-40.5 -142q0 -92 40.5 -140.5t118.5 -48.5z" />
    <glyph glyph-name="aacute.ss01" horiz-adv-x="595" 
d="M412 683l-181 -134l-34 42l166 156zM441 500h79v-500h-81v65q-60 -78 -163 -78q-104 0 -168.5 72.5t-63.5 191.5q1 117 65.5 189.5t167.5 72.5q107 0 164 -75v62zM286 60q157 0 157 190t-156 190q-79 0 -119.5 -49t-40.5 -142q0 -92 40.5 -140.5t118.5 -48.5z" />
    <glyph glyph-name="abreve.ss01" horiz-adv-x="595" 
d="M292 561q-72 0 -108.5 46t-39.5 107h70q-1 -39 18 -69.5t60 -30.5t60 30.5t18 69.5h70q-3 -61 -39.5 -107t-108.5 -46zM441 500h79v-500h-81v65q-60 -78 -163 -78q-104 0 -168.5 72.5t-63.5 191.5q1 117 65.5 189.5t167.5 72.5q107 0 164 -75v62zM286 60q157 0 157 190
t-156 190q-79 0 -119.5 -49t-40.5 -142q0 -92 40.5 -140.5t118.5 -48.5z" />
    <glyph glyph-name="acircumflex.ss01" horiz-adv-x="595" 
d="M292 657l-108 -99l-45 43l109 102q22 22 44 22q21 0 44 -22l109 -102l-44 -43zM441 500h79v-500h-81v65q-60 -78 -163 -78q-104 0 -168.5 72.5t-63.5 191.5q1 117 65.5 189.5t167.5 72.5q107 0 164 -75v62zM286 60q157 0 157 190t-156 190q-79 0 -119.5 -49t-40.5 -142
q0 -92 40.5 -140.5t118.5 -48.5z" />
    <glyph glyph-name="adieresis.ss01" horiz-adv-x="595" 
d="M197 571q-25 0 -39 14.5t-14 39.5t14 39.5t39 14.5t39 -14.5t14 -39.5t-14 -39.5t-39 -14.5zM387 571q-25 0 -39 14.5t-14 39.5t14 39.5t39 14.5t39 -14.5t14 -39.5t-14 -39.5t-39 -14.5zM441 500h79v-500h-81v65q-60 -78 -163 -78q-104 0 -168.5 72.5t-63.5 191.5
q1 117 65.5 189.5t167.5 72.5q107 0 164 -75v62zM286 60q157 0 157 190t-156 190q-79 0 -119.5 -49t-40.5 -142q0 -92 40.5 -140.5t118.5 -48.5z" />
    <glyph glyph-name="agrave.ss01" horiz-adv-x="595" 
d="M402 591l-34 -42l-181 134l49 64zM441 500h79v-500h-81v65q-60 -78 -163 -78q-104 0 -168.5 72.5t-63.5 191.5q1 117 65.5 189.5t167.5 72.5q107 0 164 -75v62zM286 60q157 0 157 190t-156 190q-79 0 -119.5 -49t-40.5 -142q0 -92 40.5 -140.5t118.5 -48.5z" />
    <glyph glyph-name="amacron.ss01" horiz-adv-x="595" 
d="M435 644v-66h-287v66h287zM441 500h79v-500h-81v65q-60 -78 -163 -78q-104 0 -168.5 72.5t-63.5 191.5q1 117 65.5 189.5t167.5 72.5q107 0 164 -75v62zM286 60q157 0 157 190t-156 190q-79 0 -119.5 -49t-40.5 -142q0 -92 40.5 -140.5t118.5 -48.5z" />
    <glyph glyph-name="aogonek.ss01" horiz-adv-x="595" 
d="M530 -136l34 -47q-12 -16 -38.5 -28.5t-55.5 -12.5q-47 0 -76 29.5t-29 74.5q0 74 74 128v57q-60 -78 -163 -78q-104 0 -168.5 72.5t-63.5 191.5q1 117 65.5 189.5t167.5 72.5q107 0 164 -75v62h79v-500q-41 -13 -63 -43t-22 -60q0 -22 12.5 -36.5t34.5 -14.5q24 0 48 18
zM286 60q157 0 157 190t-156 190q-79 0 -119.5 -49t-40.5 -142q0 -92 40.5 -140.5t118.5 -48.5z" />
    <glyph glyph-name="aring.ss01" horiz-adv-x="595" 
d="M292 555q-41 0 -68.5 27t-27.5 67q0 39 28 66t68 27t67.5 -27t27.5 -66q0 -40 -27.5 -67t-67.5 -27zM292 695q-20 0 -33.5 -13t-13.5 -33t13.5 -33.5t33.5 -13.5t33 13.5t13 33.5q0 19 -13 32.5t-33 13.5zM441 500h79v-500h-81v65q-60 -78 -163 -78q-104 0 -168.5 72.5
t-63.5 191.5q1 117 65.5 189.5t167.5 72.5q107 0 164 -75v62zM286 60q157 0 157 190t-156 190q-79 0 -119.5 -49t-40.5 -142q0 -92 40.5 -140.5t118.5 -48.5z" />
    <glyph glyph-name="atilde.ss01" horiz-adv-x="595" 
d="M229 632q-37 0 -55 -58l-59 19q24 101 111 101q29 0 52.5 -15t42.5 -30.5t38 -15.5q35 0 49 58l62 -15q-7 -49 -39 -77t-69 -28q-36 0 -75.5 30.5t-57.5 30.5zM441 500h79v-500h-81v65q-60 -78 -163 -78q-104 0 -168.5 72.5t-63.5 191.5q1 117 65.5 189.5t167.5 72.5
q107 0 164 -75v62zM286 60q157 0 157 190t-156 190q-79 0 -119.5 -49t-40.5 -142q0 -92 40.5 -140.5t118.5 -48.5z" />
    <glyph glyph-name="f.ss01" horiz-adv-x="358" 
d="M265 651q-108 0 -108 -123v-30l189 2v-65l-189 -2v-433h-82v535q0 57 18.5 97t49 59t59.5 27t60 8q71 0 138 -35l-26 -67q-56 27 -109 27z" />
    <glyph glyph-name="g.ss01" horiz-adv-x="579" 
d="M430 500h74v-462q0 -117 -65 -177.5t-174 -60.5q-104 0 -184 50l27 66q78 -45 155 -45t116.5 38.5t43.5 120.5q-65 -43 -147 -43q-106 0 -169 70.5t-63 189.5q0 118 67 192t167 74q90 0 152 -65v52zM127 246q0 -186 157 -186q79 0 140 42v265q-58 73 -143 73
q-68 0 -111 -50t-43 -144z" />
    <glyph glyph-name="gbreve.ss01" horiz-adv-x="579" 
d="M285 561q-72 0 -108.5 46t-39.5 107h70q-1 -39 18 -69.5t60 -30.5t60 30.5t18 69.5h70q-3 -61 -39.5 -107t-108.5 -46zM430 500h74v-462q0 -117 -65 -177.5t-174 -60.5q-104 0 -184 50l27 66q78 -45 155 -45t116.5 38.5t43.5 120.5q-65 -43 -147 -43q-106 0 -169 70.5
t-63 189.5q0 118 67 192t167 74q90 0 152 -65v52zM127 246q0 -186 157 -186q79 0 140 42v265q-58 73 -143 73q-68 0 -111 -50t-43 -144z" />
    <glyph glyph-name="gcircumflex.ss01" horiz-adv-x="579" 
d="M285 657l-108 -99l-45 43l109 102q22 22 44 22q21 0 44 -22l109 -102l-44 -43zM430 500h74v-462q0 -117 -65 -177.5t-174 -60.5q-104 0 -184 50l27 66q78 -45 155 -45t116.5 38.5t43.5 120.5q-65 -43 -147 -43q-106 0 -169 70.5t-63 189.5q0 118 67 192t167 74
q90 0 152 -65v52zM127 246q0 -186 157 -186q79 0 140 42v265q-58 73 -143 73q-68 0 -111 -50t-43 -144z" />
    <glyph glyph-name="gcommaaccent.ss01" horiz-adv-x="579" 
d="M281 549q-28 0 -44.5 21t-16.5 53q0 36 20.5 75t57.5 69l31 -38q-45 -36 -57 -74q10 2 14 2q22 0 36.5 -15.5t14.5 -38.5t-16.5 -38.5t-39.5 -15.5zM430 500h74v-462q0 -117 -65 -177.5t-174 -60.5q-104 0 -184 50l27 66q78 -45 155 -45t116.5 38.5t43.5 120.5
q-65 -43 -147 -43q-106 0 -169 70.5t-63 189.5q0 118 67 192t167 74q90 0 152 -65v52zM127 246q0 -186 157 -186q79 0 140 42v265q-58 73 -143 73q-68 0 -111 -50t-43 -144z" />
    <glyph glyph-name="gdotaccent.ss01" horiz-adv-x="579" 
d="M285 574q-25 0 -40 15t-15 41t15 41t40 15t40 -15t15 -41t-15 -41t-40 -15zM430 500h74v-462q0 -117 -65 -177.5t-174 -60.5q-104 0 -184 50l27 66q78 -45 155 -45t116.5 38.5t43.5 120.5q-65 -43 -147 -43q-106 0 -169 70.5t-63 189.5q0 118 67 192t167 74q90 0 152 -65
v52zM127 246q0 -186 157 -186q79 0 140 42v265q-58 73 -143 73q-68 0 -111 -50t-43 -144z" />
    <glyph glyph-name="l.ss01" horiz-adv-x="343" 
d="M153 160q0 -48 24 -71t57 -23q40 0 77 21l27 -69q-52 -29 -111 -29q-78 0 -117.5 45.5t-39.5 124.5v555h83v-554z" />
    <glyph glyph-name="lacute.ss01" horiz-adv-x="343" 
d="M22 778l166 156l49 -64l-181 -134zM153 160q0 -48 24 -71t57 -23q40 0 77 21l27 -69q-52 -29 -111 -29q-78 0 -117.5 45.5t-39.5 124.5v555h83v-554z" />
    <glyph glyph-name="lcaron.ss01" horiz-adv-x="343" 
d="M202 557l45 188l73 -11l-64 -183zM153 160q0 -48 24 -71t57 -23q40 0 77 21l27 -69q-52 -29 -111 -29q-78 0 -117.5 45.5t-39.5 124.5v555h83v-554z" />
    <glyph glyph-name="lcommaaccent.ss01" horiz-adv-x="343" 
d="M338 18q-52 -29 -111 -29q-78 0 -117.5 45.5t-39.5 124.5v555h83v-554q0 -48 24 -71t57 -23q40 0 77 21zM190 -49q28 0 44.5 -21t16.5 -53q0 -36 -20.5 -75t-57.5 -69l-31 38q45 36 57 74q-10 -2 -14 -2q-22 0 -36.5 15.5t-14.5 38.5t16.5 38.5t39.5 15.5z" />
    <glyph glyph-name="ldot.ss01" horiz-adv-x="367" 
d="M153 160q0 -48 24 -71t57 -23q40 0 77 21l27 -69q-52 -29 -111 -29q-78 0 -117.5 45.5t-39.5 124.5v555h83v-554zM291 302q-26 0 -41.5 16t-15.5 42t15.5 41.5t41.5 15.5t41.5 -15.5t15.5 -41.5t-15.5 -42t-41.5 -16z" />
    <glyph glyph-name="lslash.ss01" horiz-adv-x="383" 
d="M346 87l27 -69q-52 -29 -111 -29q-78 0 -117.5 45.5t-39.5 124.5v128l-52 -34l-33 53l85 54v354h83v-302l65 41l28 -53l-93 -60v-180q0 -48 24 -71t57 -23q39 0 77 21z" />
    <glyph glyph-name="y.ss01" horiz-adv-x="576" 
d="M421 500h80v-449q0 -126 -62.5 -188.5t-177.5 -62.5q-100 0 -180 45l26 64q76 -38 153 -38q161 0 161 170v6q-74 -59 -170 -59q-81 0 -131 45t-50 144v323h82v-312q0 -126 115 -126q85 0 154 61v377z" />
    <glyph glyph-name="yacute.ss01" horiz-adv-x="576" 
d="M407 683l-181 -134l-34 42l166 156zM421 500h80v-449q0 -126 -62.5 -188.5t-177.5 -62.5q-100 0 -180 45l26 64q76 -38 153 -38q161 0 161 170v6q-74 -59 -170 -59q-81 0 -131 45t-50 144v323h82v-312q0 -126 115 -126q85 0 154 61v377z" />
    <glyph glyph-name="ycircumflex.ss01" horiz-adv-x="576" 
d="M287 657l-108 -99l-45 43l109 102q22 22 44 22q21 0 44 -22l109 -102l-44 -43zM421 500h80v-449q0 -126 -62.5 -188.5t-177.5 -62.5q-100 0 -180 45l26 64q76 -38 153 -38q161 0 161 170v6q-74 -59 -170 -59q-81 0 -131 45t-50 144v323h82v-312q0 -126 115 -126
q85 0 154 61v377z" />
    <glyph glyph-name="ydieresis.ss01" horiz-adv-x="576" 
d="M192 571q-25 0 -39 14.5t-14 39.5t14 39.5t39 14.5t39 -14.5t14 -39.5t-14 -39.5t-39 -14.5zM382 571q-25 0 -39 14.5t-14 39.5t14 39.5t39 14.5t39 -14.5t14 -39.5t-14 -39.5t-39 -14.5zM421 500h80v-449q0 -126 -62.5 -188.5t-177.5 -62.5q-100 0 -180 45l26 64
q76 -38 153 -38q161 0 161 170v6q-74 -59 -170 -59q-81 0 -131 45t-50 144v323h82v-312q0 -126 115 -126q85 0 154 61v377z" />
    <glyph glyph-name="ygrave.ss01" horiz-adv-x="576" 
d="M397 591l-34 -42l-181 134l49 64zM421 500h80v-449q0 -126 -62.5 -188.5t-177.5 -62.5q-100 0 -180 45l26 64q76 -38 153 -38q161 0 161 170v6q-74 -59 -170 -59q-81 0 -131 45t-50 144v323h82v-312q0 -126 115 -126q85 0 154 61v377z" />
    <glyph glyph-name="f_f_j" horiz-adv-x="941" 
d="M709 435h-189v-435h-82v435h-250v-435h-82v435h-85v65h85v38q0 56 20.5 96.5t52.5 58.5t60 25.5t54 7.5q78 0 134 -47l-39 -59q-41 31 -89 31q-47 0 -79 -27.5t-32 -92.5v-31h250v38q0 56 20.5 96.5t52.5 58.5t60 25.5t54 7.5q78 0 134 -47l-39 -59q-41 31 -89 31
q-47 0 -79 -27.5t-32 -92.5v-31h189v-65zM825 574q-25 0 -40 15t-15 41t15 41t40 15t40 -15t15 -41t-15 -41t-40 -15zM783 -43v543h83v-544q0 -76 -36.5 -113.5t-102.5 -37.5q-39 0 -73 15l18 68q29 -9 48 -9q63 0 63 78z" />
    <glyph glyph-name="f_i" horiz-adv-x="631" 
d="M106 538q0 56 20.5 96.5t52.5 58.5t60 25.5t54 7.5q78 0 134 -47l-39 -59q-41 31 -89 31q-47 0 -79 -27.5t-32 -92.5v-31h189v-65h-189v-435h-82v435h-85v65h85v38zM515 574q-25 0 -40 15t-15 41t15 41t40 15t40 -15t15 -41t-15 -41t-40 -15zM473 0v500h83v-500h-83z" />
    <glyph glyph-name="f_j" horiz-adv-x="631" 
d="M377 435h-189v-435h-82v435h-85v65h85v38q0 56 20.5 96.5t52.5 58.5t60 25.5t54 7.5q78 0 134 -47l-39 -59q-41 31 -89 31q-47 0 -79 -27.5t-32 -92.5v-31h189v-65zM515 574q-25 0 -40 15t-15 41t15 41t40 15t40 -15t15 -41t-15 -41t-40 -15zM473 -43v543h83v-544
q0 -76 -36.5 -113.5t-102.5 -37.5q-39 0 -73 15l18 68q29 -9 48 -9q63 0 63 78z" />
    <glyph glyph-name="f_l" horiz-adv-x="629" 
d="M106 538q0 56 20.5 96.5t52.5 58.5t60 25.5t54 7.5q78 0 134 -47l-39 -59q-41 31 -89 31q-47 0 -79 -27.5t-32 -92.5v-31h189v-65h-189v-435h-82v435h-85v65h85v38zM473 714h81v-714h-81v714z" />
    <glyph glyph-name="t_t" horiz-adv-x="790" 
d="M268 66q43 0 90 30l33 -63q-61 -44 -134 -44q-77 0 -114 46t-37 126v274h-88v65h88v155h81v-155h178v-65h-178v-278q0 -47 24 -69t57 -22zM751 96l33 -63q-61 -44 -134 -44q-77 0 -114 46t-37 126v274h-88v65h88v155h81v-155h178v-65h-178v-278q0 -47 24 -69t57 -22
q43 0 90 30z" />
    <glyph glyph-name="f_f_i.001" horiz-adv-x="929" 
d="M434 538q0 56 20.5 96.5t52.5 58.5t60 25.5t54 7.5q78 0 134 -47l-39 -59q-41 31 -89 31q-47 0 -79 -27.5t-32 -92.5v-31h189v-65h-189v-435h-82v435h-246v-435h-82v435h-85v65h85v38q0 56 20.5 96.5t52.5 58.5t60 25.5t54 7.5q78 0 134 -47l-39 -59q-41 31 -89 31
q-47 0 -79 -27.5t-32 -92.5v-31h246v38zM823 574q-25 0 -40 15t-15 41t15 41t40 15t40 -15t15 -41t-15 -41t-40 -15zM781 0v500h83v-500h-83z" />
    <glyph glyph-name="zero.lf" horiz-adv-x="625" 
d="M313 -11q-127 0 -192.5 98.5t-65.5 269.5t65.5 270.5t192.5 99.5q126 0 191.5 -99.5t65.5 -270.5t-65.5 -269.5t-191.5 -98.5zM313 65q88 0 130 78t42 214q0 137 -42 215.5t-130 78.5q-89 0 -131 -78.5t-42 -215.5q0 -136 42 -214t131 -78z" />
    <glyph glyph-name="one.lf" horiz-adv-x="373" 
d="M242 725q18 0 28.5 -9t10.5 -22v-694h-83v616l-149 -105l-43 60l190 136q26 18 46 18z" />
    <glyph glyph-name="two.lf" horiz-adv-x="544" 
d="M166 168q-25 -40 -28 -89h352v-79h-442q0 88 11.5 136.5t47.5 95.5q42 55 146 132t111 84q41 37 41 86q0 51 -37 83.5t-93 32.5q-47 0 -90.5 -30.5t-65.5 -79.5l-71 40q29 66 88.5 106.5t141.5 40.5q102 0 158 -54t56 -136t-69 -151q-31 -31 -86 -68t-100.5 -73
t-70.5 -77z" />
    <glyph glyph-name="three.lf" horiz-adv-x="572" 
d="M387 368q60 -19 95 -67.5t35 -110.5q0 -91 -70 -146t-174 -55q-97 0 -155 41t-84 97l70 44q50 -100 171 -100q66 0 111.5 36t45.5 92q0 57 -43 92t-111 35h-108v78h95q67 0 111 36.5t44 91.5q0 51 -36.5 83t-102.5 32q-102 0 -164 -96l-65 44q76 132 233 132
q104 0 162.5 -59.5t58.5 -135.5q0 -52 -31.5 -96t-87.5 -68z" />
    <glyph glyph-name="four.lf" horiz-adv-x="571" 
d="M528 248v-76h-78v-172h-83v172h-316q-16 0 -26.5 15.5t-10.5 35.5q0 21 12 37l339 445q11 15 43 15q15 0 28.5 -8t13.5 -23v-441h78zM110 248h257v342z" />
    <glyph glyph-name="five.lf" horiz-adv-x="547" 
d="M274 426q106 0 169.5 -61t63.5 -159q0 -102 -68 -160.5t-169 -58.5q-152 0 -224 120l64 46q63 -84 158 -84q69 0 111.5 38.5t42.5 100.5q0 63 -43.5 101.5t-113.5 38.5q-64 0 -137 -37l-53 25v321q0 57 57 57h330v-80h-307v-233q56 25 119 25z" />
    <glyph glyph-name="six.lf" horiz-adv-x="582" 
d="M308 437q100 0 165 -62t65 -158q0 -93 -62 -162t-171 -69q-86 0 -144 48t-83 122.5t-25 169.5q0 108 31.5 197t99.5 146.5t162 57.5q107 0 171 -74l-59 -56q-50 47 -120 47q-88 0 -136 -73t-58 -182q76 48 164 48zM307 65q70 0 108 45.5t38 107.5q0 64 -41 102.5
t-113 38.5q-81 0 -158 -53q4 -105 43.5 -173t122.5 -68z" />
    <glyph glyph-name="seven.lf" horiz-adv-x="482" 
d="M414 714q34 0 46 -27.5t-3 -58.5l-275 -628h-100l292 634h-353v80h393z" />
    <glyph glyph-name="eight.lf" horiz-adv-x="608" 
d="M408 374q69 -22 110 -70t41 -114q0 -82 -69 -142.5t-186 -60.5t-186 60.5t-69 142.5q0 66 41.5 114t109.5 70q-121 53 -121 164q0 75 61.5 132t163.5 57q103 0 164 -57t61 -132q0 -111 -121 -164zM164 533q0 -50 40.5 -83.5t100.5 -33.5t99.5 33.5t39.5 83.5t-40 83.5
t-99 33.5q-60 0 -100.5 -33.5t-40.5 -83.5zM305 64q72 0 120 39t48 96q0 56 -48 94t-120 38t-121 -38t-49 -94q0 -57 48.5 -96t121.5 -39z" />
    <glyph glyph-name="nine.lf" horiz-adv-x="571" 
d="M273 727q126 0 184.5 -93t58.5 -242q0 -186 -66.5 -296t-208.5 -110q-93 0 -168 54l41 71q58 -42 125 -42q164 0 184 254q-72 -47 -153 -47q-100 0 -165 62t-65 158q0 93 62 162t171 69zM125 495q0 -64 41 -102.5t112 -38.5q76 0 148 52q0 52 -7.5 92.5t-24 76
t-47.5 54.5t-76 19q-70 0 -108 -45.5t-38 -107.5z" />
    <glyph glyph-name="zero.num" horiz-adv-x="370" 
d="M185 333q-71 0 -108 52.5t-37 142.5t37 143t108 53t108 -53t37 -143t-37 -142.5t-108 -52.5zM185 386q84 0 84 142q0 143 -84 143t-84 -143q0 -142 84 -142z" />
    <glyph glyph-name="one.num" horiz-adv-x="288" 
d="M188 393h78v-54h-215v54h77v251l-72 -50l-32 41l119 86h18q12 0 19.5 -8t7.5 -19v-301z" />
    <glyph glyph-name="two.num" horiz-adv-x="323" 
d="M122 442q-16 -23 -17 -49h176v-54h-242q-3 89 37 140q19 24 66 59t56 43q22 20 22 40q0 21 -16.5 35.5t-41.5 14.5q-22 0 -44 -15.5t-34 -39.5l-48 28q17 36 50 58.5t77 22.5q55 0 87.5 -29t32.5 -75q0 -40 -36 -74q-16 -15 -62.5 -48.5t-62.5 -56.5z" />
    <glyph glyph-name="three.num" horiz-adv-x="332" 
d="M227 536q30 -10 47.5 -35.5t17.5 -57.5q0 -51 -39 -80.5t-95 -29.5q-49 0 -81.5 20.5t-47.5 50.5l45 32q26 -47 84 -47q32 0 52.5 17t20.5 42q0 26 -20 41.5t-52 15.5h-56v52h47q33 0 53.5 17t20.5 42q0 23 -16.5 38.5t-46.5 15.5q-48 0 -78 -45l-44 29q40 71 126 71
q54 0 87 -30.5t33 -73.5q0 -58 -58 -85z" />
    <glyph glyph-name="four.num" horiz-adv-x="339" 
d="M304 477v-51h-41v-87h-59v87h-150q-21 0 -29.5 17t3.5 34l178 236q11 9 27 9q12 0 21 -7t9 -21v-217h41zM89 477h115v154z" />
    <glyph glyph-name="five.num" horiz-adv-x="321" 
d="M163 568q57 0 91 -32t34 -84q0 -56 -38 -88t-93 -32q-82 0 -122 64l43 33q33 -41 77 -41q32 0 52 18t20 46q0 29 -20.5 46.5t-52.5 17.5q-31 0 -65 -19l-37 24v166q0 30 31 30h182v-52h-156l-1 -108q23 11 55 11z" />
    <glyph glyph-name="six.num" horiz-adv-x="338" 
d="M182 572q54 0 88 -32.5t34 -83.5t-34 -87.5t-93 -36.5q-69 0 -103.5 50t-34.5 128q0 89 42 151.5t118 62.5q58 0 94 -40l-37 -39q-25 24 -60 24q-43 0 -66 -34t-29 -86q38 23 81 23zM177 385q32 0 50 21t18 49q0 30 -19 47t-51 17q-39 0 -75 -27q6 -107 77 -107z" />
    <glyph glyph-name="seven.num" horiz-adv-x="290" 
d="M228 717q26 0 35 -17.5t-1 -36.5l-139 -324h-69l148 325h-175v53h201z" />
    <glyph glyph-name="eight.num" horiz-adv-x="352" 
d="M235 538q79 -27 79 -97q0 -45 -37 -77t-101 -32t-101.5 32t-37.5 77q0 34 21.5 59.5t57.5 37.5q-63 26 -63 85q0 41 33.5 71t89.5 30t89.5 -30t33.5 -71q0 -58 -64 -85zM176 672q-27 0 -45.5 -15.5t-18.5 -38.5t18.5 -39t45.5 -16t45 16t18 39t-18 38.5t-45 15.5z
M176 385q33 0 54.5 17.5t21.5 44.5t-21.5 44.5t-54.5 17.5t-55 -17.5t-22 -44.5t22 -44.5t55 -17.5z" />
    <glyph glyph-name="nine.num" horiz-adv-x="335" 
d="M163 724q69 0 100.5 -48.5t31.5 -127.5q0 -93 -39.5 -154.5t-115.5 -61.5q-60 0 -97 42l36 39q28 -27 63 -27q77 0 91 117q-38 -20 -76 -20q-54 0 -88 33t-34 84q0 50 34.5 87t93.5 37zM93 601q0 -30 18.5 -47.5t52.5 -17.5q36 0 71 23q-4 112 -74 112q-32 0 -50 -20.5
t-18 -49.5z" />
    <glyph glyph-name="zero.slash" horiz-adv-x="625" 
d="M313 727q126 0 191.5 -99.5t65.5 -270.5t-65.5 -269.5t-191.5 -98.5q-127 0 -192.5 98.5t-65.5 269.5t65.5 270.5t192.5 99.5zM313 651q-89 0 -131 -78.5t-42 -215.5q0 -95 19 -159l275 389q-44 64 -121 64zM313 65q88 0 130 78t42 214q0 92 -19 158l-273 -389
q42 -61 120 -61z" />
    <glyph glyph-name="zero.tf" horiz-adv-x="660" 
d="M331 -11q-127 0 -192.5 98.5t-65.5 269.5t65.5 270.5t192.5 99.5q126 0 191.5 -99.5t65.5 -270.5t-65.5 -269.5t-191.5 -98.5zM331 65q88 0 130 78t42 214q0 137 -42 215.5t-130 78.5q-89 0 -131 -78.5t-42 -215.5q0 -136 42 -214t131 -78z" />
    <glyph glyph-name="one.tf" horiz-adv-x="660" 
d="M402 79h153v-79h-395v79h159v537l-149 -105l-43 60l190 136q25 18 46 18q18 0 28.5 -9t10.5 -22v-615z" />
    <glyph glyph-name="two.tf" horiz-adv-x="660" 
d="M235 168q-25 -40 -28 -89h352v-79h-442q0 88 11.5 136.5t47.5 95.5q42 55 146 132t111 84q41 37 41 86q0 51 -37 83.5t-93 32.5q-47 0 -90.5 -30.5t-65.5 -79.5l-71 40q29 66 88.5 106.5t141.5 40.5q102 0 158 -54t56 -136t-69 -151q-31 -31 -86 -68t-100.5 -73
t-70.5 -77z" />
    <glyph glyph-name="three.tf" horiz-adv-x="660" 
d="M439 368q60 -19 95 -67.5t35 -110.5q0 -91 -70 -146t-174 -55q-97 0 -155 41t-84 97l70 44q50 -100 171 -100q66 0 111.5 36t45.5 92q0 57 -43 92t-111 35h-108v78h95q67 0 111 36.5t44 91.5q0 51 -36.5 83t-102.5 32q-102 0 -164 -96l-65 44q76 132 233 132
q104 0 162.5 -59.5t58.5 -135.5q0 -52 -31.5 -96t-87.5 -68z" />
    <glyph glyph-name="four.tf" horiz-adv-x="660" 
d="M580 248v-76h-78v-172h-83v172h-316q-16 0 -26.5 15.5t-10.5 35.5q0 21 12 37l339 445q11 15 43 15q15 0 28.5 -8t13.5 -23v-441h78zM162 248h257v342z" />
    <glyph glyph-name="five.tf" horiz-adv-x="660" 
d="M334 426q106 0 169.5 -61t63.5 -159q0 -102 -68 -160.5t-169 -58.5q-152 0 -224 120l64 46q63 -84 158 -84q69 0 111.5 38.5t42.5 100.5q0 63 -43.5 101.5t-113.5 38.5q-64 0 -137 -37l-53 25v321q0 57 57 57h330v-80h-307v-233q56 25 119 25z" />
    <glyph glyph-name="six.tf" horiz-adv-x="660" 
d="M354 437q100 0 165 -62t65 -158q0 -93 -62 -162t-171 -69q-86 0 -144 48t-83 122.5t-25 169.5q0 108 31.5 197t99.5 146.5t162 57.5q107 0 171 -74l-59 -56q-50 47 -120 47q-88 0 -136 -73t-58 -182q76 48 164 48zM353 65q70 0 108 45.5t38 107.5q0 64 -41 102.5
t-113 38.5q-81 0 -158 -53q4 -105 43.5 -173t122.5 -68z" />
    <glyph glyph-name="seven.tf" horiz-adv-x="660" 
d="M514 714q34 0 46 -27.5t-3 -58.5l-275 -628h-100l292 634h-353v80h393z" />
    <glyph glyph-name="eight.tf" horiz-adv-x="660" 
d="M435 374q69 -22 110 -70t41 -114q0 -82 -69 -142.5t-186 -60.5t-186 60.5t-69 142.5q0 66 41.5 114t109.5 70q-121 53 -121 164q0 75 61.5 132t163.5 57q103 0 164 -57t61 -132q0 -111 -121 -164zM191 533q0 -50 40.5 -83.5t100.5 -33.5t99.5 33.5t39.5 83.5t-40 83.5
t-99 33.5q-60 0 -100.5 -33.5t-40.5 -83.5zM332 64q72 0 120 39t48 96q0 56 -48 94t-120 38t-121 -38t-49 -94q0 -57 48.5 -96t121.5 -39z" />
    <glyph glyph-name="nine.tf" horiz-adv-x="660" 
d="M330 727q126 0 184.5 -93t58.5 -242q0 -186 -66.5 -296t-208.5 -110q-93 0 -168 54l41 71q58 -42 125 -42q164 0 184 254q-72 -47 -153 -47q-100 0 -165 62t-65 158q0 93 62 162t171 69zM182 495q0 -64 41 -102.5t112 -38.5q76 0 148 52q0 52 -7.5 92.5t-24 76
t-47.5 54.5t-76 19q-70 0 -108 -45.5t-38 -107.5z" />
    <glyph glyph-name="zero.dnom" horiz-adv-x="370" 
d="M185 -8q-71 0 -108 52.5t-37 142.5t37 143t108 53t108 -53t37 -143t-37 -142.5t-108 -52.5zM185 45q84 0 84 142q0 143 -84 143t-84 -143q0 -142 84 -142z" />
    <glyph glyph-name="one.dnom" horiz-adv-x="288" 
d="M188 51h78v-54h-215v54h77v251l-72 -50l-32 41l119 86h18q12 0 19.5 -8t7.5 -19v-301z" />
    <glyph glyph-name="two.dnom" horiz-adv-x="323" 
d="M122 100q-16 -23 -17 -49h176v-54h-242q-3 89 37 140q19 24 66 59t56 43q22 20 22 40q0 21 -16.5 35.5t-41.5 14.5q-22 0 -44 -15.5t-34 -39.5l-48 28q17 36 50 58.5t77 22.5q55 0 87.5 -29t32.5 -75q0 -40 -36 -74q-16 -15 -62.5 -48.5t-62.5 -56.5z" />
    <glyph glyph-name="three.dnom" horiz-adv-x="332" 
d="M227 194q30 -10 47.5 -35.5t17.5 -57.5q0 -51 -39 -80.5t-95 -29.5q-49 0 -81.5 20.5t-47.5 50.5l45 32q26 -47 84 -47q32 0 52.5 17t20.5 42q0 26 -20 41.5t-52 15.5h-56v52h47q33 0 53.5 17t20.5 42q0 23 -16.5 38.5t-46.5 15.5q-48 0 -78 -45l-44 29q40 71 126 71
q54 0 87 -30.5t33 -73.5q0 -58 -58 -85z" />
    <glyph glyph-name="four.dnom" horiz-adv-x="339" 
d="M304 135v-51h-41v-87h-59v87h-150q-21 0 -29.5 17t3.5 34l178 236q11 9 27 9q12 0 21 -7t9 -21v-217h41zM89 135h115v154z" />
    <glyph glyph-name="five.dnom" horiz-adv-x="321" 
d="M163 226q57 0 91 -32t34 -84q0 -56 -38 -88t-93 -32q-82 0 -122 64l43 33q33 -41 77 -41q32 0 52 18t20 46q0 29 -20.5 46.5t-52.5 17.5q-31 0 -65 -19l-37 24v166q0 30 31 30h182v-52h-156l-1 -108q23 11 55 11z" />
    <glyph glyph-name="six.dnom" horiz-adv-x="338" 
d="M182 230q54 0 88 -32.5t34 -83.5t-34 -87.5t-93 -36.5q-69 0 -103.5 50t-34.5 128q0 89 42 151.5t118 62.5q58 0 94 -40l-37 -39q-25 24 -60 24q-43 0 -66 -34t-29 -86q38 23 81 23zM177 43q32 0 50 21t18 49q0 30 -19 47t-51 17q-39 0 -75 -27q6 -107 77 -107z" />
    <glyph glyph-name="seven.dnom" horiz-adv-x="290" 
d="M228 375q26 0 35 -17.5t-1 -36.5l-139 -324h-69l148 325h-175v53h201z" />
    <glyph glyph-name="eight.dnom" horiz-adv-x="352" 
d="M235 196q79 -27 79 -97q0 -45 -37 -77t-101 -32t-101.5 32t-37.5 77q0 34 21.5 59.5t57.5 37.5q-63 26 -63 85q0 41 33.5 71t89.5 30t89.5 -30t33.5 -71q0 -58 -64 -85zM176 330q-27 0 -45.5 -15.5t-18.5 -38.5t18.5 -39t45.5 -16t45 16t18 39t-18 38.5t-45 15.5zM176 43
q33 0 54.5 17.5t21.5 44.5t-21.5 44.5t-54.5 17.5t-55 -17.5t-22 -44.5t22 -44.5t55 -17.5z" />
    <glyph glyph-name="nine.dnom" horiz-adv-x="335" 
d="M163 382q69 0 100.5 -48.5t31.5 -127.5q0 -93 -39.5 -154.5t-115.5 -61.5q-60 0 -97 42l36 39q28 -27 63 -27q77 0 91 117q-38 -20 -76 -20q-54 0 -88 33t-34 84q0 50 34.5 87t93.5 37zM93 259q0 -30 18.5 -47.5t52.5 -17.5q36 0 71 23q-4 112 -74 112q-32 0 -50 -20.5
t-18 -49.5z" />
    <glyph glyph-name="acutecomb.loclPLK" horiz-adv-x="0" 
d="M-200 556l73 186h79l-85 -186h-67z" />
    <glyph glyph-name="caron.alt" horiz-adv-x="286" 
d="M84 557l45 188l73 -11l-64 -183z" />
    <glyph glyph-name="acute.case" horiz-adv-x="313" 
d="M49 797l166 156l49 -64l-181 -134z" />
    <glyph glyph-name="breve.case" horiz-adv-x="400" 
d="M200 756q-72 0 -108.5 46t-39.5 107h70q-1 -39 18 -69.5t60 -30.5t60 30.5t18 69.5h70q-3 -61 -39.5 -107t-108.5 -46z" />
    <glyph glyph-name="caron.case" horiz-adv-x="437" 
d="M110 919l108 -99l109 99l44 -43l-109 -102q-23 -22 -44 -22q-22 0 -44 22l-109 102z" />
    <glyph glyph-name="cedilla.case" horiz-adv-x="305" 
d="M143 -235q-59 0 -102 27l21 55q38 -22 76 -22q27 0 43.5 11t16.5 28q0 37 -83 41l8 55q141 -1 141 -100q0 -39 -33.5 -67t-87.5 -28z" />
    <glyph glyph-name="circumflex.case" horiz-adv-x="438" 
d="M111 750l-45 43l109 102q22 22 44 22q21 0 44 -22l109 -102l-44 -43l-109 99z" />
    <glyph glyph-name="dieresis.case" horiz-adv-x="367" 
d="M88 767q-25 0 -39 14.5t-14 39.5t14 39.5t39 14.5t39 -14.5t14 -39.5t-14 -39.5t-39 -14.5zM278 767q-25 0 -39 14.5t-14 39.5t14 39.5t39 14.5t39 -14.5t14 -39.5t-14 -39.5t-39 -14.5z" />
    <glyph glyph-name="dotaccent.case" horiz-adv-x="302" 
d="M151 764q-25 0 -40 15t-15 41t15 41t40 15t40 -15t15 -41t-15 -41t-40 -15z" />
    <glyph glyph-name="grave.case" horiz-adv-x="318" 
d="M267 798l-34 -42l-181 134l49 64z" />
    <glyph glyph-name="hungarumlaut.case" horiz-adv-x="422" 
d="M60 790l96 184l66 -37l-116 -175zM190 790l106 184l66 -37l-126 -175z" />
    <glyph glyph-name="macron.case" horiz-adv-x="429" 
d="M71 843h287v-66h-287v66z" />
    <glyph glyph-name="ogonek.case" horiz-adv-x="327" 
d="M145 -229q-47 0 -76 29.5t-29 74.5q0 47 34.5 91t91.5 67l36 -32q-44 -16 -68 -47.5t-24 -62.5q0 -22 12.5 -36t34.5 -14q24 0 48 18l33 -46q-13 -16 -38.5 -29t-54.5 -13z" />
    <glyph glyph-name="ring.case" horiz-adv-x="288" 
d="M145 744q-41 0 -68.5 27t-27.5 67q0 39 28 66t68 27t67.5 -27t27.5 -66q0 -40 -27.5 -67t-67.5 -27zM145 791q20 0 33 13.5t13 33.5t-13.5 33t-32.5 13q-20 0 -33.5 -13t-13.5 -33t13.5 -33.5t33.5 -13.5z" />
    <glyph glyph-name="tilde.case" horiz-adv-x="497" 
d="M318 759q-28 0 -52.5 15.5t-44.5 30.5t-36 15q-37 0 -55 -58l-59 19q24 101 111 101q28 0 52 -15t43 -30.5t38 -15.5q35 0 49 58l62 -15q-7 -49 -39 -77t-69 -28z" />
    <glyph glyph-name="NULL" horiz-adv-x="0" 
 />
    <glyph glyph-name="commaccent" horiz-adv-x="171" 
d="M97 -49q28 0 44.5 -21t16.5 -53q0 -36 -20.5 -75t-57.5 -69l-31 38q45 36 57 74q-10 -2 -14 -2q-22 0 -36.5 15.5t-14.5 38.5t16.5 38.5t39.5 15.5z" />
    <glyph glyph-name="commaccent.case" horiz-adv-x="169" 
d="M97 -49q28 0 44.5 -21t16.5 -53q0 -36 -20.5 -75t-57.5 -69l-31 38q45 36 57 74q-10 -2 -14 -2q-22 0 -36.5 15.5t-14.5 38.5t16.5 38.5t39.5 15.5z" />
    </font>
</defs>
</svg>
