<?xml version="1.0" standalone="no"?>
<!DOCTYPE svg PUBLIC "-//W3C//DTD SVG 1.1//EN" "http://www.w3.org/Graphics/SVG/1.1/DTD/svg11.dtd" >
<svg>
<metadata>
Created by FontForge 20090622 at Thu Sep 14 05:32:59 2017
 By deploy user
Copyright &#194;&#169; 2016 by Galin Kastelov. All rights reserved.
</metadata>
<defs>
<font id="Intelo-Light" horiz-adv-x="521" >
  <font-face 
    font-family="Intelo Light"
    font-weight="350"
    font-stretch="normal"
    units-per-em="1000"
    panose-1="0 0 4 0 0 0 0 0 0 0"
    ascent="760"
    descent="-240"
    x-height="500"
    cap-height="714"
    bbox="-200 -256 1201 966"
    underline-thickness="50"
    underline-position="-50"
    unicode-range="U+000D-U+25CA"
  />
<missing-glyph horiz-adv-x="130" 
 />
    <glyph glyph-name="f_f" unicode="ff" horiz-adv-x="693" 
d="M606 673q-54 0 -89 -33.5t-35 -102.5v-37h207v-48h-207v-452h-57v452h-265v-452h-57v452h-82v48h82v41q0 51 17 89t44.5 58t56.5 29t59 9q75 0 130 -46l-29 -42q-45 35 -97 35q-54 0 -89 -33.5t-35 -102.5v-37h265v41q0 51 17 89t44.5 58t56.5 29t59 9q75 0 130 -46
l-29 -42q-45 35 -97 35z" />
    <glyph glyph-name="f_f_i" unicode="ffi" horiz-adv-x="910" 
d="M429 541q0 51 17 89t44.5 58t56.5 29t59 9q75 0 130 -46l-29 -42q-45 35 -97 35q-54 0 -89 -33.5t-35 -102.5v-37h207v-48h-207v-452h-57v452h-269v-452h-57v452h-82v48h82v41q0 51 17 89t44.5 58t56.5 29t59 9q75 0 130 -46l-29 -42q-45 35 -97 35q-54 0 -89 -33.5
t-35 -102.5v-37h269v41zM803 676q21 0 33.5 -12.5t12.5 -33.5t-12.5 -34t-33.5 -13t-33 13t-12 34t12 33.5t33 12.5zM774 0v500h58v-500h-58z" />
    <glyph glyph-name="f_f_l" unicode="ffl" horiz-adv-x="899" 
d="M432 541q0 51 17 89t44.5 58t56.5 29t59 9q75 0 130 -46l-29 -42q-45 35 -97 35q-54 0 -89 -33.5t-35 -102.5v-37h207v-48h-207v-452h-57v452h-272v-452h-57v452h-82v48h82v41q0 51 17 89t44.5 58t56.5 29t59 9q75 0 130 -46l-29 -42q-45 35 -97 35q-54 0 -89 -33.5
t-35 -102.5v-37h272v41zM767 714h57v-714h-57v714z" />
    <glyph glyph-name=".notdef" horiz-adv-x="130" 
 />
    <glyph glyph-name=".null" horiz-adv-x="0" 
 />
    <glyph glyph-name="nonmarkingreturn" horiz-adv-x="333" 
 />
    <glyph glyph-name="CR" unicode="&#xd;" horiz-adv-x="130" 
 />
    <glyph glyph-name="space" unicode=" " horiz-adv-x="216" 
 />
    <glyph glyph-name="exclam" unicode="!" horiz-adv-x="257" 
d="M98 198l-12 529h72l-13 -529h-47zM120 -5q-21 0 -33.5 13t-12.5 35q0 21 12.5 34t33.5 13q22 0 34.5 -13t12.5 -34q0 -22 -12.5 -35t-34.5 -13z" />
    <glyph glyph-name="quotedbl" unicode="&#x22;" horiz-adv-x="337" 
d="M56 469l38 245h64l-57 -245h-45zM193 469l54 245h64l-73 -245h-45z" />
    <glyph glyph-name="numbersign" unicode="#" horiz-adv-x="665" 
d="M630 445h-124l-58 -178h123v-48h-139l-59 -179h-56l60 179h-177l-59 -179h-55l59 179h-111v48h127l59 178h-127v47h143l58 176h54l-58 -176h177l59 176h54l-58 -176h108v-47zM393 267l59 178h-178l-58 -178h177z" />
    <glyph glyph-name="dollar" unicode="$" horiz-adv-x="555" 
d="M520 193q0 -87 -60.5 -139.5t-151.5 -62.5v-90h-50v88q-71 2 -132 32t-96 81l41 37q68 -88 187 -95v301q-47 15 -77 28t-60.5 34.5t-45.5 53.5t-15 75q0 84 55 132.5t143 56.5v81h50v-79q105 -5 188 -67l-32 -45q-75 54 -156 59v-285l61.5 -20.5t54.5 -24.5t51.5 -35.5
t30.5 -48t14 -67.5zM119 539q0 -54 34.5 -82t104.5 -52v267q-63 -7 -101 -41.5t-38 -91.5zM308 46q69 9 110.5 48t41.5 97q0 57 -37 84.5t-115 53.5v-283z" />
    <glyph glyph-name="percent" unicode="%" horiz-adv-x="840" 
d="M204 338q-76 0 -123.5 54t-46.5 140t48.5 140.5t122.5 54.5q74 0 120.5 -54.5t46.5 -140.5t-47 -140t-121 -54zM101 0l575 714h54l-571 -714h-58zM203 384q53 0 84.5 40t31.5 108t-31 108t-84 40t-84.5 -40t-32.5 -108q0 -68 31.5 -108t84.5 -40zM639 -13
q-76 0 -123.5 54t-46.5 140t48.5 140.5t122.5 54.5q74 0 120.5 -54.5t46.5 -140.5t-47 -140t-121 -54zM638 33q53 0 84.5 40t31.5 108t-31 108t-84 40t-84.5 -40t-32.5 -108q0 -68 31.5 -108t84.5 -40z" />
    <glyph glyph-name="ampersand" unicode="&#x26;" horiz-adv-x="628" 
d="M611 0h-69l-58 64q-94 -76 -203 -76q-108 0 -172.5 62t-64.5 157q0 133 134 200q-52 67 -52 144q0 75 53.5 125.5t127.5 50.5q69 0 115.5 -46t46.5 -113q0 -58 -55 -115l-39 36q42 42 42 86t-32.5 75t-80.5 31q-52 0 -89 -37t-37 -92q0 -70 67 -144l240 -267
q52 65 58 145h56q-11 -108 -78 -186zM279 41q96 0 170 63l-238 265q-52 -25 -81.5 -67.5t-29.5 -96.5q0 -72 49.5 -118t129.5 -46z" />
    <glyph glyph-name="quotesingle" unicode="'" horiz-adv-x="194" 
d="M56 469l38 245h64l-57 -245h-45z" />
    <glyph glyph-name="parenleft" unicode="(" horiz-adv-x="338" 
d="M304 -167q-45 17 -88.5 56t-82.5 99t-63.5 149.5t-24.5 193.5t25 194t65 149.5t83 98.5t86 56l21 -46q-93 -51 -157.5 -169.5t-64.5 -282.5q0 -165 64 -283.5t158 -166.5z" />
    <glyph glyph-name="parenright" unicode=")" horiz-adv-x="338" 
d="M34 -167l-21 48q94 48 158 166.5t64 283.5q0 164 -64.5 282.5t-157.5 169.5l21 46q43 -17 86 -56t83 -98.5t65 -149.5t25 -194t-24.5 -193.5t-63.5 -149.5t-82.5 -99t-88.5 -56z" />
    <glyph glyph-name="asterisk" unicode="*" horiz-adv-x="383" 
d="M100 442l-29 29l87 94l-116 50l20 40l109 -54v125h43v-125l108 54l18 -40l-113 -50l86 -93l-32 -30l-88 100z" />
    <glyph glyph-name="plus" unicode="+" horiz-adv-x="458" 
d="M416 328v-48h-163v-163h-48v163h-163v48h163v163h48v-163h163z" />
    <glyph glyph-name="comma" unicode="," horiz-adv-x="205" 
d="M100 85q24 0 38 -17.5t14 -45.5q0 -38 -26.5 -78.5t-69.5 -63.5l-18 29q59 40 74 88q-8 -3 -16 -3q-19 0 -31 13t-12 32q0 20 13.5 33t33.5 13z" />
    <glyph glyph-name="hyphen" unicode="-" horiz-adv-x="506" 
d="M66 324h374v-48h-374v48z" />
    <glyph glyph-name="period" unicode="." horiz-adv-x="201" 
d="M100 -5q-21 0 -33.5 13t-12.5 35q0 21 12.5 34t33.5 13q22 0 34.5 -13t12.5 -34q0 -22 -12.5 -35t-34.5 -13z" />
    <glyph glyph-name="slash" unicode="/" horiz-adv-x="519" 
d="M76 0h-56l423 714h57z" />
    <glyph glyph-name="zero" unicode="0" horiz-adv-x="619" 
d="M310 -11q-126 0 -190.5 98.5t-64.5 269.5t65 270.5t190 99.5q124 0 189 -99.5t65 -270.5t-65 -269.5t-189 -98.5zM310 43q96 0 145.5 82.5t49.5 231.5q0 150 -49.5 233t-145.5 83q-97 0 -146.5 -83t-49.5 -233q0 -149 49.5 -231.5t146.5 -82.5z" />
    <glyph glyph-name="one" unicode="1" horiz-adv-x="356" 
d="M236 726q13 0 20.5 -6.5t7.5 -16.5v-703h-58v650l-169 -120l-31 43l193 138q21 15 37 15z" />
    <glyph glyph-name="two" unicode="2" horiz-adv-x="537" 
d="M114 56h370v-56h-432q0 88 12 136.5t49 94.5q29 37 75.5 74t98 72t72.5 54q61 50 61 111q0 57 -41.5 94t-106.5 37q-55 0 -102.5 -33t-70.5 -88l-52 28q30 66 88.5 106.5t138.5 40.5q97 0 151.5 -53t54.5 -130q0 -87 -80 -156q-21 -19 -115.5 -84.5t-129.5 -115.5
q-22 -30 -31 -58.5t-10 -73.5z" />
    <glyph glyph-name="three" unicode="3" horiz-adv-x="564" 
d="M375 369q62 -19 98 -67.5t36 -111.5q0 -90 -69 -145.5t-172 -55.5q-94 0 -151 41t-83 97l50 29q53 -110 186 -110q78 0 129 42t51 107q0 63 -45.5 103t-117.5 40h-114v55h105q67 0 113.5 42.5t46.5 102.5q0 57 -43 95t-117 38q-118 0 -182 -106l-46 30q32 57 90 94.5
t141 37.5q102 0 159.5 -58.5t57.5 -133.5q0 -54 -33 -98.5t-90 -67.5z" />
    <glyph glyph-name="four" unicode="4" horiz-adv-x="558" 
d="M515 234v-53h-78v-181h-58v181h-336q-12 0 -20.5 11t-8.5 26q0 16 9 29l348 460q9 13 34 13q12 0 22 -6t10 -18v-462h78zM80 234h299v400z" />
    <glyph glyph-name="five" unicode="5" horiz-adv-x="540" 
d="M274 427q103 0 164.5 -60.5t61.5 -157.5q0 -103 -65.5 -162.5t-168.5 -59.5q-153 0 -220 124l46 31q62 -98 173 -98q80 0 128 45.5t48 120.5q0 73 -47.5 118t-125.5 45q-80 0 -153 -51l-41 18v331q0 43 43 43h339v-56h-326v-271q64 40 144 40z" />
    <glyph glyph-name="six" unicode="6" horiz-adv-x="572" 
d="M303 437q101 0 163 -61.5t62 -158.5q0 -93 -61 -162t-168 -69q-124 0 -185 96t-61 244q0 80 18 151.5t53 127.5t90.5 89t125.5 33q105 0 168 -74l-41 -39q-52 55 -131 55q-99 0 -156 -84.5t-65 -216.5q84 69 188 69zM300 42q77 0 123 51t46 125q0 75 -45.5 119.5
t-126.5 44.5q-97 0 -183 -76q4 -120 50 -192t136 -72z" />
    <glyph glyph-name="seven" unicode="7" horiz-adv-x="464" 
d="M412 714q23 0 31.5 -19t-2.5 -43l-285 -652h-68l295 658h-362v56h391z" />
    <glyph glyph-name="eight" unicode="8" horiz-adv-x="595" 
d="M391 373q72 -22 113.5 -71t41.5 -115q0 -82 -68.5 -140.5t-179.5 -58.5t-180 58.5t-69 140.5q0 66 41.5 115t113.5 71q-62 24 -94.5 68t-32.5 99q0 77 61.5 131.5t159.5 54.5t159 -54.5t61 -131.5q0 -55 -32.5 -99t-94.5 -68zM136 537q0 -56 43.5 -96t118.5 -40
q74 0 117.5 40t43.5 96t-44.5 95.5t-116.5 39.5t-117 -39.5t-45 -95.5zM298 42q84 0 136.5 44t52.5 107t-53 106.5t-136 43.5t-136 -43.5t-53 -106.5t52 -107t137 -44z" />
    <glyph glyph-name="nine" unicode="9" horiz-adv-x="565" 
d="M271 727q122 -1 180.5 -94t58.5 -241q0 -85 -14.5 -155.5t-45.5 -128t-85.5 -90t-129.5 -32.5q-89 0 -163 50l30 49q59 -41 132 -41q195 0 213 299q-90 -67 -185 -67q-98 0 -160 61.5t-62 157.5q0 94 62 163.5t169 68.5zM99 495q0 -74 45.5 -119t122.5 -45q87 0 181 74
q-2 122 -45 194t-133 72q-78 0 -124.5 -50.5t-46.5 -125.5z" />
    <glyph glyph-name="colon" unicode=":" horiz-adv-x="242" 
d="M112 348q-21 0 -33.5 13t-12.5 35q0 21 12.5 34t33.5 13q22 0 34.5 -13t12.5 -34q0 -22 -12.5 -35t-34.5 -13zM112 -5q-21 0 -33.5 13t-12.5 35q0 21 12.5 34t33.5 13q22 0 34.5 -13t12.5 -34q0 -22 -12.5 -35t-34.5 -13z" />
    <glyph glyph-name="semicolon" unicode=";" horiz-adv-x="249" 
d="M124 348q-21 0 -33.5 13t-12.5 35q0 21 12.5 34t33.5 13q22 0 34.5 -13t12.5 -34q0 -22 -12.5 -35t-34.5 -13zM125 85q24 0 38 -17.5t14 -45.5q0 -38 -26.5 -78.5t-69.5 -63.5l-18 29q59 40 74 88q-7 -3 -16 -3q-19 0 -31 13t-12 32q0 20 13.5 33t33.5 13z" />
    <glyph glyph-name="less" unicode="&#x3c;" horiz-adv-x="444" 
d="M368 134l-322 185q-16 10 -15.5 26.5t15.5 25.5l322 185l19 -47l-283 -164l283 -163z" />
    <glyph glyph-name="equal" unicode="=" horiz-adv-x="512" 
d="M69 424h374v-48h-374v48zM69 224h374v-48h-374v48z" />
    <glyph glyph-name="greater" unicode="&#x3e;" horiz-adv-x="448" 
d="M78 131l-22 47l289 167l-289 167l22 47l325 -188q15 -9 15.5 -25.5t-15.5 -26.5z" />
    <glyph glyph-name="question" unicode="?" horiz-adv-x="487" 
d="M188 150q-4 21 -4 45q0 40 21 78.5t51 69.5l60.5 61.5t51.5 66.5t21 72q0 57 -41 92.5t-102 35.5q-52 0 -97.5 -29t-73.5 -84l-49 29q31 66 90.5 103t130.5 37q88 0 145 -52t57 -131q0 -45 -21.5 -86t-51.5 -72.5l-60.5 -61t-52 -63t-21.5 -66.5q0 -21 4 -45h-58zM218 -6
q-21 0 -33 12t-12 33q0 20 12 32.5t33 12.5t33 -12.5t12 -32.5q0 -21 -12 -33t-33 -12z" />
    <glyph glyph-name="at" unicode="@" horiz-adv-x="935" 
d="M459 -131q90 0 181 35t146 91l32 -36q-54 -58 -157.5 -99t-207.5 -41q-175 0 -291 116.5t-116 291.5q0 193 137 330.5t326 137.5q166 0 280 -105.5t114 -256.5q0 -118 -68.5 -201.5t-166.5 -83.5q-48 0 -77.5 22.5t-33.5 62.5q-29 -40 -71.5 -62.5t-86.5 -22.5
q-66 0 -105.5 45t-39.5 123q0 110 74.5 189.5t179.5 79.5q52 0 97 -20.5t62 -46.5l-45 -164q-20 -72 -20 -102q0 -59 71 -59q75 0 126.5 69t51.5 168q0 138 -100 225.5t-241 87.5q-168 0 -289 -121t-121 -293q0 -156 102 -258t257 -102zM577 267l39 134q-44 37 -108 37
q-82 0 -141 -64.5t-59 -154.5q0 -58 27 -90.5t74 -32.5q119 0 168 171z" />
    <glyph glyph-name="A" unicode="A" horiz-adv-x="652" 
d="M574 0l-91 243h-314l-91 -243h-67l260 676q15 40 55 40t54 -40l261 -676h-67zM189 296h274l-137 366z" />
    <glyph glyph-name="B" unicode="B" horiz-adv-x="645" 
d="M93 0v679q0 17 10.5 26t25.5 9h228q93 0 147.5 -47.5t54.5 -129.5q0 -52 -24.5 -92.5t-68.5 -55.5v-1q59 -12 96.5 -62.5t37.5 -120.5q0 -92 -56.5 -148.5t-153.5 -56.5h-297zM153 410h220q62 0 93.5 35.5t31.5 86.5q0 60 -37.5 93t-107.5 33h-200v-248zM153 56h220
q77 0 120.5 41t43.5 108q0 68 -42 109.5t-121 41.5h-221v-300z" />
    <glyph glyph-name="C" unicode="C" horiz-adv-x="697" 
d="M381 -11q-139 0 -234.5 94.5t-95.5 271.5q0 171 92.5 271.5t245.5 100.5q88 0 160 -40t112 -114l-49 -30q-35 63 -94.5 96t-129.5 33q-126 0 -200.5 -83.5t-74.5 -231.5q0 -146 76.5 -228.5t193.5 -82.5q77 0 142 34.5t107 86.5l40 -38q-52 -65 -129.5 -102.5
t-161.5 -37.5z" />
    <glyph glyph-name="D" unicode="D" horiz-adv-x="714" 
d="M93 0v680q0 17 10.5 25.5t25.5 8.5h203q145 0 239 -101.5t94 -252.5q0 -157 -94 -258.5t-239 -101.5h-239zM153 56h176q118 0 196 83.5t78 220.5q0 132 -78 215t-195 83h-177v-602z" />
    <glyph glyph-name="E" unicode="E" horiz-adv-x="574" 
d="M522 658h-369v-265h337v-56h-337v-281h362v-56h-422v680q0 17 10.5 25.5t25.5 8.5h393v-56z" />
    <glyph glyph-name="F" unicode="F" horiz-adv-x="539" 
d="M511 658h-358v-265h319v-56h-319v-337h-60v680q0 17 10.5 25.5t25.5 8.5h382v-56z" />
    <glyph glyph-name="G" unicode="G" horiz-adv-x="744" 
d="M379 -11q-150 0 -239.5 100t-89.5 263q0 169 95.5 272t250.5 103q103 0 174.5 -45.5t100.5 -113.5l-54 -25q-26 59 -84.5 93.5t-137.5 34.5q-128 0 -205.5 -85t-77.5 -232q0 -142 74 -225.5t192 -83.5q111 0 186 73t77 195h-245v55h305v-48q0 -155 -93.5 -243t-228.5 -88
z" />
    <glyph glyph-name="H" unicode="H" horiz-adv-x="713" 
d="M93 0v714h60v-319h407v319h60v-714h-60v339h-407v-339h-60z" />
    <glyph glyph-name="I" unicode="I" horiz-adv-x="246" 
d="M93 0v714h60v-714h-60z" />
    <glyph glyph-name="J" unicode="J" horiz-adv-x="484" 
d="M195 -11q-127 0 -181 105l44 32q51 -81 136 -81q69 0 106 45.5t37 126.5v497h60v-509q0 -99 -54 -157.5t-148 -58.5z" />
    <glyph glyph-name="K" unicode="K" horiz-adv-x="569" 
d="M575 0h-82l-340 328v-328h-60v714h60v-354l326 354h73l-336 -365z" />
    <glyph glyph-name="L" unicode="L" horiz-adv-x="540" 
d="M125 0q-14 0 -23.5 9.5t-9.5 24.5v680h60v-658h366v-56h-393z" />
    <glyph glyph-name="M" unicode="M" horiz-adv-x="866" 
d="M739 719q34 0 34 -27v-692h-59v613l-257 -470h-47l-258 469v-612h-59v692q0 12 10 19.5t26 7.5q18 0 26 -7t17 -24l262 -476l262 476q6 12 10 17t12.5 9.5t20.5 4.5z" />
    <glyph glyph-name="N" unicode="N" horiz-adv-x="742" 
d="M591 714h57v-695q0 -11 -9.5 -18t-22.5 -7q-26 0 -42 22l-424 604v-620h-57v692q0 12 9.5 19.5t24.5 7.5q18 0 27 -6t19 -21l418 -591v613z" />
    <glyph glyph-name="O" unicode="O" horiz-adv-x="767" 
d="M385 -11q-150 0 -242.5 101t-92.5 267t92.5 268t242.5 102q149 0 240.5 -102t91.5 -268q0 -165 -91.5 -266.5t-240.5 -101.5zM385 46q120 0 195 84t75 227q0 144 -75 228.5t-195 84.5q-122 0 -197.5 -84.5t-75.5 -228.5q0 -143 75.5 -227t197.5 -84z" />
    <glyph glyph-name="P" unicode="P" horiz-adv-x="579" 
d="M312 714q114 0 173.5 -60t59.5 -160q0 -109 -61.5 -166.5t-176.5 -57.5h-154v-270h-60v680q0 15 9.5 24.5t23.5 9.5h186zM308 326q175 0 175 169q0 79 -44 121t-131 42h-155v-332h155z" />
    <glyph glyph-name="Q" unicode="Q" horiz-adv-x="767" 
d="M582 -96q41 0 83 11l7 -55q-45 -12 -91 -12q-157 0 -240 143q-133 16 -212 115t-79 251q0 166 92.5 268t242.5 102q149 0 240.5 -102t91.5 -268q0 -157 -83 -256.5t-220 -110.5q26 -43 71 -64.5t97 -21.5zM112 357q0 -143 75.5 -227t197.5 -84q120 0 195 84t75 227
q0 144 -75 228.5t-195 84.5q-122 0 -197.5 -84.5t-75.5 -228.5z" />
    <glyph glyph-name="R" unicode="R" horiz-adv-x="593" 
d="M472 0l-192 301h-127v-301h-60v680q0 15 9.5 24.5t23.5 9.5h193q108 0 165.5 -55.5t57.5 -154.5q0 -86 -50.5 -138.5t-142.5 -62.5l201 -303h-78zM153 658v-303h151q86 0 131 39t45 113q0 72 -43.5 111.5t-126.5 39.5h-157z" />
    <glyph glyph-name="S" unicode="S" horiz-adv-x="557" 
d="M271 -11q-74 0 -137.5 30t-99.5 83l41 37q73 -95 198 -95q81 0 132.5 40.5t51.5 106.5q0 14 -3 27t-6.5 22.5t-12.5 19.5t-15 16t-20.5 14l-21.5 12t-25.5 11t-26 9.5l-30 10t-29.5 9.5q-49 16 -78.5 29t-62 35.5t-48 55t-15.5 75.5q0 92 65.5 141t165.5 49
q112 0 200 -67l-32 -45q-79 59 -169 59q-76 0 -123.5 -34.5t-47.5 -99.5q0 -26 10.5 -47.5t23 -34.5t41 -26.5t46 -20t57.5 -19.5q5 -2 15 -5q39 -13 59.5 -20.5t52.5 -24.5t48.5 -35t29.5 -47.5t13 -66.5q0 -96 -71.5 -150t-175.5 -54z" />
    <glyph glyph-name="T" unicode="T" horiz-adv-x="558" 
d="M537 714v-56h-228v-658h-60v658h-228v56h516z" />
    <glyph glyph-name="U" unicode="U" horiz-adv-x="681" 
d="M340 -11q-122 0 -188 66.5t-66 181.5v477h60v-474q0 -92 49 -143t145 -51t145 51t49 143v474h61v-477q0 -115 -66.5 -181.5t-188.5 -66.5z" />
    <glyph glyph-name="V" unicode="V" horiz-adv-x="631" 
d="M542 714h69l-239 -686q-12 -39 -56 -39q-45 0 -57 39l-239 686l71 1l226 -659z" />
    <glyph glyph-name="W" unicode="W" horiz-adv-x="922" 
d="M834 714h64l-185 -694q-9 -31 -49 -31t-49 30l-154 502l-155 -501q-7 -31 -49 -31q-41 0 -48 30l-183 695h66l168 -658l174 559h55l175 -559z" />
    <glyph glyph-name="X" unicode="X" horiz-adv-x="575" 
d="M568 0h-71l-211 318l-207 -318h-69l240 365l-226 349h70l194 -303l194 303h70l-228 -351z" />
    <glyph glyph-name="Y" unicode="Y" horiz-adv-x="591" 
d="M574 714l-248 -428v-286h-60v286l-248 428h71l208 -367l208 367h69z" />
    <glyph glyph-name="Z" unicode="Z" horiz-adv-x="555" 
d="M53 0q-18 0 -24.5 21.5t4.5 39.5l406 596h-386v57h426q20 0 28 -21.5t-4 -42.5l-406 -593h419v-57h-463z" />
    <glyph glyph-name="bracketleft" unicode="[" horiz-adv-x="350" 
d="M88 -179v998h240v-54h-181v-890h181v-54h-240z" />
    <glyph glyph-name="backslash" unicode="\" horiz-adv-x="530" 
d="M443 0l-424 714h57l423 -714h-56z" />
    <glyph glyph-name="bracketright" unicode="]" horiz-adv-x="350" 
d="M22 -179v54h181v890h-181v54h240v-998h-240z" />
    <glyph glyph-name="asciicircum" unicode="^" horiz-adv-x="539" 
d="M80 355l-48 25l206 338q12 19 31.5 19t31.5 -19l206 -338l-48 -25l-190 310z" />
    <glyph glyph-name="underscore" unicode="_" horiz-adv-x="466" 
d="M0 -104v47h466v-47h-466z" />
    <glyph glyph-name="grave" unicode="`" horiz-adv-x="432" 
d="M315 584l-24 -31l-174 135l36 45z" />
    <glyph glyph-name="a" unicode="a" 
d="M252 513q95 0 147.5 -52t52.5 -152v-309h-54v101q-55 -113 -188 -113q-76 0 -123.5 42.5t-47.5 110.5q0 84 65.5 123t176.5 39q49 0 117 -9v19q0 148 -147 148q-86 0 -159 -60l-32 41q78 71 192 71zM218 35q85 0 132.5 58t47.5 151v7q-61 8 -112 8q-189 0 -189 -118
q0 -47 33.5 -76.5t87.5 -29.5z" />
    <glyph glyph-name="b" unicode="b" horiz-adv-x="562" 
d="M310 513q96 0 152 -69t56 -184q0 -123 -67 -197.5t-188 -74.5q-110 0 -191 61v665h58v-284q78 83 180 83zM262 40q93 0 145 59t52 166q0 92 -41 144t-117 52q-98 0 -171 -91v-293q57 -37 132 -37z" />
    <glyph glyph-name="c" unicode="c" horiz-adv-x="523" 
d="M283 -13q-108 0 -173.5 73t-65.5 190q0 118 65 190.5t177 72.5q145 0 202 -112l-47 -28q-47 89 -155 89q-82 0 -132.5 -56t-50.5 -156t50 -155.5t130 -55.5q105 0 167 98l44 -29q-26 -49 -79.5 -85t-131.5 -36z" />
    <glyph glyph-name="d" unicode="d" horiz-adv-x="563" 
d="M431 714h57v-714h-57v72q-73 -85 -177 -85q-93 0 -151 70t-58 184q0 123 62.5 197.5t164.5 74.5q98 0 159 -70v271zM262 39q101 0 169 93v246q-59 83 -158 83q-79 0 -124.5 -57.5t-45.5 -160.5q0 -95 43 -149.5t116 -54.5z" />
    <glyph glyph-name="e" unicode="e" horiz-adv-x="529" 
d="M278 41q98 0 170 69l32 -42q-86 -79 -204 -79q-96 0 -164 66.5t-68 186.5q0 116 67 193.5t186 77.5q78 0 134.5 -43.5t56.5 -121.5q0 -59 -38 -93t-100 -34h-248q7 -82 54.5 -131t121.5 -49zM293 465q-80 0 -132.5 -53t-58.5 -144h242q39 0 64 21.5t25 62.5
q0 50 -39.5 81.5t-100.5 31.5z" />
    <glyph glyph-name="f" unicode="f" horiz-adv-x="372" 
d="M284 673q-54 0 -89 -33.5t-35 -102.5v-37h207v-48h-207v-452h-57v452h-82v48h82v41q0 51 17 89t44.5 58t56.5 29t59 9q75 0 130 -46l-29 -42q-45 35 -97 35z" />
    <glyph glyph-name="g" unicode="g" 
d="M499 503q-27 -32 -75 -55q38 -43 38 -105q0 -76 -55 -120t-148 -44q-47 0 -91 13q-39 -16 -39 -50q0 -31 31 -43.5t97 -19.5q15 -2 40.5 -5t36.5 -4.5t27.5 -4.5t27.5 -5.5t21 -6.5q81 -31 81 -109q0 -74 -63.5 -109.5t-173.5 -35.5q-101 0 -163 35t-62 103q0 81 85 124
q-39 26 -39 72q0 50 52 79q-68 42 -68 129q0 76 54.5 121.5t146.5 45.5q72 0 122 -28q56 25 87 61zM259 225q69 0 108.5 31.5t39.5 87.5q0 55 -39.5 86.5t-107.5 31.5q-69 0 -108 -32t-39 -89q0 -56 38 -86t108 -30zM281 25q-98 13 -118 18q-36 -15 -56.5 -41.5t-20.5 -57.5
q0 -96 169 -96q179 0 179 93q0 18 -8 31.5t-19.5 22t-34 14.5t-40.5 9t-51 7z" />
    <glyph glyph-name="h" unicode="h" horiz-adv-x="565" 
d="M341 513q75 0 114 -40.5t39 -115.5v-357h-58v346q0 60 -25 87t-76 27q-94 0 -202 -94v-366h-58v714h58v-295q107 94 208 94z" />
    <glyph glyph-name="i" unicode="i" horiz-adv-x="213" 
d="M106 583q-21 0 -33 13t-12 34t12 33.5t33 12.5t33.5 -12.5t12.5 -33.5t-12.5 -34t-33.5 -13zM77 0v500h58v-500h-58z" />
    <glyph glyph-name="j" unicode="j" horiz-adv-x="233" 
d="M126 583q-21 0 -33 13t-12 34t12 33.5t33 12.5t33.5 -12.5t12.5 -33.5t-12.5 -34t-33.5 -13zM20 -195q-33 0 -67 13l13 49q29 -9 50 -9q38 0 59 23.5t21 67.5v551h58v-552q0 -69 -36 -106t-98 -37z" />
    <glyph glyph-name="k" unicode="k" horiz-adv-x="454" 
d="M456 0h-75l-250 258v-258h-57v714h57v-433l240 219h70l-252 -229z" />
    <glyph glyph-name="l" unicode="l" horiz-adv-x="206" 
d="M74 0v714h57v-714h-57z" />
    <glyph glyph-name="m" unicode="m" horiz-adv-x="901" 
d="M679 513q73 0 112 -40t39 -116v-357h-58v342q0 61 -24 90t-76 29q-91 0 -189 -91v-12v-358h-57v346q0 115 -101 115q-87 0 -192 -94v-367h-58v500h57v-83q99 96 199 96q116 0 144 -94q98 94 204 94z" />
    <glyph glyph-name="n" unicode="n" horiz-adv-x="569" 
d="M345 513q75 0 114 -40.5t39 -115.5v-357h-58v346q0 60 -25 87t-76 27q-98 0 -206 -94v-366h-58v500h57v-82q107 95 213 95z" />
    <glyph glyph-name="o" unicode="o" horiz-adv-x="561" 
d="M280 -13q-107 0 -172 72.5t-64 190.5q1 119 66 191t171 72q107 0 171.5 -72t64.5 -191t-64.5 -191t-172.5 -72zM280 39q85 0 132 55.5t47 155.5q0 99 -47 155t-131 56t-131.5 -55.5t-47.5 -155.5q-1 -99 46.5 -155t131.5 -56z" />
    <glyph glyph-name="p" unicode="p" horiz-adv-x="565" 
d="M309 513q96 0 153.5 -70.5t57.5 -184.5q0 -119 -63 -195t-168 -76q-82 0 -157 50v-223h-57v686h57v-70q74 83 177 83zM286 39q82 0 129 59.5t47 158.5q0 96 -42.5 150t-116.5 54q-102 0 -171 -94v-275q71 -53 154 -53z" />
    <glyph glyph-name="q" unicode="q" horiz-adv-x="562" 
d="M304 513q104 0 186 -60v-639h-58v253q-77 -80 -179 -80q-96 0 -152.5 69t-56.5 186q0 121 69 196t191 75zM263 39q98 0 169 88v298q-57 36 -129 36q-94 0 -147.5 -59.5t-53.5 -164.5q0 -93 42 -145.5t119 -52.5z" />
    <glyph glyph-name="r" unicode="r" horiz-adv-x="368" 
d="M298 513q37 0 63 -11l-10 -51q-27 8 -56 8q-94 0 -163 -86v-373h-57v500h56v-71q30 40 74 62t93 22z" />
    <glyph glyph-name="s" unicode="s" horiz-adv-x="454" 
d="M221 -11q-124 0 -193 79l31 37q66 -67 163 -67q59 0 98.5 25t39.5 71q0 17 -7 30.5t-15.5 21.5t-30 17t-34 13t-44.5 13q-9 3 -14 4q-38 11 -60.5 20.5t-48 25.5t-37.5 39.5t-12 54.5q0 68 52 104t129 36q97 0 167 -54l-28 -40q-62 46 -139 46q-57 0 -91.5 -24t-34.5 -65
q0 -37 30.5 -56.5t96.5 -38.5q38 -11 57 -17t46.5 -18.5t40.5 -26t23 -35t10 -48.5q0 -70 -57 -108.5t-138 -38.5z" />
    <glyph glyph-name="t" unicode="t" horiz-adv-x="391" 
d="M361 79l24 -45q-61 -44 -133 -44q-77 0 -114 46t-37 126v290h-83v48h83v155h57v-155h201v-48h-201v-292q0 -59 27 -87t73 -28q52 0 103 34z" />
    <glyph glyph-name="u" unicode="u" horiz-adv-x="566" 
d="M434 500h57v-501h-56v87q-108 -99 -213 -99q-74 0 -112.5 40t-38.5 115v358h57v-348q0 -57 24 -84.5t76 -27.5q94 0 206 96v364z" />
    <glyph glyph-name="v" unicode="v" horiz-adv-x="509" 
d="M431 500h63l-195 -476q-12 -30 -44 -30q-33 0 -45 30l-196 476h65l176 -452z" />
    <glyph glyph-name="w" unicode="w" horiz-adv-x="741" 
d="M659 500h62l-143 -476q-11 -30 -42 -30t-42 30l-123 415l-123 -415q-12 -30 -42 -30q-32 0 -44 30l-141 476h63l123 -439l132 439h64l133 -439z" />
    <glyph glyph-name="x" unicode="x" horiz-adv-x="475" 
d="M463 0h-71l-158 216l-153 -216h-69l189 256l-177 244h71l144 -205l147 205h67l-181 -244z" />
    <glyph glyph-name="y" unicode="y" horiz-adv-x="499" 
d="M424 500h63l-235 -581q-48 -119 -148 -119q-61 0 -99 40l26 38q34 -27 72 -27q66 0 102 92l21 53l-207 504h60l175 -437z" />
    <glyph glyph-name="z" unicode="z" horiz-adv-x="461" 
d="M59 0q-22 0 -28 21.5t6 34.5l315 395h-302v49h341q22 0 28 -21t-8 -36l-313 -394h324v-49h-363z" />
    <glyph glyph-name="braceleft" unicode="{" horiz-adv-x="334" 
d="M309 -176q-193 3 -193 238v91q0 80 -21 110.5t-77 44.5v46q57 14 77.5 44.5t20.5 110.5v91q0 223 193 238v-53q-136 -10 -136 -186v-106q0 -134 -90 -160q90 -26 90 -163v-107q0 -181 136 -186v-53z" />
    <glyph glyph-name="bar" unicode="|" horiz-adv-x="228" 
d="M141 -114h-54v965h54v-965z" />
    <glyph glyph-name="braceright" unicode="}" horiz-adv-x="334" 
d="M25 -176v53q136 5 136 186v107q0 137 90 163q-90 26 -90 160v106q0 176 -136 186v53q193 -15 193 -238v-91q0 -80 20.5 -110.5t77.5 -44.5v-46q-56 -14 -77 -44.5t-21 -110.5v-91q0 -235 -193 -238z" />
    <glyph glyph-name="asciitilde" unicode="~" horiz-adv-x="599" 
d="M402 238q-37 0 -73.5 24t-69.5 48t-62 24q-32 0 -55.5 -24t-29.5 -61l-43 11q9 58 46 90t84 32q29 0 58.5 -15t49.5 -33.5t46.5 -33.5t50.5 -15q34 0 55.5 23.5t26.5 64.5l44 -8q-6 -62 -43.5 -94.5t-84.5 -32.5z" />
    <glyph glyph-name="exclamdown" unicode="&#xa1;" horiz-adv-x="245" 
d="M114 516q22 0 34.5 -13t12.5 -35q0 -21 -12.5 -34t-34.5 -13q-21 0 -33.5 13t-12.5 34q0 22 12.5 35t33.5 13zM92 313h47l13 -529h-72z" />
    <glyph glyph-name="cent" unicode="&#xa2;" horiz-adv-x="531" 
d="M497 108q-24 -45 -73 -80t-119 -40v-90h-52v91q-94 11 -150 82t-56 179q0 107 55 178t151 83v90h52v-88q131 -7 186 -112l-47 -28q-43 82 -139 88v-421q92 9 148 97zM106 250q0 -90 40 -143.5t107 -64.5v417q-68 -12 -107.5 -66t-39.5 -143z" />
    <glyph glyph-name="sterling" unicode="&#xa3;" horiz-adv-x="556" 
d="M164 218q0 -105 -41 -167h390v-51h-443l-16 43q9 10 16 20.5t12 19t9 19.5l6.5 17.5t4.5 18t3 16t1.5 16.5t0.5 15v16v15v141h-57v49h57v35q0 138 64 212t171 74q116 0 179 -90l-40 -34q-52 72 -138 72q-89 0 -134 -63.5t-45 -170.5v-35h277v-49h-277v-139z" />
    <glyph glyph-name="currency" unicode="&#xa4;" horiz-adv-x="568" 
d="M519 110l-32 -31l-84 84q-47 -36 -118 -36t-120 36l-82 -84l-33 32l83 85q-33 48 -32 114q0 66 33 112l-83 84l33 32l82 -82q49 36 120 36t117 -35l81 81l34 -32l-82 -83q32 -46 32 -113q0 -68 -33 -115zM284 173q65 0 99.5 35t34.5 102q0 66 -34 100.5t-99 34.5
t-99 -34.5t-34 -101.5q-1 -66 33 -101t99 -35z" />
    <glyph glyph-name="yen" unicode="&#xa5;" horiz-adv-x="605" 
d="M580 714l-224 -386h140v-48h-164v-83h164v-48h-164v-149h-60v149h-162v48h162v83h-162v48h138l-224 386h71l208 -367l208 367h69z" />
    <glyph glyph-name="brokenbar" unicode="&#xa6;" horiz-adv-x="228" 
d="M87 463v388h54v-388h-54zM141 274v-388h-54v388h54z" />
    <glyph glyph-name="section" unicode="&#xa7;" horiz-adv-x="591" 
d="M552 173q0 -77 -54 -129q25 -38 25 -91q0 -96 -73.5 -152.5t-178.5 -56.5q-75 0 -139.5 30t-100.5 83l41 37q73 -95 201 -95q83 0 136 42.5t53 109.5q0 20 -4.5 37t-17 30.5l-21.5 22.5t-32.5 19.5l-34 15t-42 15.5l-42.5 15q-47 16 -78.5 31.5t-64.5 39.5t-50 58t-17 78
q0 81 54 128q-25 37 -25 91q0 93 67 144t169 51q112 0 202 -67l-32 -45q-81 59 -172 59q-78 0 -126.5 -37t-48.5 -102q0 -22 5 -39.5t20 -32.5t25 -23.5t39 -21.5t41 -17.5l51 -18.5q37 -13 56 -20.5t50.5 -22t48.5 -28.5t35.5 -34.5t26.5 -46.5t8 -57zM300 156
q116 -39 157 -70q34 34 34 84q0 32 -13 56t-40 41.5t-56.5 30.5t-75.5 30q-8 2 -12 4q-105 38 -143 68q-34 -32 -34 -84q0 -56 43.5 -91t139.5 -69z" />
    <glyph glyph-name="dieresis" unicode="&#xa8;" horiz-adv-x="435" 
d="M131 571q-20 0 -32 12.5t-12 32.5q0 21 12 33.5t32 12.5t32 -12.5t12 -33.5q0 -20 -12 -32.5t-32 -12.5zM304 571q-21 0 -33 12.5t-12 32.5q0 21 12 33.5t33 12.5q20 0 32 -12.5t12 -33.5q0 -20 -12 -32.5t-32 -12.5z" />
    <glyph glyph-name="copyright" unicode="&#xa9;" horiz-adv-x="834" 
d="M417 -16q-157 0 -263.5 106t-106.5 264t106 264t264 106t264 -106t106 -264t-106.5 -264t-263.5 -106zM417 27q140 0 233.5 93.5t93.5 233.5t-93.5 234t-233.5 94t-233.5 -94t-93.5 -234t93.5 -233.5t233.5 -93.5zM417 169q-80 0 -129.5 56t-49.5 138t50.5 138t131.5 56
q116 0 158 -97l-41 -19q-35 70 -117 70q-60 0 -96.5 -41.5t-36.5 -106.5t36 -106.5t94 -41.5q81 0 127 68l35 -29q-20 -36 -63.5 -60.5t-98.5 -24.5z" />
    <glyph glyph-name="ordfeminine" unicode="&#xaa;" horiz-adv-x="409" 
d="M202 713q67 0 104 -37t37 -107v-212h-45v59q-40 -68 -130 -68q-53 0 -86 29.5t-33 77.5q0 59 47 86t122 27q35 0 80 -7v10q0 49 -27 74.5t-76 25.5q-60 0 -111 -40l-23 32q55 50 141 50zM175 388q60 0 91 37t31 98h1v4q-36 6 -77 6q-122 0 -122 -77q0 -31 21 -49.5
t55 -18.5z" />
    <glyph glyph-name="guillemotleft" unicode="&#xab;" horiz-adv-x="525" 
d="M233 102l-179 178q-6 6 -6 16t6 16l179 178l33 -33l-161 -161l161 -161zM417 102l-179 178q-6 6 -6 16t6 16l179 178l33 -33l-161 -161l161 -161z" />
    <glyph glyph-name="logicalnot" unicode="&#xac;" horiz-adv-x="485" 
d="M42 288v48h401v-175h-46v127h-355z" />
    <glyph glyph-name="uni00AD" unicode="&#xad;" horiz-adv-x="506" 
d="M66 324h374v-48h-374v48z" />
    <glyph glyph-name="registered" unicode="&#xae;" horiz-adv-x="564" 
d="M282 745q102 0 170.5 -68t68.5 -170t-69 -170.5t-170 -68.5t-170 68.5t-69 170.5t68.5 170t170.5 68zM282 301q88 0 147 58.5t59 147.5q0 88 -59 146.5t-147 58.5t-147 -58.5t-59 -146.5q0 -89 59 -147.5t147 -58.5zM380 563q0 -32 -20.5 -53t-55.5 -26l82 -110h-39
l-78 109h-41v-109h-33v248q0 21 21 21h69q44 0 69.5 -21.5t25.5 -58.5zM228 612v-98h55q30 0 46.5 13t16.5 36q0 49 -62 49h-56z" />
    <glyph glyph-name="macron" unicode="&#xaf;" horiz-adv-x="419" 
d="M71 644h276v-48h-276v48z" />
    <glyph glyph-name="degree" unicode="&#xb0;" horiz-adv-x="337" 
d="M169 508q-54 0 -91 36t-37 89q0 52 37 88t91 36q53 0 90 -36t37 -88t-37 -88.5t-90 -36.5zM169 548q36 0 60.5 24.5t24.5 60.5q0 35 -24.5 59.5t-60.5 24.5t-61 -24.5t-25 -59.5q0 -36 24.5 -60.5t61.5 -24.5z" />
    <glyph glyph-name="plusminus" unicode="&#xb1;" horiz-adv-x="458" 
d="M253 428h163v-48h-163v-163h-48v163h-163v48h163v163h48v-163zM42 121v48h374v-48h-374z" />
    <glyph glyph-name="uni00B2" unicode="&#xb2;" horiz-adv-x="317" 
d="M110 608q-22 -28 -23 -68h188v-41h-236q-3 85 38 136q20 25 69 60t50 36q34 26 34 53q0 25 -19.5 42.5t-49.5 17.5q-27 0 -51 -16t-38 -42l-36 20q17 35 50 57t76 22q51 0 82.5 -29t31.5 -72q0 -44 -45 -80q-9 -8 -55.5 -40t-65.5 -56z" />
    <glyph glyph-name="uni00B3" unicode="&#xb3;" horiz-adv-x="328" 
d="M221 696q31 -10 49 -35.5t18 -57.5q0 -51 -39 -80.5t-93 -29.5q-91 0 -127 69l34 24q29 -51 93 -51q37 0 62 19t25 52q0 29 -22 47.5t-57 18.5h-59v40h53q35 0 56.5 19.5t21.5 46.5q0 29 -20.5 47.5t-54.5 18.5q-57 0 -90 -51l-33 22q42 70 125 70q54 0 86 -30.5
t32 -73.5q0 -57 -60 -85z" />
    <glyph glyph-name="acute" unicode="&#xb4;" horiz-adv-x="478" 
d="M140 584l162 149l36 -45l-174 -135z" />
    <glyph glyph-name="paragraph" unicode="&#xb6;" horiz-adv-x="500" 
d="M230 714h178v-676q0 -52 -7.5 -90t-27 -70.5t-57.5 -49t-95 -16.5q-31 0 -74 9l4 60q33 -10 66 -10q75 0 104.5 41.5t29.5 133.5v612h-54v-397h-67q-95 0 -148 61.5t-53 165.5t52.5 165t148.5 61z" />
    <glyph glyph-name="periodcentered" unicode="&#xb7;" horiz-adv-x="240" 
d="M111 193q-21 0 -33.5 13t-12.5 35q0 21 12.5 34t33.5 13q22 0 34.5 -13t12.5 -34q0 -22 -12.5 -35t-34.5 -13z" />
    <glyph glyph-name="cedilla" unicode="&#xb8;" horiz-adv-x="306" 
d="M143 -238q-59 0 -102 27l16 39q37 -23 83 -23q34 0 55.5 15t21.5 41q0 56 -99 53l4 40q74 4 108 -22.5t34 -72.5q0 -41 -33.5 -69t-87.5 -28z" />
    <glyph glyph-name="uni00B9" unicode="&#xb9;" horiz-adv-x="283" 
d="M178 539h83v-40h-212v40h84v285l-85 -60l-24 31l118 86h15q21 0 21 -22v-320z" />
    <glyph glyph-name="ordmasculine" unicode="&#xba;" horiz-adv-x="430" 
d="M215 348q-78 0 -124.5 50t-45.5 132q1 83 47 133t123 50q79 0 124.5 -50t45.5 -133t-45.5 -132.5t-124.5 -49.5zM215 391q60 0 92 36.5t32 102.5q0 67 -32 103.5t-92 36.5q-59 0 -91 -36.5t-32 -103.5q-1 -66 31 -102.5t92 -36.5z" />
    <glyph glyph-name="guillemotright" unicode="&#xbb;" horiz-adv-x="525" 
d="M108 102l-33 33l161 161l-161 161l33 33l179 -178q6 -6 6 -16t-6 -16zM292 102l-33 33l161 161l-161 161l33 33l179 -178q6 -6 6 -16t-6 -16z" />
    <glyph glyph-name="questiondown" unicode="&#xbf;" horiz-adv-x="481" 
d="M266 515q21 0 33 -12t12 -33q0 -20 -12 -32.5t-33 -12.5t-33 12.5t-12 32.5q0 21 12 33t33 12zM296 359q4 -21 4 -45q0 -40 -21 -78.5t-51 -69.5l-60.5 -61.5t-51.5 -66.5t-21 -72q0 -57 41 -92.5t102 -35.5q52 0 97.5 29t73.5 84l49 -29q-31 -66 -90.5 -103t-130.5 -37
q-88 0 -145 52t-57 131q0 45 21.5 86t51.5 72.5l60.5 61t52 63t21.5 66.5q0 21 -4 45h58z" />
    <glyph glyph-name="Agrave" unicode="&#xc0;" horiz-adv-x="652" 
d="M421 791l-24 -31l-174 135l36 45zM574 0l-91 243h-314l-91 -243h-67l260 676q15 40 55 40t54 -40l261 -676h-67zM189 296h274l-137 366z" />
    <glyph glyph-name="Aacute" unicode="&#xc1;" horiz-adv-x="652" 
d="M442 894l-174 -135l-24 31l162 149zM574 0l-91 243h-314l-91 -243h-67l260 676q15 40 55 40t54 -40l261 -676h-67zM189 296h274l-137 366z" />
    <glyph glyph-name="Acircumflex" unicode="&#xc2;" horiz-adv-x="652" 
d="M327 870l-119 -109l-32 31l121 112q14 15 30 15q15 0 30 -15l121 -112l-31 -31zM574 0l-91 243h-314l-91 -243h-67l260 676q15 40 55 40t54 -40l261 -676h-67zM189 296h274l-137 366z" />
    <glyph glyph-name="Atilde" unicode="&#xc3;" horiz-adv-x="652" 
d="M259 830q-44 0 -59 -62l-43 13q11 48 38.5 71t62.5 23q34 0 74 -33t63 -33q42 0 58 63l44 -11q-9 -47 -38 -72t-62 -25q-34 0 -75.5 33t-62.5 33zM574 0l-91 243h-314l-91 -243h-67l260 676q15 40 55 40t54 -40l261 -676h-67zM189 296h274l-137 366z" />
    <glyph glyph-name="Adieresis" unicode="&#xc4;" horiz-adv-x="652" 
d="M243 776q-20 0 -32 12.5t-12 32.5q0 21 12 33.5t32 12.5t32 -12.5t12 -33.5q0 -20 -12 -32.5t-32 -12.5zM416 776q-21 0 -33 12.5t-12 32.5q0 21 12 33.5t33 12.5q20 0 32 -12.5t12 -33.5q0 -20 -12 -32.5t-32 -12.5zM574 0l-91 243h-314l-91 -243h-67l260 676
q15 40 55 40t54 -40l261 -676h-67zM189 296h274l-137 366z" />
    <glyph glyph-name="Aring" unicode="&#xc5;" horiz-adv-x="652" 
d="M327 744q-41 0 -68.5 27t-27.5 67q0 39 28 66t68 27t67.5 -27t27.5 -66q0 -40 -27.5 -67t-67.5 -27zM327 896q-25 0 -42.5 -17t-17.5 -41q0 -25 17.5 -42t42.5 -17t41.5 17t16.5 42q0 24 -16.5 41t-41.5 17zM574 0l-91 243h-314l-91 -243h-67l260 676q15 40 55 40t54 -40
l261 -676h-67zM189 296h274l-137 366z" />
    <glyph glyph-name="AE" unicode="&#xc6;" horiz-adv-x="906" 
d="M855 658h-362v-264h325v-55h-325v-283h354v-56h-414v245h-230l-133 -245h-72l376 670q14 26 34 35t55 9h392v-56zM233 300h200v358h-6z" />
    <glyph glyph-name="Ccedilla" unicode="&#xc7;" horiz-adv-x="697" 
d="M381 -11q-139 0 -234.5 94.5t-95.5 271.5q0 171 92.5 271.5t245.5 100.5q88 0 160 -40t112 -114l-49 -30q-35 63 -94.5 96t-129.5 33q-126 0 -200.5 -83.5t-74.5 -231.5q0 -146 76.5 -228.5t193.5 -82.5q77 0 142 34.5t107 86.5l40 -38q-52 -65 -129.5 -102.5
t-161.5 -37.5zM374 -235q-59 0 -102 27l16 39q37 -23 83 -23q34 0 55.5 15t21.5 41q0 56 -99 53l4 40q74 4 108 -22.5t34 -72.5q0 -41 -33.5 -69t-87.5 -28z" />
    <glyph glyph-name="Egrave" unicode="&#xc8;" horiz-adv-x="574" 
d="M412 791l-24 -31l-174 135l36 45zM522 658h-369v-265h337v-56h-337v-281h362v-56h-422v680q0 17 10.5 25.5t25.5 8.5h393v-56z" />
    <glyph glyph-name="Eacute" unicode="&#xc9;" horiz-adv-x="574" 
d="M432 894l-174 -135l-24 31l162 149zM522 658h-369v-265h337v-56h-337v-281h362v-56h-422v680q0 17 10.5 25.5t25.5 8.5h393v-56z" />
    <glyph glyph-name="Ecircumflex" unicode="&#xca;" horiz-adv-x="574" 
d="M317 870l-119 -109l-32 31l121 112q14 15 30 15q15 0 30 -15l121 -112l-31 -31zM522 658h-369v-265h337v-56h-337v-281h362v-56h-422v680q0 17 10.5 25.5t25.5 8.5h393v-56z" />
    <glyph glyph-name="Edieresis" unicode="&#xcb;" horiz-adv-x="574" 
d="M233 776q-20 0 -32 12.5t-12 32.5q0 21 12 33.5t32 12.5t32 -12.5t12 -33.5q0 -20 -12 -32.5t-32 -12.5zM406 776q-21 0 -33 12.5t-12 32.5q0 21 12 33.5t33 12.5q20 0 32 -12.5t12 -33.5q0 -20 -12 -32.5t-32 -12.5zM522 658h-369v-265h337v-56h-337v-281h362v-56h-422
v680q0 17 10.5 25.5t25.5 8.5h393v-56z" />
    <glyph glyph-name="Igrave" unicode="&#xcc;" horiz-adv-x="256" 
d="M226 791l-24 -31l-174 135l36 45zM100 0v714h60v-714h-60z" />
    <glyph glyph-name="Iacute" unicode="&#xcd;" horiz-adv-x="256" 
d="M47 790l162 149l36 -45l-174 -135zM99 0v714h60v-714h-60z" />
    <glyph glyph-name="Icircumflex" unicode="&#xce;" horiz-adv-x="270" 
d="M17 761l-32 31l121 112q14 15 30 15q15 0 30 -15l121 -112l-31 -31l-120 109zM105 0v714h60v-714h-60z" />
    <glyph glyph-name="Idieresis" unicode="&#xcf;" horiz-adv-x="239" 
d="M38 776q-20 0 -32 12.5t-12 32.5q0 21 12 33.5t32 12.5t32 -12.5t12 -33.5q0 -20 -12 -32.5t-32 -12.5zM211 776q-21 0 -33 12.5t-12 32.5q0 21 12 33.5t33 12.5q20 0 32 -12.5t12 -33.5q0 -20 -12 -32.5t-32 -12.5zM91 0v714h60v-714h-60z" />
    <glyph glyph-name="Eth" unicode="&#xd0;" horiz-adv-x="723" 
d="M341 714q145 0 239 -101.5t94 -252.5q0 -157 -94 -258.5t-239 -101.5h-239v330h-83v54h83v296q0 17 10.5 25.5t25.5 8.5h203zM338 56q118 0 196 83.5t78 220.5q0 132 -78 215t-195 83h-177v-274h187v-54h-187v-274h176z" />
    <glyph glyph-name="Ntilde" unicode="&#xd1;" horiz-adv-x="742" 
d="M308 830q-44 0 -59 -62l-43 13q11 48 38.5 71t62.5 23q34 0 74 -33t63 -33q42 0 58 63l44 -11q-9 -47 -38 -72t-62 -25q-34 0 -75.5 33t-62.5 33zM591 714h57v-695q0 -11 -9.5 -18t-22.5 -7q-26 0 -42 22l-424 604v-620h-57v692q0 12 9.5 19.5t24.5 7.5q18 0 27 -6
t19 -21l418 -591v613z" />
    <glyph glyph-name="Ograve" unicode="&#xd2;" horiz-adv-x="767" 
d="M479 791l-24 -31l-174 135l36 45zM385 -11q-150 0 -242.5 101t-92.5 267t92.5 268t242.5 102q149 0 240.5 -102t91.5 -268q0 -165 -91.5 -266.5t-240.5 -101.5zM385 46q120 0 195 84t75 227q0 144 -75 228.5t-195 84.5q-122 0 -197.5 -84.5t-75.5 -228.5
q0 -143 75.5 -227t197.5 -84z" />
    <glyph glyph-name="Oacute" unicode="&#xd3;" horiz-adv-x="767" 
d="M302 790l162 149l36 -45l-174 -135zM385 -11q-150 0 -242.5 101t-92.5 267t92.5 268t242.5 102q149 0 240.5 -102t91.5 -268q0 -165 -91.5 -266.5t-240.5 -101.5zM385 46q120 0 195 84t75 227q0 144 -75 228.5t-195 84.5q-122 0 -197.5 -84.5t-75.5 -228.5
q0 -143 75.5 -227t197.5 -84z" />
    <glyph glyph-name="Ocircumflex" unicode="&#xd4;" horiz-adv-x="767" 
d="M266 761l-32 31l121 112q14 15 30 15q15 0 30 -15l121 -112l-31 -31l-120 109zM385 -11q-150 0 -242.5 101t-92.5 267t92.5 268t242.5 102q149 0 240.5 -102t91.5 -268q0 -165 -91.5 -266.5t-240.5 -101.5zM385 46q120 0 195 84t75 227q0 144 -75 228.5t-195 84.5
q-122 0 -197.5 -84.5t-75.5 -228.5q0 -143 75.5 -227t197.5 -84z" />
    <glyph glyph-name="Otilde" unicode="&#xd5;" horiz-adv-x="767" 
d="M455 764q-34 0 -75.5 33t-62.5 33q-44 0 -59 -62l-43 13q11 48 38.5 71t62.5 23q34 0 74 -33t63 -33q42 0 58 63l44 -11q-9 -47 -38 -72t-62 -25zM385 -11q-150 0 -242.5 101t-92.5 267t92.5 268t242.5 102q149 0 240.5 -102t91.5 -268q0 -165 -91.5 -266.5
t-240.5 -101.5zM385 46q120 0 195 84t75 227q0 144 -75 228.5t-195 84.5q-122 0 -197.5 -84.5t-75.5 -228.5q0 -143 75.5 -227t197.5 -84z" />
    <glyph glyph-name="Odieresis" unicode="&#xd6;" horiz-adv-x="767" 
d="M301 776q-20 0 -32 12.5t-12 32.5q0 21 12 33.5t32 12.5t32 -12.5t12 -33.5q0 -20 -12 -32.5t-32 -12.5zM474 776q-21 0 -33 12.5t-12 32.5q0 21 12 33.5t33 12.5q20 0 32 -12.5t12 -33.5q0 -20 -12 -32.5t-32 -12.5zM385 -11q-150 0 -242.5 101t-92.5 267t92.5 268
t242.5 102q149 0 240.5 -102t91.5 -268q0 -165 -91.5 -266.5t-240.5 -101.5zM385 46q120 0 195 84t75 227q0 144 -75 228.5t-195 84.5q-122 0 -197.5 -84.5t-75.5 -228.5q0 -143 75.5 -227t197.5 -84z" />
    <glyph glyph-name="multiply" unicode="&#xd7;" horiz-adv-x="448" 
d="M93 144l-35 33l133 135l-133 135l35 32l131 -134l131 134l35 -32l-133 -135l133 -135l-35 -33l-131 134z" />
    <glyph glyph-name="Oslash" unicode="&#xd8;" horiz-adv-x="767" 
d="M618 633q99 -102 99 -276q0 -165 -91.5 -266.5t-240.5 -101.5q-111 0 -194 58l-56 -76l-37 28l57 78q-105 103 -105 280q0 166 92.5 268t242.5 102q115 0 197 -62l51 70l38 -29zM112 357q0 -146 79 -231l356 491q-69 53 -162 53q-122 0 -197.5 -84.5t-75.5 -228.5z
M385 46q120 0 195 84t75 227q0 141 -73 227l-356 -489q66 -49 159 -49z" />
    <glyph glyph-name="Ugrave" unicode="&#xd9;" horiz-adv-x="681" 
d="M410 798l-24 -31l-174 135l36 45zM340 -11q-122 0 -188 66.5t-66 181.5v477h60v-474q0 -92 49 -143t145 -51t145 51t49 143v474h61v-477q0 -115 -66.5 -181.5t-188.5 -66.5z" />
    <glyph glyph-name="Uacute" unicode="&#xda;" horiz-adv-x="681" 
d="M259 790l162 149l36 -45l-174 -135zM340 -11q-122 0 -188 66.5t-66 181.5v477h60v-474q0 -92 49 -143t145 -51t145 51t49 143v474h61v-477q0 -115 -66.5 -181.5t-188.5 -66.5z" />
    <glyph glyph-name="Ucircumflex" unicode="&#xdb;" horiz-adv-x="681" 
d="M223 761l-32 31l121 112q14 15 30 15q15 0 30 -15l121 -112l-31 -31l-120 109zM340 -11q-122 0 -188 66.5t-66 181.5v477h60v-474q0 -92 49 -143t145 -51t145 51t49 143v474h61v-477q0 -115 -66.5 -181.5t-188.5 -66.5z" />
    <glyph glyph-name="Udieresis" unicode="&#xdc;" horiz-adv-x="681" 
d="M257 776q-20 0 -32 12.5t-12 32.5q0 21 12 33.5t32 12.5t32 -12.5t12 -33.5q0 -20 -12 -32.5t-32 -12.5zM430 776q-21 0 -33 12.5t-12 32.5q0 21 12 33.5t33 12.5q20 0 32 -12.5t12 -33.5q0 -20 -12 -32.5t-32 -12.5zM340 -11q-122 0 -188 66.5t-66 181.5v477h60v-474
q0 -92 49 -143t145 -51t145 51t49 143v474h61v-477q0 -115 -66.5 -181.5t-188.5 -66.5z" />
    <glyph glyph-name="Yacute" unicode="&#xdd;" horiz-adv-x="591" 
d="M412 894l-174 -135l-24 31l162 149zM574 714l-248 -428v-286h-60v286l-248 428h71l208 -367l208 367h69z" />
    <glyph glyph-name="Thorn" unicode="&#xde;" horiz-adv-x="579" 
d="M308 585q110 0 168.5 -58.5t58.5 -154.5q0 -104 -60.5 -161t-171.5 -57h-150v-154h-60v714h60v-129h155zM304 209q82 0 125.5 42t43.5 122q0 75 -43 116t-127 41h-150v-321h151z" />
    <glyph glyph-name="germandbls" unicode="&#xdf;" horiz-adv-x="585" 
d="M193 37l26 42q56 -38 117 -38q68 0 109.5 37.5t41.5 95.5q0 34 -17 60.5t-41.5 43.5l-49 32.5t-41.5 35t-17 43.5q0 25 20.5 51t41.5 56.5t21 66.5q0 50 -34.5 81t-90.5 31q-66 0 -106.5 -49t-40.5 -141v-485h-57v494q0 112 59.5 172.5t145.5 60.5q77 0 129.5 -44.5
t52.5 -116.5q0 -43 -21 -77.5t-42 -57t-21 -35.5q0 -12 17.5 -25t42 -28t49 -35t42 -54t17.5 -76q0 -81 -57.5 -135t-152.5 -54q-88 0 -143 48z" />
    <glyph glyph-name="agrave" unicode="&#xe0;" 
d="M356 584l-24 -31l-174 135l36 45zM252 513q95 0 147.5 -52t52.5 -152v-309h-54v101q-55 -113 -188 -113q-76 0 -123.5 42.5t-47.5 110.5q0 84 65.5 123t176.5 39q49 0 117 -9v19q0 148 -147 148q-86 0 -159 -60l-32 41q78 71 192 71zM218 35q85 0 132.5 58t47.5 151v7
q-61 8 -112 8q-189 0 -189 -118q0 -47 33.5 -76.5t87.5 -29.5z" />
    <glyph glyph-name="aacute" unicode="&#xe1;" 
d="M372 688l-174 -135l-24 31l162 149zM252 513q95 0 147.5 -52t52.5 -152v-309h-54v101q-55 -113 -188 -113q-76 0 -123.5 42.5t-47.5 110.5q0 84 65.5 123t176.5 39q49 0 117 -9v19q0 148 -147 148q-86 0 -159 -60l-32 41q78 71 192 71zM218 35q85 0 132.5 58t47.5 151v7
q-61 8 -112 8q-189 0 -189 -118q0 -47 33.5 -76.5t87.5 -29.5z" />
    <glyph glyph-name="acircumflex" unicode="&#xe2;" 
d="M259 678l-119 -109l-32 31l121 112q14 15 30 15q15 0 30 -15l121 -112l-31 -31zM252 513q95 0 147.5 -52t52.5 -152v-309h-54v101q-55 -113 -188 -113q-76 0 -123.5 42.5t-47.5 110.5q0 84 65.5 123t176.5 39q49 0 117 -9v19q0 148 -147 148q-86 0 -159 -60l-32 41
q78 71 192 71zM218 35q85 0 132.5 58t47.5 151v7q-61 8 -112 8q-189 0 -189 -118q0 -47 33.5 -76.5t87.5 -29.5z" />
    <glyph glyph-name="atilde" unicode="&#xe3;" 
d="M191 642q-44 0 -59 -62l-43 13q11 48 38.5 71t62.5 23q34 0 74 -33t63 -33q42 0 58 63l44 -11q-9 -47 -38 -72t-62 -25q-34 0 -75.5 33t-62.5 33zM252 513q95 0 147.5 -52t52.5 -152v-309h-54v101q-55 -113 -188 -113q-76 0 -123.5 42.5t-47.5 110.5q0 84 65.5 123
t176.5 39q49 0 117 -9v19q0 148 -147 148q-86 0 -159 -60l-32 41q78 71 192 71zM218 35q85 0 132.5 58t47.5 151v7q-61 8 -112 8q-189 0 -189 -118q0 -47 33.5 -76.5t87.5 -29.5z" />
    <glyph glyph-name="adieresis" unicode="&#xe4;" 
d="M172 571q-20 0 -32 12.5t-12 32.5q0 21 12 33.5t32 12.5t32 -12.5t12 -33.5q0 -20 -12 -32.5t-32 -12.5zM345 571q-21 0 -33 12.5t-12 32.5q0 21 12 33.5t33 12.5q20 0 32 -12.5t12 -33.5q0 -20 -12 -32.5t-32 -12.5zM252 513q95 0 147.5 -52t52.5 -152v-309h-54v101
q-55 -113 -188 -113q-76 0 -123.5 42.5t-47.5 110.5q0 84 65.5 123t176.5 39q49 0 117 -9v19q0 148 -147 148q-86 0 -159 -60l-32 41q78 71 192 71zM218 35q85 0 132.5 58t47.5 151v7q-61 8 -112 8q-189 0 -189 -118q0 -47 33.5 -76.5t87.5 -29.5z" />
    <glyph glyph-name="aring" unicode="&#xe5;" 
d="M259 555q-41 0 -68.5 27t-27.5 67q0 39 28 66t68 27t67.5 -27t27.5 -66q0 -40 -27.5 -67t-67.5 -27zM259 707q-25 0 -42.5 -17t-17.5 -41q0 -25 17.5 -42t42.5 -17t41.5 17t16.5 42q0 24 -16.5 41t-41.5 17zM252 513q95 0 147.5 -52t52.5 -152v-309h-54v101
q-55 -113 -188 -113q-76 0 -123.5 42.5t-47.5 110.5q0 84 65.5 123t176.5 39q49 0 117 -9v19q0 148 -147 148q-86 0 -159 -60l-32 41q78 71 192 71zM218 35q85 0 132.5 58t47.5 151v7q-61 8 -112 8q-189 0 -189 -118q0 -47 33.5 -76.5t87.5 -29.5z" />
    <glyph glyph-name="ae" unicode="&#xe6;" horiz-adv-x="886" 
d="M637 40q95 0 167 69l32 -42q-86 -79 -201 -79q-69 0 -125.5 34.5t-85.5 98.5q-26 -63 -81 -98t-128 -35q-82 0 -129 42t-47 112q0 83 66 122t172 39q55 0 124 -13v23q0 73 -40.5 110.5t-112.5 37.5q-86 0 -161 -59l-30 40q77 71 193 71q146 0 192 -114q69 114 212 114
q79 0 135.5 -43t56.5 -121q0 -60 -38 -94.5t-100 -34.5h-249q7 -83 53.5 -131.5t124.5 -48.5zM651 465q-81 0 -133.5 -53.5t-58.5 -144.5l243 -1q40 0 65 22t25 64q0 49 -40 81t-101 32zM220 35q82 0 131.5 58.5t49.5 150.5v2q-58 13 -118 13q-90 0 -138 -30t-48 -88
q0 -48 32.5 -77t90.5 -29z" />
    <glyph glyph-name="ccedilla" unicode="&#xe7;" horiz-adv-x="523" 
d="M283 -13q-108 0 -173.5 73t-65.5 190q0 118 65 190.5t177 72.5q145 0 202 -112l-47 -28q-47 89 -155 89q-82 0 -132.5 -56t-50.5 -156t50 -155.5t130 -55.5q105 0 167 98l44 -29q-26 -49 -79.5 -85t-131.5 -36zM263 -238q-59 0 -102 27l16 39q37 -23 83 -23q34 0 55.5 15
t21.5 41q0 56 -99 53l4 40q74 4 108 -22.5t34 -72.5q0 -41 -33.5 -69t-87.5 -28z" />
    <glyph glyph-name="egrave" unicode="&#xe8;" horiz-adv-x="529" 
d="M385 584l-24 -31l-174 135l36 45zM278 41q98 0 170 69l32 -42q-86 -79 -204 -79q-96 0 -164 66.5t-68 186.5q0 116 67 193.5t186 77.5q78 0 134.5 -43.5t56.5 -121.5q0 -59 -38 -93t-100 -34h-248q7 -82 54.5 -131t121.5 -49zM293 465q-80 0 -132.5 -53t-58.5 -144h242
q39 0 64 21.5t25 62.5q0 50 -39.5 81.5t-100.5 31.5z" />
    <glyph glyph-name="eacute" unicode="&#xe9;" horiz-adv-x="529" 
d="M402 688l-174 -135l-24 31l162 149zM278 41q98 0 170 69l32 -42q-86 -79 -204 -79q-96 0 -164 66.5t-68 186.5q0 116 67 193.5t186 77.5q78 0 134.5 -43.5t56.5 -121.5q0 -59 -38 -93t-100 -34h-248q7 -82 54.5 -131t121.5 -49zM293 465q-80 0 -132.5 -53t-58.5 -144h242
q39 0 64 21.5t25 62.5q0 50 -39.5 81.5t-100.5 31.5z" />
    <glyph glyph-name="ecircumflex" unicode="&#xea;" horiz-adv-x="529" 
d="M288 678l-119 -109l-32 31l121 112q14 15 30 15q15 0 30 -15l121 -112l-31 -31zM278 41q98 0 170 69l32 -42q-86 -79 -204 -79q-96 0 -164 66.5t-68 186.5q0 116 67 193.5t186 77.5q78 0 134.5 -43.5t56.5 -121.5q0 -59 -38 -93t-100 -34h-248q7 -82 54.5 -131t121.5 -49
zM293 465q-80 0 -132.5 -53t-58.5 -144h242q39 0 64 21.5t25 62.5q0 50 -39.5 81.5t-100.5 31.5z" />
    <glyph glyph-name="edieresis" unicode="&#xeb;" horiz-adv-x="529" 
d="M202 571q-20 0 -32 12.5t-12 32.5q0 21 12 33.5t32 12.5t32 -12.5t12 -33.5q0 -20 -12 -32.5t-32 -12.5zM375 571q-21 0 -33 12.5t-12 32.5q0 21 12 33.5t33 12.5q20 0 32 -12.5t12 -33.5q0 -20 -12 -32.5t-32 -12.5zM278 41q98 0 170 69l32 -42q-86 -79 -204 -79
q-96 0 -164 66.5t-68 186.5q0 116 67 193.5t186 77.5q78 0 134.5 -43.5t56.5 -121.5q0 -59 -38 -93t-100 -34h-248q7 -82 54.5 -131t121.5 -49zM293 465q-80 0 -132.5 -53t-58.5 -144h242q39 0 64 21.5t25 62.5q0 50 -39.5 81.5t-100.5 31.5z" />
    <glyph glyph-name="igrave" unicode="&#xec;" horiz-adv-x="215" 
d="M209 584l-24 -31l-174 135l36 45zM83 0v500h58v-500h-58z" />
    <glyph glyph-name="iacute" unicode="&#xed;" horiz-adv-x="215" 
d="M21 584l162 149l36 -45l-174 -135zM76 0v500h58v-500h-58z" />
    <glyph glyph-name="icircumflex" unicode="&#xee;" horiz-adv-x="229" 
d="M-5 569l-32 31l121 112q14 15 30 15q15 0 30 -15l121 -112l-31 -31l-120 109zM85 0v500h58v-500h-58z" />
    <glyph glyph-name="idieresis" unicode="&#xef;" horiz-adv-x="198" 
d="M12 571q-20 0 -32 12.5t-12 32.5q0 21 12 33.5t32 12.5t32 -12.5t12 -33.5q0 -20 -12 -32.5t-32 -12.5zM185 571q-21 0 -33 12.5t-12 32.5q0 21 12 33.5t33 12.5q20 0 32 -12.5t12 -33.5q0 -20 -12 -32.5t-32 -12.5zM69 0v500h58v-500h-58z" />
    <glyph glyph-name="eth" unicode="&#xf0;" horiz-adv-x="548" 
d="M389 616q105 -110 105 -308q0 -142 -62.5 -231.5t-176.5 -89.5q-98 0 -154.5 65.5t-56.5 167.5q0 111 66.5 182t164.5 71q94 0 155 -58q-19 102 -84 170l-94 -70l-25 37l85 63q-65 49 -160 73l17 48q112 -29 186 -88l97 72l26 -38zM253 39q89 0 137 76t48 208v21
q-27 38 -69.5 57.5t-88.5 19.5q-76 0 -127.5 -55.5t-51.5 -146.5q0 -81 40.5 -130.5t111.5 -49.5z" />
    <glyph glyph-name="ntilde" unicode="&#xf1;" horiz-adv-x="569" 
d="M219 642q-44 0 -59 -62l-43 13q11 48 38.5 71t62.5 23q34 0 74 -33t63 -33q42 0 58 63l44 -11q-9 -47 -38 -72t-62 -25q-34 0 -75.5 33t-62.5 33zM345 513q75 0 114 -40.5t39 -115.5v-357h-58v346q0 60 -25 87t-76 27q-98 0 -206 -94v-366h-58v500h57v-82q107 95 213 95z
" />
    <glyph glyph-name="ograve" unicode="&#xf2;" horiz-adv-x="561" 
d="M377 584l-24 -31l-174 135l36 45zM280 -13q-107 0 -172 72.5t-64 190.5q1 119 66 191t171 72q107 0 171.5 -72t64.5 -191t-64.5 -191t-172.5 -72zM280 39q85 0 132 55.5t47 155.5q0 99 -47 155t-131 56t-131.5 -55.5t-47.5 -155.5q-1 -99 46.5 -155t131.5 -56z" />
    <glyph glyph-name="oacute" unicode="&#xf3;" horiz-adv-x="561" 
d="M196 584l162 149l36 -45l-174 -135zM280 -13q-107 0 -172 72.5t-64 190.5q1 119 66 191t171 72q107 0 171.5 -72t64.5 -191t-64.5 -191t-172.5 -72zM280 39q85 0 132 55.5t47 155.5q0 99 -47 155t-131 56t-131.5 -55.5t-47.5 -155.5q-1 -99 46.5 -155t131.5 -56z" />
    <glyph glyph-name="ocircumflex" unicode="&#xf4;" horiz-adv-x="561" 
d="M161 569l-32 31l121 112q14 15 30 15q15 0 30 -15l121 -112l-31 -31l-120 109zM280 -13q-107 0 -172 72.5t-64 190.5q1 119 66 191t171 72q107 0 171.5 -72t64.5 -191t-64.5 -191t-172.5 -72zM280 39q85 0 132 55.5t47 155.5q0 99 -47 155t-131 56t-131.5 -55.5
t-47.5 -155.5q-1 -99 46.5 -155t131.5 -56z" />
    <glyph glyph-name="otilde" unicode="&#xf5;" horiz-adv-x="561" 
d="M350 576q-34 0 -75.5 33t-62.5 33q-44 0 -59 -62l-43 13q11 48 38.5 71t62.5 23q34 0 74 -33t63 -33q42 0 58 63l44 -11q-9 -47 -38 -72t-62 -25zM280 -13q-107 0 -172 72.5t-64 190.5q1 119 66 191t171 72q107 0 171.5 -72t64.5 -191t-64.5 -191t-172.5 -72zM280 39
q85 0 132 55.5t47 155.5q0 99 -47 155t-131 56t-131.5 -55.5t-47.5 -155.5q-1 -99 46.5 -155t131.5 -56z" />
    <glyph glyph-name="odieresis" unicode="&#xf6;" horiz-adv-x="561" 
d="M194 571q-20 0 -32 12.5t-12 32.5q0 21 12 33.5t32 12.5t32 -12.5t12 -33.5q0 -20 -12 -32.5t-32 -12.5zM367 571q-21 0 -33 12.5t-12 32.5q0 21 12 33.5t33 12.5q20 0 32 -12.5t12 -33.5q0 -20 -12 -32.5t-32 -12.5zM280 -13q-107 0 -172 72.5t-64 190.5q1 119 66 191
t171 72q107 0 171.5 -72t64.5 -191t-64.5 -191t-172.5 -72zM280 39q85 0 132 55.5t47 155.5q0 99 -47 155t-131 56t-131.5 -55.5t-47.5 -155.5q-1 -99 46.5 -155t131.5 -56z" />
    <glyph glyph-name="divide" unicode="&#xf7;" horiz-adv-x="421" 
d="M213 390q-18 0 -28.5 11t-10.5 30q0 18 10.5 29t28.5 11t29 -11t11 -29q0 -19 -10.5 -30t-29.5 -11zM42 323h337v-48h-337v48zM213 125q-18 0 -28.5 11t-10.5 30q0 18 10.5 29t28.5 11t29 -11t11 -29q0 -19 -10.5 -30t-29.5 -11z" />
    <glyph glyph-name="oslash" unicode="&#xf8;" horiz-adv-x="563" 
d="M452 443q66 -72 66 -193q0 -119 -64.5 -191t-172.5 -72q-74 0 -133 38l-42 -58l-38 26l45 62q-70 73 -68 195q1 119 66 191t171 72q77 0 133 -39l45 62l40 -27zM103 250q0 -96 42 -150l239 331q-40 30 -102 30q-84 0 -131.5 -55.5t-47.5 -155.5zM281 39q85 0 132 55.5
t47 155.5q0 94 -41 147l-240 -329q43 -29 102 -29z" />
    <glyph glyph-name="ugrave" unicode="&#xf9;" horiz-adv-x="566" 
d="M381 584l-24 -31l-174 135l36 45zM434 500h57v-501h-56v87q-108 -99 -213 -99q-74 0 -112.5 40t-38.5 115v358h57v-348q0 -57 24 -84.5t76 -27.5q94 0 206 96v364z" />
    <glyph glyph-name="uacute" unicode="&#xfa;" horiz-adv-x="566" 
d="M397 688l-174 -135l-24 31l162 149zM434 500h57v-501h-56v87q-108 -99 -213 -99q-74 0 -112.5 40t-38.5 115v358h57v-348q0 -57 24 -84.5t76 -27.5q94 0 206 96v364z" />
    <glyph glyph-name="ucircumflex" unicode="&#xfb;" horiz-adv-x="566" 
d="M284 678l-119 -109l-32 31l121 112q14 15 30 15q15 0 30 -15l121 -112l-31 -31zM434 500h57v-501h-56v87q-108 -99 -213 -99q-74 0 -112.5 40t-38.5 115v358h57v-348q0 -57 24 -84.5t76 -27.5q94 0 206 96v364z" />
    <glyph glyph-name="udieresis" unicode="&#xfc;" horiz-adv-x="566" 
d="M197 571q-20 0 -32 12.5t-12 32.5q0 21 12 33.5t32 12.5t32 -12.5t12 -33.5q0 -20 -12 -32.5t-32 -12.5zM370 571q-21 0 -33 12.5t-12 32.5q0 21 12 33.5t33 12.5q20 0 32 -12.5t12 -33.5q0 -20 -12 -32.5t-32 -12.5zM434 500h57v-501h-56v87q-108 -99 -213 -99
q-74 0 -112.5 40t-38.5 115v358h57v-348q0 -57 24 -84.5t76 -27.5q94 0 206 96v364z" />
    <glyph glyph-name="yacute" unicode="&#xfd;" horiz-adv-x="499" 
d="M371 688l-174 -135l-24 31l162 149zM424 500h63l-235 -581q-48 -119 -148 -119q-61 0 -99 40l26 38q34 -27 72 -27q66 0 102 92l21 53l-207 504h60l175 -437z" />
    <glyph glyph-name="thorn" unicode="&#xfe;" horiz-adv-x="567" 
d="M310 513q97 0 154.5 -70.5t57.5 -184.5q0 -119 -63 -195t-169 -76q-83 0 -158 50v-223h-57v900h57v-284q76 83 178 83zM287 39q82 0 129.5 59.5t47.5 158.5q0 96 -43 150t-118 54q-102 0 -171 -94v-275q71 -53 155 -53z" />
    <glyph glyph-name="ydieresis" unicode="&#xff;" horiz-adv-x="499" 
d="M171 571q-20 0 -32 12.5t-12 32.5q0 21 12 33.5t32 12.5t32 -12.5t12 -33.5q0 -20 -12 -32.5t-32 -12.5zM344 571q-21 0 -33 12.5t-12 32.5q0 21 12 33.5t33 12.5q20 0 32 -12.5t12 -33.5q0 -20 -12 -32.5t-32 -12.5zM424 500h63l-235 -581q-48 -119 -148 -119
q-61 0 -99 40l26 38q34 -27 72 -27q66 0 102 92l21 53l-207 504h60l175 -437z" />
    <glyph glyph-name="Amacron" unicode="&#x100;" horiz-adv-x="652" 
d="M464 843v-48h-276v48h276zM574 0l-91 243h-314l-91 -243h-67l260 676q15 40 55 40t54 -40l261 -676h-67zM189 296h274l-137 366z" />
    <glyph glyph-name="amacron" unicode="&#x101;" 
d="M396 644v-48h-276v48h276zM252 513q95 0 147.5 -52t52.5 -152v-309h-54v101q-55 -113 -188 -113q-76 0 -123.5 42.5t-47.5 110.5q0 84 65.5 123t176.5 39q49 0 117 -9v19q0 148 -147 148q-86 0 -159 -60l-32 41q78 71 192 71zM218 35q85 0 132.5 58t47.5 151v7
q-61 8 -112 8q-189 0 -189 -118q0 -47 33.5 -76.5t87.5 -29.5z" />
    <glyph glyph-name="Abreve" unicode="&#x102;" horiz-adv-x="652" 
d="M326 757q-72 0 -108.5 46t-39.5 107h49q1 -47 26.5 -80.5t72.5 -33.5t72 33.5t26 80.5h50q-3 -61 -39.5 -107t-108.5 -46zM574 0l-91 243h-314l-91 -243h-67l260 676q15 40 55 40t54 -40l261 -676h-67zM189 296h274l-137 366z" />
    <glyph glyph-name="abreve" unicode="&#x103;" 
d="M259 561q-72 0 -108.5 46t-39.5 107h49q1 -47 26.5 -80.5t72.5 -33.5t72 33.5t26 80.5h50q-3 -61 -39.5 -107t-108.5 -46zM252 513q95 0 147.5 -52t52.5 -152v-309h-54v101q-55 -113 -188 -113q-76 0 -123.5 42.5t-47.5 110.5q0 84 65.5 123t176.5 39q49 0 117 -9v19
q0 148 -147 148q-86 0 -159 -60l-32 41q78 71 192 71zM218 35q85 0 132.5 58t47.5 151v7q-61 8 -112 8q-189 0 -189 -118q0 -47 33.5 -76.5t87.5 -29.5z" />
    <glyph glyph-name="Aogonek" unicode="&#x104;" horiz-adv-x="644" 
d="M653 -153l24 -34q-31 -37 -85 -37q-43 0 -70.5 28t-27.5 72q0 76 78 128l-89 239h-314l-91 -243h-67l260 676q15 40 55 40t54 -40l261 -676q-48 -15 -73 -47.5t-25 -67.5q0 -27 15 -43.5t40 -16.5q29 0 55 22zM189 296h274l-137 366z" />
    <glyph glyph-name="aogonek" unicode="&#x105;" horiz-adv-x="513" 
d="M464 -153l24 -34q-31 -37 -85 -37q-43 0 -70.5 28t-27.5 72q0 38 23.5 75t69.5 62v88q-55 -113 -188 -113q-76 0 -123.5 42.5t-47.5 110.5q0 84 65.5 123t176.5 39q49 0 117 -9v19q0 148 -147 148q-86 0 -159 -60l-32 41q78 71 192 71q95 0 147.5 -52t52.5 -152v-309
q-48 -15 -73 -47.5t-25 -67.5q0 -27 15 -43.5t40 -16.5q29 0 55 22zM218 35q85 0 132.5 58t47.5 151v7q-61 8 -112 8q-189 0 -189 -118q0 -47 33.5 -76.5t87.5 -29.5z" />
    <glyph glyph-name="Cacute" unicode="&#x106;" horiz-adv-x="697" 
d="M307 792l162 149l36 -45l-174 -135zM381 -11q-139 0 -234.5 94.5t-95.5 271.5q0 171 92.5 271.5t245.5 100.5q88 0 160 -40t112 -114l-49 -30q-35 63 -94.5 96t-129.5 33q-126 0 -200.5 -83.5t-74.5 -231.5q0 -146 76.5 -228.5t193.5 -82.5q77 0 142 34.5t107 86.5
l40 -38q-52 -65 -129.5 -102.5t-161.5 -37.5z" />
    <glyph glyph-name="cacute" unicode="&#x107;" horiz-adv-x="523" 
d="M200 584l162 149l36 -45l-174 -135zM283 -13q-108 0 -173.5 73t-65.5 190q0 118 65 190.5t177 72.5q145 0 202 -112l-47 -28q-47 89 -155 89q-82 0 -132.5 -56t-50.5 -156t50 -155.5t130 -55.5q105 0 167 98l44 -29q-26 -49 -79.5 -85t-131.5 -36z" />
    <glyph glyph-name="Ccircumflex" unicode="&#x108;" horiz-adv-x="697" 
d="M271 763l-32 31l121 112q14 15 30 15q15 0 30 -15l121 -112l-31 -31l-120 109zM381 -11q-139 0 -234.5 94.5t-95.5 271.5q0 171 92.5 271.5t245.5 100.5q88 0 160 -40t112 -114l-49 -30q-35 63 -94.5 96t-129.5 33q-126 0 -200.5 -83.5t-74.5 -231.5q0 -146 76.5 -228.5
t193.5 -82.5q77 0 142 34.5t107 86.5l40 -38q-52 -65 -129.5 -102.5t-161.5 -37.5z" />
    <glyph glyph-name="ccircumflex" unicode="&#x109;" horiz-adv-x="523" 
d="M165 569l-32 31l121 112q14 15 30 15q15 0 30 -15l121 -112l-31 -31l-120 109zM283 -13q-108 0 -173.5 73t-65.5 190q0 118 65 190.5t177 72.5q145 0 202 -112l-47 -28q-47 89 -155 89q-82 0 -132.5 -56t-50.5 -156t50 -155.5t130 -55.5q105 0 167 98l44 -29
q-26 -49 -79.5 -85t-131.5 -36z" />
    <glyph glyph-name="Cdotaccent" unicode="&#x10a;" horiz-adv-x="697" 
d="M390 775q-21 0 -33 13t-12 34t12 33.5t33 12.5t33.5 -12.5t12.5 -33.5t-12.5 -34t-33.5 -13zM381 -11q-139 0 -234.5 94.5t-95.5 271.5q0 171 92.5 271.5t245.5 100.5q88 0 160 -40t112 -114l-49 -30q-35 63 -94.5 96t-129.5 33q-126 0 -200.5 -83.5t-74.5 -231.5
q0 -146 76.5 -228.5t193.5 -82.5q77 0 142 34.5t107 86.5l40 -38q-52 -65 -129.5 -102.5t-161.5 -37.5z" />
    <glyph glyph-name="cdotaccent" unicode="&#x10b;" horiz-adv-x="523" 
d="M284 583q-21 0 -33 13t-12 34t12 33.5t33 12.5t33.5 -12.5t12.5 -33.5t-12.5 -34t-33.5 -13zM283 -13q-108 0 -173.5 73t-65.5 190q0 118 65 190.5t177 72.5q145 0 202 -112l-47 -28q-47 89 -155 89q-82 0 -132.5 -56t-50.5 -156t50 -155.5t130 -55.5q105 0 167 98
l44 -29q-26 -49 -79.5 -85t-131.5 -36z" />
    <glyph glyph-name="Ccaron" unicode="&#x10c;" horiz-adv-x="697" 
d="M270 927l119 -109l120 109l31 -31l-121 -112q-15 -15 -30 -15q-16 0 -30 15l-121 112zM381 -11q-139 0 -234.5 94.5t-95.5 271.5q0 171 92.5 271.5t245.5 100.5q88 0 160 -40t112 -114l-49 -30q-35 63 -94.5 96t-129.5 33q-126 0 -200.5 -83.5t-74.5 -231.5
q0 -146 76.5 -228.5t193.5 -82.5q77 0 142 34.5t107 86.5l40 -38q-52 -65 -129.5 -102.5t-161.5 -37.5z" />
    <glyph glyph-name="ccaron" unicode="&#x10d;" horiz-adv-x="523" 
d="M165 725l119 -109l120 109l31 -31l-121 -112q-15 -15 -30 -15q-16 0 -30 15l-121 112zM283 -13q-108 0 -173.5 73t-65.5 190q0 118 65 190.5t177 72.5q145 0 202 -112l-47 -28q-47 89 -155 89q-82 0 -132.5 -56t-50.5 -156t50 -155.5t130 -55.5q105 0 167 98l44 -29
q-26 -49 -79.5 -85t-131.5 -36z" />
    <glyph glyph-name="Dcaron" unicode="&#x10e;" horiz-adv-x="714" 
d="M224 925l119 -109l120 109l31 -31l-121 -112q-15 -15 -30 -15q-16 0 -30 15l-121 112zM93 0v680q0 17 10.5 25.5t25.5 8.5h203q145 0 239 -101.5t94 -252.5q0 -157 -94 -258.5t-239 -101.5h-239zM153 56h176q118 0 196 83.5t78 220.5q0 132 -78 215t-195 83h-177v-602z
" />
    <glyph glyph-name="dcaron" unicode="&#x10f;" horiz-adv-x="578" 
d="M611 745l52 -9l-59 -185l-39 6zM431 443v271h57v-714h-57v72q-73 -85 -177 -85q-93 0 -151 70t-58 184q0 123 62.5 197.5t164.5 74.5q98 0 159 -70zM262 39q101 0 169 93v246q-59 83 -158 83q-79 0 -124.5 -57.5t-45.5 -160.5q0 -95 43 -149.5t116 -54.5z" />
    <glyph glyph-name="Dcroat" unicode="&#x110;" horiz-adv-x="723" 
d="M341 714q145 0 239 -101.5t94 -252.5q0 -157 -94 -258.5t-239 -101.5h-239v330h-83v54h83v296q0 17 10.5 25.5t25.5 8.5h203zM338 56q118 0 196 83.5t78 220.5q0 132 -78 215t-195 83h-177v-274h187v-54h-187v-274h176z" />
    <glyph glyph-name="dcroat" unicode="&#x111;" horiz-adv-x="568" 
d="M572 605v-45h-84v-560h-57v72q-73 -85 -177 -85q-93 0 -151 70t-58 184q0 123 62.5 197.5t164.5 74.5q98 0 159 -70v117h-151v45h151v109h57v-109h84zM262 39q101 0 169 93v246q-59 83 -158 83q-79 0 -124.5 -57.5t-45.5 -160.5q0 -95 43 -149.5t116 -54.5z" />
    <glyph glyph-name="Emacron" unicode="&#x112;" horiz-adv-x="574" 
d="M454 843v-48h-276v48h276zM522 658h-369v-265h337v-56h-337v-281h362v-56h-422v680q0 17 10.5 25.5t25.5 8.5h393v-56z" />
    <glyph glyph-name="emacron" unicode="&#x113;" horiz-adv-x="529" 
d="M426 644v-48h-276v48h276zM278 41q98 0 170 69l32 -42q-86 -79 -204 -79q-96 0 -164 66.5t-68 186.5q0 116 67 193.5t186 77.5q78 0 134.5 -43.5t56.5 -121.5q0 -59 -38 -93t-100 -34h-248q7 -82 54.5 -131t121.5 -49zM293 465q-80 0 -132.5 -53t-58.5 -144h242
q39 0 64 21.5t25 62.5q0 50 -39.5 81.5t-100.5 31.5z" />
    <glyph glyph-name="Ebreve" unicode="&#x114;" horiz-adv-x="574" 
d="M316 757q-72 0 -108.5 46t-39.5 107h49q1 -47 26.5 -80.5t72.5 -33.5t72 33.5t26 80.5h50q-3 -61 -39.5 -107t-108.5 -46zM522 658h-369v-265h337v-56h-337v-281h362v-56h-422v680q0 17 10.5 25.5t25.5 8.5h393v-56z" />
    <glyph glyph-name="ebreve" unicode="&#x115;" horiz-adv-x="529" 
d="M289 561q-72 0 -108.5 46t-39.5 107h49q1 -47 26.5 -80.5t72.5 -33.5t72 33.5t26 80.5h50q-3 -61 -39.5 -107t-108.5 -46zM278 41q98 0 170 69l32 -42q-86 -79 -204 -79q-96 0 -164 66.5t-68 186.5q0 116 67 193.5t186 77.5q78 0 134.5 -43.5t56.5 -121.5q0 -59 -38 -93
t-100 -34h-248q7 -82 54.5 -131t121.5 -49zM293 465q-80 0 -132.5 -53t-58.5 -144h242q39 0 64 21.5t25 62.5q0 50 -39.5 81.5t-100.5 31.5z" />
    <glyph glyph-name="Edotaccent" unicode="&#x116;" horiz-adv-x="574" 
d="M317 773q-21 0 -33 13t-12 34t12 33.5t33 12.5t33.5 -12.5t12.5 -33.5t-12.5 -34t-33.5 -13zM522 658h-369v-265h337v-56h-337v-281h362v-56h-422v680q0 17 10.5 25.5t25.5 8.5h393v-56z" />
    <glyph glyph-name="edotaccent" unicode="&#x117;" horiz-adv-x="529" 
d="M289 583q-21 0 -33 13t-12 34t12 33.5t33 12.5t33.5 -12.5t12.5 -33.5t-12.5 -34t-33.5 -13zM278 41q98 0 170 69l32 -42q-86 -79 -204 -79q-96 0 -164 66.5t-68 186.5q0 116 67 193.5t186 77.5q78 0 134.5 -43.5t56.5 -121.5q0 -59 -38 -93t-100 -34h-248
q7 -82 54.5 -131t121.5 -49zM293 465q-80 0 -132.5 -53t-58.5 -144h242q39 0 64 21.5t25 62.5q0 50 -39.5 81.5t-100.5 31.5z" />
    <glyph glyph-name="Eogonek" unicode="&#x118;" horiz-adv-x="572" 
d="M523 -156l24 -33q-34 -38 -85 -38q-43 0 -70.5 28t-27.5 72q0 75 75 127h-346v680q0 17 10.5 25.5t25.5 8.5h393v-56h-369v-265h337v-56h-337v-281h362v-56h-3q-48 -18 -73.5 -51t-25.5 -67q0 -27 15 -43.5t40 -16.5q28 0 55 22z" />
    <glyph glyph-name="eogonek" unicode="&#x119;" horiz-adv-x="528" 
d="M447 110l32 -42q-51 -47 -122 -68q-47 -16 -72.5 -48.5t-25.5 -66.5q0 -27 15 -43.5t40 -16.5q29 0 55 22l24 -34q-31 -37 -85 -37q-43 0 -70.5 28t-27.5 72q0 64 58 113q-93 2 -159 69t-66 184q0 116 67 193.5t186 77.5q78 0 134.5 -43.5t56.5 -121.5q0 -59 -38 -93
t-100 -34h-248q7 -82 54.5 -131t121.5 -49q98 0 170 69zM292 465q-80 0 -132.5 -53t-58.5 -144h242q39 0 64 21.5t25 62.5q0 50 -39.5 81.5t-100.5 31.5z" />
    <glyph glyph-name="Ecaron" unicode="&#x11a;" horiz-adv-x="574" 
d="M316 767q-16 0 -30 15l-121 112l32 31l119 -109l120 109l31 -31l-121 -112q-15 -15 -30 -15zM522 658h-369v-265h337v-56h-337v-281h362v-56h-422v680q0 17 10.5 25.5t25.5 8.5h393v-56z" />
    <glyph glyph-name="ecaron" unicode="&#x11b;" horiz-adv-x="529" 
d="M288 567q-16 0 -30 15l-121 112l32 31l119 -109l120 109l31 -31l-121 -112q-15 -15 -30 -15zM278 41q98 0 170 69l32 -42q-86 -79 -204 -79q-96 0 -164 66.5t-68 186.5q0 116 67 193.5t186 77.5q78 0 134.5 -43.5t56.5 -121.5q0 -59 -38 -93t-100 -34h-248
q7 -82 54.5 -131t121.5 -49zM293 465q-80 0 -132.5 -53t-58.5 -144h242q39 0 64 21.5t25 62.5q0 50 -39.5 81.5t-100.5 31.5z" />
    <glyph glyph-name="Gcircumflex" unicode="&#x11c;" horiz-adv-x="744" 
d="M269 761l-32 31l121 112q14 15 30 15q15 0 30 -15l121 -112l-31 -31l-120 109zM379 -11q-150 0 -239.5 100t-89.5 263q0 169 95.5 272t250.5 103q103 0 174.5 -45.5t100.5 -113.5l-54 -25q-26 59 -84.5 93.5t-137.5 34.5q-128 0 -205.5 -85t-77.5 -232q0 -142 74 -225.5
t192 -83.5q111 0 186 73t77 195h-245v55h305v-48q0 -155 -93.5 -243t-228.5 -88z" />
    <glyph glyph-name="gcircumflex" unicode="&#x11d;" 
d="M265 678l-119 -109l-32 31l121 112q14 15 30 15q15 0 30 -15l121 -112l-31 -31zM499 503q-27 -32 -75 -55q38 -43 38 -105q0 -76 -55 -120t-148 -44q-47 0 -91 13q-39 -16 -39 -50q0 -31 31 -43.5t97 -19.5q15 -2 40.5 -5t36.5 -4.5t27.5 -4.5t27.5 -5.5t21 -6.5
q81 -31 81 -109q0 -74 -63.5 -109.5t-173.5 -35.5q-101 0 -163 35t-62 103q0 81 85 124q-39 26 -39 72q0 50 52 79q-68 42 -68 129q0 76 54.5 121.5t146.5 45.5q72 0 122 -28q56 25 87 61zM259 225q69 0 108.5 31.5t39.5 87.5q0 55 -39.5 86.5t-107.5 31.5q-69 0 -108 -32
t-39 -89q0 -56 38 -86t108 -30zM281 25q-98 13 -118 18q-36 -15 -56.5 -41.5t-20.5 -57.5q0 -96 169 -96q179 0 179 93q0 18 -8 31.5t-19.5 22t-34 14.5t-40.5 9t-51 7z" />
    <glyph glyph-name="Gbreve" unicode="&#x11e;" horiz-adv-x="744" 
d="M387 757q-72 0 -108.5 46t-39.5 107h49q1 -47 26.5 -80.5t72.5 -33.5t72 33.5t26 80.5h50q-3 -61 -39.5 -107t-108.5 -46zM379 -11q-150 0 -239.5 100t-89.5 263q0 169 95.5 272t250.5 103q103 0 174.5 -45.5t100.5 -113.5l-54 -25q-26 59 -84.5 93.5t-137.5 34.5
q-128 0 -205.5 -85t-77.5 -232q0 -142 74 -225.5t192 -83.5q111 0 186 73t77 195h-245v55h305v-48q0 -155 -93.5 -243t-228.5 -88z" />
    <glyph glyph-name="gbreve" unicode="&#x11f;" 
d="M266 561q-72 0 -108.5 46t-39.5 107h49q1 -47 26.5 -80.5t72.5 -33.5t72 33.5t26 80.5h50q-3 -61 -39.5 -107t-108.5 -46zM499 503q-27 -32 -75 -55q38 -43 38 -105q0 -76 -55 -120t-148 -44q-47 0 -91 13q-39 -16 -39 -50q0 -31 31 -43.5t97 -19.5q15 -2 40.5 -5
t36.5 -4.5t27.5 -4.5t27.5 -5.5t21 -6.5q81 -31 81 -109q0 -74 -63.5 -109.5t-173.5 -35.5q-101 0 -163 35t-62 103q0 81 85 124q-39 26 -39 72q0 50 52 79q-68 42 -68 129q0 76 54.5 121.5t146.5 45.5q72 0 122 -28q56 25 87 61zM259 225q69 0 108.5 31.5t39.5 87.5
q0 55 -39.5 86.5t-107.5 31.5q-69 0 -108 -32t-39 -89q0 -56 38 -86t108 -30zM281 25q-98 13 -118 18q-36 -15 -56.5 -41.5t-20.5 -57.5q0 -96 169 -96q179 0 179 93q0 18 -8 31.5t-19.5 22t-34 14.5t-40.5 9t-51 7z" />
    <glyph glyph-name="Gdotaccent" unicode="&#x120;" horiz-adv-x="744" 
d="M388 773q-21 0 -33 13t-12 34t12 33.5t33 12.5t33.5 -12.5t12.5 -33.5t-12.5 -34t-33.5 -13zM379 -11q-150 0 -239.5 100t-89.5 263q0 169 95.5 272t250.5 103q103 0 174.5 -45.5t100.5 -113.5l-54 -25q-26 59 -84.5 93.5t-137.5 34.5q-128 0 -205.5 -85t-77.5 -232
q0 -142 74 -225.5t192 -83.5q111 0 186 73t77 195h-245v55h305v-48q0 -155 -93.5 -243t-228.5 -88z" />
    <glyph glyph-name="gdotaccent" unicode="&#x121;" 
d="M266 583q-21 0 -33 13t-12 34t12 33.5t33 12.5t33.5 -12.5t12.5 -33.5t-12.5 -34t-33.5 -13zM499 503q-27 -32 -75 -55q38 -43 38 -105q0 -76 -55 -120t-148 -44q-47 0 -91 13q-39 -16 -39 -50q0 -31 31 -43.5t97 -19.5q15 -2 40.5 -5t36.5 -4.5t27.5 -4.5t27.5 -5.5
t21 -6.5q81 -31 81 -109q0 -74 -63.5 -109.5t-173.5 -35.5q-101 0 -163 35t-62 103q0 81 85 124q-39 26 -39 72q0 50 52 79q-68 42 -68 129q0 76 54.5 121.5t146.5 45.5q72 0 122 -28q56 25 87 61zM259 225q69 0 108.5 31.5t39.5 87.5q0 55 -39.5 86.5t-107.5 31.5
q-69 0 -108 -32t-39 -89q0 -56 38 -86t108 -30zM281 25q-98 13 -118 18q-36 -15 -56.5 -41.5t-20.5 -57.5q0 -96 169 -96q179 0 179 93q0 18 -8 31.5t-19.5 22t-34 14.5t-40.5 9t-51 7z" />
    <glyph glyph-name="Gcommaaccent" unicode="&#x122;" horiz-adv-x="744" 
d="M396 368h305v-48q0 -155 -93.5 -243t-228.5 -88q-150 0 -239.5 100t-89.5 263q0 169 95.5 272t250.5 103q103 0 174.5 -45.5t100.5 -113.5l-54 -25q-26 59 -84.5 93.5t-137.5 34.5q-128 0 -205.5 -85t-77.5 -232q0 -142 74 -225.5t192 -83.5q111 0 186 73t77 195h-245v55
zM386 -66q24 0 37.5 -17.5t13.5 -45.5q0 -31 -18 -64.5t-49 -58.5l-24 28q41 36 51 70q-8 -3 -16 -3q-19 0 -31 13t-12 32t14 32.5t34 13.5z" />
    <glyph glyph-name="gcommaaccent" unicode="&#x123;" 
d="M261 566q-23 0 -37 17.5t-14 45.5q0 31 18 64.5t49 58.5l24 -28q-41 -36 -51 -70q8 3 16 3q19 0 31 -13t12 -32t-14 -32.5t-34 -13.5zM499 503q-27 -32 -75 -55q38 -43 38 -105q0 -76 -55 -120t-148 -44q-47 0 -91 13q-39 -16 -39 -50q0 -31 31 -43.5t97 -19.5
q15 -2 40.5 -5t36.5 -4.5t27.5 -4.5t27.5 -5.5t21 -6.5q81 -31 81 -109q0 -74 -63.5 -109.5t-173.5 -35.5q-101 0 -163 35t-62 103q0 81 85 124q-39 26 -39 72q0 50 52 79q-68 42 -68 129q0 76 54.5 121.5t146.5 45.5q72 0 122 -28q56 25 87 61zM259 225q69 0 108.5 31.5
t39.5 87.5q0 55 -39.5 86.5t-107.5 31.5q-69 0 -108 -32t-39 -89q0 -56 38 -86t108 -30zM281 25q-98 13 -118 18q-36 -15 -56.5 -41.5t-20.5 -57.5q0 -96 169 -96q179 0 179 93q0 18 -8 31.5t-19.5 22t-34 14.5t-40.5 9t-51 7z" />
    <glyph glyph-name="Hcircumflex" unicode="&#x124;" horiz-adv-x="713" 
d="M239 761l-32 31l121 112q14 15 30 15q15 0 30 -15l121 -112l-31 -31l-120 109zM93 0v714h60v-319h407v319h60v-714h-60v339h-407v-339h-60z" />
    <glyph glyph-name="hcircumflex" unicode="&#x125;" horiz-adv-x="574" 
d="M236 762l-120 109l-119 -109l-32 31l121 112q14 15 30 15q15 0 30 -15l121 -112zM350 513q75 0 114 -40.5t39 -115.5v-357h-58v346q0 60 -25 87t-76 27q-94 0 -202 -94v-366h-58v714h58v-295q107 94 208 94z" />
    <glyph glyph-name="Hbar" unicode="&#x126;" horiz-adv-x="748" 
d="M727 585v-52h-89v-533h-60v339h-407v-339h-60v533h-90v52h90v129h60v-129h407v129h60v-129h89zM578 395v138h-407v-138h407z" />
    <glyph glyph-name="hbar" unicode="&#x127;" horiz-adv-x="568" 
d="M344 513q75 0 114 -40.5t39 -115.5v-357h-58v346q0 60 -25 87t-76 27q-94 0 -202 -94v-366h-58v560h-68v45h68v109h58v-109h166v-45h-166v-141q107 94 208 94z" />
    <glyph glyph-name="Itilde" unicode="&#x128;" horiz-adv-x="258" 
d="M201 764q-34 0 -75.5 33t-62.5 33q-44 0 -59 -62l-43 13q11 48 38.5 71t62.5 23q34 0 74 -33t63 -33q42 0 58 63l44 -11q-9 -47 -38 -72t-62 -25zM99 0v714h60v-714h-60z" />
    <glyph glyph-name="itilde" unicode="&#x129;" horiz-adv-x="217" 
d="M179 576q-34 0 -75.5 33t-62.5 33q-44 0 -59 -62l-43 13q11 48 38.5 71t62.5 23q34 0 74 -33t63 -33q42 0 58 63l44 -11q-9 -47 -38 -72t-62 -25zM79 0v500h58v-500h-58z" />
    <glyph glyph-name="Imacron" unicode="&#x12a;" horiz-adv-x="263" 
d="M-6 843h276v-48h-276v48zM102 0v714h60v-714h-60z" />
    <glyph glyph-name="imacron" unicode="&#x12b;" horiz-adv-x="222" 
d="M-28 644h276v-48h-276v48zM81 0v500h58v-500h-58z" />
    <glyph glyph-name="Ibreve" unicode="&#x12c;" horiz-adv-x="273" 
d="M136 757q-72 0 -108.5 46t-39.5 107h49q1 -47 26.5 -80.5t72.5 -33.5t72 33.5t26 80.5h50q-3 -61 -39.5 -107t-108.5 -46zM106 0v714h60v-714h-60z" />
    <glyph glyph-name="ibreve" unicode="&#x12d;" horiz-adv-x="232" 
d="M116 561q-72 0 -108.5 46t-39.5 107h49q1 -47 26.5 -80.5t72.5 -33.5t72 33.5t26 80.5h50q-3 -61 -39.5 -107t-108.5 -46zM86 0v500h58v-500h-58z" />
    <glyph glyph-name="Iogonek" unicode="&#x12e;" horiz-adv-x="258" 
d="M177 -157l24 -33q-34 -38 -85 -38q-43 0 -70.5 28t-27.5 72q0 38 23.5 75t67.5 62v705h60v-714q-49 -18 -75.5 -51.5t-26.5 -67.5q0 -27 15 -43.5t40 -16.5q28 0 55 22z" />
    <glyph glyph-name="iogonek" unicode="&#x12f;" horiz-adv-x="218" 
d="M122 583q-21 0 -33 13t-12 34t12 33.5t33 12.5t33.5 -12.5t12.5 -33.5t-12.5 -34t-33.5 -13zM162 -153l25 -34q-33 -37 -86 -37q-43 0 -70.5 28t-27.5 72q0 82 89 134v490h58v-500q-47 -16 -72.5 -48.5t-25.5 -66.5q0 -27 15.5 -43.5t40.5 -16.5q28 0 54 22z" />
    <glyph glyph-name="Idotaccent" unicode="&#x130;" horiz-adv-x="254" 
d="M129 773q-21 0 -33 13t-12 34t12 33.5t33 12.5t33.5 -12.5t12.5 -33.5t-12.5 -34t-33.5 -13zM97 0v714h60v-714h-60z" />
    <glyph glyph-name="dotlessi" unicode="&#x131;" horiz-adv-x="223" 
d="M82 0v500h58v-500h-58z" />
    <glyph glyph-name="IJ" unicode="&#x132;" horiz-adv-x="718" 
d="M93 0v714h60v-714h-60zM429 -11q-127 0 -181 105l44 32q51 -81 136 -81q69 0 106 45.5t37 126.5v497h60v-509q0 -99 -54 -157.5t-148 -58.5z" />
    <glyph glyph-name="ij" unicode="&#x133;" horiz-adv-x="436" 
d="M106 583q-21 0 -33 13t-12 34t12 33.5t33 12.5t33.5 -12.5t12.5 -33.5t-12.5 -34t-33.5 -13zM330 583q-21 0 -33 13t-12 34t12 33.5t33 12.5t33.5 -12.5t12.5 -33.5t-12.5 -34t-33.5 -13zM77 0v500h58v-500h-58zM224 -195q-33 0 -67 13l13 49q29 -9 50 -9q38 0 59 23.5
t21 67.5v551h58v-552q0 -69 -36 -106t-98 -37z" />
    <glyph glyph-name="Jcircumflex" unicode="&#x134;" horiz-adv-x="496" 
d="M249 761l-32 31l121 112q14 15 30 15q15 0 30 -15l121 -112l-31 -31l-120 109zM195 -11q-127 0 -181 105l44 32q51 -81 136 -81q69 0 106 45.5t37 126.5v497h60v-509q0 -99 -54 -157.5t-148 -58.5z" />
    <glyph glyph-name="jcircumflex" unicode="&#x135;" horiz-adv-x="240" 
d="M7 569l-32 31l121 112q14 15 30 15q15 0 30 -15l121 -112l-31 -31l-120 109zM20 -195q-33 0 -67 13l13 49q29 -9 50 -9q38 0 59 23.5t21 67.5v551h58v-552q0 -69 -36 -106t-98 -37z" />
    <glyph glyph-name="Kcommaaccent" unicode="&#x136;" horiz-adv-x="569" 
d="M216 349l359 -349h-82l-340 328v-328h-60v714h60v-354l326 354h73zM319 -66q23 0 37 -17.5t14 -45.5q0 -31 -18 -64.5t-49 -58.5l-24 28q41 36 51 70q-8 -3 -16 -3q-19 0 -31 13t-12 32t14 32.5t34 13.5z" />
    <glyph glyph-name="kcommaaccent" unicode="&#x137;" horiz-adv-x="454" 
d="M189 271l267 -271h-75l-250 258v-258h-57v714h57v-433l240 219h70zM262 -66q24 0 37.5 -17.5t13.5 -45.5q0 -31 -18 -64.5t-49 -58.5l-24 28q41 36 51 70q-7 -3 -16 -3q-19 0 -31 13t-12 32t14 32.5t34 13.5z" />
    <glyph glyph-name="kgreenlandic" unicode="&#x138;" horiz-adv-x="455" 
d="M457 0h-75l-250 258v-258h-57v500h57v-219l240 219h70l-252 -229z" />
    <glyph glyph-name="Lacute" unicode="&#x139;" horiz-adv-x="533" 
d="M44 790l162 149l36 -45l-174 -135zM117 0q-14 0 -23.5 9.5t-9.5 24.5v680h60v-658h366v-56h-393z" />
    <glyph glyph-name="lacute" unicode="&#x13a;" horiz-adv-x="220" 
d="M29 790l162 149l36 -45l-174 -135zM81 0v714h60v-714h-60z" />
    <glyph glyph-name="Lcommaaccent" unicode="&#x13b;" horiz-adv-x="540" 
d="M152 56h366v-56h-393q-14 0 -23.5 9.5t-9.5 24.5v680h60v-658zM310 -66q24 0 37.5 -17.5t13.5 -45.5q0 -31 -18 -64.5t-49 -58.5l-24 28q41 36 51 70q-7 -3 -16 -3q-19 0 -31 13t-12 32t14 32.5t34 13.5z" />
    <glyph glyph-name="lcommaaccent" unicode="&#x13c;" horiz-adv-x="212" 
d="M132 714v-714h-57v714h57zM104 -66q24 0 37.5 -17.5t13.5 -45.5q0 -31 -18 -64.5t-49 -58.5l-24 28q41 36 51 70q-7 -3 -16 -3q-19 0 -31 13t-12 32t14 32.5t34 13.5z" />
    <glyph glyph-name="Lcaron" unicode="&#x13d;" horiz-adv-x="543" 
d="M365 550l46 188l52 -9l-59 -185zM125 0q-14 0 -23.5 9.5t-9.5 24.5v680h60v-658h366v-56h-393z" />
    <glyph glyph-name="lcaron" unicode="&#x13e;" horiz-adv-x="221" 
d="M192 557l46 188l52 -9l-59 -185zM74 0v714h57v-714h-57z" />
    <glyph glyph-name="Ldot" unicode="&#x13f;" horiz-adv-x="541" 
d="M125 0q-14 0 -23.5 9.5t-9.5 24.5v680h60v-658h366v-56h-393zM381 315q-21 0 -33.5 13t-12.5 35q0 21 12.5 34t33.5 13q22 0 34.5 -13t12.5 -34q0 -22 -12.5 -35t-34.5 -13z" />
    <glyph glyph-name="ldot" unicode="&#x140;" horiz-adv-x="296" 
d="M74 0v714h57v-714h-57zM259 302q-21 0 -33.5 13t-12.5 35q0 21 12.5 34t33.5 13q22 0 34.5 -13t12.5 -34q0 -22 -12.5 -35t-34.5 -13z" />
    <glyph glyph-name="Lslash" unicode="&#x141;" horiz-adv-x="550" 
d="M162 56h366v-56h-393q-14 0 -23.5 9.5t-9.5 24.5v245l-61 -41l-27 39l88 59v378h60v-338l122 82l27 -39l-149 -100v-263z" />
    <glyph glyph-name="lslash" unicode="&#x142;" horiz-adv-x="280" 
d="M265 397l-96 -63v-334h-57v297l-65 -43l-24 39l89 57v364h57v-327l75 48z" />
    <glyph glyph-name="Nacute" unicode="&#x143;" horiz-adv-x="742" 
d="M491 894l-174 -135l-24 31l162 149zM591 714h57v-695q0 -11 -9.5 -18t-22.5 -7q-26 0 -42 22l-424 604v-620h-57v692q0 12 9.5 19.5t24.5 7.5q18 0 27 -6t19 -21l418 -591v613z" />
    <glyph glyph-name="nacute" unicode="&#x144;" horiz-adv-x="569" 
d="M400 688l-174 -135l-24 31l162 149zM345 513q75 0 114 -40.5t39 -115.5v-357h-58v346q0 60 -25 87t-76 27q-98 0 -206 -94v-366h-58v500h57v-82q107 95 213 95z" />
    <glyph glyph-name="Ncommaaccent" unicode="&#x145;" horiz-adv-x="742" 
d="M591 714h57v-695q0 -11 -9.5 -18t-22.5 -7q-26 0 -42 22l-424 604v-620h-57v692q0 12 9.5 19.5t24.5 7.5q18 0 27 -6t19 -21l418 -591v613zM377 -66q24 0 37.5 -17.5t13.5 -45.5q0 -31 -18 -64.5t-49 -58.5l-24 28q41 36 51 70q-7 -3 -16 -3q-19 0 -31 13t-12 32t14 32.5
t34 13.5z" />
    <glyph glyph-name="ncommaaccent" unicode="&#x146;" horiz-adv-x="569" 
d="M345 513q75 0 114 -40.5t39 -115.5v-357h-58v346q0 60 -25 87t-76 27q-98 0 -206 -94v-366h-58v500h57v-82q107 95 213 95zM289 -66q23 0 37 -17.5t14 -45.5q0 -31 -18 -64.5t-49 -58.5l-24 28q41 36 51 70q-8 -3 -16 -3q-19 0 -31 13t-12 32t14 32.5t34 13.5z" />
    <glyph glyph-name="Ncaron" unicode="&#x147;" horiz-adv-x="742" 
d="M375 767q-16 0 -30 15l-121 112l32 31l119 -109l120 109l31 -31l-121 -112q-15 -15 -30 -15zM591 714h57v-695q0 -11 -9.5 -18t-22.5 -7q-26 0 -42 22l-424 604v-620h-57v692q0 12 9.5 19.5t24.5 7.5q18 0 27 -6t19 -21l418 -591v613z" />
    <glyph glyph-name="ncaron" unicode="&#x148;" horiz-adv-x="569" 
d="M287 567q-16 0 -30 15l-121 112l32 31l119 -109l120 109l31 -31l-121 -112q-15 -15 -30 -15zM345 513q75 0 114 -40.5t39 -115.5v-357h-58v346q0 60 -25 87t-76 27q-98 0 -206 -94v-366h-58v500h57v-82q107 95 213 95z" />
    <glyph glyph-name="napostrophe" unicode="&#x149;" horiz-adv-x="575" 
d="M72 748l48 -14l-79 -189l-36 12zM351 513q75 0 114 -40.5t39 -115.5v-357h-58v346q0 60 -25 87t-76 27q-98 0 -206 -94v-366h-58v500h57v-82q107 95 213 95z" />
    <glyph glyph-name="Eng" unicode="&#x14a;" horiz-adv-x="732" 
d="M580 716h60v-703q0 -108 -54 -162.5t-136 -54.5q-83 0 -144 40l25 51q53 -34 119 -34q58 0 93.5 41t36.5 114l-430 613v-621h-57v692q0 12 9.5 19.5t24.5 7.5q18 0 27 -6t19 -21l407 -576v600z" />
    <glyph glyph-name="eng" unicode="&#x14b;" horiz-adv-x="567" 
d="M342 513q75 0 114.5 -40.5t39.5 -115.5v-414q0 -61 -36 -97t-93 -36q-48 0 -89 22l17 47q32 -17 65 -17q78 0 78 87v397q0 60 -25.5 87t-76.5 27q-95 0 -203 -94v-366h-58v500h57v-81q107 94 210 94z" />
    <glyph glyph-name="Omacron" unicode="&#x14c;" horiz-adv-x="767" 
d="M246 843h276v-48h-276v48zM385 -11q-150 0 -242.5 101t-92.5 267t92.5 268t242.5 102q149 0 240.5 -102t91.5 -268q0 -165 -91.5 -266.5t-240.5 -101.5zM385 46q120 0 195 84t75 227q0 144 -75 228.5t-195 84.5q-122 0 -197.5 -84.5t-75.5 -228.5q0 -143 75.5 -227
t197.5 -84z" />
    <glyph glyph-name="omacron" unicode="&#x14d;" horiz-adv-x="561" 
d="M142 644h276v-48h-276v48zM280 -13q-107 0 -172 72.5t-64 190.5q1 119 66 191t171 72q107 0 171.5 -72t64.5 -191t-64.5 -191t-172.5 -72zM280 39q85 0 132 55.5t47 155.5q0 99 -47 155t-131 56t-131.5 -55.5t-47.5 -155.5q-1 -99 46.5 -155t131.5 -56z" />
    <glyph glyph-name="Obreve" unicode="&#x14e;" horiz-adv-x="767" 
d="M384 757q-72 0 -108.5 46t-39.5 107h49q1 -47 26.5 -80.5t72.5 -33.5t72 33.5t26 80.5h50q-3 -61 -39.5 -107t-108.5 -46zM385 -11q-150 0 -242.5 101t-92.5 267t92.5 268t242.5 102q149 0 240.5 -102t91.5 -268q0 -165 -91.5 -266.5t-240.5 -101.5zM385 46q120 0 195 84
t75 227q0 144 -75 228.5t-195 84.5q-122 0 -197.5 -84.5t-75.5 -228.5q0 -143 75.5 -227t197.5 -84z" />
    <glyph glyph-name="obreve" unicode="&#x14f;" horiz-adv-x="561" 
d="M281 561q-72 0 -108.5 46t-39.5 107h49q1 -47 26.5 -80.5t72.5 -33.5t72 33.5t26 80.5h50q-3 -61 -39.5 -107t-108.5 -46zM280 -13q-107 0 -172 72.5t-64 190.5q1 119 66 191t171 72q107 0 171.5 -72t64.5 -191t-64.5 -191t-172.5 -72zM280 39q85 0 132 55.5t47 155.5
q0 99 -47 155t-131 56t-131.5 -55.5t-47.5 -155.5q-1 -99 46.5 -155t131.5 -56z" />
    <glyph glyph-name="Ohungarumlaut" unicode="&#x150;" horiz-adv-x="767" 
d="M287 782l96 184l47 -26l-110 -178zM404 782l101 184l48 -26l-116 -178zM385 -11q-150 0 -242.5 101t-92.5 267t92.5 268t242.5 102q149 0 240.5 -102t91.5 -268q0 -165 -91.5 -266.5t-240.5 -101.5zM385 46q120 0 195 84t75 227q0 144 -75 228.5t-195 84.5
q-122 0 -197.5 -84.5t-75.5 -228.5q0 -143 75.5 -227t197.5 -84z" />
    <glyph glyph-name="ohungarumlaut" unicode="&#x151;" horiz-adv-x="561" 
d="M182 573l96 184l47 -26l-110 -178zM299 573l101 184l48 -26l-116 -178zM280 -13q-107 0 -172 72.5t-64 190.5q1 119 66 191t171 72q107 0 171.5 -72t64.5 -191t-64.5 -191t-172.5 -72zM280 39q85 0 132 55.5t47 155.5q0 99 -47 155t-131 56t-131.5 -55.5t-47.5 -155.5
q-1 -99 46.5 -155t131.5 -56z" />
    <glyph glyph-name="OE" unicode="&#x152;" horiz-adv-x="1127" 
d="M1079 660h-373v-265h328v-55h-329v-2h1v-282h363v-56h-423v134q-43 -69 -112 -107t-155 -38q-147 0 -238 101.5t-91 266.5q0 166 91 268t238 102q85 0 154 -37t113 -104v96q0 34 35 34h398v-56zM644 357q1 143 -73 228t-192 85q-119 0 -193 -84.5t-74 -228.5t74 -227.5
t193 -83.5q117 0 190.5 83.5t74.5 227.5z" />
    <glyph glyph-name="oe" unicode="&#x153;" horiz-adv-x="951" 
d="M699 40q98 0 170 69l32 -42q-86 -79 -205 -79q-64 0 -119 32t-85 92q-58 -125 -207 -125q-109 0 -175.5 72t-65.5 191t67 191t174 72q75 0 129.5 -35t81.5 -98q30 61 87.5 96.5t136.5 35.5t135 -43.5t56 -121.5q0 -59 -38 -93t-100 -34h-249q7 -82 53.5 -131t121.5 -49z
M717 464q-82 0 -135 -53t-58 -144h243q39 0 64 21.5t25 62.5q0 50 -39.5 81.5t-99.5 31.5zM284 39q86 0 133.5 55.5t47.5 155.5t-47.5 155.5t-133.5 55.5t-134 -56t-48 -155q-1 -99 47 -155t135 -56z" />
    <glyph glyph-name="Racute" unicode="&#x154;" horiz-adv-x="593" 
d="M414 894l-174 -135l-24 31l162 149zM472 0l-192 301h-127v-301h-60v680q0 15 9.5 24.5t23.5 9.5h193q108 0 165.5 -55.5t57.5 -154.5q0 -86 -50.5 -138.5t-142.5 -62.5l201 -303h-78zM153 658v-303h151q86 0 131 39t45 113q0 72 -43.5 111.5t-126.5 39.5h-157z" />
    <glyph glyph-name="racute" unicode="&#x155;" horiz-adv-x="368" 
d="M326 688l-174 -135l-24 31l162 149zM298 513q37 0 63 -11l-10 -51q-27 8 -56 8q-94 0 -163 -86v-373h-57v500h56v-71q30 40 74 62t93 22z" />
    <glyph glyph-name="Rcommaaccent" unicode="&#x156;" horiz-adv-x="593" 
d="M349 303l201 -303h-78l-192 301h-127v-301h-60v680q0 15 9.5 24.5t23.5 9.5h193q108 0 165.5 -55.5t57.5 -154.5q0 -86 -50.5 -138.5t-142.5 -62.5zM153 658v-303h151q86 0 131 39t45 113q0 72 -43.5 111.5t-126.5 39.5h-157zM310 -66q24 0 37.5 -17.5t13.5 -45.5
q0 -31 -18 -64.5t-49 -58.5l-24 28q41 36 51 70q-7 -3 -16 -3q-19 0 -31 13t-12 32t14 32.5t34 13.5z" />
    <glyph glyph-name="rcommaaccent" unicode="&#x157;" horiz-adv-x="373" 
d="M303 513q37 0 63 -11l-10 -51q-27 8 -56 8q-94 0 -163 -86v-373h-57v500h56v-71q30 40 74 62t93 22zM111 -66q23 0 37 -17.5t14 -45.5q0 -31 -18 -64.5t-49 -58.5l-24 28q41 36 51 70q-7 -3 -16 -3q-19 0 -31 13t-12 32t14 32.5t34 13.5z" />
    <glyph glyph-name="Rcaron" unicode="&#x158;" horiz-adv-x="593" 
d="M298 767q-16 0 -30 15l-121 112l32 31l119 -109l120 109l31 -31l-121 -112q-15 -15 -30 -15zM472 0l-192 301h-127v-301h-60v680q0 15 9.5 24.5t23.5 9.5h193q108 0 165.5 -55.5t57.5 -154.5q0 -86 -50.5 -138.5t-142.5 -62.5l201 -303h-78zM153 658v-303h151
q86 0 131 39t45 113q0 72 -43.5 111.5t-126.5 39.5h-157z" />
    <glyph glyph-name="rcaron" unicode="&#x159;" horiz-adv-x="379" 
d="M220 567q-16 0 -30 15l-121 112l32 31l119 -109l120 109l31 -31l-121 -112q-15 -15 -30 -15zM138 429q30 40 74 62t93 22q37 0 63 -11l-10 -51q-27 8 -56 8q-94 0 -163 -86v-373h-57v500h56v-71z" />
    <glyph glyph-name="Sacute" unicode="&#x15a;" horiz-adv-x="557" 
d="M199 790l162 149l36 -45l-174 -135zM271 -11q-74 0 -137.5 30t-99.5 83l41 37q73 -95 198 -95q81 0 132.5 40.5t51.5 106.5q0 14 -3 27t-6.5 22.5t-12.5 19.5t-15 16t-20.5 14l-21.5 12t-25.5 11t-26 9.5l-30 10t-29.5 9.5q-49 16 -78.5 29t-62 35.5t-48 55t-15.5 75.5
q0 92 65.5 141t165.5 49q112 0 200 -67l-32 -45q-79 59 -169 59q-76 0 -123.5 -34.5t-47.5 -99.5q0 -26 10.5 -47.5t23 -34.5t41 -26.5t46 -20t57.5 -19.5q5 -2 15 -5q39 -13 59.5 -20.5t52.5 -24.5t48.5 -35t29.5 -47.5t13 -66.5q0 -96 -71.5 -150t-175.5 -54z" />
    <glyph glyph-name="sacute" unicode="&#x15b;" horiz-adv-x="454" 
d="M156 584l162 149l36 -45l-174 -135zM221 -11q-124 0 -193 79l31 37q66 -67 163 -67q59 0 98.5 25t39.5 71q0 17 -7 30.5t-15.5 21.5t-30 17t-34 13t-44.5 13q-9 3 -14 4q-38 11 -60.5 20.5t-48 25.5t-37.5 39.5t-12 54.5q0 68 52 104t129 36q97 0 167 -54l-28 -40
q-62 46 -139 46q-57 0 -91.5 -24t-34.5 -65q0 -37 30.5 -56.5t96.5 -38.5q38 -11 57 -17t46.5 -18.5t40.5 -26t23 -35t10 -48.5q0 -70 -57 -108.5t-138 -38.5z" />
    <glyph glyph-name="Scircumflex" unicode="&#x15c;" horiz-adv-x="557" 
d="M163 761l-32 31l121 112q14 15 30 15q15 0 30 -15l121 -112l-31 -31l-120 109zM271 -11q-74 0 -137.5 30t-99.5 83l41 37q73 -95 198 -95q81 0 132.5 40.5t51.5 106.5q0 14 -3 27t-6.5 22.5t-12.5 19.5t-15 16t-20.5 14l-21.5 12t-25.5 11t-26 9.5l-30 10t-29.5 9.5
q-49 16 -78.5 29t-62 35.5t-48 55t-15.5 75.5q0 92 65.5 141t165.5 49q112 0 200 -67l-32 -45q-79 59 -169 59q-76 0 -123.5 -34.5t-47.5 -99.5q0 -26 10.5 -47.5t23 -34.5t41 -26.5t46 -20t57.5 -19.5q5 -2 15 -5q39 -13 59.5 -20.5t52.5 -24.5t48.5 -35t29.5 -47.5
t13 -66.5q0 -96 -71.5 -150t-175.5 -54z" />
    <glyph glyph-name="scircumflex" unicode="&#x15d;" horiz-adv-x="454" 
d="M121 569l-32 31l121 112q14 15 30 15q15 0 30 -15l121 -112l-31 -31l-120 109zM221 -11q-124 0 -193 79l31 37q66 -67 163 -67q59 0 98.5 25t39.5 71q0 17 -7 30.5t-15.5 21.5t-30 17t-34 13t-44.5 13q-9 3 -14 4q-38 11 -60.5 20.5t-48 25.5t-37.5 39.5t-12 54.5
q0 68 52 104t129 36q97 0 167 -54l-28 -40q-62 46 -139 46q-57 0 -91.5 -24t-34.5 -65q0 -37 30.5 -56.5t96.5 -38.5q38 -11 57 -17t46.5 -18.5t40.5 -26t23 -35t10 -48.5q0 -70 -57 -108.5t-138 -38.5z" />
    <glyph glyph-name="Scedilla" unicode="&#x15e;" horiz-adv-x="557" 
d="M271 -11q-74 0 -137.5 30t-99.5 83l41 37q73 -95 198 -95q81 0 132.5 40.5t51.5 106.5q0 14 -3 27t-6.5 22.5t-12.5 19.5t-15 16t-20.5 14l-21.5 12t-25.5 11t-26 9.5l-30 10t-29.5 9.5q-49 16 -78.5 29t-62 35.5t-48 55t-15.5 75.5q0 92 65.5 141t165.5 49
q112 0 200 -67l-32 -45q-79 59 -169 59q-76 0 -123.5 -34.5t-47.5 -99.5q0 -26 10.5 -47.5t23 -34.5t41 -26.5t46 -20t57.5 -19.5q5 -2 15 -5q39 -13 59.5 -20.5t52.5 -24.5t48.5 -35t29.5 -47.5t13 -66.5q0 -96 -71.5 -150t-175.5 -54zM242 -235q-59 0 -102 27l16 39
q37 -23 83 -23q34 0 55.5 15t21.5 41q0 56 -99 53l4 40q74 4 108 -22.5t34 -72.5q0 -41 -33.5 -69t-87.5 -28z" />
    <glyph glyph-name="scedilla" unicode="&#x15f;" horiz-adv-x="454" 
d="M221 -11q-124 0 -193 79l31 37q66 -67 163 -67q59 0 98.5 25t39.5 71q0 17 -7 30.5t-15.5 21.5t-30 17t-34 13t-44.5 13q-9 3 -14 4q-38 11 -60.5 20.5t-48 25.5t-37.5 39.5t-12 54.5q0 68 52 104t129 36q97 0 167 -54l-28 -40q-62 46 -139 46q-57 0 -91.5 -24t-34.5 -65
q0 -37 30.5 -56.5t96.5 -38.5q38 -11 57 -17t46.5 -18.5t40.5 -26t23 -35t10 -48.5q0 -70 -57 -108.5t-138 -38.5zM201 -238q-59 0 -102 27l16 39q37 -23 83 -23q34 0 55.5 15t21.5 41q0 56 -99 53l4 40q74 4 108 -22.5t34 -72.5q0 -41 -33.5 -69t-87.5 -28z" />
    <glyph glyph-name="Scaron" unicode="&#x160;" horiz-adv-x="557" 
d="M162 925l119 -109l120 109l31 -31l-121 -112q-15 -15 -30 -15q-16 0 -30 15l-121 112zM271 -11q-74 0 -137.5 30t-99.5 83l41 37q73 -95 198 -95q81 0 132.5 40.5t51.5 106.5q0 14 -3 27t-6.5 22.5t-12.5 19.5t-15 16t-20.5 14l-21.5 12t-25.5 11t-26 9.5l-30 10
t-29.5 9.5q-49 16 -78.5 29t-62 35.5t-48 55t-15.5 75.5q0 92 65.5 141t165.5 49q112 0 200 -67l-32 -45q-79 59 -169 59q-76 0 -123.5 -34.5t-47.5 -99.5q0 -26 10.5 -47.5t23 -34.5t41 -26.5t46 -20t57.5 -19.5q5 -2 15 -5q39 -13 59.5 -20.5t52.5 -24.5t48.5 -35
t29.5 -47.5t13 -66.5q0 -96 -71.5 -150t-175.5 -54z" />
    <glyph glyph-name="scaron" unicode="&#x161;" horiz-adv-x="454" 
d="M121 725l119 -109l120 109l31 -31l-121 -112q-15 -15 -30 -15q-16 0 -30 15l-121 112zM221 -11q-124 0 -193 79l31 37q66 -67 163 -67q59 0 98.5 25t39.5 71q0 17 -7 30.5t-15.5 21.5t-30 17t-34 13t-44.5 13q-9 3 -14 4q-38 11 -60.5 20.5t-48 25.5t-37.5 39.5t-12 54.5
q0 68 52 104t129 36q97 0 167 -54l-28 -40q-62 46 -139 46q-57 0 -91.5 -24t-34.5 -65q0 -37 30.5 -56.5t96.5 -38.5q38 -11 57 -17t46.5 -18.5t40.5 -26t23 -35t10 -48.5q0 -70 -57 -108.5t-138 -38.5z" />
    <glyph glyph-name="Tcaron" unicode="&#x164;" horiz-adv-x="558" 
d="M160 925l119 -109l120 109l31 -31l-121 -112q-15 -15 -30 -15q-16 0 -30 15l-121 112zM537 714v-56h-228v-658h-60v658h-228v56h516z" />
    <glyph glyph-name="tcaron" unicode="&#x165;" horiz-adv-x="382" 
d="M386 736l-59 -185l-39 6l46 188zM258 45q52 0 103 34l24 -45q-61 -44 -133 -44q-77 0 -114 46t-37 126v290h-83v48h83v155h57v-155h201v-48h-201v-292q0 -59 27 -87t73 -28z" />
    <glyph glyph-name="Tbar" unicode="&#x166;" horiz-adv-x="568" 
d="M542 658h-228v-264h135v-54h-135v-340h-60v340h-135v54h135v264h-228v56h516v-56z" />
    <glyph glyph-name="tbar" unicode="&#x167;" horiz-adv-x="400" 
d="M368 79l24 -45q-61 -44 -133 -44q-77 0 -114 46t-37 126v94h-83v46h83v150h-83v48h83v155h57v-155h201v-48h-201v-150h201v-46h-201v-96q0 -59 27 -87t73 -28q52 0 103 34z" />
    <glyph glyph-name="Utilde" unicode="&#x168;" horiz-adv-x="681" 
d="M412 764q-34 0 -75.5 33t-62.5 33q-44 0 -59 -62l-43 13q11 48 38.5 71t62.5 23q34 0 74 -33t63 -33q42 0 58 63l44 -11q-9 -47 -38 -72t-62 -25zM340 -11q-122 0 -188 66.5t-66 181.5v477h60v-474q0 -92 49 -143t145 -51t145 51t49 143v474h61v-477q0 -115 -66.5 -181.5
t-188.5 -66.5z" />
    <glyph glyph-name="utilde" unicode="&#x169;" horiz-adv-x="566" 
d="M216 642q-44 0 -59 -62l-43 13q11 48 38.5 71t62.5 23q34 0 74 -33t63 -33q42 0 58 63l44 -11q-9 -47 -38 -72t-62 -25q-34 0 -75.5 33t-62.5 33zM434 500h57v-501h-56v87q-108 -99 -213 -99q-74 0 -112.5 40t-38.5 115v358h57v-348q0 -57 24 -84.5t76 -27.5q94 0 206 96
v364z" />
    <glyph glyph-name="Umacron" unicode="&#x16a;" horiz-adv-x="681" 
d="M203 843h276v-48h-276v48zM340 -11q-122 0 -188 66.5t-66 181.5v477h60v-474q0 -92 49 -143t145 -51t145 51t49 143v474h61v-477q0 -115 -66.5 -181.5t-188.5 -66.5z" />
    <glyph glyph-name="umacron" unicode="&#x16b;" horiz-adv-x="566" 
d="M421 644v-48h-276v48h276zM434 500h57v-501h-56v87q-108 -99 -213 -99q-74 0 -112.5 40t-38.5 115v358h57v-348q0 -57 24 -84.5t76 -27.5q94 0 206 96v364z" />
    <glyph glyph-name="Ubreve" unicode="&#x16c;" horiz-adv-x="681" 
d="M341 757q-72 0 -108.5 46t-39.5 107h49q1 -47 26.5 -80.5t72.5 -33.5t72 33.5t26 80.5h50q-3 -61 -39.5 -107t-108.5 -46zM340 -11q-122 0 -188 66.5t-66 181.5v477h60v-474q0 -92 49 -143t145 -51t145 51t49 143v474h61v-477q0 -115 -66.5 -181.5t-188.5 -66.5z" />
    <glyph glyph-name="ubreve" unicode="&#x16d;" horiz-adv-x="566" 
d="M284 561q-72 0 -108.5 46t-39.5 107h49q1 -47 26.5 -80.5t72.5 -33.5t72 33.5t26 80.5h50q-3 -61 -39.5 -107t-108.5 -46zM434 500h57v-501h-56v87q-108 -99 -213 -99q-74 0 -112.5 40t-38.5 115v358h57v-348q0 -57 24 -84.5t76 -27.5q94 0 206 96v364z" />
    <glyph glyph-name="Uring" unicode="&#x16e;" horiz-adv-x="681" 
d="M342 744q-41 0 -68.5 27t-27.5 67q0 39 28 66t68 27t67.5 -27t27.5 -66q0 -40 -27.5 -67t-67.5 -27zM342 779q25 0 41.5 17t16.5 42q0 24 -16.5 41t-41.5 17t-42.5 -17t-17.5 -41q0 -25 17.5 -42t42.5 -17zM340 -11q-122 0 -188 66.5t-66 181.5v477h60v-474
q0 -92 49 -143t145 -51t145 51t49 143v474h61v-477q0 -115 -66.5 -181.5t-188.5 -66.5z" />
    <glyph glyph-name="uring" unicode="&#x16f;" horiz-adv-x="566" 
d="M284 555q-41 0 -68.5 27t-27.5 67q0 39 28 66t68 27t67.5 -27t27.5 -66q0 -40 -27.5 -67t-67.5 -27zM284 707q-25 0 -42.5 -17t-17.5 -41q0 -25 17.5 -42t42.5 -17t41.5 17t16.5 42q0 24 -16.5 41t-41.5 17zM434 500h57v-501h-56v87q-108 -99 -213 -99q-74 0 -112.5 40
t-38.5 115v358h57v-348q0 -57 24 -84.5t76 -27.5q94 0 206 96v364z" />
    <glyph glyph-name="Uhungarumlaut" unicode="&#x170;" horiz-adv-x="681" 
d="M244 782l96 184l47 -26l-110 -178zM361 782l101 184l48 -26l-116 -178zM340 -11q-122 0 -188 66.5t-66 181.5v477h60v-474q0 -92 49 -143t145 -51t145 51t49 143v474h61v-477q0 -115 -66.5 -181.5t-188.5 -66.5z" />
    <glyph glyph-name="uhungarumlaut" unicode="&#x171;" horiz-adv-x="566" 
d="M328 731l-110 -178l-33 20l96 184zM335 553l-33 20l101 184l48 -26zM434 500h57v-501h-56v87q-108 -99 -213 -99q-74 0 -112.5 40t-38.5 115v358h57v-348q0 -57 24 -84.5t76 -27.5q94 0 206 96v364z" />
    <glyph glyph-name="Uogonek" unicode="&#x172;" horiz-adv-x="681" 
d="M534 714h61v-477q0 -103 -54 -167.5t-154 -77.5q-43 -21 -65 -51.5t-22 -61.5q0 -27 15.5 -43t40.5 -16q29 0 55 22l24 -34q-33 -37 -85 -37q-43 0 -70.5 28t-27.5 72q0 69 65 119q-111 6 -171 71.5t-60 175.5v477h60v-474q0 -92 49 -143t145 -51t145 51t49 143v474z" />
    <glyph glyph-name="uogonek" unicode="&#x173;" horiz-adv-x="559" 
d="M504 -154l24 -34q-31 -37 -85 -37q-44 0 -71.5 28t-27.5 72q0 37 23.5 73.5t67.5 62.5v75q-108 -99 -213 -99q-74 0 -112.5 40t-38.5 115v358h57v-348q0 -57 24 -84.5t76 -27.5q94 0 206 96v364h57v-500l1 -1q-48 -15 -73 -47.5t-25 -67.5q0 -27 15 -43.5t40 -16.5
q29 0 55 22z" />
    <glyph glyph-name="Wcircumflex" unicode="&#x174;" horiz-adv-x="922" 
d="M463 870l-119 -109l-32 31l121 112q14 15 30 15q15 0 30 -15l121 -112l-31 -31zM834 714h64l-185 -694q-9 -31 -49 -31t-49 30l-154 502l-155 -501q-7 -31 -49 -31q-41 0 -48 30l-183 695h66l168 -658l174 559h55l175 -559z" />
    <glyph glyph-name="wcircumflex" unicode="&#x175;" horiz-adv-x="741" 
d="M372 678l-119 -109l-32 31l121 112q14 15 30 15q15 0 30 -15l121 -112l-31 -31zM659 500h62l-143 -476q-11 -30 -42 -30t-42 30l-123 415l-123 -415q-12 -30 -42 -30q-32 0 -44 30l-141 476h63l123 -439l132 439h64l133 -439z" />
    <glyph glyph-name="Ycircumflex" unicode="&#x176;" horiz-adv-x="591" 
d="M297 870l-119 -109l-32 31l121 112q14 15 30 15q15 0 30 -15l121 -112l-31 -31zM574 714l-248 -428v-286h-60v286l-248 428h71l208 -367l208 367h69z" />
    <glyph glyph-name="ycircumflex" unicode="&#x177;" horiz-adv-x="499" 
d="M258 678l-119 -109l-32 31l121 112q14 15 30 15q15 0 30 -15l121 -112l-31 -31zM424 500h63l-235 -581q-48 -119 -148 -119q-61 0 -99 40l26 38q34 -27 72 -27q66 0 102 92l21 53l-207 504h60l175 -437z" />
    <glyph glyph-name="Ydieresis" unicode="&#x178;" horiz-adv-x="591" 
d="M213 776q-20 0 -32 12.5t-12 32.5q0 21 12 33.5t32 12.5t32 -12.5t12 -33.5q0 -20 -12 -32.5t-32 -12.5zM386 776q-21 0 -33 12.5t-12 32.5q0 21 12 33.5t33 12.5q20 0 32 -12.5t12 -33.5q0 -20 -12 -32.5t-32 -12.5zM574 714l-248 -428v-286h-60v286l-248 428h71
l208 -367l208 367h69z" />
    <glyph glyph-name="Zacute" unicode="&#x179;" horiz-adv-x="555" 
d="M206 790l162 149l36 -45l-174 -135zM53 0q-18 0 -24.5 21.5t4.5 39.5l406 596h-386v57h426q20 0 28 -21.5t-4 -42.5l-406 -593h419v-57h-463z" />
    <glyph glyph-name="zacute" unicode="&#x17a;" horiz-adv-x="461" 
d="M145 584l162 149l36 -45l-174 -135zM59 0q-22 0 -28 21.5t6 34.5l315 395h-302v49h341q22 0 28 -21t-8 -36l-313 -394h324v-49h-363z" />
    <glyph glyph-name="Zdotaccent" unicode="&#x17b;" horiz-adv-x="555" 
d="M289 773q-21 0 -33 13t-12 34t12 33.5t33 12.5t33.5 -12.5t12.5 -33.5t-12.5 -34t-33.5 -13zM53 0q-18 0 -24.5 21.5t4.5 39.5l406 596h-386v57h426q20 0 28 -21.5t-4 -42.5l-406 -593h419v-57h-463z" />
    <glyph glyph-name="zdotaccent" unicode="&#x17c;" horiz-adv-x="461" 
d="M230 583q-21 0 -33 13t-12 34t12 33.5t33 12.5t33.5 -12.5t12.5 -33.5t-12.5 -34t-33.5 -13zM59 0q-22 0 -28 21.5t6 34.5l315 395h-302v49h341q22 0 28 -21t-8 -36l-313 -394h324v-49h-363z" />
    <glyph glyph-name="Zcaron" unicode="&#x17d;" horiz-adv-x="555" 
d="M169 925l119 -109l120 109l31 -31l-121 -112q-15 -15 -30 -15q-16 0 -30 15l-121 112zM53 0q-18 0 -24.5 21.5t4.5 39.5l406 596h-386v57h426q20 0 28 -21.5t-4 -42.5l-406 -593h419v-57h-463z" />
    <glyph glyph-name="zcaron" unicode="&#x17e;" horiz-adv-x="461" 
d="M111 725l119 -109l120 109l31 -31l-121 -112q-15 -15 -30 -15q-16 0 -30 15l-121 112zM59 0q-22 0 -28 21.5t6 34.5l315 395h-302v49h341q22 0 28 -21t-8 -36l-313 -394h324v-49h-363z" />
    <glyph glyph-name="Scommaaccent" unicode="&#x218;" horiz-adv-x="557" 
d="M300 392q5 -2 15 -5q39 -13 59.5 -20.5t52.5 -24.5t48.5 -35t29.5 -47.5t13 -66.5q0 -96 -71.5 -150t-175.5 -54q-74 0 -137.5 30t-99.5 83l41 37q73 -95 198 -95q81 0 132.5 40.5t51.5 106.5q0 14 -3 27t-6.5 22.5t-12.5 19.5t-15 16t-20.5 14l-21.5 12t-25.5 11
t-26 9.5l-30 10t-29.5 9.5q-49 16 -78.5 29t-62 35.5t-48 55t-15.5 75.5q0 92 65.5 141t165.5 49q112 0 200 -67l-32 -45q-79 59 -169 59q-76 0 -123.5 -34.5t-47.5 -99.5q0 -26 10.5 -47.5t23 -34.5t41 -26.5t46 -20t57.5 -19.5zM271 -66q23 0 37 -17.5t14 -45.5
q0 -31 -18 -64.5t-49 -58.5l-24 28q41 36 51 70q-8 -3 -16 -3q-19 0 -31 13t-12 32t14 32.5t34 13.5z" />
    <glyph glyph-name="scommaaccent" unicode="&#x219;" horiz-adv-x="454" 
d="M239 281q38 -11 57 -17t46.5 -18.5t40.5 -26t23 -35t10 -48.5q0 -70 -57 -108.5t-138 -38.5q-124 0 -193 79l31 37q66 -67 163 -67q59 0 98.5 25t39.5 71q0 17 -7 30.5t-15.5 21.5t-30 17t-34 13t-44.5 13q-9 3 -14 4q-38 11 -60.5 20.5t-48 25.5t-37.5 39.5t-12 54.5
q0 68 52 104t129 36q97 0 167 -54l-28 -40q-62 46 -139 46q-57 0 -91.5 -24t-34.5 -65q0 -37 30.5 -56.5t96.5 -38.5zM220 -66q23 0 37 -17.5t14 -45.5q0 -31 -18 -64.5t-49 -58.5l-24 28q41 36 51 70q-8 -3 -16 -3q-19 0 -31 13t-12 32t14 32.5t34 13.5z" />
    <glyph glyph-name="uni021A" unicode="&#x21a;" horiz-adv-x="558" 
d="M21 714h516v-56h-228v-658h-60v658h-228v56zM280 -66q24 0 37.5 -17.5t13.5 -45.5q0 -31 -18 -64.5t-49 -58.5l-24 28q41 36 51 70q-8 -3 -16 -3q-19 0 -31 13t-12 32t14 32.5t34 13.5z" />
    <glyph glyph-name="uni021B" unicode="&#x21b;" horiz-adv-x="373" 
d="M372 34q-61 -44 -133 -44q-77 0 -114 46t-37 126v290h-83v48h83v155h57v-155h201v-48h-201v-292q0 -59 27 -87t73 -28q52 0 103 34zM206 -61q23 0 37 -17.5t14 -45.5q0 -31 -18 -64.5t-49 -58.5l-24 28q41 36 51 70q-7 -3 -16 -3q-19 0 -31 13t-12 32t14 32.5t34 13.5z
" />
    <glyph glyph-name="uni0237" unicode="&#x237;" horiz-adv-x="223" 
d="M6 -195q-33 0 -67 13l13 49q29 -9 50 -9q38 0 59 23.5t21 67.5v551h58v-552q0 -69 -36 -106t-98 -37z" />
    <glyph glyph-name="circumflex" unicode="&#x2c6;" horiz-adv-x="535" 
d="M148 569l-32 31l121 112q14 15 30 15q15 0 30 -15l121 -112l-31 -31l-120 109z" />
    <glyph glyph-name="caron" unicode="&#x2c7;" horiz-adv-x="510" 
d="M136 725l119 -109l120 109l31 -31l-121 -112q-15 -15 -30 -15q-16 0 -30 15l-121 112z" />
    <glyph glyph-name="breve" unicode="&#x2d8;" horiz-adv-x="400" 
d="M200 561q-72 0 -108.5 46t-39.5 107h49q1 -47 26.5 -80.5t72.5 -33.5t72 33.5t26 80.5h50q-3 -61 -39.5 -107t-108.5 -46z" />
    <glyph glyph-name="dotaccent" unicode="&#x2d9;" horiz-adv-x="285" 
d="M142 578q-21 0 -33 13t-12 34t12 33.5t33 12.5t33.5 -12.5t12.5 -33.5t-12.5 -34t-33.5 -13z" />
    <glyph glyph-name="ring" unicode="&#x2da;" horiz-adv-x="356" 
d="M179 555q-41 0 -68.5 27t-27.5 67q0 39 28 66t68 27t67.5 -27t27.5 -66q0 -40 -27.5 -67t-67.5 -27zM179 590q25 0 41.5 17t16.5 42q0 24 -16.5 41t-41.5 17t-42.5 -17t-17.5 -41q0 -25 17.5 -42t42.5 -17z" />
    <glyph glyph-name="ogonek" unicode="&#x2db;" horiz-adv-x="368" 
d="M190 -226q-43 0 -70.5 28t-27.5 72q0 43 29.5 81.5t83.5 64.5l39 -18q-50 -17 -76.5 -50.5t-26.5 -68.5q0 -27 15 -43.5t40 -16.5q28 0 55 23l25 -33q-31 -39 -86 -39z" />
    <glyph glyph-name="tilde" unicode="&#x2dc;" horiz-adv-x="481" 
d="M311 576q-34 0 -75.5 33t-62.5 33q-44 0 -59 -62l-43 13q11 48 38.5 71t62.5 23q34 0 74 -33t63 -33q42 0 58 63l44 -11q-9 -47 -38 -72t-62 -25z" />
    <glyph glyph-name="hungarumlaut" unicode="&#x2dd;" horiz-adv-x="427" 
d="M80 573l96 184l47 -26l-110 -178zM197 573l101 184l48 -26l-116 -178z" />
    <glyph glyph-name="uni0394" unicode="&#x394;" horiz-adv-x="754" 
d="M34 0v50l290 629q19 43 54 43q33 0 52 -43l290 -629v-50h-686zM101 57h552l-276 608z" />
    <glyph glyph-name="uni03A9" unicode="&#x3a9;" horiz-adv-x="740" 
d="M705 360q0 -97 -46.5 -178.5t-122.5 -127.5h153v-54h-244v49q98 53 148 128t50 183q0 140 -76.5 225t-196.5 85t-196.5 -85t-76.5 -225q0 -199 198 -313v-47h-245v54h154q-76 45 -122.5 127t-46.5 179q0 162 93.5 264.5t241.5 102.5q147 0 241 -102.5t94 -264.5z" />
    <glyph glyph-name="uni03BC" unicode="&#x3bc;" horiz-adv-x="587" 
d="M483 129q0 -48 15.5 -67.5t57.5 -25.5l-9 -49q-100 6 -118 90q-76 -90 -174 -90q-74 0 -115 49v-222h-58v686h58v-347q0 -54 34.5 -84t87.5 -30q86 0 163 94v367h58v-371z" />
    <glyph glyph-name="pi" unicode="&#x3c0;" horiz-adv-x="529" 
d="M532 452h-87v-320q0 -42 11 -62.5t44 -40.5l-27 -49q-46 25 -65.5 54t-19.5 89v329h-245v-452h-57v452h-86v48h532v-48z" />
    <glyph glyph-name="Wgrave" unicode="&#x1e80;" horiz-adv-x="922" 
d="M557 791l-24 -31l-174 135l36 45zM834 714h64l-185 -694q-9 -31 -49 -31t-49 30l-154 502l-155 -501q-7 -31 -49 -31q-41 0 -48 30l-183 695h66l168 -658l174 559h55l175 -559z" />
    <glyph glyph-name="wgrave" unicode="&#x1e81;" horiz-adv-x="741" 
d="M469 584l-24 -31l-174 135l36 45zM659 500h62l-143 -476q-11 -30 -42 -30t-42 30l-123 415l-123 -415q-12 -30 -42 -30q-32 0 -44 30l-141 476h63l123 -439l132 439h64l133 -439z" />
    <glyph glyph-name="Wacute" unicode="&#x1e82;" horiz-adv-x="922" 
d="M578 894l-174 -135l-24 31l162 149zM834 714h64l-185 -694q-9 -31 -49 -31t-49 30l-154 502l-155 -501q-7 -31 -49 -31q-41 0 -48 30l-183 695h66l168 -658l174 559h55l175 -559z" />
    <glyph glyph-name="wacute" unicode="&#x1e83;" horiz-adv-x="741" 
d="M485 688l-174 -135l-24 31l162 149zM659 500h62l-143 -476q-11 -30 -42 -30t-42 30l-123 415l-123 -415q-12 -30 -42 -30q-32 0 -44 30l-141 476h63l123 -439l132 439h64l133 -439z" />
    <glyph glyph-name="Wdieresis" unicode="&#x1e84;" horiz-adv-x="922" 
d="M379 776q-20 0 -32 12.5t-12 32.5q0 21 12 33.5t32 12.5t32 -12.5t12 -33.5q0 -20 -12 -32.5t-32 -12.5zM552 776q-21 0 -33 12.5t-12 32.5q0 21 12 33.5t33 12.5q20 0 32 -12.5t12 -33.5q0 -20 -12 -32.5t-32 -12.5zM834 714h64l-185 -694q-9 -31 -49 -31t-49 30
l-154 502l-155 -501q-7 -31 -49 -31q-41 0 -48 30l-183 695h66l168 -658l174 559h55l175 -559z" />
    <glyph glyph-name="wdieresis" unicode="&#x1e85;" horiz-adv-x="741" 
d="M285 571q-20 0 -32 12.5t-12 32.5q0 21 12 33.5t32 12.5t32 -12.5t12 -33.5q0 -20 -12 -32.5t-32 -12.5zM458 571q-21 0 -33 12.5t-12 32.5q0 21 12 33.5t33 12.5q20 0 32 -12.5t12 -33.5q0 -20 -12 -32.5t-32 -12.5zM659 500h62l-143 -476q-11 -30 -42 -30t-42 30
l-123 415l-123 -415q-12 -30 -42 -30q-32 0 -44 30l-141 476h63l123 -439l132 439h64l133 -439z" />
    <glyph glyph-name="Ygrave" unicode="&#x1ef2;" horiz-adv-x="591" 
d="M366 798l-24 -31l-174 135l36 45zM574 714l-248 -428v-286h-60v286l-248 428h71l208 -367l208 367h69z" />
    <glyph glyph-name="ygrave" unicode="&#x1ef3;" horiz-adv-x="499" 
d="M355 584l-24 -31l-174 135l36 45zM424 500h63l-235 -581q-48 -119 -148 -119q-61 0 -99 40l26 38q34 -27 72 -27q66 0 102 92l21 53l-207 504h60l175 -437z" />
    <glyph glyph-name="uni2009" unicode="&#x2009;" horiz-adv-x="75" 
 />
    <glyph glyph-name="endash" unicode="&#x2013;" horiz-adv-x="650" 
d="M70 324h510v-48h-510v48z" />
    <glyph glyph-name="emdash" unicode="&#x2014;" horiz-adv-x="890" 
d="M70 324h750v-48h-750v48z" />
    <glyph glyph-name="quoteleft" unicode="&#x2018;" horiz-adv-x="198" 
d="M102 692q19 0 32 -13t13 -33t-14.5 -33.5t-36.5 -13.5q-24 0 -39.5 17.5t-15.5 46.5q0 38 25.5 75.5t69.5 61.5l18 -32q-56 -32 -69 -79q7 3 17 3z" />
    <glyph glyph-name="quoteright" unicode="&#x2019;" horiz-adv-x="195" 
d="M104 798q24 0 39.5 -17.5t15.5 -43.5q0 -41 -25 -78.5t-69 -60.5l-17 29q58 34 69 82q-7 -4 -18 -4q-20 0 -32.5 13.5t-12.5 32.5q0 20 14 33.5t36 13.5z" />
    <glyph glyph-name="quotesinglbase" unicode="&#x201a;" horiz-adv-x="214" 
d="M106 86q24 0 39.5 -18t15.5 -44q0 -40 -25 -77.5t-69 -60.5l-17 29q57 32 69 81q-10 -4 -18 -4q-20 0 -32.5 13.5t-12.5 32.5q0 20 14 34t36 14z" />
    <glyph glyph-name="quotedblleft" unicode="&#x201c;" horiz-adv-x="348" 
d="M154 768q-56 -32 -69 -79q7 3 17 3q19 0 32 -13t13 -33t-14.5 -33.5t-36.5 -13.5q-24 0 -39.5 17.5t-15.5 46.5q0 38 25.5 75.5t69.5 61.5zM253 692q19 0 31.5 -13t12.5 -33t-14 -33.5t-36 -13.5q-25 0 -40.5 17.5t-15.5 46.5q0 38 25.5 75.5t70.5 61.5l18 -32
q-59 -33 -70 -79q7 3 18 3z" />
    <glyph glyph-name="quotedblright" unicode="&#x201d;" horiz-adv-x="349" 
d="M104 798q24 0 39.5 -17.5t15.5 -43.5q0 -41 -25 -78.5t-69 -60.5l-17 29q58 34 69 82q-7 -4 -18 -4q-20 0 -32.5 13.5t-12.5 32.5q0 20 14 33.5t36 13.5zM258 798q24 0 39.5 -17.5t15.5 -43.5q0 -41 -25 -78.5t-70 -60.5l-17 29q59 33 70 82q-10 -4 -19 -4
q-19 0 -32 13.5t-13 32.5q0 20 14.5 33.5t36.5 13.5z" />
    <glyph glyph-name="quotedblbase" unicode="&#x201e;" horiz-adv-x="389" 
d="M106 87q24 0 39.5 -18t15.5 -44q0 -41 -25 -78t-69 -60l-17 29q57 32 69 81q-10 -4 -18 -4q-20 0 -32.5 13.5t-12.5 32.5q0 20 14 34t36 14zM259 87q24 0 39.5 -18t15.5 -44q0 -41 -25 -78t-69 -60l-17 29q57 32 69 81q-10 -4 -18 -4q-20 0 -32.5 13.5t-12.5 32.5
q0 20 14 34t36 14z" />
    <glyph glyph-name="dagger" unicode="&#x2020;" horiz-adv-x="548" 
d="M461 598v-48h-159v-664h-54v664h-161v48h161v253h54v-253h159z" />
    <glyph glyph-name="daggerdbl" unicode="&#x2021;" horiz-adv-x="551" 
d="M463 550h-159v-352h159v-48h-159v-264h-55v264h-160v48h160v352h-160v48h160v253h55v-253h159v-48z" />
    <glyph glyph-name="bullet" unicode="&#x2022;" horiz-adv-x="357" 
d="M178 271q-44 0 -72.5 29t-28.5 73t28.5 73t72.5 29t73 -29t29 -73t-29 -73t-73 -29z" />
    <glyph glyph-name="ellipsis" unicode="&#x2026;" horiz-adv-x="622" 
d="M100 -5q-21 0 -33.5 13t-12.5 35q0 21 12.5 34t33.5 13q22 0 34.5 -13t12.5 -34q0 -22 -12.5 -35t-34.5 -13zM302 -5q-21 0 -33.5 13t-12.5 35q0 21 12.5 34t33.5 13q22 0 34.5 -13t12.5 -34q0 -22 -12.5 -35t-34.5 -13zM504 -5q-21 0 -33.5 13t-12.5 35q0 21 12.5 34
t33.5 13q22 0 34.5 -13t12.5 -34q0 -22 -12.5 -35t-34.5 -13z" />
    <glyph glyph-name="perthousand" unicode="&#x2030;" horiz-adv-x="1234" 
d="M204 338q-76 0 -123.5 54t-46.5 140t48.5 140.5t122.5 54.5q74 0 120.5 -54.5t46.5 -140.5t-47 -140t-121 -54zM99 0l580 714h51l-572 -714h-59zM203 384q53 0 84.5 40t31.5 108t-31 108t-84 40t-84.5 -40t-32.5 -108q0 -68 31.5 -108t84.5 -40zM639 -13q-76 0 -123.5 54
t-46.5 140t48.5 140.5t122.5 54.5q74 0 120.5 -54.5t46.5 -140.5t-47 -140t-121 -54zM1033 -13q-76 0 -123.5 54t-46.5 140t48.5 140.5t122.5 54.5q74 0 120.5 -54.5t46.5 -140.5t-47 -140t-121 -54zM638 33q53 0 84.5 40t31.5 108t-31 108t-84 40t-84.5 -40t-32.5 -108
q0 -68 31.5 -108t84.5 -40zM1032 33q53 0 84.5 40t31.5 108t-31 108t-84 40t-84.5 -40t-32.5 -108q0 -68 31.5 -108t84.5 -40z" />
    <glyph glyph-name="guilsinglleft" unicode="&#x2039;" horiz-adv-x="303" 
d="M221 102l-179 178q-6 6 -6 16t6 16l179 178l33 -33l-161 -161l161 -161z" />
    <glyph glyph-name="guilsinglright" unicode="&#x203a;" horiz-adv-x="303" 
d="M82 102l-33 33l161 161l-161 161l33 33l179 -178q6 -6 6 -16t-6 -16z" />
    <glyph glyph-name="fraction" unicode="&#x2044;" horiz-adv-x="512" 
d="M487 714h48l-508 -714h-48z" />
    <glyph glyph-name="uni2070" unicode="&#x2070;" horiz-adv-x="370" 
d="M185 493q-71 0 -108 52.5t-37 142.5t37 143t108 53t108 -53t37 -143t-37 -142.5t-108 -52.5zM185 534q50 0 75 40.5t25 113.5t-25 114t-75 41t-75 -41t-25 -114t25 -113.5t75 -40.5z" />
    <glyph glyph-name="uni2074" unicode="&#x2074;" horiz-adv-x="326" 
d="M291 634v-39h-41v-96h-44v96h-159q-17 0 -23.5 14t3.5 28l175 237q9 8 23 8q25 0 25 -25v-223h41zM72 634h134v184z" />
    <glyph glyph-name="uni2075" unicode="&#x2075;" horiz-adv-x="318" 
d="M163 728q55 0 88.5 -32t33.5 -84q0 -56 -37.5 -88t-91.5 -32q-81 0 -121 64l33 24q35 -46 87 -46q38 0 61.5 21.5t23.5 56.5q0 34 -23 55t-59 21q-38 0 -75 -27l-31 20v171q0 25 28 25h182v-40h-167l-1 -127q32 18 69 18z" />
    <glyph glyph-name="uni2076" unicode="&#x2076;" horiz-adv-x="334" 
d="M179 732q52 0 86.5 -33t34.5 -83q0 -51 -34.5 -87.5t-91.5 -36.5q-67 0 -101 50t-34 127q0 89 41 152t116 63q57 0 93 -40l-29 -29q-26 27 -65 27q-49 0 -77 -41t-34 -104q41 35 95 35zM174 533q37 0 59.5 24t22.5 58q0 35 -22.5 55.5t-58.5 20.5q-51 0 -91 -42
q3 -52 25.5 -84t64.5 -32z" />
    <glyph glyph-name="uni2077" unicode="&#x2077;" horiz-adv-x="282" 
d="M227 877q20 0 27.5 -13t0.5 -32l-141 -333h-50l147 337h-184v41h200z" />
    <glyph glyph-name="uni2078" unicode="&#x2078;" horiz-adv-x="350" 
d="M232 698q37 -11 58.5 -37t21.5 -60q0 -45 -36.5 -77t-100.5 -32t-101 32t-37 77q0 34 22.5 59.5t58.5 37.5q-65 26 -65 85q0 41 33 71t89 30t89 -30t33 -71q0 -58 -65 -85zM97 781q0 -28 23 -46t55 -18t55 17.5t23 46.5q0 27 -22 45t-56 18q-33 0 -55.5 -18t-22.5 -45z
M175 533q41 0 66.5 19.5t25.5 51.5q0 33 -27 52t-65 19q-40 0 -66 -20t-26 -51t25.5 -51t66.5 -20z" />
    <glyph glyph-name="uni2079" unicode="&#x2079;" horiz-adv-x="332" 
d="M162 884q66 0 98 -48.5t32 -129.5q0 -92 -38.5 -153t-112.5 -61q-59 0 -96 42l29 28q31 -29 68 -29q48 0 73.5 39t30.5 102q-42 -31 -91 -31q-52 0 -86 33t-34 84q0 50 34.5 87t92.5 37zM78 761q0 -35 22 -56t61 -21q45 0 86 35q-5 124 -86 124q-38 0 -60.5 -23.5
t-22.5 -58.5z" />
    <glyph glyph-name="uni2080" unicode="&#x2080;" horiz-adv-x="370" 
d="M185 -169q-71 0 -108 52.5t-37 142.5t37 143t108 53t108 -53t37 -143t-37 -142.5t-108 -52.5zM185 -128q50 0 75 40.5t25 113.5t-25 114t-75 41t-75 -41t-25 -114t25 -113.5t75 -40.5z" />
    <glyph glyph-name="uni2081" unicode="&#x2081;" horiz-adv-x="283" 
d="M178 -123h83v-40h-212v40h84v285l-85 -60l-24 31l118 86h15q21 0 21 -22v-320z" />
    <glyph glyph-name="uni2082" unicode="&#x2082;" horiz-adv-x="317" 
d="M110 -54q-22 -28 -23 -68h188v-41h-236q-3 85 38 136q20 25 69 60t50 36q34 26 34 53q0 25 -19.5 42.5t-49.5 17.5q-27 0 -51 -16t-38 -42l-36 20q17 35 50 57t76 22q51 0 82.5 -29t31.5 -72q0 -44 -45 -80q-9 -8 -55.5 -40t-65.5 -56z" />
    <glyph glyph-name="uni2083" unicode="&#x2083;" horiz-adv-x="328" 
d="M221 34q31 -10 49 -35.5t18 -57.5q0 -51 -39 -80.5t-93 -29.5q-91 0 -127 69l34 24q29 -51 93 -51q37 0 62 19t25 52q0 29 -22 47.5t-57 18.5h-59v40h53q35 0 56.5 19.5t21.5 46.5q0 29 -20.5 47.5t-54.5 18.5q-57 0 -90 -51l-33 22q42 70 125 70q54 0 86 -30.5t32 -73.5
q0 -57 -60 -85z" />
    <glyph glyph-name="uni2084" unicode="&#x2084;" horiz-adv-x="326" 
d="M291 -28v-39h-41v-96h-44v96h-159q-17 0 -23.5 14t3.5 28l175 237q9 8 23 8q25 0 25 -25v-223h41zM72 -28h134v184z" />
    <glyph glyph-name="uni2085" unicode="&#x2085;" horiz-adv-x="318" 
d="M163 66q55 0 88.5 -32t33.5 -84q0 -56 -37.5 -88t-91.5 -32q-81 0 -121 64l33 24q35 -46 87 -46q38 0 61.5 21.5t23.5 56.5q0 34 -23 55t-59 21q-38 0 -75 -27l-31 20v171q0 25 28 25h182v-40h-167l-1 -127q32 18 69 18z" />
    <glyph glyph-name="uni2086" unicode="&#x2086;" horiz-adv-x="334" 
d="M179 70q52 0 86.5 -33t34.5 -83q0 -51 -34.5 -87.5t-91.5 -36.5q-67 0 -101 50t-34 127q0 89 41 152t116 63q57 0 93 -40l-29 -29q-26 27 -65 27q-49 0 -77 -41t-34 -104q41 35 95 35zM174 -129q37 0 59.5 24t22.5 58q0 35 -22.5 55.5t-58.5 20.5q-51 0 -91 -42
q3 -52 25.5 -84t64.5 -32z" />
    <glyph glyph-name="uni2087" unicode="&#x2087;" horiz-adv-x="282" 
d="M227 215q20 0 27.5 -13t0.5 -32l-141 -333h-50l147 337h-184v41h200z" />
    <glyph glyph-name="uni2088" unicode="&#x2088;" horiz-adv-x="350" 
d="M232 36q37 -11 58.5 -37t21.5 -60q0 -45 -36.5 -77t-100.5 -32t-101 32t-37 77q0 34 22.5 59.5t58.5 37.5q-65 26 -65 85q0 41 33 71t89 30t89 -30t33 -71q0 -58 -65 -85zM97 119q0 -28 23 -46t55 -18t55 17.5t23 46.5q0 27 -22 45t-56 18q-33 0 -55.5 -18t-22.5 -45z
M175 -129q41 0 66.5 19.5t25.5 51.5q0 33 -27 52t-65 19q-40 0 -66 -20t-26 -51t25.5 -51t66.5 -20z" />
    <glyph glyph-name="uni2089" unicode="&#x2089;" horiz-adv-x="332" 
d="M162 222q66 0 98 -48.5t32 -129.5q0 -92 -38.5 -153t-112.5 -61q-59 0 -96 42l29 28q31 -29 68 -29q48 0 73.5 39t30.5 102q-42 -31 -91 -31q-52 0 -86 33t-34 84q0 50 34.5 87t92.5 37zM78 99q0 -35 22 -56t61 -21q45 0 86 35q-5 124 -86 124q-38 0 -60.5 -23.5
t-22.5 -58.5z" />
    <glyph glyph-name="Euro" unicode="&#x20ac;" horiz-adv-x="621" 
d="M569 105l29 -44q-90 -74 -210 -74q-124 0 -206.5 75.5t-106.5 199.5h-63v49h56q-2 30 -2 46q0 23 1 34h-55v49h61q22 129 105 208t210 79q121 0 204 -73l-31 -42q-75 62 -172 62q-103 0 -170.5 -64.5t-87.5 -169.5h324v-49h-331q-1 -11 -1 -34q0 -16 2 -46h330v-49h-322
q22 -101 89 -161.5t168 -60.5q94 0 179 65z" />
    <glyph glyph-name="trademark" unicode="&#x2122;" horiz-adv-x="660" 
d="M32 679v35h236v-35h-101v-251h-34v251h-101zM551 714h34v-286h-34v219l-85 -148q-7 -12 -21 -12q-13 0 -21 12l-86 148v-219h-34v286h34l107 -184z" />
    <glyph glyph-name="estimated" unicode="&#x212e;" horiz-adv-x="924" 
d="M470 -16q-178 0 -300 105.5t-122 262.5q0 158 122 264t300 106q175 0 298.5 -104.5t123.5 -270.5v-25h-666v-223q104 -71 244 -71q190 0 315 139l32 -30q-58 -71 -149 -112t-198 -41zM226 370h488v238q-105 71 -244 71q-140 0 -244 -72v-237z" />
    <glyph glyph-name="partialdiff" unicode="&#x2202;" horiz-adv-x="555" 
d="M178 736q325 -85 325 -428q0 -141 -62.5 -231t-177.5 -90q-97 0 -153.5 65.5t-56.5 167.5q0 111 66.5 182t164.5 71q94 0 155 -58q-40 214 -279 273zM261 39q90 0 138 76t48 208v20q-27 38 -69.5 58t-88.5 20q-77 0 -128 -55t-51 -147q0 -81 40 -130.5t111 -49.5z" />
    <glyph glyph-name="product" unicode="&#x220f;" horiz-adv-x="754" 
d="M712 702v-58h-105v-725h-60v725h-340v-725h-60v725h-105v58h670z" />
    <glyph glyph-name="summation" unicode="&#x2211;" horiz-adv-x="550" 
d="M68 -88v65l212 336l-218 342v26q0 14 9.5 23.5t24.5 9.5h395v-54h-369l208 -325q15 -21 0 -42l-206 -327h367v-54h-423z" />
    <glyph glyph-name="minus" unicode="&#x2212;" horiz-adv-x="458" 
d="M42 324h374v-48h-374v48z" />
    <glyph glyph-name="radical" unicode="&#x221a;" horiz-adv-x="709" 
d="M665 714h60l-405 -805q-9 -19 -33 -19q-25 0 -33 18l-169 324h-80v54h102q14 0 20 -12l160 -308z" />
    <glyph glyph-name="infinity" unicode="&#x221e;" horiz-adv-x="799" 
d="M597 450q67 0 113.5 -40t46.5 -106t-47 -106.5t-112 -40.5q-105 0 -198 115q-50 -57 -95.5 -86t-101.5 -29q-66 0 -113.5 40.5t-47.5 106.5t47.5 106t114.5 40q106 0 197 -110q91 110 196 110zM202 202q47 0 87 26.5t84 76.5q-86 100 -170 100q-48 0 -81 -28.5t-33 -74.5
q0 -45 31.5 -72.5t81.5 -27.5zM596 202q48 0 81 28t33 74q0 45 -32 73t-82 28q-83 0 -168 -99q85 -104 168 -104z" />
    <glyph glyph-name="integral" unicode="&#x222b;" horiz-adv-x="400" 
d="M112 -187q-51 0 -88 27l25 46q29 -19 60 -19q49 0 81.5 35.5t33.5 95.5q1 67 -58.5 293t-59.5 303q0 87 48 139.5t114 52.5q61 0 103 -39l-34 -39q-30 24 -66 24q-46 0 -76 -37.5t-30 -98.5q0 -70 59 -295t59 -299q0 -87 -50.5 -138t-120.5 -51z" />
    <glyph glyph-name="approxequal" unicode="&#x2248;" horiz-adv-x="571" 
d="M382 333q-35 0 -69 24l-65.5 48t-58.5 24q-30 0 -52 -24t-28 -61l-40 11q8 58 43.5 90t78.5 32q35 0 69 -24.5l65 -48.5t59 -24q32 0 52 23.5t25 64.5l41 -8q-6 -62 -41 -94.5t-79 -32.5zM382 153q-35 0 -69 24l-65.5 48t-58.5 24q-30 0 -52 -24t-28 -61l-40 11
q8 58 43.5 90t78.5 32q35 0 69 -24.5l65 -48.5t59 -24q32 0 52 23.5t25 64.5l41 -8q-6 -62 -41 -94.5t-79 -32.5z" />
    <glyph glyph-name="notequal" unicode="&#x2260;" horiz-adv-x="512" 
d="M443 376h-123l-81 -152h204v-48h-229l-51 -95l-36 19l40 76h-98v48h124l80 152h-204v48h230l47 89l37 -19l-37 -70h97v-48z" />
    <glyph glyph-name="lessequal" unicode="&#x2264;" horiz-adv-x="454" 
d="M371 131l-325 188q-16 10 -15.5 26.5t15.5 25.5l325 188l22 -47l-289 -167l289 -167zM391 0h-358v49h358v-49z" />
    <glyph glyph-name="greaterequal" unicode="&#x2265;" horiz-adv-x="452" 
d="M82 131l-22 47l289 167l-289 167l22 47l325 -188q15 -9 15.5 -25.5t-15.5 -26.5zM62 0v49h358v-49h-358z" />
    <glyph glyph-name="lozenge" unicode="&#x25ca;" horiz-adv-x="583" 
d="M291 -110l-256 430l257 431l256 -431zM291 -11l197 331l-197 332l-196 -332z" />
    <glyph glyph-name="Jacute" horiz-adv-x="502" 
d="M302 790l162 149l36 -45l-174 -135zM212 -11q-127 0 -181 105l44 32q51 -81 136 -81q69 0 106 45.5t37 126.5v497h60v-509q0 -99 -54 -157.5t-148 -58.5z" />
    <glyph glyph-name="Cacute.loclPLK" horiz-adv-x="697" 
d="M363 766l80 173h58l-88 -173h-50zM381 -11q-139 0 -234.5 94.5t-95.5 271.5q0 171 92.5 271.5t245.5 100.5q88 0 160 -40t112 -114l-49 -30q-35 63 -94.5 96t-129.5 33q-126 0 -200.5 -83.5t-74.5 -231.5q0 -146 76.5 -228.5t193.5 -82.5q77 0 142 34.5t107 86.5l40 -38
q-52 -65 -129.5 -102.5t-161.5 -37.5z" />
    <glyph glyph-name="Nacute.loclPLK" horiz-adv-x="742" 
d="M487 937l-88 -173h-50l80 173h58zM591 714h57v-695q0 -11 -9.5 -18t-22.5 -7q-26 0 -42 22l-424 604v-620h-57v692q0 12 9.5 19.5t24.5 7.5q18 0 27 -6t19 -21l418 -591v613z" />
    <glyph glyph-name="Oacute.loclPLK" horiz-adv-x="767" 
d="M358 764l80 173h58l-88 -173h-50zM385 -11q-150 0 -242.5 101t-92.5 267t92.5 268t242.5 102q149 0 240.5 -102t91.5 -268q0 -165 -91.5 -266.5t-240.5 -101.5zM385 46q120 0 195 84t75 227q0 144 -75 228.5t-195 84.5q-122 0 -197.5 -84.5t-75.5 -228.5
q0 -143 75.5 -227t197.5 -84z" />
    <glyph glyph-name="Sacute.loclPLK" horiz-adv-x="557" 
d="M255 764l80 173h58l-88 -173h-50zM271 -11q-74 0 -137.5 30t-99.5 83l41 37q73 -95 198 -95q81 0 132.5 40.5t51.5 106.5q0 14 -3 27t-6.5 22.5t-12.5 19.5t-15 16t-20.5 14l-21.5 12t-25.5 11t-26 9.5l-30 10t-29.5 9.5q-49 16 -78.5 29t-62 35.5t-48 55t-15.5 75.5
q0 92 65.5 141t165.5 49q112 0 200 -67l-32 -45q-79 59 -169 59q-76 0 -123.5 -34.5t-47.5 -99.5q0 -26 10.5 -47.5t23 -34.5t41 -26.5t46 -20t57.5 -19.5q5 -2 15 -5q39 -13 59.5 -20.5t52.5 -24.5t48.5 -35t29.5 -47.5t13 -66.5q0 -96 -71.5 -150t-175.5 -54z" />
    <glyph glyph-name="Zacute.loclPLK" horiz-adv-x="555" 
d="M262 764l80 173h58l-88 -173h-50zM53 0q-18 0 -24.5 21.5t4.5 39.5l406 596h-386v57h426q20 0 28 -21.5t-4 -42.5l-406 -593h419v-57h-463z" />
    <glyph glyph-name="i.loclTRK" horiz-adv-x="223" 
d="M112 583q-21 0 -33 13t-12 34t12 33.5t33 12.5t33.5 -12.5t12.5 -33.5t-12.5 -34t-33.5 -13zM82 0v500h58v-500h-58z" />
    <glyph glyph-name="jacute" horiz-adv-x="230" 
d="M35 584l162 149l36 -45l-174 -135zM14 -195q-33 0 -67 13l13 49q29 -9 50 -9q38 0 59 23.5t21 67.5v551h58v-552q0 -69 -36 -106t-98 -37z" />
    <glyph glyph-name="cacute.loclPLK" horiz-adv-x="523" 
d="M249 557l74 173h58l-82 -173h-50zM283 -13q-108 0 -173.5 73t-65.5 190q0 118 65 190.5t177 72.5q145 0 202 -112l-47 -28q-47 89 -155 89q-82 0 -132.5 -56t-50.5 -156t50 -155.5t130 -55.5q105 0 167 98l44 -29q-26 -49 -79.5 -85t-131.5 -36z" />
    <glyph glyph-name="nacute.loclPLK" horiz-adv-x="569" 
d="M384 730l-82 -173h-50l74 173h58zM345 513q75 0 114 -40.5t39 -115.5v-357h-58v346q0 60 -25 87t-76 27q-98 0 -206 -94v-366h-58v500h57v-82q107 95 213 95z" />
    <glyph glyph-name="oacute.loclPLK" horiz-adv-x="561" 
d="M246 557l74 173h58l-82 -173h-50zM280 -13q-107 0 -172 72.5t-64 190.5q1 119 66 191t171 72q107 0 171.5 -72t64.5 -191t-64.5 -191t-172.5 -72zM280 39q85 0 132 55.5t47 155.5q0 99 -47 155t-131 56t-131.5 -55.5t-47.5 -155.5q-1 -99 46.5 -155t131.5 -56z" />
    <glyph glyph-name="sacute.loclPLK" horiz-adv-x="454" 
d="M205 557l74 173h58l-82 -173h-50zM221 -11q-124 0 -193 79l31 37q66 -67 163 -67q59 0 98.5 25t39.5 71q0 17 -7 30.5t-15.5 21.5t-30 17t-34 13t-44.5 13q-9 3 -14 4q-38 11 -60.5 20.5t-48 25.5t-37.5 39.5t-12 54.5q0 68 52 104t129 36q97 0 167 -54l-28 -40
q-62 46 -139 46q-57 0 -91.5 -24t-34.5 -65q0 -37 30.5 -56.5t96.5 -38.5q38 -11 57 -17t46.5 -18.5t40.5 -26t23 -35t10 -48.5q0 -70 -57 -108.5t-138 -38.5z" />
    <glyph glyph-name="zacute.loclPLK" horiz-adv-x="461" 
d="M195 557l74 173h58l-82 -173h-50zM59 0q-22 0 -28 21.5t6 34.5l315 395h-302v49h341q22 0 28 -21t-8 -36l-313 -394h324v-49h-363z" />
    <glyph glyph-name="a.ss01" horiz-adv-x="584" 
d="M454 500h55v-500h-56v88q-59 -101 -178 -101q-104 0 -168 72.5t-63 191.5q1 118 65 190t167 72q119 0 178 -96v83zM280 39q83 0 129 56.5t46 157.5q0 99 -45.5 153.5t-128.5 54.5q-85 0 -132 -56t-47 -155q-1 -99 46 -155t132 -56z" />
    <glyph glyph-name="aacute.ss01" horiz-adv-x="584" 
d="M402 688l-174 -135l-24 31l162 149zM454 500h55v-500h-56v88q-59 -101 -178 -101q-104 0 -168 72.5t-63 191.5q1 118 65 190t167 72q119 0 178 -96v83zM280 39q83 0 129 56.5t46 157.5q0 99 -45.5 153.5t-128.5 54.5q-85 0 -132 -56t-47 -155q-1 -99 46 -155t132 -56z
" />
    <glyph glyph-name="abreve.ss01" horiz-adv-x="584" 
d="M289 561q-72 0 -108.5 46t-39.5 107h49q1 -47 26.5 -80.5t72.5 -33.5t72 33.5t26 80.5h50q-3 -61 -39.5 -107t-108.5 -46zM454 500h55v-500h-56v88q-59 -101 -178 -101q-104 0 -168 72.5t-63 191.5q1 118 65 190t167 72q119 0 178 -96v83zM280 39q83 0 129 56.5t46 157.5
q0 99 -45.5 153.5t-128.5 54.5q-85 0 -132 -56t-47 -155q-1 -99 46 -155t132 -56z" />
    <glyph glyph-name="acircumflex.ss01" horiz-adv-x="584" 
d="M289 678l-119 -109l-32 31l121 112q14 15 30 15q15 0 30 -15l121 -112l-31 -31zM454 500h55v-500h-56v88q-59 -101 -178 -101q-104 0 -168 72.5t-63 191.5q1 118 65 190t167 72q119 0 178 -96v83zM280 39q83 0 129 56.5t46 157.5q0 99 -45.5 153.5t-128.5 54.5
q-85 0 -132 -56t-47 -155q-1 -99 46 -155t132 -56z" />
    <glyph glyph-name="adieresis.ss01" horiz-adv-x="584" 
d="M203 571q-20 0 -32 12.5t-12 32.5q0 21 12 33.5t32 12.5t32 -12.5t12 -33.5q0 -20 -12 -32.5t-32 -12.5zM376 571q-21 0 -33 12.5t-12 32.5q0 21 12 33.5t33 12.5q20 0 32 -12.5t12 -33.5q0 -20 -12 -32.5t-32 -12.5zM454 500h55v-500h-56v88q-59 -101 -178 -101
q-104 0 -168 72.5t-63 191.5q1 118 65 190t167 72q119 0 178 -96v83zM280 39q83 0 129 56.5t46 157.5q0 99 -45.5 153.5t-128.5 54.5q-85 0 -132 -56t-47 -155q-1 -99 46 -155t132 -56z" />
    <glyph glyph-name="agrave.ss01" horiz-adv-x="584" 
d="M386 584l-24 -31l-174 135l36 45zM454 500h55v-500h-56v88q-59 -101 -178 -101q-104 0 -168 72.5t-63 191.5q1 118 65 190t167 72q119 0 178 -96v83zM280 39q83 0 129 56.5t46 157.5q0 99 -45.5 153.5t-128.5 54.5q-85 0 -132 -56t-47 -155q-1 -99 46 -155t132 -56z" />
    <glyph glyph-name="amacron.ss01" horiz-adv-x="584" 
d="M427 644v-48h-276v48h276zM454 500h55v-500h-56v88q-59 -101 -178 -101q-104 0 -168 72.5t-63 191.5q1 118 65 190t167 72q119 0 178 -96v83zM280 39q83 0 129 56.5t46 157.5q0 99 -45.5 153.5t-128.5 54.5q-85 0 -132 -56t-47 -155q-1 -99 46 -155t132 -56z" />
    <glyph glyph-name="aogonek.ss01" horiz-adv-x="577" 
d="M521 -153l24 -34q-31 -37 -85 -37q-43 0 -70.5 28t-27.5 72q0 38 23.5 74.5t67.5 61.5v76q-59 -101 -178 -101q-104 0 -168 72.5t-63 191.5q1 118 65 190t167 72q119 0 178 -96v83h55v-500q-48 -15 -73 -47.5t-25 -67.5q0 -27 15 -43.5t40 -16.5q29 0 55 22zM280 39
q83 0 129 56.5t46 157.5q0 99 -45.5 153.5t-128.5 54.5q-85 0 -132 -56t-47 -155q-1 -99 46 -155t132 -56z" />
    <glyph glyph-name="aring.ss01" horiz-adv-x="584" 
d="M289 555q-41 0 -68.5 27t-27.5 67q0 39 28 66t68 27t67.5 -27t27.5 -66q0 -40 -27.5 -67t-67.5 -27zM289 707q-25 0 -42.5 -17t-17.5 -41q0 -25 17.5 -42t42.5 -17t41.5 17t16.5 42q0 24 -16.5 41t-41.5 17zM454 500h55v-500h-56v88q-59 -101 -178 -101q-104 0 -168 72.5
t-63 191.5q1 118 65 190t167 72q119 0 178 -96v83zM280 39q83 0 129 56.5t46 157.5q0 99 -45.5 153.5t-128.5 54.5q-85 0 -132 -56t-47 -155q-1 -99 46 -155t132 -56z" />
    <glyph glyph-name="atilde.ss01" horiz-adv-x="584" 
d="M221 642q-44 0 -59 -62l-43 13q11 48 38.5 71t62.5 23q34 0 74 -33t63 -33q42 0 58 63l44 -11q-9 -47 -38 -72t-62 -25q-34 0 -75.5 33t-62.5 33zM454 500h55v-500h-56v88q-59 -101 -178 -101q-104 0 -168 72.5t-63 191.5q1 118 65 190t167 72q119 0 178 -96v83zM280 39
q83 0 129 56.5t46 157.5q0 99 -45.5 153.5t-128.5 54.5q-85 0 -132 -56t-47 -155q-1 -99 46 -155t132 -56z" />
    <glyph glyph-name="f.ss01" horiz-adv-x="346" 
d="M258 673q-58 0 -92 -33.5t-34 -104.5v-36l207 1v-47l-207 -2v-451h-57v539q0 52 16 90t43 58t57.5 29.5t64.5 9.5q69 0 132 -33l-19 -46q-54 26 -111 26z" />
    <glyph glyph-name="g.ss01" horiz-adv-x="568" 
d="M441 500h51v-466q0 -116 -62.5 -175t-168.5 -59q-96 0 -178 49l20 47q76 -45 157 -45q177 0 177 190v2q-67 -56 -163 -56q-106 0 -168 71t-62 189q0 120 66 193t165 73t166 -81v68zM102 247q0 -100 47 -154t130 -54q93 0 158 58v269q-61 95 -160 95q-78 0 -126.5 -57
t-48.5 -157z" />
    <glyph glyph-name="gbreve.ss01" horiz-adv-x="568" 
d="M282 561q-72 0 -108.5 46t-39.5 107h49q1 -47 26.5 -80.5t72.5 -33.5t72 33.5t26 80.5h50q-3 -61 -39.5 -107t-108.5 -46zM441 500h51v-466q0 -116 -62.5 -175t-168.5 -59q-96 0 -178 49l20 47q76 -45 157 -45q177 0 177 190v2q-67 -56 -163 -56q-106 0 -168 71t-62 189
q0 120 66 193t165 73t166 -81v68zM102 247q0 -100 47 -154t130 -54q93 0 158 58v269q-61 95 -160 95q-78 0 -126.5 -57t-48.5 -157z" />
    <glyph glyph-name="gcircumflex.ss01" horiz-adv-x="568" 
d="M282 678l-119 -109l-32 31l121 112q14 15 30 15q15 0 30 -15l121 -112l-31 -31zM441 500h51v-466q0 -116 -62.5 -175t-168.5 -59q-96 0 -178 49l20 47q76 -45 157 -45q177 0 177 190v2q-67 -56 -163 -56q-106 0 -168 71t-62 189q0 120 66 193t165 73t166 -81v68zM102 247
q0 -100 47 -154t130 -54q93 0 158 58v269q-61 95 -160 95q-78 0 -126.5 -57t-48.5 -157z" />
    <glyph glyph-name="gcommaaccent.ss01" horiz-adv-x="568" 
d="M278 566q-23 0 -37 17.5t-14 45.5q0 31 18 64.5t49 58.5l24 -28q-41 -36 -51 -70q7 3 16 3q19 0 31 -13t12 -32t-14 -32.5t-34 -13.5zM441 500h51v-466q0 -116 -62.5 -175t-168.5 -59q-96 0 -178 49l20 47q76 -45 157 -45q177 0 177 190v2q-67 -56 -163 -56
q-106 0 -168 71t-62 189q0 120 66 193t165 73t166 -81v68zM102 247q0 -100 47 -154t130 -54q93 0 158 58v269q-61 95 -160 95q-78 0 -126.5 -57t-48.5 -157z" />
    <glyph glyph-name="gdotaccent.ss01" horiz-adv-x="568" 
d="M282 583q-21 0 -33 13t-12 34t12 33.5t33 12.5t33.5 -12.5t12.5 -33.5t-12.5 -34t-33.5 -13zM441 500h51v-466q0 -116 -62.5 -175t-168.5 -59q-96 0 -178 49l20 47q76 -45 157 -45q177 0 177 190v2q-67 -56 -163 -56q-106 0 -168 71t-62 189q0 120 66 193t165 73t166 -81
v68zM102 247q0 -100 47 -154t130 -54q93 0 158 58v269q-61 95 -160 95q-78 0 -126.5 -57t-48.5 -157z" />
    <glyph glyph-name="l.ss01" horiz-adv-x="332" 
d="M128 162q0 -59 27.5 -88t72.5 -29q38 0 80 21l20 -48q-47 -28 -104 -28q-78 0 -116 45t-38 124v555h58v-552z" />
    <glyph glyph-name="lacute.ss01" horiz-adv-x="327" 
d="M22 767l162 149l36 -45l-174 -135zM122 162q0 -59 27.5 -88t72.5 -29q38 0 80 21l20 -48q-47 -28 -104 -28q-78 0 -116 45t-38 124v555h58v-552z" />
    <glyph glyph-name="lcaron.ss01" horiz-adv-x="332" 
d="M201 557l46 188l52 -9l-59 -185zM128 162q0 -59 27.5 -88t72.5 -29q38 0 80 21l20 -48q-47 -28 -104 -28q-78 0 -116 45t-38 124v555h58v-552z" />
    <glyph glyph-name="lcommaaccent.ss01" horiz-adv-x="332" 
d="M328 18q-47 -28 -104 -28q-78 0 -116 45t-38 124v555h58v-552q0 -59 27.5 -88t72.5 -29q38 0 80 21zM191 -53q23 0 37 -17.5t14 -45.5q0 -31 -18 -64.5t-49 -58.5l-24 28q41 36 51 70q-8 -3 -16 -3q-19 0 -31 13t-12 32t14 32.5t34 13.5z" />
    <glyph glyph-name="ldot.ss01" horiz-adv-x="340" 
d="M128 162q0 -59 27.5 -88t72.5 -29q38 0 80 21l20 -48q-47 -28 -104 -28q-78 0 -116 45t-38 124v555h58v-552zM265 302q-21 0 -33.5 13t-12.5 35q0 21 12.5 34t33.5 13q22 0 34.5 -13t12.5 -34q0 -22 -12.5 -35t-34.5 -13z" />
    <glyph glyph-name="lslash.ss01" horiz-adv-x="374" 
d="M344 66l20 -48q-47 -28 -104 -28q-78 0 -116 45t-38 124v136l-62 -41l-24 39l86 55v366h58v-328l77 49l21 -38l-98 -64v-171q0 -59 27.5 -88t72.5 -29q38 0 80 21z" />
    <glyph glyph-name="y.ss01" horiz-adv-x="564" 
d="M433 500h56v-459q0 -122 -61 -181.5t-170 -59.5q-96 0 -176 45l20 46q75 -40 155 -40q176 0 176 184v24q-76 -71 -182 -71q-81 0 -131 46.5t-50 137.5v328h57v-321q0 -71 37 -105t97 -34q98 0 172 76v384z" />
    <glyph glyph-name="yacute.ss01" horiz-adv-x="564" 
d="M394 688l-174 -135l-24 31l162 149zM433 500h56v-459q0 -122 -61 -181.5t-170 -59.5q-96 0 -176 45l20 46q75 -40 155 -40q176 0 176 184v24q-76 -71 -182 -71q-81 0 -131 46.5t-50 137.5v328h57v-321q0 -71 37 -105t97 -34q98 0 172 76v384z" />
    <glyph glyph-name="ycircumflex.ss01" horiz-adv-x="564" 
d="M281 678l-119 -109l-32 31l121 112q14 15 30 15q15 0 30 -15l121 -112l-31 -31zM433 500h56v-459q0 -122 -61 -181.5t-170 -59.5q-96 0 -176 45l20 46q75 -40 155 -40q176 0 176 184v24q-76 -71 -182 -71q-81 0 -131 46.5t-50 137.5v328h57v-321q0 -71 37 -105t97 -34
q98 0 172 76v384z" />
    <glyph glyph-name="ydieresis.ss01" horiz-adv-x="564" 
d="M194 571q-20 0 -32 12.5t-12 32.5q0 21 12 33.5t32 12.5t32 -12.5t12 -33.5q0 -20 -12 -32.5t-32 -12.5zM367 571q-21 0 -33 12.5t-12 32.5q0 21 12 33.5t33 12.5q20 0 32 -12.5t12 -33.5q0 -20 -12 -32.5t-32 -12.5zM433 500h56v-459q0 -122 -61 -181.5t-170 -59.5
q-96 0 -176 45l20 46q75 -40 155 -40q176 0 176 184v24q-76 -71 -182 -71q-81 0 -131 46.5t-50 137.5v328h57v-321q0 -71 37 -105t97 -34q98 0 172 76v384z" />
    <glyph glyph-name="ygrave.ss01" horiz-adv-x="564" 
d="M378 584l-24 -31l-174 135l36 45zM433 500h56v-459q0 -122 -61 -181.5t-170 -59.5q-96 0 -176 45l20 46q75 -40 155 -40q176 0 176 184v24q-76 -71 -182 -71q-81 0 -131 46.5t-50 137.5v328h57v-321q0 -71 37 -105t97 -34q98 0 172 76v384z" />
    <glyph glyph-name="f_f_j" horiz-adv-x="906" 
d="M695 452h-207v-452h-57v452h-271v-452h-57v452h-82v48h82v41q0 51 17 89t44.5 58t56.5 29t59 9q75 0 130 -46l-29 -42q-45 35 -97 35q-54 0 -89 -33.5t-35 -102.5v-37h271v41q0 51 17 89t44.5 58t56.5 29t59 9q75 0 130 -46l-29 -42q-45 35 -97 35q-54 0 -89 -33.5
t-35 -102.5v-37h207v-48zM799 676q21 0 33.5 -12.5t12.5 -33.5t-12.5 -34t-33.5 -13t-33 13t-12 34t12 33.5t33 12.5zM769 -51v551h58v-552q0 -69 -36 -106t-98 -37q-33 0 -67 13l13 49q29 -9 50 -9q38 0 59 23.5t21 67.5z" />
    <glyph glyph-name="f_i" horiz-adv-x="601" 
d="M103 541q0 51 17 89t44.5 58t56.5 29t59 9q75 0 130 -46l-29 -42q-45 35 -97 35q-54 0 -89 -33.5t-35 -102.5v-37h207v-48h-207v-452h-57v452h-82v48h82v41zM494 676q21 0 33.5 -12.5t12.5 -33.5t-12.5 -34t-33.5 -13t-33 13t-12 34t12 33.5t33 12.5zM465 0v500h58v-500
h-58z" />
    <glyph glyph-name="f_j" horiz-adv-x="601" 
d="M367 452h-207v-452h-57v452h-82v48h82v41q0 51 17 89t44.5 58t56.5 29t59 9q75 0 130 -46l-29 -42q-45 35 -97 35q-54 0 -89 -33.5t-35 -102.5v-37h207v-48zM494 676q21 0 33.5 -12.5t12.5 -33.5t-12.5 -34t-33.5 -13t-33 13t-12 34t12 33.5t33 12.5zM464 -51v551h58
v-552q0 -69 -36 -106t-98 -37q-33 0 -67 13l13 49q29 -9 50 -9q38 0 59 23.5t21 67.5z" />
    <glyph glyph-name="f_l" horiz-adv-x="597" 
d="M103 541q0 51 17 89t44.5 58t56.5 29t59 9q75 0 130 -46l-29 -42q-45 35 -97 35q-54 0 -89 -33.5t-35 -102.5v-37h207v-48h-207v-452h-57v452h-82v48h82v41zM464 714h57v-714h-57v714z" />
    <glyph glyph-name="t_t" horiz-adv-x="778" 
d="M258 45q52 0 103 34l24 -45q-61 -44 -133 -44q-77 0 -114 46t-37 126v290h-83v48h83v155h57v-155h201v-48h-201v-292q0 -59 27 -87t73 -28zM748 79l24 -45q-61 -44 -133 -44q-77 0 -114 46t-37 126v290h-83v48h83v155h57v-155h201v-48h-201v-292q0 -59 27 -87t73 -28
q52 0 103 34z" />
    <glyph glyph-name="f_f_i.001" horiz-adv-x="897" 
d="M425 541q0 51 17 89t44.5 58t56.5 29t59 9q75 0 130 -46l-29 -42q-45 35 -97 35q-54 0 -89 -33.5t-35 -102.5v-37h207v-48h-207v-452h-57v452h-265v-452h-57v452h-82v48h82v41q0 51 17 89t44.5 58t56.5 29t59 9q75 0 130 -46l-29 -42q-45 35 -97 35q-54 0 -89 -33.5
t-35 -102.5v-37h265v41zM795 676q21 0 33.5 -12.5t12.5 -33.5t-12.5 -34t-33.5 -13t-33 13t-12 34t12 33.5t33 12.5zM766 0v500h58v-500h-58z" />
    <glyph glyph-name="zero.lf" horiz-adv-x="619" 
d="M310 -11q-126 0 -190.5 98.5t-64.5 269.5t65 270.5t190 99.5q124 0 189 -99.5t65 -270.5t-65 -269.5t-189 -98.5zM310 43q96 0 145.5 82.5t49.5 231.5q0 150 -49.5 233t-145.5 83q-97 0 -146.5 -83t-49.5 -233q0 -149 49.5 -231.5t146.5 -82.5z" />
    <glyph glyph-name="one.lf" horiz-adv-x="356" 
d="M236 726q13 0 20.5 -6.5t7.5 -16.5v-703h-58v650l-169 -120l-31 43l193 138q21 15 37 15z" />
    <glyph glyph-name="two.lf" horiz-adv-x="537" 
d="M114 56h370v-56h-432q0 88 12 136.5t49 94.5q29 37 75.5 74t98 72t72.5 54q61 50 61 111q0 57 -41.5 94t-106.5 37q-55 0 -102.5 -33t-70.5 -88l-52 28q30 66 88.5 106.5t138.5 40.5q97 0 151.5 -53t54.5 -130q0 -87 -80 -156q-21 -19 -115.5 -84.5t-129.5 -115.5
q-22 -30 -31 -58.5t-10 -73.5z" />
    <glyph glyph-name="three.lf" horiz-adv-x="564" 
d="M375 369q62 -19 98 -67.5t36 -111.5q0 -90 -69 -145.5t-172 -55.5q-94 0 -151 41t-83 97l50 29q53 -110 186 -110q78 0 129 42t51 107q0 63 -45.5 103t-117.5 40h-114v55h105q67 0 113.5 42.5t46.5 102.5q0 57 -43 95t-117 38q-118 0 -182 -106l-46 30q32 57 90 94.5
t141 37.5q102 0 159.5 -58.5t57.5 -133.5q0 -54 -33 -98.5t-90 -67.5z" />
    <glyph glyph-name="four.lf" horiz-adv-x="558" 
d="M515 234v-53h-78v-181h-58v181h-336q-12 0 -20.5 11t-8.5 26q0 16 9 29l348 460q9 13 34 13q12 0 22 -6t10 -18v-462h78zM80 234h299v400z" />
    <glyph glyph-name="five.lf" horiz-adv-x="540" 
d="M274 427q103 0 164.5 -60.5t61.5 -157.5q0 -103 -65.5 -162.5t-168.5 -59.5q-153 0 -220 124l46 31q62 -98 173 -98q80 0 128 45.5t48 120.5q0 73 -47.5 118t-125.5 45q-80 0 -153 -51l-41 18v331q0 43 43 43h339v-56h-326v-271q64 40 144 40z" />
    <glyph glyph-name="six.lf" horiz-adv-x="572" 
d="M303 437q101 0 163 -61.5t62 -158.5q0 -93 -61 -162t-168 -69q-124 0 -185 96t-61 244q0 80 18 151.5t53 127.5t90.5 89t125.5 33q105 0 168 -74l-41 -39q-52 55 -131 55q-99 0 -156 -84.5t-65 -216.5q84 69 188 69zM300 42q77 0 123 51t46 125q0 75 -45.5 119.5
t-126.5 44.5q-97 0 -183 -76q4 -120 50 -192t136 -72z" />
    <glyph glyph-name="seven.lf" horiz-adv-x="464" 
d="M412 714q23 0 31.5 -19t-2.5 -43l-285 -652h-68l295 658h-362v56h391z" />
    <glyph glyph-name="eight.lf" horiz-adv-x="595" 
d="M391 373q72 -22 113.5 -71t41.5 -115q0 -82 -68.5 -140.5t-179.5 -58.5t-180 58.5t-69 140.5q0 66 41.5 115t113.5 71q-62 24 -94.5 68t-32.5 99q0 77 61.5 131.5t159.5 54.5t159 -54.5t61 -131.5q0 -55 -32.5 -99t-94.5 -68zM136 537q0 -56 43.5 -96t118.5 -40
q74 0 117.5 40t43.5 96t-44.5 95.5t-116.5 39.5t-117 -39.5t-45 -95.5zM298 42q84 0 136.5 44t52.5 107t-53 106.5t-136 43.5t-136 -43.5t-53 -106.5t52 -107t137 -44z" />
    <glyph glyph-name="nine.lf" horiz-adv-x="565" 
d="M271 727q122 -1 180.5 -94t58.5 -241q0 -85 -14.5 -155.5t-45.5 -128t-85.5 -90t-129.5 -32.5q-89 0 -163 50l30 49q59 -41 132 -41q195 0 213 299q-90 -67 -185 -67q-98 0 -160 61.5t-62 157.5q0 94 62 163.5t169 68.5zM99 495q0 -74 45.5 -119t122.5 -45q87 0 181 74
q-2 122 -45 194t-133 72q-78 0 -124.5 -50.5t-46.5 -125.5z" />
    <glyph glyph-name="zero.num" horiz-adv-x="370" 
d="M185 333q-71 0 -108 52.5t-37 142.5t37 143t108 53t108 -53t37 -143t-37 -142.5t-108 -52.5zM185 374q50 0 75 40.5t25 113.5t-25 114t-75 41t-75 -41t-25 -114t25 -113.5t75 -40.5z" />
    <glyph glyph-name="one.num" horiz-adv-x="283" 
d="M178 379h83v-40h-212v40h84v285l-85 -60l-24 31l118 86h15q21 0 21 -22v-320z" />
    <glyph glyph-name="two.num" horiz-adv-x="317" 
d="M110 448q-22 -28 -23 -68h188v-41h-236q-3 85 38 136q20 25 69 60t50 36q34 26 34 53q0 25 -19.5 42.5t-49.5 17.5q-27 0 -51 -16t-38 -42l-36 20q17 35 50 57t76 22q51 0 82.5 -29t31.5 -72q0 -44 -45 -80q-9 -8 -55.5 -40t-65.5 -56z" />
    <glyph glyph-name="three.num" horiz-adv-x="328" 
d="M221 536q31 -10 49 -35.5t18 -57.5q0 -51 -39 -80.5t-93 -29.5q-91 0 -127 69l34 24q29 -51 93 -51q37 0 62 19t25 52q0 29 -22 47.5t-57 18.5h-59v40h53q35 0 56.5 19.5t21.5 46.5q0 29 -20.5 47.5t-54.5 18.5q-57 0 -90 -51l-33 22q42 70 125 70q54 0 86 -30.5
t32 -73.5q0 -57 -60 -85z" />
    <glyph glyph-name="four.num" horiz-adv-x="326" 
d="M291 474v-39h-41v-96h-44v96h-159q-17 0 -23.5 14t3.5 28l175 237q9 8 23 8q25 0 25 -25v-223h41zM72 474h134v184z" />
    <glyph glyph-name="five.num" horiz-adv-x="318" 
d="M163 568q55 0 88.5 -32t33.5 -84q0 -56 -37.5 -88t-91.5 -32q-81 0 -121 64l33 24q35 -46 87 -46q38 0 61.5 21.5t23.5 56.5q0 34 -23 55t-59 21q-38 0 -75 -27l-31 20v171q0 25 28 25h182v-40h-167l-1 -127q32 18 69 18z" />
    <glyph glyph-name="six.num" horiz-adv-x="334" 
d="M179 572q52 0 86.5 -33t34.5 -83q0 -51 -34.5 -87.5t-91.5 -36.5q-67 0 -101 50t-34 127q0 89 41 152t116 63q57 0 93 -40l-29 -29q-26 27 -65 27q-49 0 -77 -41t-34 -104q41 35 95 35zM174 373q37 0 59.5 24t22.5 58q0 35 -22.5 55.5t-58.5 20.5q-51 0 -91 -42
q3 -52 25.5 -84t64.5 -32z" />
    <glyph glyph-name="seven.num" horiz-adv-x="282" 
d="M227 717q20 0 27.5 -13t0.5 -32l-141 -333h-50l147 337h-184v41h200z" />
    <glyph glyph-name="eight.num" horiz-adv-x="350" 
d="M232 538q37 -11 58.5 -37t21.5 -60q0 -45 -36.5 -77t-100.5 -32t-101 32t-37 77q0 34 22.5 59.5t58.5 37.5q-65 26 -65 85q0 41 33 71t89 30t89 -30t33 -71q0 -58 -65 -85zM97 621q0 -28 23 -46t55 -18t55 17.5t23 46.5q0 27 -22 45t-56 18q-33 0 -55.5 -18t-22.5 -45z
M175 373q41 0 66.5 19.5t25.5 51.5q0 33 -27 52t-65 19q-40 0 -66 -20t-26 -51t25.5 -51t66.5 -20z" />
    <glyph glyph-name="nine.num" horiz-adv-x="332" 
d="M162 724q66 0 98 -48.5t32 -129.5q0 -92 -38.5 -153t-112.5 -61q-59 0 -96 42l29 28q31 -29 68 -29q48 0 73.5 39t30.5 102q-42 -31 -91 -31q-52 0 -86 33t-34 84q0 50 34.5 87t92.5 37zM78 601q0 -35 22 -56t61 -21q45 0 86 35q-5 124 -86 124q-38 0 -60.5 -23.5
t-22.5 -58.5z" />
    <glyph glyph-name="zero.slash" horiz-adv-x="619" 
d="M310 727q124 0 189 -99.5t65 -270.5t-65 -269.5t-189 -98.5q-126 0 -190.5 98.5t-64.5 269.5t65 270.5t190 99.5zM310 673q-97 0 -146.5 -83t-49.5 -233q0 -117 30 -192l306 433q-49 75 -140 75zM310 43q96 0 145.5 82.5t49.5 231.5q0 114 -29 192l-306 -434
q52 -72 140 -72z" />
    <glyph glyph-name="zero.tf" horiz-adv-x="660" 
d="M331 -11q-126 0 -190.5 98.5t-64.5 269.5t65 270.5t190 99.5q124 0 189 -99.5t65 -270.5t-65 -269.5t-189 -98.5zM331 43q96 0 145.5 82.5t49.5 231.5q0 150 -49.5 233t-145.5 83q-97 0 -146.5 -83t-49.5 -233q0 -149 49.5 -231.5t146.5 -82.5z" />
    <glyph glyph-name="one.tf" horiz-adv-x="649" 
d="M389 56h158v-56h-387v56h171v594l-169 -120l-31 43l194 138q21 15 36 15q28 0 28 -23v-647z" />
    <glyph glyph-name="two.tf" horiz-adv-x="658" 
d="M187 56h370v-56h-432q0 88 12 136.5t49 94.5q29 37 75.5 74t98 72t72.5 54q61 50 61 111q0 57 -41.5 94t-106.5 37q-55 0 -102.5 -33t-70.5 -88l-52 28q30 66 88.5 106.5t138.5 40.5q97 0 151.5 -53t54.5 -130q0 -87 -80 -156q-21 -19 -115.5 -84.5t-129.5 -115.5
q-22 -30 -31 -58.5t-10 -73.5z" />
    <glyph glyph-name="three.tf" horiz-adv-x="658" 
d="M432 369q62 -19 98 -67.5t36 -111.5q0 -90 -69 -145.5t-172 -55.5q-94 0 -151 41t-83 97l50 29q53 -110 186 -110q78 0 129 42t51 107q0 63 -45.5 103t-117.5 40h-114v55h105q67 0 113.5 42.5t46.5 102.5q0 57 -43 95t-117 38q-118 0 -182 -106l-46 30q32 57 90 94.5
t141 37.5q102 0 159.5 -58.5t57.5 -133.5q0 -54 -33 -98.5t-90 -67.5z" />
    <glyph glyph-name="four.tf" horiz-adv-x="654" 
d="M578 234v-53h-78v-181h-58v181h-336q-12 0 -20.5 11t-8.5 26q0 16 9 29l348 460q9 13 34 13q12 0 22 -6t10 -18v-462h78zM143 234h299v400z" />
    <glyph glyph-name="five.tf" horiz-adv-x="659" 
d="M336 427q103 0 164.5 -60.5t61.5 -157.5q0 -103 -65.5 -162.5t-168.5 -59.5q-153 0 -220 124l46 31q62 -98 173 -98q80 0 128 45.5t48 120.5q0 73 -47.5 118t-125.5 45q-80 0 -153 -51l-41 18v331q0 43 43 43h339v-56h-326v-271q64 40 144 40z" />
    <glyph glyph-name="six.tf" horiz-adv-x="656" 
d="M352 437q101 0 163 -61.5t62 -158.5q0 -93 -61 -162t-168 -69q-124 0 -185 96t-61 244q0 80 18 151.5t53 127.5t90.5 89t125.5 33q105 0 168 -74l-41 -39q-52 55 -131 55q-99 0 -156 -84.5t-65 -216.5q84 69 188 69zM349 42q77 0 123 51t46 125q0 75 -45.5 119.5
t-126.5 44.5q-97 0 -183 -76q4 -120 50 -192t136 -72z" />
    <glyph glyph-name="seven.tf" horiz-adv-x="648" 
d="M514 714q23 0 31.5 -19t-2.5 -43l-285 -652h-68l295 658h-362v56h391z" />
    <glyph glyph-name="eight.tf" horiz-adv-x="653" 
d="M423 373q72 -22 113.5 -71t41.5 -115q0 -82 -68.5 -140.5t-179.5 -58.5t-180 58.5t-69 140.5q0 66 41.5 115t113.5 71q-62 24 -94.5 68t-32.5 99q0 77 61.5 131.5t159.5 54.5t159 -54.5t61 -131.5q0 -55 -32.5 -99t-94.5 -68zM168 537q0 -56 43.5 -96t118.5 -40
q74 0 117.5 40t43.5 96t-44.5 95.5t-116.5 39.5t-117 -39.5t-45 -95.5zM330 42q84 0 136.5 44t52.5 107t-53 106.5t-136 43.5t-136 -43.5t-53 -106.5t52 -107t137 -44z" />
    <glyph glyph-name="nine.tf" horiz-adv-x="660" 
d="M330 727q122 -1 180.5 -94t58.5 -241q0 -85 -14.5 -155.5t-45.5 -128t-85.5 -90t-129.5 -32.5q-89 0 -163 50l30 49q59 -41 132 -41q195 0 213 299q-90 -67 -185 -67q-98 0 -160 61.5t-62 157.5q0 94 62 163.5t169 68.5zM158 495q0 -74 45.5 -119t122.5 -45q87 0 181 74
q-2 122 -45 194t-133 72q-78 0 -124.5 -50.5t-46.5 -125.5z" />
    <glyph glyph-name="zero.dnom" horiz-adv-x="370" 
d="M185 -8q-71 0 -108 52.5t-37 142.5t37 143t108 53t108 -53t37 -143t-37 -142.5t-108 -52.5zM185 33q50 0 75 40.5t25 113.5t-25 114t-75 41t-75 -41t-25 -114t25 -113.5t75 -40.5z" />
    <glyph glyph-name="one.dnom" horiz-adv-x="283" 
d="M178 37h83v-40h-212v40h84v285l-85 -60l-24 31l118 86h15q21 0 21 -22v-320z" />
    <glyph glyph-name="two.dnom" horiz-adv-x="317" 
d="M110 106q-22 -28 -23 -68h188v-41h-236q-3 85 38 136q20 25 69 60t50 36q34 26 34 53q0 25 -19.5 42.5t-49.5 17.5q-27 0 -51 -16t-38 -42l-36 20q17 35 50 57t76 22q51 0 82.5 -29t31.5 -72q0 -44 -45 -80q-9 -8 -55.5 -40t-65.5 -56z" />
    <glyph glyph-name="three.dnom" horiz-adv-x="328" 
d="M221 194q31 -10 49 -35.5t18 -57.5q0 -51 -39 -80.5t-93 -29.5q-91 0 -127 69l34 24q29 -51 93 -51q37 0 62 19t25 52q0 29 -22 47.5t-57 18.5h-59v40h53q35 0 56.5 19.5t21.5 46.5q0 29 -20.5 47.5t-54.5 18.5q-57 0 -90 -51l-33 22q42 70 125 70q54 0 86 -30.5
t32 -73.5q0 -57 -60 -85z" />
    <glyph glyph-name="four.dnom" horiz-adv-x="326" 
d="M291 132v-39h-41v-96h-44v96h-159q-17 0 -23.5 14t3.5 28l175 237q9 8 23 8q25 0 25 -25v-223h41zM72 132h134v184z" />
    <glyph glyph-name="five.dnom" horiz-adv-x="318" 
d="M163 226q55 0 88.5 -32t33.5 -84q0 -56 -37.5 -88t-91.5 -32q-81 0 -121 64l33 24q35 -46 87 -46q38 0 61.5 21.5t23.5 56.5q0 34 -23 55t-59 21q-38 0 -75 -27l-31 20v171q0 25 28 25h182v-40h-167l-1 -127q32 18 69 18z" />
    <glyph glyph-name="six.dnom" horiz-adv-x="334" 
d="M179 230q52 0 86.5 -33t34.5 -83q0 -51 -34.5 -87.5t-91.5 -36.5q-67 0 -101 50t-34 127q0 89 41 152t116 63q57 0 93 -40l-29 -29q-26 27 -65 27q-49 0 -77 -41t-34 -104q41 35 95 35zM174 31q37 0 59.5 24t22.5 58q0 35 -22.5 55.5t-58.5 20.5q-51 0 -91 -42
q3 -52 25.5 -84t64.5 -32z" />
    <glyph glyph-name="seven.dnom" horiz-adv-x="282" 
d="M227 375q20 0 27.5 -13t0.5 -32l-141 -333h-50l147 337h-184v41h200z" />
    <glyph glyph-name="eight.dnom" horiz-adv-x="350" 
d="M232 196q37 -11 58.5 -37t21.5 -60q0 -45 -36.5 -77t-100.5 -32t-101 32t-37 77q0 34 22.5 59.5t58.5 37.5q-65 26 -65 85q0 41 33 71t89 30t89 -30t33 -71q0 -58 -65 -85zM97 279q0 -28 23 -46t55 -18t55 17.5t23 46.5q0 27 -22 45t-56 18q-33 0 -55.5 -18t-22.5 -45z
M175 31q41 0 66.5 19.5t25.5 51.5q0 33 -27 52t-65 19q-40 0 -66 -20t-26 -51t25.5 -51t66.5 -20z" />
    <glyph glyph-name="nine.dnom" horiz-adv-x="332" 
d="M162 382q66 0 98 -48.5t32 -129.5q0 -92 -38.5 -153t-112.5 -61q-59 0 -96 42l29 28q31 -29 68 -29q48 0 73.5 39t30.5 102q-42 -31 -91 -31q-52 0 -86 33t-34 84q0 50 34.5 87t92.5 37zM78 259q0 -35 22 -56t61 -21q45 0 86 35q-5 124 -86 124q-38 0 -60.5 -23.5
t-22.5 -58.5z" />
    <glyph glyph-name="acutecomb.loclPLK" horiz-adv-x="0" 
d="M-200 557l74 173h58l-82 -173h-50z" />
    <glyph glyph-name="caron.alt" horiz-adv-x="266" 
d="M84 557l46 188l52 -9l-59 -185z" />
    <glyph glyph-name="acute.case" horiz-adv-x="296" 
d="M49 790l162 149l36 -45l-174 -135z" />
    <glyph glyph-name="breve.case" horiz-adv-x="400" 
d="M200 757q-72 0 -108.5 46t-39.5 107h49q1 -47 26.5 -80.5t72.5 -33.5t72 33.5t26 80.5h50q-3 -61 -39.5 -107t-108.5 -46z" />
    <glyph glyph-name="caron.case" horiz-adv-x="434" 
d="M97 925l119 -109l120 109l31 -31l-121 -112q-15 -15 -30 -15q-16 0 -30 15l-121 112z" />
    <glyph glyph-name="cedilla.case" horiz-adv-x="306" 
d="M143 -235q-59 0 -102 27l16 39q37 -23 83 -23q34 0 55.5 15t21.5 41q0 56 -99 53l4 40q74 4 108 -22.5t34 -72.5q0 -41 -33.5 -69t-87.5 -28z" />
    <glyph glyph-name="circumflex.case" horiz-adv-x="435" 
d="M98 761l-32 31l121 112q14 15 30 15q15 0 30 -15l121 -112l-31 -31l-120 109z" />
    <glyph glyph-name="dieresis.case" horiz-adv-x="333" 
d="M79 776q-20 0 -32 12.5t-12 32.5q0 21 12 33.5t32 12.5t32 -12.5t12 -33.5q0 -20 -12 -32.5t-32 -12.5zM252 776q-21 0 -33 12.5t-12 32.5q0 21 12 33.5t33 12.5q20 0 32 -12.5t12 -33.5q0 -20 -12 -32.5t-32 -12.5z" />
    <glyph glyph-name="dotaccent.case" horiz-adv-x="283" 
d="M142 773q-21 0 -33 13t-12 34t12 33.5t33 12.5t33.5 -12.5t12.5 -33.5t-12.5 -34t-33.5 -13z" />
    <glyph glyph-name="grave.case" horiz-adv-x="301" 
d="M250 791l-24 -31l-174 135l36 45z" />
    <glyph glyph-name="hungarumlaut.case" horiz-adv-x="387" 
d="M60 782l96 184l47 -26l-110 -178zM177 782l101 184l48 -26l-116 -178z" />
    <glyph glyph-name="macron.case" horiz-adv-x="419" 
d="M71 843h276v-48h-276v48z" />
    <glyph glyph-name="ogonek.case" horiz-adv-x="312" 
d="M138 -227q-43 0 -70.5 28t-27.5 72q0 45 32.5 87t92.5 66l26 -25q-49 -18 -75.5 -51.5t-26.5 -67.5q0 -27 15 -43.5t40 -16.5q28 0 55 22l24 -33q-34 -38 -85 -38z" />
    <glyph glyph-name="ring.case" horiz-adv-x="288" 
d="M146 744q-41 0 -68.5 27t-27.5 67q0 39 28 66t68 27t67.5 -27t27.5 -66q0 -40 -27.5 -67t-67.5 -27zM146 779q25 0 41.5 17t16.5 42q0 24 -16.5 41t-41.5 17t-42.5 -17t-17.5 -41q0 -25 17.5 -42t42.5 -17z" />
    <glyph glyph-name="tilde.case" horiz-adv-x="482" 
d="M311 764q-34 0 -75.5 33t-62.5 33q-44 0 -59 -62l-43 13q11 48 38.5 71t62.5 23q34 0 74 -33t63 -33q42 0 58 63l44 -11q-9 -47 -38 -72t-62 -25z" />
    <glyph glyph-name="NULL" horiz-adv-x="0" 
 />
    <glyph glyph-name="commaccent" horiz-adv-x="153" 
d="M89 -66q23 0 37 -17.5t14 -45.5q0 -31 -18 -64.5t-49 -58.5l-24 28q41 36 51 70q-8 -3 -16 -3q-19 0 -31 13t-12 32t14 32.5t34 13.5z" />
    <glyph glyph-name="commaccent.case" horiz-adv-x="151" 
d="M89 -66q23 0 37 -17.5t14 -45.5q0 -31 -18 -64.5t-49 -58.5l-24 28q41 36 51 70q-8 -3 -16 -3q-19 0 -31 13t-12 32t14 32.5t34 13.5z" />
    </font>
</defs>
</svg>
