<?xml version="1.0" standalone="no"?>
<!DOCTYPE svg PUBLIC "-//W3C//DTD SVG 1.1//EN" "http://www.w3.org/Graphics/SVG/1.1/DTD/svg11.dtd" >
<svg>
<metadata>
Created by FontForge 20090622 at Thu Sep 14 05:35:01 2017
 By deploy user
Copyright &#194;&#169; 2016 by Galin Kastelov. All rights reserved.
</metadata>
<defs>
<font id="Intelo-Bold" horiz-adv-x="589" >
  <font-face 
    font-family="Intelo"
    font-weight="700"
    font-stretch="normal"
    units-per-em="1000"
    panose-1="0 0 8 0 0 0 0 0 0 0"
    ascent="760"
    descent="-240"
    x-height="500"
    cap-height="714"
    bbox="-233 -326 1245 986"
    underline-thickness="50"
    underline-position="-50"
    unicode-range="U+000D-U+25CA"
  />
<missing-glyph horiz-adv-x="130" 
 />
    <glyph glyph-name="f_f" unicode="ff" horiz-adv-x="764" 
d="M676 613q-41 0 -66 -22.5t-25 -69.5v-21h170v-94h-170v-406h-134v406h-222v-406h-134v406h-72v94h72v24q0 49 15 87t37 59.5t51 35t52 17.5t44 4q87 0 154 -50l-46 -90q-44 26 -82 26q-41 0 -66 -22.5t-25 -69.5v-21h222v24q0 49 15 87t37 59.5t51 35t52 17.5t44 4
q87 0 154 -50l-46 -90q-44 26 -82 26z" />
    <glyph glyph-name="f_f_i" unicode="ffi" horiz-adv-x="1034" 
d="M455 524q0 49 15 87t37 59.5t51 35t52 17.5t44 4q87 0 154 -50l-46 -90q-44 26 -82 26q-41 0 -66 -22.5t-25 -69.5v-21h170v-94h-170v-406h-134v406h-226v-406h-134v406h-72v94h72v24q0 49 15 87t37 59.5t51 35t52 17.5t44 4q87 0 154 -50l-46 -90q-44 26 -82 26
q-41 0 -66 -22.5t-25 -69.5v-21h226v24zM906 560q-37 0 -58.5 22t-21.5 60t21.5 60t58.5 22t59 -22.5t22 -59.5t-22 -59.5t-59 -22.5zM838 0v500h135v-500h-135z" />
    <glyph glyph-name="f_f_l" unicode="ffl" horiz-adv-x="1026" 
d="M456 524q0 49 15 87t37 59.5t51 35t52 17.5t44 4q87 0 154 -50l-46 -90q-44 26 -82 26q-41 0 -66 -22.5t-25 -69.5v-21h170v-94h-170v-406h-134v406h-227v-406h-134v406h-72v94h72v24q0 49 15 87t37 59.5t51 35t52 17.5t44 4q87 0 154 -50l-46 -90q-44 26 -82 26
q-41 0 -66 -22.5t-25 -69.5v-21h227v24zM828 714h137v-714h-137v714z" />
    <glyph glyph-name=".notdef" horiz-adv-x="130" 
 />
    <glyph glyph-name=".null" horiz-adv-x="0" 
 />
    <glyph glyph-name="nonmarkingreturn" horiz-adv-x="333" 
 />
    <glyph glyph-name="CR" unicode="&#xd;" horiz-adv-x="130" 
 />
    <glyph glyph-name="space" unicode=" " horiz-adv-x="225" 
 />
    <glyph glyph-name="exclam" unicode="!" horiz-adv-x="298" 
d="M85 203l-25 524h158l-26 -524h-107zM139 -10q-34 0 -56 22t-22 57t21.5 56.5t56.5 21.5t56.5 -21.5t21.5 -56.5t-21.5 -57t-56.5 -22z" />
    <glyph glyph-name="quotedbl" unicode="&#x22;" horiz-adv-x="401" 
d="M43 466l35 248h129l-63 -248h-101zM217 466l55 248h129l-83 -248h-101z" />
    <glyph glyph-name="numbersign" unicode="#" horiz-adv-x="683" 
d="M648 412h-102l-36 -114h84v-111h-119l-46 -147h-128l46 147h-112l-46 -147h-127l46 147h-73v111h108l36 114h-88v111h123l46 148h127l-46 -148h112l47 148h127l-46 -148h67v-111zM382 298l36 114h-112l-36 -114h112z" />
    <glyph glyph-name="dollar" unicode="$" horiz-adv-x="579" 
d="M545 208q0 -77 -51 -133.5t-136 -76.5v-97h-127v91q-130 16 -204 102l71 95q78 -79 180 -79q60 0 93.5 26.5t33.5 66.5q0 13 -3 24t-12.5 20t-16 14.5t-24 13l-25 10.5t-31 10.5t-30.5 10.5q-46 16 -78 31.5t-64 40t-48.5 60t-16.5 81.5q0 79 48 130.5t127 68.5v88h127
v-82q94 -11 170 -67l-63 -97q-74 51 -151 51q-51 0 -85 -23t-34 -62q0 -18 8 -32.5t18 -24t32 -20t36.5 -15.5l44.5 -15q48 -16 79.5 -31t65 -39t50 -59.5t16.5 -81.5z" />
    <glyph glyph-name="percent" unicode="%" horiz-adv-x="875" 
d="M210 338q-81 0 -131 53.5t-49 140.5q1 88 51 141.5t130 53.5q78 0 127 -54t49 -141t-49 -140.5t-128 -53.5zM101 0l549 714h119l-545 -714h-123zM209 428q36 0 56.5 27t20.5 77t-20 77t-56 27q-38 0 -58.5 -27t-20.5 -77t20.5 -77t57.5 -27zM667 -13q-80 0 -130 53.5
t-49 140.5q1 88 50.5 141.5t129.5 53.5q79 0 128 -53.5t49 -141.5q0 -87 -49 -140.5t-129 -53.5zM666 77q37 0 57.5 27t20.5 77t-20 77t-57 27t-57.5 -27t-20.5 -77t20.5 -77t56.5 -27z" />
    <glyph glyph-name="ampersand" unicode="&#x26;" horiz-adv-x="655" 
d="M660 0h-158l-40 45q-89 -57 -185 -57q-114 0 -178.5 64.5t-64.5 155.5q0 120 117 191q-44 65 -44 133q0 86 60.5 140.5t142.5 54.5q79 0 134 -50t55 -126q0 -85 -87 -153l-79 85q36 33 36 69q0 26 -19 44t-47 18q-30 0 -51.5 -22t-21.5 -57q0 -50 70 -130l157 -177
q21 43 22 88h133q-3 -104 -65 -189zM283 111q50 0 95 29l-152 172q-55 -40 -55 -99q0 -44 31 -73t81 -29z" />
    <glyph glyph-name="quotesingle" unicode="'" horiz-adv-x="230" 
d="M43 466l35 248h129l-63 -248h-101z" />
    <glyph glyph-name="parenleft" unicode="(" horiz-adv-x="371" 
d="M310 -167q-118 49 -197 181.5t-79 316.5t79.5 317t196.5 181l56 -103q-96 -57 -148 -159t-52 -236q0 -135 51.5 -236.5t148.5 -156.5z" />
    <glyph glyph-name="parenright" unicode=")" horiz-adv-x="371" 
d="M61 -167l-56 105q97 55 148.5 156.5t51.5 236.5q0 134 -52 236t-148 159l56 103q117 -48 196.5 -181t79.5 -317t-79 -316.5t-197 -181.5z" />
    <glyph glyph-name="asterisk" unicode="*" horiz-adv-x="416" 
d="M129 419l-64 55l70 77l-100 49l43 76l88 -48v110h85v-110l88 48l42 -76l-99 -49l69 -77l-64 -55l-79 90z" />
    <glyph glyph-name="plus" unicode="+" horiz-adv-x="451" 
d="M412 361v-114h-129v-130h-114v130h-131v114h131v130h114v-130h129z" />
    <glyph glyph-name="comma" unicode="," horiz-adv-x="244" 
d="M119 142q37 0 60.5 -27.5t23.5 -68.5q0 -58 -38 -114t-105 -92l-38 57q65 45 94 99h-7q-30 0 -49 20.5t-19 50.5q0 32 22.5 53.5t55.5 21.5z" />
    <glyph glyph-name="hyphen" unicode="-" horiz-adv-x="487" 
d="M56 361h374v-114h-374v114z" />
    <glyph glyph-name="period" unicode="." horiz-adv-x="236" 
d="M118 -10q-34 0 -56 22t-22 57t21.5 56.5t56.5 21.5t56.5 -21.5t21.5 -56.5t-21.5 -57t-56.5 -22z" />
    <glyph glyph-name="slash" unicode="/" horiz-adv-x="599" 
d="M162 0h-144l421 714h143z" />
    <glyph glyph-name="zero" unicode="0" horiz-adv-x="662" 
d="M332 -11q-142 0 -215 99.5t-73 268.5q0 170 73 270t215 100q141 0 213.5 -100t72.5 -270q0 -169 -72.5 -268.5t-213.5 -99.5zM332 113q146 0 146 244q0 246 -146 246q-147 0 -147 -246q0 -244 147 -244z" />
    <glyph glyph-name="one" unicode="1" horiz-adv-x="418" 
d="M272 726q35 0 52 -16t17 -38v-672h-142v542l-126 -90l-77 96l202 151q38 27 74 27z" />
    <glyph glyph-name="two" unicode="2" horiz-adv-x="556" 
d="M240 201q-33 -41 -40 -78h309v-123h-463q-4 99 14 160t64 115q32 39 112.5 102t86.5 68q45 39 45 79q0 34 -25.5 56t-65.5 22q-42 0 -81 -27t-63 -68l-102 70q36 68 100 110t150 42q103 0 167 -54.5t64 -143.5q0 -83 -65 -151q-33 -33 -107 -89t-100 -90z" />
    <glyph glyph-name="three" unicode="3" horiz-adv-x="571" 
d="M411 376q54 -20 85 -68t31 -105q0 -99 -77 -157t-183 -58q-87 0 -151 36.5t-93 95.5l95 75q49 -80 146 -80q55 0 89.5 28t34.5 67q0 44 -34 68t-87 24h-101v117h81q58 0 92 28t34 68q0 37 -27.5 62t-75.5 25q-79 0 -130 -74l-99 67q35 61 97.5 97.5t142.5 36.5
q101 0 166.5 -56.5t65.5 -139.5q0 -50 -27 -91t-75 -66z" />
    <glyph glyph-name="four" unicode="4" horiz-adv-x="588" 
d="M551 273v-116h-74v-157h-134v157h-289q-20 0 -33.5 20t-13.5 45q0 27 14 47l317 430q18 25 67 25q30 0 51 -14t21 -41v-396h74zM171 273h172v238z" />
    <glyph glyph-name="five" unicode="5" horiz-adv-x="556" 
d="M286 440q107 0 172 -60t65 -160q0 -107 -74 -169.5t-181 -62.5q-74 0 -135.5 31.5t-98.5 90.5l96 74q58 -69 133 -69q53 0 86 29t33 74q0 46 -33.5 73.5t-85.5 27.5q-55 0 -109 -35l-85 66v307q0 57 58 57h355v-117h-284v-172q40 15 88 15z" />
    <glyph glyph-name="six" unicode="6" horiz-adv-x="593" 
d="M327 447q102 0 166 -62t64 -159q0 -100 -66.5 -169t-177.5 -69q-132 0 -201 96.5t-69 242.5q0 107 32 195.5t102.5 146.5t169.5 58q120 0 190 -77l-76 -91q-50 44 -111 44q-73 0 -113 -54.5t-53 -139.5q66 38 143 38zM313 109q51 0 81.5 32.5t30.5 81.5q0 48 -31.5 76
t-83.5 28q-66 0 -130 -48q8 -74 39.5 -122t93.5 -48z" />
    <glyph glyph-name="seven" unicode="7" horiz-adv-x="504" 
d="M431 714q36 0 52 -37t-3 -83l-250 -594h-157l264 592h-318v122h412z" />
    <glyph glyph-name="eight" unicode="8" horiz-adv-x="614" 
d="M430 377q66 -24 105 -71.5t39 -112.5q0 -85 -71 -145.5t-196 -60.5t-196.5 60.5t-71.5 145.5q0 65 39 112.5t105 70.5q-115 53 -115 159q0 79 64.5 135.5t174.5 56.5t174 -56.5t64 -135.5q0 -106 -115 -158zM308 609q-46 0 -75 -25t-29 -64t29 -64t75 -25q45 0 73.5 25
t28.5 64t-28.5 64t-73.5 25zM307 105q54 0 89 29.5t35 74.5t-35 74t-89 29t-89 -29t-35 -74t35 -74.5t89 -29.5z" />
    <glyph glyph-name="nine" unicode="9" horiz-adv-x="583" 
d="M280 727q68 0 119.5 -27.5t81.5 -75.5t44.5 -107t14.5 -127q0 -183 -75 -293.5t-221 -110.5q-107 0 -184 64l60 100q56 -41 117 -41q135 0 161 189q-66 -32 -135 -32q-102 0 -165.5 62t-63.5 160q0 99 66 169t180 70zM162 492q0 -47 30.5 -76.5t86.5 -29.5q62 0 124 36
q-8 182 -129 182q-51 0 -81.5 -32.5t-30.5 -79.5z" />
    <glyph glyph-name="colon" unicode=":" horiz-adv-x="286" 
d="M131 343q-34 0 -56 22t-22 57t21.5 56.5t56.5 21.5t56.5 -21.5t21.5 -56.5t-21.5 -57t-56.5 -22zM131 -10q-34 0 -56 22t-22 57t21.5 56.5t56.5 21.5t56.5 -21.5t21.5 -56.5t-21.5 -57t-56.5 -22z" />
    <glyph glyph-name="semicolon" unicode=";" horiz-adv-x="275" 
d="M137 343q-34 0 -56 22t-22 57t21.5 56.5t56.5 21.5t56.5 -21.5t21.5 -56.5t-21.5 -57t-56.5 -22zM137 142q37 0 60.5 -27.5t23.5 -68.5q0 -58 -38 -114t-105 -92l-38 57q65 45 94 99h-7q-30 0 -49 20.5t-19 50.5q0 32 22.5 53.5t55.5 21.5z" />
    <glyph glyph-name="less" unicode="&#x3c;" horiz-adv-x="456" 
d="M362 122l-300 170q-32 20 -32.5 53.5t31.5 52.5l301 171l45 -97l-231 -127l231 -124z" />
    <glyph glyph-name="equal" unicode="=" horiz-adv-x="493" 
d="M59 461h374v-114h-374v114zM59 261h374v-114h-374v114z" />
    <glyph glyph-name="greater" unicode="&#x3e;" horiz-adv-x="459" 
d="M97 120l-48 98l235 127l-235 129l48 97l302 -173q32 -19 31.5 -52.5t-32.5 -53.5z" />
    <glyph glyph-name="question" unicode="?" horiz-adv-x="514" 
d="M180 189q-5 24 -5 49q0 43 17 81t41.5 64.5t49 50t41.5 48.5t17 49q0 35 -25.5 56t-62.5 21q-78 0 -131 -85l-99 68q33 70 97 106.5t142 36.5q94 0 155.5 -52.5t61.5 -140.5q0 -42 -18 -78t-44 -62l-52 -51t-44 -57.5t-18 -69.5q0 -21 2 -34h-125zM242 -9q-34 0 -55 21.5
t-21 55.5t21 55.5t55 21.5t55.5 -21.5t21.5 -55.5t-21.5 -55.5t-55.5 -21.5z" />
    <glyph glyph-name="at" unicode="@" horiz-adv-x="952" 
d="M684 418l-29 -115q-18 -68 -18 -105q0 -53 48 -53q50 0 83 56.5t33 125.5q0 112 -79 184.5t-200 72.5q-149 0 -253 -105.5t-104 -255.5q0 -137 88 -216.5t216 -79.5q73 0 142.5 24t120.5 65l58 -94q-60 -50 -150.5 -80.5t-181.5 -30.5q-181 0 -298.5 115.5t-117.5 299.5
q0 129 65 238.5t175 173t239 63.5q172 0 287 -105t115 -257q0 -122 -73.5 -206.5t-177.5 -84.5q-41 0 -71.5 20t-40.5 52q-63 -72 -151 -72q-66 0 -105.5 45t-39.5 123q0 110 74.5 189.5t179.5 79.5q54 0 101 -20.5t65 -46.5zM436 147q39 0 71 34t47 94l25 99q-31 21 -69 21
q-59 0 -100 -49t-41 -115q0 -39 17 -61.5t50 -22.5z" />
    <glyph glyph-name="A" unicode="A" horiz-adv-x="685" 
d="M533 0l-60 177h-261l-60 -177h-149l242 661q21 57 97 57q77 0 98 -58l242 -660h-149zM253 298h179l-90 265z" />
    <glyph glyph-name="B" unicode="B" horiz-adv-x="674" 
d="M78 0v656q0 26 18 42t44 16h245q96 0 157.5 -50.5t61.5 -133.5q0 -51 -25.5 -88.5t-67.5 -57.5v-1q58 -13 93 -60.5t35 -115.5q0 -93 -61.5 -150t-166.5 -57h-333zM223 427h138q48 0 74.5 23t26.5 61q0 43 -28.5 66t-79.5 23h-131v-173zM223 114h149q53 0 84.5 27
t31.5 72q0 49 -31 76t-89 27h-145v-202z" />
    <glyph glyph-name="C" unicode="C" horiz-adv-x="702" 
d="M382 -11q-149 0 -245.5 96t-96.5 268q0 171 99 272.5t255 101.5q93 0 166.5 -40.5t115.5 -112.5l-106 -71q-61 100 -172 100q-97 0 -154.5 -64.5t-57.5 -180.5q0 -115 58 -178t148 -63q116 0 203 101l89 -87q-121 -142 -302 -142z" />
    <glyph glyph-name="D" unicode="D" horiz-adv-x="736" 
d="M78 0v656q0 26 18 42t44 16h211q106 0 186 -49t120 -129t40 -176q0 -151 -93 -255.5t-254 -104.5h-272zM222 120h118q96 0 155 67.5t59 172.5q0 98 -56.5 166t-152.5 68h-123v-474z" />
    <glyph glyph-name="E" unicode="E" horiz-adv-x="596" 
d="M551 593h-329v-169h296v-121h-296v-181h320v-122h-464v656q0 26 18 42t43 16h412v-121z" />
    <glyph glyph-name="F" unicode="F" horiz-adv-x="563" 
d="M537 593h-315v-169h273v-121h-273v-303h-144v656q0 26 18 42t43 16h398v-121z" />
    <glyph glyph-name="G" unicode="G" horiz-adv-x="769" 
d="M391 -11q-163 0 -257 98t-94 265q0 172 100 273.5t265 101.5q108 0 184.5 -46t111.5 -121l-115 -61q-52 105 -183 105q-99 0 -158 -66.5t-59 -181.5q0 -114 55 -178.5t151 -64.5q86 0 141.5 48.5t57.5 122.5h-181v113h323v-79q0 -146 -96 -237.5t-246 -91.5z" />
    <glyph glyph-name="H" unicode="H" horiz-adv-x="745" 
d="M79 0v714h144v-294h300v294h144v-714h-144v293h-300v-293h-144z" />
    <glyph glyph-name="I" unicode="I" horiz-adv-x="301" 
d="M79 0v714h144v-714h-144z" />
    <glyph glyph-name="J" unicode="J" horiz-adv-x="510" 
d="M204 -11q-134 0 -205 104l86 88q53 -58 109 -58q45 0 72 31.5t27 83.5v477h145v-483q0 -110 -63 -176.5t-171 -66.5z" />
    <glyph glyph-name="K" unicode="K" horiz-adv-x="618" 
d="M632 0h-178l-236 296v-296h-139v714h139v-315l235 315h159l-272 -355z" />
    <glyph glyph-name="L" unicode="L" horiz-adv-x="553" 
d="M136 0q-25 0 -41.5 16.5t-16.5 41.5v656h143v-594h317v-120h-402z" />
    <glyph glyph-name="M" unicode="M" horiz-adv-x="904" 
d="M750 718q33 0 54.5 -13.5t21.5 -40.5v-664h-140v461l-169 -326h-129l-170 326v-461h-140v663q0 27 22 41t55 14q40 0 57.5 -13.5t38.5 -52.5l202 -386l202 386q20 39 37.5 52.5t57.5 13.5z" />
    <glyph glyph-name="N" unicode="N" horiz-adv-x="766" 
d="M555 714h131v-675q0 -21 -20.5 -33.5t-51.5 -12.5q-34 0 -52.5 9t-34.5 31l-316 447v-480h-133v661q0 29 21 43t55 14q40 0 58.5 -12t43.5 -48l299 -418v474z" />
    <glyph glyph-name="O" unicode="O" horiz-adv-x="788" 
d="M393 -11q-159 0 -256 100t-97 265q0 168 97.5 270.5t257.5 102.5q159 0 256 -102t97 -269q0 -166 -97.5 -266.5t-257.5 -100.5zM395 115q96 0 151.5 63.5t55.5 178.5q0 117 -55.5 180.5t-151.5 63.5q-97 0 -153 -63.5t-56 -180.5q0 -116 56 -179t153 -63z" />
    <glyph glyph-name="P" unicode="P" horiz-adv-x="624" 
d="M353 714q119 0 182.5 -66.5t63.5 -168.5q0 -114 -66 -174.5t-190 -60.5h-121v-244h-144v656q0 25 17 41.5t42 16.5h216zM338 363q116 0 116 117q0 54 -30.5 84t-86.5 30h-115v-231h116z" />
    <glyph glyph-name="Q" unicode="Q" horiz-adv-x="788" 
d="M587 -53q42 0 101 16l16 -116q-60 -19 -121 -19q-182 0 -271 169q-125 24 -198.5 119.5t-73.5 237.5q0 168 97.5 270.5t257.5 102.5q159 0 256 -102t97 -269q0 -144 -75 -240.5t-202 -119.5q39 -49 116 -49zM186 357q0 -116 56 -179t153 -63q96 0 151.5 63.5t55.5 178.5
q0 117 -55.5 180.5t-151.5 63.5q-97 0 -153 -63.5t-56 -180.5z" />
    <glyph glyph-name="R" unicode="R" horiz-adv-x="641" 
d="M446 0l-155 268h-74v-268h-139v656q0 25 17 41.5t42 16.5h215q116 0 178.5 -61t62.5 -163q0 -167 -157 -209l174 -281h-164zM217 594v-211h115q116 0 116 108q0 48 -29 75.5t-85 27.5h-117z" />
    <glyph glyph-name="S" unicode="S" horiz-adv-x="581" 
d="M279 -11q-76 0 -144.5 27.5t-112.5 77.5l73 95q79 -79 184 -79q61 0 96 26.5t35 66.5q0 13 -3.5 24t-13 20t-16 14.5t-24.5 13t-26 10.5t-31.5 10.5t-31.5 10.5q-47 16 -79.5 31.5t-65.5 40t-50 60t-17 81.5q0 98 71 153t184 55q124 0 222 -66l-59 -101q-81 51 -159 51
q-53 0 -86 -22.5t-33 -62.5q0 -15 4 -27t17 -22.5l21 -17t31 -15.5t31.5 -12l38.5 -13q49 -16 81.5 -31t67 -39t51.5 -59.5t17 -81.5q0 -95 -77 -157t-196 -62z" />
    <glyph glyph-name="T" unicode="T" horiz-adv-x="582" 
d="M567 714v-120h-203v-594h-144v594h-205v120h552z" />
    <glyph glyph-name="U" unicode="U" horiz-adv-x="702" 
d="M350 -11q-131 0 -204.5 71t-73.5 192v462h144v-465q0 -136 134 -136q136 0 136 136v465h143v-462q0 -121 -74 -192t-205 -71z" />
    <glyph glyph-name="V" unicode="V" horiz-adv-x="654" 
d="M489 714h152l-208 -663q-19 -62 -106 -62q-88 0 -107 62l-207 663h156l160 -570z" />
    <glyph glyph-name="W" unicode="W" horiz-adv-x="974" 
d="M811 714h146l-163 -667q-14 -58 -101 -58q-89 0 -103 58l-104 386l-104 -386q-14 -58 -103 -58q-87 0 -100 58l-161 667h151l119 -557l133 478h133l135 -481z" />
    <glyph glyph-name="X" unicode="X" horiz-adv-x="627" 
d="M627 0h-163l-154 259l-146 -259h-161l219 364l-213 350h160l145 -260l150 260h154l-217 -358z" />
    <glyph glyph-name="Y" unicode="Y" horiz-adv-x="651" 
d="M641 714l-244 -454v-260h-143v260l-243 454h155l160 -319l162 319h153z" />
    <glyph glyph-name="Z" unicode="Z" horiz-adv-x="594" 
d="M79 0q-38 0 -50 52t15 88l332 451h-323v123h444q38 0 53 -51t-15 -94l-331 -445h353v-124h-478z" />
    <glyph glyph-name="bracketleft" unicode="[" horiz-adv-x="386" 
d="M73 -179v998h291v-124h-150v-750h150v-124h-291z" />
    <glyph glyph-name="backslash" unicode="\" horiz-adv-x="619" 
d="M437 0l-420 714h143l421 -714h-144z" />
    <glyph glyph-name="bracketright" unicode="]" horiz-adv-x="386" 
d="M22 -179v124h150v750h-150v124h291v-998h-291z" />
    <glyph glyph-name="asciicircum" unicode="^" horiz-adv-x="571" 
d="M136 315l-109 55l203 339q20 33 56 33t55 -33l202 -339l-108 -55l-150 257z" />
    <glyph glyph-name="underscore" unicode="_" horiz-adv-x="466" 
d="M0 -164v113h466v-113h-466z" />
    <glyph glyph-name="grave" unicode="`" horiz-adv-x="449" 
d="M348 606l-57 -66l-189 138l77 92z" />
    <glyph glyph-name="a" unicode="a" horiz-adv-x="540" 
d="M264 513q101 0 161 -54.5t60 -153.5v-305h-120v65q-57 -77 -162 -77q-77 0 -124.5 42.5t-47.5 112.5q0 86 69 125.5t175 39.5q45 0 85 -6v7q0 47 -29 71.5t-77 24.5q-78 0 -152 -57l-58 85q85 80 220 80zM236 89q54 0 87 37t37 96q-39 3 -75 3q-119 0 -119 -73
q0 -28 19 -45.5t51 -17.5z" />
    <glyph glyph-name="b" unicode="b" horiz-adv-x="587" 
d="M344 510q92 0 150.5 -66.5t58.5 -176.5q0 -127 -73.5 -203.5t-205.5 -76.5q-127 0 -216 55v672h137v-256q69 52 149 52zM274 98q68 0 104 44t36 121q0 63 -26 100t-79 37q-63 0 -114 -51v-238q39 -13 79 -13z" />
    <glyph glyph-name="c" unicode="c" horiz-adv-x="529" 
d="M280 -12q-105 0 -175.5 69t-70.5 191q0 121 70.5 193t186.5 72q70 0 126 -29.5t86 -89.5l-103 -58q-35 65 -107 65q-53 0 -88 -38t-35 -114q0 -75 33.5 -111.5t85.5 -36.5q72 0 121 78l99 -57q-30 -62 -89.5 -98t-139.5 -36z" />
    <glyph glyph-name="d" unicode="d" horiz-adv-x="585" 
d="M390 714h135v-714h-127v44q-65 -57 -149 -57q-91 0 -153 70t-62 185q0 123 68.5 197t172.5 74q64 0 115 -31v232zM281 99q61 0 109 49v214q-45 39 -99 39q-53 0 -85.5 -40.5t-32.5 -116.5q0 -65 28 -105t80 -40z" />
    <glyph glyph-name="e" unicode="e" horiz-adv-x="538" 
d="M293 97q79 0 151 53l55 -88q-94 -74 -215 -74q-115 0 -183 71.5t-68 183.5q0 113 70 191.5t191 78.5q88 0 149 -46.5t61 -127.5q0 -62 -38.5 -102.5t-118.5 -40.5h-186q21 -99 132 -99zM293 410q-49 0 -87 -32t-48 -90h160q30 0 46.5 15t16.5 40q0 28 -24.5 47.5
t-63.5 19.5z" />
    <glyph glyph-name="f" unicode="f" horiz-adv-x="408" 
d="M320 613q-41 0 -66 -22.5t-25 -69.5v-21h170v-94h-170v-406h-134v406h-72v94h72v24q0 49 15 87t37 59.5t51 35t52 17.5t44 4q87 0 154 -50l-46 -90q-44 26 -82 26z" />
    <glyph glyph-name="g" unicode="g" horiz-adv-x="544" 
d="M536 486q-25 -31 -74 -58q26 -38 26 -90q0 -77 -60.5 -122.5t-163.5 -45.5q-39 0 -76 8q-19 -10 -19 -28q0 -19 20 -28.5t65 -14.5q141 -16 181 -33q86 -35 86 -123q0 -82 -69 -123.5t-193 -41.5q-110 0 -175.5 37.5t-65.5 106.5q0 77 82 110q-44 31 -44 82q0 54 53 90
q-62 43 -62 124q0 80 60.5 127.5t160.5 47.5q66 0 116 -21q51 23 91 67zM266 264q47 0 74 19.5t27 55.5t-26.5 56t-73.5 20t-73.5 -20.5t-26.5 -57.5q0 -73 99 -73zM393 -57q0 26 -26 36.5t-83 16.5q-63 6 -89 10q-52 -25 -52 -61q0 -63 122 -63q128 0 128 61z" />
    <glyph glyph-name="h" unicode="h" 
d="M369 513q77 0 120.5 -42.5t43.5 -121.5v-349h-138v317q0 43 -16 63t-51 20q-60 0 -128 -52v-348h-140v714h140v-259q83 58 169 58z" />
    <glyph glyph-name="i" unicode="i" horiz-adv-x="256" 
d="M128 560q-37 0 -58.5 22t-21.5 60t21.5 60t58.5 22t59 -22.5t22 -59.5t-22 -59.5t-59 -22.5zM60 0v500h135v-500h-135z" />
    <glyph glyph-name="j" unicode="j" horiz-adv-x="267" 
d="M137 560q-37 0 -59.5 22t-22.5 60t22.5 60t59.5 22q38 0 60.5 -22t22.5 -60t-22.5 -60t-60.5 -22zM35 -197q-45 0 -94 22l20 115q27 -10 51 -10q56 0 56 63v507h137v-511q0 -186 -170 -186z" />
    <glyph glyph-name="k" unicode="k" horiz-adv-x="531" 
d="M537 0h-161l-178 251v-251h-139v714h139v-429l177 215h151l-195 -228z" />
    <glyph glyph-name="l" unicode="l" horiz-adv-x="257" 
d="M59 0v714h137v-714h-137z" />
    <glyph glyph-name="m" unicode="m" horiz-adv-x="919" 
d="M699 513q75 0 119 -42.5t44 -121.5v-349h-139v319q0 41 -14.5 61t-50.5 20q-66 0 -127 -54v-346h-139v319q0 41 -15 61t-51 20q-61 0 -127 -57v-343h-139v500h129v-63q91 76 184 76q101 0 139 -73q89 73 187 73z" />
    <glyph glyph-name="n" unicode="n" 
d="M369 513q77 0 120.5 -42.5t43.5 -121.5v-349h-138v317q0 43 -16 63t-51 20q-60 0 -128 -52v-348h-140v500h129v-53q88 66 180 66z" />
    <glyph glyph-name="o" unicode="o" horiz-adv-x="571" 
d="M285 -13q-116 0 -184 72t-67 191q1 120 68.5 191.5t182.5 71.5q118 0 185 -70.5t67 -192.5q0 -120 -67.5 -191.5t-184.5 -71.5zM285 99q119 0 119 151t-119 151q-57 0 -87.5 -38t-30.5 -113q0 -151 118 -151z" />
    <glyph glyph-name="p" unicode="p" horiz-adv-x="584" 
d="M335 513q92 0 153.5 -70t61.5 -186q0 -121 -69 -195.5t-177 -74.5q-56 0 -107 23v-198h-137v688h129v-40q66 53 146 53zM292 99q53 0 86.5 41.5t33.5 115.5q0 65 -27 105t-79 40q-59 0 -109 -48v-230q47 -24 95 -24z" />
    <glyph glyph-name="q" unicode="q" horiz-adv-x="580" 
d="M319 513q113 0 203 -54v-647h-137v224q-62 -46 -140 -46q-94 0 -152.5 66.5t-58.5 176.5q0 127 75.5 203.5t209.5 76.5zM276 100q63 0 109 48v242q-33 12 -71 12q-67 0 -104 -45t-37 -122q0 -62 25.5 -98.5t77.5 -36.5z" />
    <glyph glyph-name="r" unicode="r" horiz-adv-x="418" 
d="M343 513q45 0 76 -18l-28 -108q-35 11 -61 11q-72 0 -132 -56v-342h-138v500h133v-58q68 71 150 71z" />
    <glyph glyph-name="s" unicode="s" horiz-adv-x="475" 
d="M229 -11q-130 0 -209 76l54 86q73 -59 149 -59q33 0 55.5 13t22.5 36q0 8 -3 15t-9.5 13t-12.5 10t-18 9t-19.5 7.5l-23 7.5t-22.5 7q-70 24 -107.5 56t-37.5 90q0 74 56.5 115.5t145.5 41.5q108 0 188 -58l-52 -85q-69 42 -130 42q-33 0 -53 -12.5t-20 -32.5
q0 -16 15 -28.5t27.5 -17t45.5 -15.5q34 -11 50.5 -17t44.5 -20.5t41.5 -29t24.5 -38t11 -52.5q0 -75 -62 -117.5t-152 -42.5z" />
    <glyph glyph-name="t" unicode="t" horiz-adv-x="421" 
d="M377 137l43 -97q-67 -51 -157 -51q-81 0 -126 48t-45 135v234h-75v94h75v155h136v-155h162v-94h-162v-222q0 -40 20.5 -57t48.5 -17q39 0 80 27z" />
    <glyph glyph-name="u" unicode="u" horiz-adv-x="585" 
d="M391 500h134v-500h-129v55q-85 -67 -178 -67q-74 0 -117.5 42t-43.5 122v348h136v-317q0 -82 68 -82q61 0 130 58v341z" />
    <glyph glyph-name="v" unicode="v" horiz-adv-x="540" 
d="M399 500h134l-175 -456q-10 -28 -29.5 -39t-57.5 -11q-39 0 -58.5 11t-30.5 39l-176 456h141l125 -382z" />
    <glyph glyph-name="w" unicode="w" horiz-adv-x="767" 
d="M630 500h126l-127 -456q-9 -28 -29 -39t-58 -11q-39 0 -59.5 11t-28.5 39l-70 284l-73 -284q-9 -29 -28.5 -39.5t-59.5 -10.5t-60 11t-28 39l-122 456h133l81 -370l95 370h133l89 -368z" />
    <glyph glyph-name="x" unicode="x" horiz-adv-x="524" 
d="M516 500l-166 -253l166 -247h-152l-109 174l-105 -174h-144l165 254l-159 246h153l101 -177l108 177h142z" />
    <glyph glyph-name="y" unicode="y" horiz-adv-x="524" 
d="M381 500h139l-205 -513q-15 -37 -31 -66t-40 -58.5t-58 -46t-75 -16.5q-71 0 -121 45l48 94q30 -24 66 -24q53 0 84 71l13 32l-192 482h140l118 -336z" />
    <glyph glyph-name="z" unicode="z" horiz-adv-x="477" 
d="M71 0q-32 0 -42.5 39t11.5 65l244 298h-240l1 98h349q34 0 44 -43t-13 -69l-238 -288h256v-100h-372z" />
    <glyph glyph-name="braceleft" unicode="{" horiz-adv-x="363" 
d="M332 -176q-230 2 -230 238v91q0 65 -16 90t-67 36v104q53 11 68 35.5t15 90.5v91q0 231 230 238v-128q-91 -3 -91 -112v-115q0 -125 -96 -151q50 -11 73 -48t23 -105v-115q0 -110 91 -112v-128z" />
    <glyph glyph-name="bar" unicode="|" horiz-adv-x="282" 
d="M209 -114h-136v965h136v-965z" />
    <glyph glyph-name="braceright" unicode="}" horiz-adv-x="363" 
d="M31 -176v128q91 2 91 112v115q0 68 23 105t73 48q-96 26 -96 151v115q0 109 -91 112v128q230 -7 230 -238v-91q0 -66 15 -90.5t68 -35.5v-104q-51 -11 -67 -36t-16 -90v-91q0 -236 -230 -238z" />
    <glyph glyph-name="asciitilde" unicode="~" horiz-adv-x="621" 
d="M410 214q-42 0 -78.5 19.5t-65 39t-51.5 19.5q-24 0 -41.5 -18.5t-21.5 -53.5l-93 30q4 67 50.5 107t105.5 40q40 0 75 -20.5t63 -41t51 -20.5q51 0 60 74l97 -20q-1 -72 -45.5 -113.5t-105.5 -41.5z" />
    <glyph glyph-name="exclamdown" unicode="&#xa1;" horiz-adv-x="287" 
d="M134 521q35 0 56.5 -22t21.5 -57t-21.5 -56.5t-56.5 -21.5t-56.5 21.5t-21.5 56.5t22 57t56 22zM80 308h107l26 -524h-158z" />
    <glyph glyph-name="cent" unicode="&#xa2;" horiz-adv-x="548" 
d="M518 122q-56 -113 -187 -131v-93h-72v92q-94 9 -155 77t-61 181q0 110 58.5 180t157.5 82v91h72v-90q128 -12 181 -117l-103 -58q-28 51 -78 62v-293q50 14 88 74zM179 249q0 -115 80 -142v287q-80 -30 -80 -145z" />
    <glyph glyph-name="sterling" unicode="&#xa3;" horiz-adv-x="560" 
d="M232 220q0 -64 -19 -106h295v-114h-441l-19 89q34 33 42.5 59t8.5 68v109h-53v89h53v44q0 131 68.5 200t177.5 69q116 0 185 -85l-76 -86q-49 53 -103 53q-59 0 -89 -40.5t-30 -106.5v-48h205v-89h-205v-105z" />
    <glyph glyph-name="currency" unicode="&#xa4;" horiz-adv-x="574" 
d="M536 138l-61 -68l-85 77q-43 -23 -102 -23t-102 23l-85 -77l-61 68l81 74q-23 42 -22 98q0 51 21 93l-82 75l62 67l83 -76q44 26 106 26q60 0 102 -24l81 74l62 -67l-79 -72q21 -40 21 -96q0 -55 -22 -97zM287 213q86 0 86 97q0 95 -85 95q-84 0 -84 -96t83 -96z" />
    <glyph glyph-name="yen" unicode="&#xa5;" horiz-adv-x="673" 
d="M651 714l-199 -370h98v-84h-143v-65h143v-84h-143v-111h-143v111h-139v84h139v65h-139v84h94l-198 370h155l160 -319l162 319h153z" />
    <glyph glyph-name="brokenbar" unicode="&#xa6;" horiz-adv-x="282" 
d="M73 463v388h136v-388h-136zM209 274v-388h-136v388h136z" />
    <glyph glyph-name="section" unicode="&#xa7;" horiz-adv-x="599" 
d="M565 206q0 -82 -59 -143q27 -41 27 -99q0 -95 -73 -157t-187 -62q-72 0 -137 27.5t-107 77.5l70 94q74 -78 174 -78q59 0 92 26t33 66q0 10 -2 19t-7.5 16.5l-10 13.5t-14.5 12t-16.5 9.5t-20 9t-20.5 8t-24 8t-24 8.5q-101 33 -154 80t-54 133t60 142q-29 43 -29 102
q0 98 70.5 153t178.5 55q119 0 210 -70l-61 -97q-71 51 -147 51q-50 0 -83 -23t-33 -62q0 -15 4 -27t15.5 -22.5t19.5 -17t29.5 -15.5t30 -12l36.5 -13q50 -18 81 -32.5t65 -39.5t50.5 -60t16.5 -81zM327 175q52 -19 80 -32q26 26 26 57q0 15 -6.5 27.5t-14 21t-25 17.5
t-29 13l-37 13t-37.5 14q-42 16 -77 33q-28 -23 -28 -58q0 -10 2.5 -19t8.5 -16.5l11 -13.5t16.5 -12.5l17.5 -10t21.5 -9.5l22 -8.5t25 -8.5t23.5 -8z" />
    <glyph glyph-name="dieresis" unicode="&#xa8;" horiz-adv-x="469" 
d="M137 559q-33 0 -52.5 19.5t-19.5 53.5t19.5 54t52.5 20t52.5 -20t19.5 -54t-19.5 -53.5t-52.5 -19.5zM332 559q-32 0 -52 19.5t-20 53.5t20 54t52 20q33 0 53 -20t20 -54t-20 -53.5t-53 -19.5z" />
    <glyph glyph-name="copyright" unicode="&#xa9;" horiz-adv-x="816" 
d="M408 -14q-160 0 -264.5 104t-104.5 266q0 161 104.5 266t264.5 105t264.5 -105t104.5 -266q0 -162 -104.5 -266t-264.5 -104zM408 79q118 0 194 78t76 199q0 122 -76 200.5t-194 78.5t-194 -78.5t-76 -199.5q0 -122 76 -200t194 -78zM405 168q-80 0 -128.5 56t-48.5 138
t50.5 137.5t131.5 55.5q117 0 158 -96l-83 -41q-26 49 -75 49q-40 0 -62 -28.5t-22 -76.5t21.5 -76.5t61.5 -28.5q47 0 85 53l73 -51q-22 -38 -65 -64.5t-97 -26.5z" />
    <glyph glyph-name="ordfeminine" unicode="&#xaa;" horiz-adv-x="412" 
d="M203 713q70 0 112 -38t42 -107v-213h-88v42q-40 -51 -108 -51q-54 0 -88.5 30t-34.5 78q0 60 48.5 88t123.5 28q19 0 55 -4v4q0 65 -75 65q-52 0 -102 -37l-40 60q62 55 155 55zM184 420q35 0 57 24.5t24 64.5q-16 1 -50 1q-77 0 -77 -48q0 -19 12.5 -30.5t33.5 -11.5z
" />
    <glyph glyph-name="guillemotleft" unicode="&#xab;" horiz-adv-x="553" 
d="M225 100l-182 177q-7 8 -7 21.5t7 21.5l182 177l65 -67l-135 -132l135 -132zM437 100l-182 177q-7 8 -7 21.5t7 21.5l182 177l65 -67l-135 -132l135 -132z" />
    <glyph glyph-name="logicalnot" unicode="&#xac;" horiz-adv-x="499" 
d="M39 268v105h421v-207h-108v102h-313z" />
    <glyph glyph-name="uni00AD" unicode="&#xad;" horiz-adv-x="488" 
d="M57 361h374v-114h-374v114z" />
    <glyph glyph-name="registered" unicode="&#xae;" horiz-adv-x="576" 
d="M288 752q106 0 177.5 -71t71.5 -178t-71.5 -178.5t-177.5 -71.5t-177.5 71.5t-71.5 178.5t71.5 178t177.5 71zM288 314q80 0 133 54t53 135t-53 135t-133 54t-133 -54t-53 -135t53 -135t133 -54zM394 559q0 -62 -59 -80l65 -105h-72l-56 100h-19v-100h-63v240
q0 12 8.5 20.5t21.5 8.5h76q49 0 73.5 -22t24.5 -62zM253 589v-61h42q35 0 35 31q0 30 -34 30h-43z" />
    <glyph glyph-name="macron" unicode="&#xaf;" horiz-adv-x="429" 
d="M66 674h298v-106h-298v106z" />
    <glyph glyph-name="degree" unicode="&#xb0;" horiz-adv-x="322" 
d="M161 505q-55 0 -93 37t-38 91q0 53 38 90t93 37t92.5 -37t37.5 -90q0 -54 -37.5 -91t-92.5 -37zM161 577q23 0 39 16.5t16 39.5t-16 39t-39 16t-39.5 -16t-16.5 -39t16.5 -39.5t39.5 -16.5z" />
    <glyph glyph-name="plusminus" unicode="&#xb1;" horiz-adv-x="451" 
d="M412 324h-129v-118h129v-114h-374v114h131v118h-131v114h131v130h114v-130h129v-114z" />
    <glyph glyph-name="uni00B2" unicode="&#xb2;" horiz-adv-x="321" 
d="M148 612q-18 -19 -24 -42h162v-71h-253q-5 98 46 155q16 18 53 47t46 37q24 18 24 38q0 16 -12.5 26t-31.5 10t-38.5 -14.5t-31.5 -34.5l-61 39q17 37 52.5 60.5t80.5 23.5q55 0 91.5 -29.5t36.5 -77.5q0 -41 -34 -75q-19 -19 -56.5 -48t-49.5 -44z" />
    <glyph glyph-name="uni00B3" unicode="&#xb3;" horiz-adv-x="326" 
d="M235 700q28 -11 43.5 -36t15.5 -56q0 -53 -42.5 -84t-99.5 -31q-44 0 -80 19t-53 51l54 45q26 -41 77 -41q26 0 44 13t18 34q0 20 -17 31t-43 11h-54v67h42q30 0 47 13.5t17 32.5q0 18 -13.5 30.5t-36.5 12.5q-39 0 -66 -36l-57 38q41 72 129 72q54 0 90 -30t36 -75
q0 -54 -51 -81z" />
    <glyph glyph-name="acute" unicode="&#xb4;" horiz-adv-x="495" 
d="M125 606l169 164l77 -92l-189 -138z" />
    <glyph glyph-name="paragraph" unicode="&#xb6;" horiz-adv-x="618" 
d="M264 714h278v-609q0 -138 -70.5 -215.5t-207.5 -77.5q-28 0 -58 3l1 136q29 -3 48 -3q81 0 114.5 45.5t33.5 145.5v496h-55v-401h-84q-117 0 -177 71t-60 170t60 169t177 70z" />
    <glyph glyph-name="periodcentered" unicode="&#xb7;" horiz-adv-x="276" 
d="M126 188q-34 0 -56 22t-22 57t21.5 56.5t56.5 21.5t56.5 -21.5t21.5 -56.5t-21.5 -57t-56.5 -22z" />
    <glyph glyph-name="cedilla" unicode="&#xb8;" horiz-adv-x="305" 
d="M138 -258q-60 0 -106 23l27 80q30 -16 64 -16q49 0 49 27q0 15 -21 23t-55 6l14 71q79 9 125 -20t46 -81q0 -46 -38.5 -79.5t-104.5 -33.5z" />
    <glyph glyph-name="uni00B9" unicode="&#xb9;" horiz-adv-x="293" 
d="M205 568h71v-69h-227v69h74v208l-65 -46l-44 57l126 94h31q15 0 24.5 -9.5t9.5 -24.5v-279z" />
    <glyph glyph-name="ordmasculine" unicode="&#xba;" horiz-adv-x="418" 
d="M209 348q-80 0 -128 50.5t-47 132.5q1 83 48.5 132.5t126.5 49.5q81 0 128 -49t47 -133q0 -82 -47.5 -132.5t-127.5 -50.5zM209 428q78 0 78 103q0 101 -78 101q-79 0 -79 -101q0 -103 79 -103z" />
    <glyph glyph-name="guillemotright" unicode="&#xbb;" horiz-adv-x="548" 
d="M116 100l-65 66l135 132l-135 132l65 67l182 -177q8 -8 8 -21.5t-8 -21.5zM323 100l-65 66l135 132l-135 132l65 67l182 -177q7 -8 7 -21.5t-7 -21.5z" />
    <glyph glyph-name="questiondown" unicode="&#xbf;" horiz-adv-x="508" 
d="M269 518q34 0 55 -21.5t21 -55.5t-21 -55.5t-55 -21.5t-55.5 21.5t-21.5 55.5q0 35 21 56t56 21zM331 320q5 -24 5 -49q0 -43 -17 -81t-41.5 -64.5t-49 -50t-41.5 -48.5t-17 -49q0 -35 25.5 -56t62.5 -21q78 0 131 85l99 -68q-33 -70 -97 -106.5t-142 -36.5
q-94 0 -155.5 52.5t-61.5 140.5q0 42 18 78t44 62l52 51t44 57.5t18 69.5q0 21 -2 34h125z" />
    <glyph glyph-name="Agrave" unicode="&#xc0;" horiz-adv-x="685" 
d="M464 813l-57 -66l-189 138l77 92zM533 0l-60 177h-261l-60 -177h-149l242 661q21 57 97 57q77 0 98 -58l242 -660h-149zM253 298h179l-90 265z" />
    <glyph glyph-name="Aacute" unicode="&#xc1;" horiz-adv-x="685" 
d="M481 887l-189 -138l-57 66l169 164zM533 0l-60 177h-261l-60 -177h-149l242 661q21 57 97 57q77 0 98 -58l242 -660h-149zM253 298h179l-90 265z" />
    <glyph glyph-name="Acircumflex" unicode="&#xc2;" horiz-adv-x="685" 
d="M342 841l-105 -94l-68 65l123 110q22 21 50 21q26 0 50 -21l122 -110l-67 -65zM533 0l-60 177h-261l-60 -177h-149l242 661q21 57 97 57q77 0 98 -58l242 -660h-149zM253 298h179l-90 265z" />
    <glyph glyph-name="Atilde" unicode="&#xc3;" horiz-adv-x="685" 
d="M281 812q-37 0 -56 -52l-81 36q14 53 48.5 81.5t79.5 28.5q34 0 74.5 -24.5t58.5 -24.5q39 0 55 54l87 -31q-13 -54 -50 -85.5t-81 -31.5q-33 0 -75 24.5t-60 24.5zM533 0l-60 177h-261l-60 -177h-149l242 661q21 57 97 57q77 0 98 -58l242 -660h-149zM253 298h179
l-90 265z" />
    <glyph glyph-name="Adieresis" unicode="&#xc4;" horiz-adv-x="685" 
d="M247 755q-33 0 -52.5 19.5t-19.5 53.5t19.5 54t52.5 20t52.5 -20t19.5 -54t-19.5 -53.5t-52.5 -19.5zM442 755q-32 0 -52 19.5t-20 53.5t20 54t52 20q33 0 53 -20t20 -54t-20 -53.5t-53 -19.5zM533 0l-60 177h-261l-60 -177h-149l242 661q21 57 97 57q77 0 98 -58
l242 -660h-149zM253 298h179l-90 265z" />
    <glyph glyph-name="Aring" unicode="&#xc5;" horiz-adv-x="685" 
d="M342 741q-48 0 -80.5 31t-32.5 77t32.5 77t80.5 31t80.5 -31t32.5 -77t-32.5 -77t-80.5 -31zM342 889q-18 0 -29.5 -11.5t-11.5 -28.5t11.5 -28.5t29.5 -11.5q17 0 28.5 11.5t11.5 28.5t-11.5 28.5t-28.5 11.5zM533 0l-60 177h-261l-60 -177h-149l242 661q21 57 97 57
q77 0 98 -58l242 -660h-149zM253 298h179l-90 265z" />
    <glyph glyph-name="AE" unicode="&#xc6;" horiz-adv-x="964" 
d="M919 593h-333v-169h295v-121h-295v-181h324v-122h-468v177h-205l-88 -177h-161l332 626q29 54 67.5 71t124.5 17h407v-121zM297 298h145v283h-5z" />
    <glyph glyph-name="Ccedilla" unicode="&#xc7;" horiz-adv-x="702" 
d="M382 -11q-149 0 -245.5 96t-96.5 268q0 171 99 272.5t255 101.5q93 0 166.5 -40.5t115.5 -112.5l-106 -71q-61 100 -172 100q-97 0 -154.5 -64.5t-57.5 -180.5q0 -115 58 -178t148 -63q116 0 203 101l89 -87q-121 -142 -302 -142zM362 -255q-60 0 -106 23l27 80
q30 -16 64 -16q49 0 49 27q0 15 -21 23t-55 6l14 71q79 9 125 -20t46 -81q0 -46 -38.5 -79.5t-104.5 -33.5z" />
    <glyph glyph-name="Egrave" unicode="&#xc8;" horiz-adv-x="596" 
d="M443 813l-57 -66l-189 138l77 92zM551 593h-329v-169h296v-121h-296v-181h320v-122h-464v656q0 26 18 42t43 16h412v-121z" />
    <glyph glyph-name="Eacute" unicode="&#xc9;" horiz-adv-x="596" 
d="M460 887l-189 -138l-57 66l169 164zM551 593h-329v-169h296v-121h-296v-181h320v-122h-464v656q0 26 18 42t43 16h412v-121z" />
    <glyph glyph-name="Ecircumflex" unicode="&#xca;" horiz-adv-x="596" 
d="M321 841l-105 -94l-68 65l123 110q22 21 50 21q26 0 50 -21l122 -110l-67 -65zM551 593h-329v-169h296v-121h-296v-181h320v-122h-464v656q0 26 18 42t43 16h412v-121z" />
    <glyph glyph-name="Edieresis" unicode="&#xcb;" horiz-adv-x="596" 
d="M225 755q-33 0 -52.5 19.5t-19.5 53.5t19.5 54t52.5 20t52.5 -20t19.5 -54t-19.5 -53.5t-52.5 -19.5zM420 755q-32 0 -52 19.5t-20 53.5t20 54t52 20q33 0 53 -20t20 -54t-20 -53.5t-53 -19.5zM551 593h-329v-169h296v-121h-296v-181h320v-122h-464v656q0 26 18 42t43 16
h412v-121z" />
    <glyph glyph-name="Igrave" unicode="&#xcc;" horiz-adv-x="301" 
d="M273 813l-57 -66l-189 138l77 92zM79 0v714h144v-714h-144z" />
    <glyph glyph-name="Iacute" unicode="&#xcd;" horiz-adv-x="301" 
d="M44 815l169 164l77 -92l-189 -138zM79 0v714h144v-714h-144z" />
    <glyph glyph-name="Icircumflex" unicode="&#xce;" horiz-adv-x="301" 
d="M46 747l-68 65l123 110q22 21 50 21q26 0 50 -21l122 -110l-67 -65l-105 94zM79 0v714h144v-714h-144z" />
    <glyph glyph-name="Idieresis" unicode="&#xcf;" horiz-adv-x="301" 
d="M55 755q-33 0 -52.5 19.5t-19.5 53.5t19.5 54t52.5 20t52.5 -20t19.5 -54t-19.5 -53.5t-52.5 -19.5zM250 755q-32 0 -52 19.5t-20 53.5t20 54t52 20q33 0 53 -20t20 -54t-20 -53.5t-53 -19.5zM79 0v714h144v-714h-144z" />
    <glyph glyph-name="Eth" unicode="&#xd0;" horiz-adv-x="743" 
d="M358 714q106 0 186 -49t120 -129t40 -176q0 -151 -93 -255.5t-254 -104.5h-272v306h-68v101h68v249q0 26 18 42t44 16h211zM347 120q96 0 155 67.5t59 172.5q0 98 -56.5 166t-152.5 68h-123v-187h153v-101h-153v-186h118z" />
    <glyph glyph-name="Ntilde" unicode="&#xd1;" horiz-adv-x="766" 
d="M328 812q-37 0 -56 -52l-81 36q14 53 48.5 81.5t79.5 28.5q34 0 74.5 -24.5t58.5 -24.5q39 0 55 54l87 -31q-13 -54 -50 -85.5t-81 -31.5q-33 0 -75 24.5t-60 24.5zM555 714h131v-675q0 -21 -20.5 -33.5t-51.5 -12.5q-34 0 -52.5 9t-34.5 31l-316 447v-480h-133v661
q0 29 21 43t55 14q40 0 58.5 -12t43.5 -48l299 -418v474z" />
    <glyph glyph-name="Ograve" unicode="&#xd2;" horiz-adv-x="788" 
d="M516 813l-57 -66l-189 138l77 92zM393 -11q-159 0 -256 100t-97 265q0 168 97.5 270.5t257.5 102.5q159 0 256 -102t97 -269q0 -166 -97.5 -266.5t-257.5 -100.5zM395 115q96 0 151.5 63.5t55.5 178.5q0 117 -55.5 180.5t-151.5 63.5q-97 0 -153 -63.5t-56 -180.5
q0 -116 56 -179t153 -63z" />
    <glyph glyph-name="Oacute" unicode="&#xd3;" horiz-adv-x="788" 
d="M287 815l169 164l77 -92l-189 -138zM393 -11q-159 0 -256 100t-97 265q0 168 97.5 270.5t257.5 102.5q159 0 256 -102t97 -269q0 -166 -97.5 -266.5t-257.5 -100.5zM395 115q96 0 151.5 63.5t55.5 178.5q0 117 -55.5 180.5t-151.5 63.5q-97 0 -153 -63.5t-56 -180.5
q0 -116 56 -179t153 -63z" />
    <glyph glyph-name="Ocircumflex" unicode="&#xd4;" horiz-adv-x="788" 
d="M289 747l-68 65l123 110q22 21 50 21q26 0 50 -21l122 -110l-67 -65l-105 94zM393 -11q-159 0 -256 100t-97 265q0 168 97.5 270.5t257.5 102.5q159 0 256 -102t97 -269q0 -166 -97.5 -266.5t-257.5 -100.5zM395 115q96 0 151.5 63.5t55.5 178.5q0 117 -55.5 180.5
t-151.5 63.5q-97 0 -153 -63.5t-56 -180.5q0 -116 56 -179t153 -63z" />
    <glyph glyph-name="Otilde" unicode="&#xd5;" horiz-adv-x="788" 
d="M468 763q-33 0 -75 24.5t-60 24.5q-37 0 -56 -52l-81 36q14 53 48.5 81.5t79.5 28.5q34 0 74.5 -24.5t58.5 -24.5q39 0 55 54l87 -31q-13 -54 -50 -85.5t-81 -31.5zM393 -11q-159 0 -256 100t-97 265q0 168 97.5 270.5t257.5 102.5q159 0 256 -102t97 -269
q0 -166 -97.5 -266.5t-257.5 -100.5zM395 115q96 0 151.5 63.5t55.5 178.5q0 117 -55.5 180.5t-151.5 63.5q-97 0 -153 -63.5t-56 -180.5q0 -116 56 -179t153 -63z" />
    <glyph glyph-name="Odieresis" unicode="&#xd6;" horiz-adv-x="788" 
d="M298 755q-33 0 -52.5 19.5t-19.5 53.5t19.5 54t52.5 20t52.5 -20t19.5 -54t-19.5 -53.5t-52.5 -19.5zM493 755q-33 0 -52.5 19.5t-19.5 53.5t20 54t52 20q33 0 53 -20t20 -54t-20 -53.5t-53 -19.5zM393 -11q-159 0 -256 100t-97 265q0 168 97.5 270.5t257.5 102.5
q159 0 256 -102t97 -269q0 -166 -97.5 -266.5t-257.5 -100.5zM395 115q96 0 151.5 63.5t55.5 178.5q0 117 -55.5 180.5t-151.5 63.5q-97 0 -153 -63.5t-56 -180.5q0 -116 56 -179t153 -63z" />
    <glyph glyph-name="multiply" unicode="&#xd7;" horiz-adv-x="479" 
d="M125 122l-81 74l119 119l-119 119l82 74l113 -116l114 117l82 -75l-120 -119l120 -119l-82 -75l-114 117z" />
    <glyph glyph-name="Oslash" unicode="&#xd8;" horiz-adv-x="788" 
d="M649 627q99 -102 99 -271q0 -166 -97.5 -266.5t-257.5 -100.5q-100 0 -179 42l-53 -72l-74 57l52 71q-99 101 -99 267q0 168 97.5 270.5t257.5 102.5q99 0 178 -42l49 67l75 -59zM186 357q0 -92 37 -154l273 375q-44 23 -101 23q-97 0 -153 -63.5t-56 -180.5zM395 115
q96 0 151.5 63.5t55.5 178.5q0 95 -37 155l-273 -374q44 -23 103 -23z" />
    <glyph glyph-name="Ugrave" unicode="&#xd9;" horiz-adv-x="702" 
d="M459 820l-57 -66l-189 138l77 92zM350 -11q-131 0 -204.5 71t-73.5 192v462h144v-465q0 -136 134 -136q136 0 136 136v465h143v-462q0 -121 -74 -192t-205 -71z" />
    <glyph glyph-name="Uacute" unicode="&#xda;" horiz-adv-x="702" 
d="M244 815l169 164l77 -92l-189 -138zM350 -11q-131 0 -204.5 71t-73.5 192v462h144v-465q0 -136 134 -136q136 0 136 136v465h143v-462q0 -121 -74 -192t-205 -71z" />
    <glyph glyph-name="Ucircumflex" unicode="&#xdb;" horiz-adv-x="702" 
d="M246 747l-68 65l123 110q22 21 50 21q26 0 50 -21l122 -110l-67 -65l-105 94zM350 -11q-131 0 -204.5 71t-73.5 192v462h144v-465q0 -136 134 -136q136 0 136 136v465h143v-462q0 -121 -74 -192t-205 -71z" />
    <glyph glyph-name="Udieresis" unicode="&#xdc;" horiz-adv-x="702" 
d="M256 755q-33 0 -52.5 19.5t-19.5 53.5t19.5 54t52.5 20t52.5 -20t19.5 -54t-19.5 -53.5t-52.5 -19.5zM451 755q-33 0 -52.5 19.5t-19.5 53.5t20 54t52 20q33 0 53 -20t20 -54t-20 -53.5t-53 -19.5zM350 -11q-131 0 -204.5 71t-73.5 192v462h144v-465q0 -136 134 -136
q136 0 136 136v465h143v-462q0 -121 -74 -192t-205 -71z" />
    <glyph glyph-name="Yacute" unicode="&#xdd;" horiz-adv-x="651" 
d="M465 887l-189 -138l-57 66l169 164zM641 714l-244 -454v-260h-143v260l-243 454h155l160 -319l162 319h153z" />
    <glyph glyph-name="Thorn" unicode="&#xde;" horiz-adv-x="636" 
d="M351 602q120 0 185.5 -65.5t65.5 -166.5q0 -110 -66.5 -171.5t-189.5 -61.5h-123v-137h-144v714h144v-112h128zM340 256q117 0 117 114q0 54 -30 83t-87 29h-117v-226h117z" />
    <glyph glyph-name="germandbls" unicode="&#xdf;" horiz-adv-x="605" 
d="M233 20l35 101q41 -22 72 -22q44 0 69 24.5t25 61.5q0 26 -14.5 47.5t-34.5 36.5l-40.5 30t-34.5 35.5t-14 45.5q0 34 35 86t35 87q0 29 -19 47.5t-53 18.5q-45 0 -71.5 -37.5t-26.5 -107.5v-474h-136v479q0 123 68.5 185.5t172.5 62.5q86 0 144.5 -46t58.5 -119
q0 -39 -18 -73t-36 -58t-18 -37q0 -15 22.5 -33t49.5 -36t49.5 -57t22.5 -91q0 -79 -63 -133.5t-155 -54.5q-73 0 -125 31z" />
    <glyph glyph-name="agrave" unicode="&#xe0;" horiz-adv-x="540" 
d="M398 606l-57 -66l-189 138l77 92zM264 513q101 0 161 -54.5t60 -153.5v-305h-120v65q-57 -77 -162 -77q-77 0 -124.5 42.5t-47.5 112.5q0 86 69 125.5t175 39.5q45 0 85 -6v7q0 47 -29 71.5t-77 24.5q-78 0 -152 -57l-58 85q85 80 220 80zM236 89q54 0 87 37t37 96
q-39 3 -75 3q-119 0 -119 -73q0 -28 19 -45.5t51 -17.5z" />
    <glyph glyph-name="aacute" unicode="&#xe1;" horiz-adv-x="540" 
d="M407 678l-189 -138l-57 66l169 164zM264 513q101 0 161 -54.5t60 -153.5v-305h-120v65q-57 -77 -162 -77q-77 0 -124.5 42.5t-47.5 112.5q0 86 69 125.5t175 39.5q45 0 85 -6v7q0 47 -29 71.5t-77 24.5q-78 0 -152 -57l-58 85q85 80 220 80zM236 89q54 0 87 37t37 96
q-39 3 -75 3q-119 0 -119 -73q0 -28 19 -45.5t51 -17.5z" />
    <glyph glyph-name="acircumflex" unicode="&#xe2;" horiz-adv-x="540" 
d="M271 638l-105 -94l-68 65l123 110q22 21 50 21q26 0 50 -21l122 -110l-67 -65zM264 513q101 0 161 -54.5t60 -153.5v-305h-120v65q-57 -77 -162 -77q-77 0 -124.5 42.5t-47.5 112.5q0 86 69 125.5t175 39.5q45 0 85 -6v7q0 47 -29 71.5t-77 24.5q-78 0 -152 -57l-58 85
q85 80 220 80zM236 89q54 0 87 37t37 96q-39 3 -75 3q-119 0 -119 -73q0 -28 19 -45.5t51 -17.5z" />
    <glyph glyph-name="atilde" unicode="&#xe3;" horiz-adv-x="540" 
d="M209 612q-37 0 -56 -52l-81 36q14 53 48.5 81.5t79.5 28.5q34 0 74.5 -24.5t58.5 -24.5q39 0 55 54l87 -31q-13 -54 -50 -85.5t-81 -31.5q-33 0 -75 24.5t-60 24.5zM264 513q101 0 161 -54.5t60 -153.5v-305h-120v65q-57 -77 -162 -77q-77 0 -124.5 42.5t-47.5 112.5
q0 86 69 125.5t175 39.5q45 0 85 -6v7q0 47 -29 71.5t-77 24.5q-78 0 -152 -57l-58 85q85 80 220 80zM236 89q54 0 87 37t37 96q-39 3 -75 3q-119 0 -119 -73q0 -28 19 -45.5t51 -17.5z" />
    <glyph glyph-name="adieresis" unicode="&#xe4;" horiz-adv-x="540" 
d="M173 556q-33 0 -52.5 19.5t-19.5 53.5t19.5 54t52.5 20t52.5 -20t19.5 -54t-19.5 -53.5t-52.5 -19.5zM368 556q-32 0 -52 20t-20 53q0 34 20 54t52 20q33 0 53 -20t20 -54t-20 -53.5t-53 -19.5zM264 513q101 0 161 -54.5t60 -153.5v-305h-120v65q-57 -77 -162 -77
q-77 0 -124.5 42.5t-47.5 112.5q0 86 69 125.5t175 39.5q45 0 85 -6v7q0 47 -29 71.5t-77 24.5q-78 0 -152 -57l-58 85q85 80 220 80zM236 89q54 0 87 37t37 96q-39 3 -75 3q-119 0 -119 -73q0 -28 19 -45.5t51 -17.5z" />
    <glyph glyph-name="aring" unicode="&#xe5;" horiz-adv-x="540" 
d="M270 552q-48 0 -80.5 31t-32.5 77t32.5 77t80.5 31t80.5 -31t32.5 -77t-32.5 -77t-80.5 -31zM270 700q-18 0 -29.5 -11.5t-11.5 -28.5t11.5 -28.5t29.5 -11.5q17 0 28.5 11.5t11.5 28.5t-11.5 28.5t-28.5 11.5zM264 513q101 0 161 -54.5t60 -153.5v-305h-120v65
q-57 -77 -162 -77q-77 0 -124.5 42.5t-47.5 112.5q0 86 69 125.5t175 39.5q45 0 85 -6v7q0 47 -29 71.5t-77 24.5q-78 0 -152 -57l-58 85q85 80 220 80zM236 89q54 0 87 37t37 96q-39 3 -75 3q-119 0 -119 -73q0 -28 19 -45.5t51 -17.5z" />
    <glyph glyph-name="ae" unicode="&#xe6;" horiz-adv-x="864" 
d="M618 96q76 0 151 53l55 -88q-92 -73 -215 -73q-127 0 -193 89q-69 -90 -202 -90q-84 0 -133.5 43t-49.5 114q0 85 69 124.5t175 39.5q45 0 85 -6v7q0 47 -29 71.5t-77 24.5q-78 0 -152 -58l-57 86q85 80 219 80q118 0 177 -70q70 70 180 70q86 0 147.5 -47t61.5 -128
q0 -62 -38.5 -102.5t-118.5 -40.5h-181q21 -99 126 -99zM619 405q-49 0 -85 -32.5t-45 -89.5l155 -1q30 0 46.5 15.5t16.5 40.5q0 27 -24.5 47t-63.5 20zM239 89q52 0 84.5 37t36.5 96q-39 3 -75 3q-119 0 -119 -72q0 -29 19 -46.5t54 -17.5z" />
    <glyph glyph-name="ccedilla" unicode="&#xe7;" horiz-adv-x="529" 
d="M280 -12q-105 0 -175.5 69t-70.5 191q0 121 70.5 193t186.5 72q70 0 126 -29.5t86 -89.5l-103 -58q-35 65 -107 65q-53 0 -88 -38t-35 -114q0 -75 33.5 -111.5t85.5 -36.5q72 0 121 78l99 -57q-30 -62 -89.5 -98t-139.5 -36zM251 -256q-60 0 -106 23l27 80q30 -16 64 -16
q49 0 49 27q0 15 -21 23t-55 6l14 71q79 9 125 -20t46 -81q0 -46 -38.5 -79.5t-104.5 -33.5z" />
    <glyph glyph-name="egrave" unicode="&#xe8;" horiz-adv-x="538" 
d="M412 606l-57 -66l-189 138l77 92zM293 97q79 0 151 53l55 -88q-94 -74 -215 -74q-115 0 -183 71.5t-68 183.5q0 113 70 191.5t191 78.5q88 0 149 -46.5t61 -127.5q0 -62 -38.5 -102.5t-118.5 -40.5h-186q21 -99 132 -99zM293 410q-49 0 -87 -32t-48 -90h160q30 0 46.5 15
t16.5 40q0 28 -24.5 47.5t-63.5 19.5z" />
    <glyph glyph-name="eacute" unicode="&#xe9;" horiz-adv-x="538" 
d="M421 678l-189 -138l-57 66l169 164zM293 97q79 0 151 53l55 -88q-94 -74 -215 -74q-115 0 -183 71.5t-68 183.5q0 113 70 191.5t191 78.5q88 0 149 -46.5t61 -127.5q0 -62 -38.5 -102.5t-118.5 -40.5h-186q21 -99 132 -99zM293 410q-49 0 -87 -32t-48 -90h160
q30 0 46.5 15t16.5 40q0 28 -24.5 47.5t-63.5 19.5z" />
    <glyph glyph-name="ecircumflex" unicode="&#xea;" horiz-adv-x="538" 
d="M285 638l-105 -94l-68 65l123 110q22 21 50 21q26 0 50 -21l122 -110l-67 -65zM293 97q79 0 151 53l55 -88q-94 -74 -215 -74q-115 0 -183 71.5t-68 183.5q0 113 70 191.5t191 78.5q88 0 149 -46.5t61 -127.5q0 -62 -38.5 -102.5t-118.5 -40.5h-186q21 -99 132 -99z
M293 410q-49 0 -87 -32t-48 -90h160q30 0 46.5 15t16.5 40q0 28 -24.5 47.5t-63.5 19.5z" />
    <glyph glyph-name="edieresis" unicode="&#xeb;" horiz-adv-x="538" 
d="M187 556q-33 0 -52.5 19.5t-19.5 53.5t19.5 54t52.5 20t52.5 -20t19.5 -54t-19.5 -53.5t-52.5 -19.5zM382 556q-32 0 -52 20t-20 53q0 34 20 54t52 20q33 0 53 -20t20 -54t-20 -53.5t-53 -19.5zM293 97q79 0 151 53l55 -88q-94 -74 -215 -74q-115 0 -183 71.5t-68 183.5
q0 113 70 191.5t191 78.5q88 0 149 -46.5t61 -127.5q0 -62 -38.5 -102.5t-118.5 -40.5h-186q21 -99 132 -99zM293 410q-49 0 -87 -32t-48 -90h160q30 0 46.5 15t16.5 40q0 28 -24.5 47.5t-63.5 19.5z" />
    <glyph glyph-name="igrave" unicode="&#xec;" horiz-adv-x="251" 
d="M254 606l-57 -66l-189 138l77 92zM59 0v500h132v-500h-132z" />
    <glyph glyph-name="iacute" unicode="&#xed;" horiz-adv-x="251" 
d="M16 606l169 164l77 -92l-189 -138zM59 0v500h132v-500h-132z" />
    <glyph glyph-name="icircumflex" unicode="&#xee;" horiz-adv-x="251" 
d="M21 544l-68 65l123 110q22 21 50 21q26 0 50 -21l122 -110l-67 -65l-105 94zM59 0v500h132v-500h-132z" />
    <glyph glyph-name="idieresis" unicode="&#xef;" horiz-adv-x="251" 
d="M29 556q-33 0 -52.5 19.5t-19.5 53.5t19.5 54t52.5 20t52.5 -20t19.5 -54t-19.5 -53.5t-52.5 -19.5zM224 556q-32 0 -52 20t-20 53q0 34 20 54t52 20q33 0 53 -20t20 -54t-20 -53.5t-53 -19.5zM59 0v500h132v-500h-132z" />
    <glyph glyph-name="eth" unicode="&#xf0;" horiz-adv-x="563" 
d="M395 631q127 -122 127 -324q0 -150 -70.5 -235t-188.5 -85q-99 0 -164.5 64.5t-65.5 173.5q0 113 70 181.5t168 68.5q57 0 107 -26q-24 62 -77 108l-77 -62l-41 52l61 49q-51 28 -123 47l37 107q104 -22 184 -76l84 67l39 -54zM264 99q64 0 96.5 59t32.5 148v16
q-46 42 -107 42q-55 0 -88 -39t-33 -101q0 -57 27 -91t72 -34z" />
    <glyph glyph-name="ntilde" unicode="&#xf1;" 
d="M235 612q-37 0 -56 -52l-81 36q14 53 48.5 81.5t79.5 28.5q34 0 74.5 -24.5t58.5 -24.5q39 0 55 54l87 -31q-13 -54 -50 -85.5t-81 -31.5q-33 0 -75 24.5t-60 24.5zM369 513q77 0 120.5 -42.5t43.5 -121.5v-349h-138v317q0 43 -16 63t-51 20q-60 0 -128 -52v-348h-140
v500h129v-53q88 66 180 66z" />
    <glyph glyph-name="ograve" unicode="&#xf2;" horiz-adv-x="571" 
d="M413 606l-57 -66l-189 138l77 92zM285 -13q-116 0 -184 72t-67 191q1 120 68.5 191.5t182.5 71.5q118 0 185 -70.5t67 -192.5q0 -120 -67.5 -191.5t-184.5 -71.5zM285 99q119 0 119 151t-119 151q-57 0 -87.5 -38t-30.5 -113q0 -151 118 -151z" />
    <glyph glyph-name="oacute" unicode="&#xf3;" horiz-adv-x="571" 
d="M176 606l169 164l77 -92l-189 -138zM285 -13q-116 0 -184 72t-67 191q1 120 68.5 191.5t182.5 71.5q118 0 185 -70.5t67 -192.5q0 -120 -67.5 -191.5t-184.5 -71.5zM285 99q119 0 119 151t-119 151q-57 0 -87.5 -38t-30.5 -113q0 -151 118 -151z" />
    <glyph glyph-name="ocircumflex" unicode="&#xf4;" horiz-adv-x="571" 
d="M181 544l-68 65l123 110q22 21 50 21q26 0 50 -21l122 -110l-67 -65l-105 94zM285 -13q-116 0 -184 72t-67 191q1 120 68.5 191.5t182.5 71.5q118 0 185 -70.5t67 -192.5q0 -120 -67.5 -191.5t-184.5 -71.5zM285 99q119 0 119 151t-119 151q-57 0 -87.5 -38t-30.5 -113
q0 -151 118 -151z" />
    <glyph glyph-name="otilde" unicode="&#xf5;" horiz-adv-x="571" 
d="M359 563q-33 0 -75 24.5t-60 24.5q-37 0 -56 -52l-81 36q14 53 48.5 81.5t79.5 28.5q34 0 74.5 -24.5t58.5 -24.5q39 0 55 54l87 -31q-13 -54 -50 -85.5t-81 -31.5zM285 -13q-116 0 -184 72t-67 191q1 120 68.5 191.5t182.5 71.5q118 0 185 -70.5t67 -192.5
q0 -120 -67.5 -191.5t-184.5 -71.5zM285 99q119 0 119 151t-119 151q-57 0 -87.5 -38t-30.5 -113q0 -151 118 -151z" />
    <glyph glyph-name="odieresis" unicode="&#xf6;" horiz-adv-x="571" 
d="M188 556q-33 0 -52.5 19.5t-19.5 53.5t19.5 54t52.5 20t52.5 -20t19.5 -54t-19.5 -53.5t-52.5 -19.5zM383 556q-33 0 -52.5 20t-19.5 53q0 34 20 54t52 20q33 0 53 -20t20 -54t-20 -53.5t-53 -19.5zM285 -13q-116 0 -184 72t-67 191q1 120 68.5 191.5t182.5 71.5
q118 0 185 -70.5t67 -192.5q0 -120 -67.5 -191.5t-184.5 -71.5zM285 99q119 0 119 151t-119 151q-57 0 -87.5 -38t-30.5 -113q0 -151 118 -151z" />
    <glyph glyph-name="divide" unicode="&#xf7;" horiz-adv-x="478" 
d="M240 398q-29 0 -47.5 19.5t-18.5 48.5q0 30 18.5 48t47.5 18q30 0 48.5 -18t18.5 -48t-18.5 -49t-48.5 -19zM40 361h400v-111h-400v111zM240 75q-29 0 -47.5 19.5t-18.5 48.5q0 30 18.5 48t47.5 18q30 0 48.5 -18t18.5 -48t-18.5 -49t-48.5 -19z" />
    <glyph glyph-name="oslash" unicode="&#xf8;" horiz-adv-x="572" 
d="M467 446q70 -72 70 -196q0 -120 -67.5 -191.5t-184.5 -71.5q-74 0 -131 31l-45 -61l-53 36l47 64q-71 72 -69 193q1 120 68.5 191.5t182.5 71.5q73 0 129 -28l50 69l54 -38zM167 250q0 -49 14 -85l162 223q-23 13 -58 13q-57 0 -87.5 -38t-30.5 -113zM285 99
q119 0 119 151q0 56 -16 89l-164 -225q26 -15 61 -15z" />
    <glyph glyph-name="ugrave" unicode="&#xf9;" horiz-adv-x="585" 
d="M416 606l-57 -66l-189 138l77 92zM391 500h134v-500h-129v55q-85 -67 -178 -67q-74 0 -117.5 42t-43.5 122v348h136v-317q0 -82 68 -82q61 0 130 58v341z" />
    <glyph glyph-name="uacute" unicode="&#xfa;" horiz-adv-x="585" 
d="M424 678l-189 -138l-57 66l169 164zM391 500h134v-500h-129v55q-85 -67 -178 -67q-74 0 -117.5 42t-43.5 122v348h136v-317q0 -82 68 -82q61 0 130 58v341z" />
    <glyph glyph-name="ucircumflex" unicode="&#xfb;" horiz-adv-x="585" 
d="M288 638l-105 -94l-68 65l123 110q22 21 50 21q26 0 50 -21l122 -110l-67 -65zM391 500h134v-500h-129v55q-85 -67 -178 -67q-74 0 -117.5 42t-43.5 122v348h136v-317q0 -82 68 -82q61 0 130 58v341z" />
    <glyph glyph-name="udieresis" unicode="&#xfc;" horiz-adv-x="585" 
d="M191 556q-33 0 -52.5 19.5t-19.5 53.5t19.5 54t52.5 20t52.5 -20t19.5 -54t-19.5 -53.5t-52.5 -19.5zM386 556q-32 0 -52 20t-20 53q0 34 20 54t52 20q33 0 53 -20t20 -54t-20 -53.5t-53 -19.5zM391 500h134v-500h-129v55q-85 -67 -178 -67q-74 0 -117.5 42t-43.5 122
v348h136v-317q0 -82 68 -82q61 0 130 58v341z" />
    <glyph glyph-name="yacute" unicode="&#xfd;" horiz-adv-x="524" 
d="M405 678l-189 -138l-57 66l169 164zM381 500h139l-205 -513q-15 -37 -31 -66t-40 -58.5t-58 -46t-75 -16.5q-71 0 -121 45l48 94q30 -24 66 -24q53 0 84 71l13 32l-192 482h140l118 -336z" />
    <glyph glyph-name="thorn" unicode="&#xfe;" horiz-adv-x="584" 
d="M335 513q92 0 153.5 -70t61.5 -186q0 -121 -69 -195.5t-177 -74.5q-56 0 -107 23v-198h-137v902h137v-248q63 47 138 47zM292 99q53 0 86.5 41.5t33.5 115.5q0 65 -27 105t-79 40q-59 0 -109 -48v-230q47 -24 95 -24z" />
    <glyph glyph-name="ydieresis" unicode="&#xff;" horiz-adv-x="524" 
d="M171 556q-33 0 -52.5 19.5t-19.5 53.5t19.5 54t52.5 20t52.5 -20t19.5 -54t-19.5 -53.5t-52.5 -19.5zM366 556q-32 0 -52 20t-20 53q0 34 20 54t52 20q33 0 53 -20t20 -54t-20 -53.5t-53 -19.5zM381 500h139l-205 -513q-15 -37 -31 -66t-40 -58.5t-58 -46t-75 -16.5
q-71 0 -121 45l48 94q30 -24 66 -24q53 0 84 71l13 32l-192 482h140l118 -336z" />
    <glyph glyph-name="Amacron" unicode="&#x100;" horiz-adv-x="685" 
d="M493 879v-106h-298v106h298zM533 0l-60 177h-261l-60 -177h-149l242 661q21 57 97 57q77 0 98 -58l242 -660h-149zM253 298h179l-90 265z" />
    <glyph glyph-name="amacron" unicode="&#x101;" horiz-adv-x="540" 
d="M419 674v-106h-298v106h298zM264 513q101 0 161 -54.5t60 -153.5v-305h-120v65q-57 -77 -162 -77q-77 0 -124.5 42.5t-47.5 112.5q0 86 69 125.5t175 39.5q45 0 85 -6v7q0 47 -29 71.5t-77 24.5q-78 0 -152 -57l-58 85q85 80 220 80zM236 89q54 0 87 37t37 96
q-39 3 -75 3q-119 0 -119 -73q0 -28 19 -45.5t51 -17.5z" />
    <glyph glyph-name="Abreve" unicode="&#x102;" horiz-adv-x="685" 
d="M342 761q-78 0 -120 47t-40 114h99q-1 -30 14 -54t47 -24t47 24t14 54h99q2 -67 -40 -114t-120 -47zM533 0l-60 177h-261l-60 -177h-149l242 661q21 57 97 57q77 0 98 -58l242 -660h-149zM253 298h179l-90 265z" />
    <glyph glyph-name="abreve" unicode="&#x103;" horiz-adv-x="540" 
d="M271 560q-78 0 -120 47t-40 114h99q-1 -30 14 -54t47 -24t47 24t14 54h99q2 -67 -40 -114t-120 -47zM264 513q101 0 161 -54.5t60 -153.5v-305h-120v65q-57 -77 -162 -77q-77 0 -124.5 42.5t-47.5 112.5q0 86 69 125.5t175 39.5q45 0 85 -6v7q0 47 -29 71.5t-77 24.5
q-78 0 -152 -57l-58 85q85 80 220 80zM236 89q54 0 87 37t37 96q-39 3 -75 3q-119 0 -119 -73q0 -28 19 -45.5t51 -17.5z" />
    <glyph glyph-name="Aogonek" unicode="&#x104;" horiz-adv-x="685" 
d="M676 -112l42 -79q-48 -43 -105 -43q-49 0 -80.5 31t-31.5 80q0 70 65 123h-33l-60 177h-261l-60 -177h-149l242 661q21 57 97 57q77 0 98 -58l242 -660q-36 -14 -54 -37.5t-18 -46.5q0 -17 9 -28t26 -11q15 0 31 11zM253 298h179l-90 265z" />
    <glyph glyph-name="aogonek" unicode="&#x105;" horiz-adv-x="540" 
d="M480 -112l42 -79q-48 -43 -105 -43q-49 0 -80.5 31t-31.5 80q0 70 65 123h-5v65q-57 -77 -162 -77q-77 0 -124.5 42.5t-47.5 112.5q0 86 69 125.5t175 39.5q45 0 85 -6v7q0 47 -29 71.5t-77 24.5q-78 0 -152 -57l-58 85q85 80 220 80q101 0 161 -54.5t60 -153.5v-305h1
q-36 -14 -54 -37.5t-18 -46.5q0 -17 9 -28t26 -11q15 0 31 11zM236 89q54 0 87 37t37 96q-39 3 -75 3q-119 0 -119 -73q0 -28 19 -45.5t51 -17.5z" />
    <glyph glyph-name="Cacute" unicode="&#x106;" horiz-adv-x="702" 
d="M284 816l169 164l77 -92l-189 -138zM382 -11q-149 0 -245.5 96t-96.5 268q0 171 99 272.5t255 101.5q93 0 166.5 -40.5t115.5 -112.5l-106 -71q-61 100 -172 100q-97 0 -154.5 -64.5t-57.5 -180.5q0 -115 58 -178t148 -63q116 0 203 101l89 -87q-121 -142 -302 -142z" />
    <glyph glyph-name="cacute" unicode="&#x107;" horiz-adv-x="529" 
d="M181 606l169 164l77 -92l-189 -138zM280 -12q-105 0 -175.5 69t-70.5 191q0 121 70.5 193t186.5 72q70 0 126 -29.5t86 -89.5l-103 -58q-35 65 -107 65q-53 0 -88 -38t-35 -114q0 -75 33.5 -111.5t85.5 -36.5q72 0 121 78l99 -57q-30 -62 -89.5 -98t-139.5 -36z" />
    <glyph glyph-name="Ccircumflex" unicode="&#x108;" horiz-adv-x="702" 
d="M286 748l-68 65l123 110q22 21 50 21q26 0 50 -21l122 -110l-67 -65l-105 94zM382 -11q-149 0 -245.5 96t-96.5 268q0 171 99 272.5t255 101.5q93 0 166.5 -40.5t115.5 -112.5l-106 -71q-61 100 -172 100q-97 0 -154.5 -64.5t-57.5 -180.5q0 -115 58 -178t148 -63
q116 0 203 101l89 -87q-121 -142 -302 -142z" />
    <glyph glyph-name="ccircumflex" unicode="&#x109;" horiz-adv-x="529" 
d="M186 544l-68 65l123 110q22 21 50 21q26 0 50 -21l122 -110l-67 -65l-105 94zM280 -12q-105 0 -175.5 69t-70.5 191q0 121 70.5 193t186.5 72q70 0 126 -29.5t86 -89.5l-103 -58q-35 65 -107 65q-53 0 -88 -38t-35 -114q0 -75 33.5 -111.5t85.5 -36.5q72 0 121 78l99 -57
q-30 -62 -89.5 -98t-139.5 -36z" />
    <glyph glyph-name="Cdotaccent" unicode="&#x10a;" horiz-adv-x="702" 
d="M392 759q-37 0 -58.5 22t-21.5 60t21.5 60t58.5 22t59 -22.5t22 -59.5t-22 -59.5t-59 -22.5zM382 -11q-149 0 -245.5 96t-96.5 268q0 171 99 272.5t255 101.5q93 0 166.5 -40.5t115.5 -112.5l-106 -71q-61 100 -172 100q-97 0 -154.5 -64.5t-57.5 -180.5q0 -115 58 -178
t148 -63q116 0 203 101l89 -87q-121 -142 -302 -142z" />
    <glyph glyph-name="cdotaccent" unicode="&#x10b;" horiz-adv-x="529" 
d="M291 560q-37 0 -58.5 22t-21.5 60t21.5 60t58.5 22t59 -22.5t22 -59.5t-22 -59.5t-59 -22.5zM280 -12q-105 0 -175.5 69t-70.5 191q0 121 70.5 193t186.5 72q70 0 126 -29.5t86 -89.5l-103 -58q-35 65 -107 65q-53 0 -88 -38t-35 -114q0 -75 33.5 -111.5t85.5 -36.5
q72 0 121 78l99 -57q-30 -62 -89.5 -98t-139.5 -36z" />
    <glyph glyph-name="Ccaron" unicode="&#x10c;" horiz-adv-x="702" 
d="M286 954l105 -94l105 94l67 -65l-122 -110q-24 -21 -50 -21q-28 0 -50 21l-123 110zM382 -11q-149 0 -245.5 96t-96.5 268q0 171 99 272.5t255 101.5q93 0 166.5 -40.5t115.5 -112.5l-106 -71q-61 100 -172 100q-97 0 -154.5 -64.5t-57.5 -180.5q0 -115 58 -178t148 -63
q116 0 203 101l89 -87q-121 -142 -302 -142z" />
    <glyph glyph-name="ccaron" unicode="&#x10d;" horiz-adv-x="529" 
d="M188 745l105 -94l105 94l67 -65l-122 -110q-24 -21 -50 -21q-28 0 -50 21l-123 110zM280 -12q-105 0 -175.5 69t-70.5 191q0 121 70.5 193t186.5 72q70 0 126 -29.5t86 -89.5l-103 -58q-35 65 -107 65q-53 0 -88 -38t-35 -114q0 -75 33.5 -111.5t85.5 -36.5q72 0 121 78
l99 -57q-30 -62 -89.5 -98t-139.5 -36z" />
    <glyph glyph-name="Dcaron" unicode="&#x10e;" horiz-adv-x="736" 
d="M245 953l105 -94l105 94l67 -65l-122 -110q-24 -21 -50 -21q-28 0 -50 21l-123 110zM78 0v656q0 26 18 42t44 16h211q106 0 186 -49t120 -129t40 -176q0 -151 -93 -255.5t-254 -104.5h-272zM222 120h118q96 0 155 67.5t59 172.5q0 98 -56.5 166t-152.5 68h-123v-474z" />
    <glyph glyph-name="dcaron" unicode="&#x10f;" horiz-adv-x="609" 
d="M619 756l115 -30l-76 -186l-89 23zM390 482v232h135v-714h-127v44q-65 -57 -149 -57q-91 0 -153 70t-62 185q0 123 68.5 197t172.5 74q64 0 115 -31zM281 99q61 0 109 49v214q-45 39 -99 39q-53 0 -85.5 -40.5t-32.5 -116.5q0 -65 28 -105t80 -40z" />
    <glyph glyph-name="Dcroat" unicode="&#x110;" horiz-adv-x="743" 
d="M358 714q106 0 186 -49t120 -129t40 -176q0 -151 -93 -255.5t-254 -104.5h-272v306h-68v101h68v249q0 26 18 42t44 16h211zM347 120q96 0 155 67.5t59 172.5q0 98 -56.5 166t-152.5 68h-123v-187h153v-101h-153v-186h118z" />
    <glyph glyph-name="dcroat" unicode="&#x111;" horiz-adv-x="585" 
d="M587 624v-78h-62v-546h-127v44q-65 -57 -149 -57q-91 0 -153 70t-62 185q0 123 68.5 197t172.5 74q64 0 115 -31v64h-110v78h110v90h135v-90h62zM281 99q61 0 109 49v214q-45 39 -99 39q-53 0 -85.5 -40.5t-32.5 -116.5q0 -65 28 -105t80 -40z" />
    <glyph glyph-name="Emacron" unicode="&#x112;" horiz-adv-x="596" 
d="M472 879v-106h-298v106h298zM551 593h-329v-169h296v-121h-296v-181h320v-122h-464v656q0 26 18 42t43 16h412v-121z" />
    <glyph glyph-name="emacron" unicode="&#x113;" horiz-adv-x="538" 
d="M433 674v-106h-298v106h298zM293 97q79 0 151 53l55 -88q-94 -74 -215 -74q-115 0 -183 71.5t-68 183.5q0 113 70 191.5t191 78.5q88 0 149 -46.5t61 -127.5q0 -62 -38.5 -102.5t-118.5 -40.5h-186q21 -99 132 -99zM293 410q-49 0 -87 -32t-48 -90h160q30 0 46.5 15
t16.5 40q0 28 -24.5 47.5t-63.5 19.5z" />
    <glyph glyph-name="Ebreve" unicode="&#x114;" horiz-adv-x="596" 
d="M321 761q-78 0 -120 47t-40 114h99q-1 -30 14 -54t47 -24t47 24t14 54h99q2 -67 -40 -114t-120 -47zM551 593h-329v-169h296v-121h-296v-181h320v-122h-464v656q0 26 18 42t43 16h412v-121z" />
    <glyph glyph-name="ebreve" unicode="&#x115;" horiz-adv-x="538" 
d="M285 560q-78 0 -120 47t-40 114h99q-1 -30 14 -54t47 -24t47 24t14 54h99q2 -67 -40 -114t-120 -47zM293 97q79 0 151 53l55 -88q-94 -74 -215 -74q-115 0 -183 71.5t-68 183.5q0 113 70 191.5t191 78.5q88 0 149 -46.5t61 -127.5q0 -62 -38.5 -102.5t-118.5 -40.5h-186
q21 -99 132 -99zM293 410q-49 0 -87 -32t-48 -90h160q30 0 46.5 15t16.5 40q0 28 -24.5 47.5t-63.5 19.5z" />
    <glyph glyph-name="Edotaccent" unicode="&#x116;" horiz-adv-x="596" 
d="M322 758q-37 0 -58.5 22t-21.5 60t21.5 60t58.5 22t59 -22.5t22 -59.5t-22 -59.5t-59 -22.5zM551 593h-329v-169h296v-121h-296v-181h320v-122h-464v656q0 26 18 42t43 16h412v-121z" />
    <glyph glyph-name="edotaccent" unicode="&#x117;" horiz-adv-x="538" 
d="M284 560q-37 0 -58.5 22t-21.5 60t21.5 60t58.5 22t59 -22.5t22 -59.5t-22 -59.5t-59 -22.5zM293 97q79 0 151 53l55 -88q-94 -74 -215 -74q-115 0 -183 71.5t-68 183.5q0 113 70 191.5t191 78.5q88 0 149 -46.5t61 -127.5q0 -62 -38.5 -102.5t-118.5 -40.5h-186
q21 -99 132 -99zM293 410q-49 0 -87 -32t-48 -90h160q30 0 46.5 15t16.5 40q0 28 -24.5 47.5t-63.5 19.5z" />
    <glyph glyph-name="Eogonek" unicode="&#x118;" horiz-adv-x="596" 
d="M534 -114l42 -79q-48 -43 -105 -43q-49 0 -80.5 31t-31.5 80q0 72 68 125h-349v656q0 26 18 42t43 16h412v-121h-329v-169h296v-121h-296v-181h320v-122h1q-38 -15 -56.5 -39t-18.5 -48q0 -17 9.5 -27.5t25.5 -10.5q15 0 31 11z" />
    <glyph glyph-name="eogonek" unicode="&#x119;" horiz-adv-x="538" 
d="M371 -1q-35 -14 -52.5 -37t-17.5 -46q0 -17 9.5 -28t26.5 -11q15 0 31 11l42 -79q-48 -43 -105 -43q-49 0 -81 31t-32 80q0 63 55 113q-99 12 -156.5 81.5t-57.5 171.5q0 113 70 191.5t191 78.5q88 0 149 -46.5t61 -127.5q0 -62 -38.5 -102.5t-118.5 -40.5h-186
q21 -99 132 -99q79 0 151 53l55 -88q-56 -44 -128 -63zM293 410q-49 0 -87 -32t-48 -90h160q30 0 46.5 15t16.5 40q0 28 -24.5 47.5t-63.5 19.5z" />
    <glyph glyph-name="Ecaron" unicode="&#x11a;" horiz-adv-x="596" 
d="M321 757q-28 0 -50 21l-123 110l68 65l105 -94l105 94l67 -65l-122 -110q-24 -21 -50 -21zM551 593h-329v-169h296v-121h-296v-181h320v-122h-464v656q0 26 18 42t43 16h412v-121z" />
    <glyph glyph-name="ecaron" unicode="&#x11b;" horiz-adv-x="538" 
d="M286 549q-28 0 -50 21l-123 110l68 65l105 -94l105 94l67 -65l-122 -110q-24 -21 -50 -21zM293 97q79 0 151 53l55 -88q-94 -74 -215 -74q-115 0 -183 71.5t-68 183.5q0 113 70 191.5t191 78.5q88 0 149 -46.5t61 -127.5q0 -62 -38.5 -102.5t-118.5 -40.5h-186
q21 -99 132 -99zM293 410q-49 0 -87 -32t-48 -90h160q30 0 46.5 15t16.5 40q0 28 -24.5 47.5t-63.5 19.5z" />
    <glyph glyph-name="Gcircumflex" unicode="&#x11c;" horiz-adv-x="769" 
d="M295 747l-68 65l123 110q22 21 50 21q26 0 50 -21l122 -110l-67 -65l-105 94zM391 -11q-163 0 -257 98t-94 265q0 172 100 273.5t265 101.5q108 0 184.5 -46t111.5 -121l-115 -61q-52 105 -183 105q-99 0 -158 -66.5t-59 -181.5q0 -114 55 -178.5t151 -64.5
q86 0 141.5 48.5t57.5 122.5h-181v113h323v-79q0 -146 -96 -237.5t-246 -91.5z" />
    <glyph glyph-name="gcircumflex" unicode="&#x11d;" horiz-adv-x="544" 
d="M271 638l-105 -94l-68 65l123 110q22 21 50 21q26 0 50 -21l122 -110l-67 -65zM536 486q-25 -31 -74 -58q26 -38 26 -90q0 -77 -60.5 -122.5t-163.5 -45.5q-39 0 -76 8q-19 -10 -19 -28q0 -19 20 -28.5t65 -14.5q141 -16 181 -33q86 -35 86 -123q0 -82 -69 -123.5
t-193 -41.5q-110 0 -175.5 37.5t-65.5 106.5q0 77 82 110q-44 31 -44 82q0 54 53 90q-62 43 -62 124q0 80 60.5 127.5t160.5 47.5q66 0 116 -21q51 23 91 67zM266 264q47 0 74 19.5t27 55.5t-26.5 56t-73.5 20t-73.5 -20.5t-26.5 -57.5q0 -73 99 -73zM393 -57q0 26 -26 36.5
t-83 16.5q-63 6 -89 10q-52 -25 -52 -61q0 -63 122 -63q128 0 128 61z" />
    <glyph glyph-name="Gbreve" unicode="&#x11e;" horiz-adv-x="769" 
d="M400 761q-78 0 -120 47t-40 114h99q-1 -30 14 -54t47 -24t47 24t14 54h99q2 -67 -40 -114t-120 -47zM391 -11q-163 0 -257 98t-94 265q0 172 100 273.5t265 101.5q108 0 184.5 -46t111.5 -121l-115 -61q-52 105 -183 105q-99 0 -158 -66.5t-59 -181.5q0 -114 55 -178.5
t151 -64.5q86 0 141.5 48.5t57.5 122.5h-181v113h323v-79q0 -146 -96 -237.5t-246 -91.5z" />
    <glyph glyph-name="gbreve" unicode="&#x11f;" horiz-adv-x="544" 
d="M271 560q-78 0 -120 47t-40 114h99q-1 -30 14 -54t47 -24t47 24t14 54h99q2 -67 -40 -114t-120 -47zM536 486q-25 -31 -74 -58q26 -38 26 -90q0 -77 -60.5 -122.5t-163.5 -45.5q-39 0 -76 8q-19 -10 -19 -28q0 -19 20 -28.5t65 -14.5q141 -16 181 -33q86 -35 86 -123
q0 -82 -69 -123.5t-193 -41.5q-110 0 -175.5 37.5t-65.5 106.5q0 77 82 110q-44 31 -44 82q0 54 53 90q-62 43 -62 124q0 80 60.5 127.5t160.5 47.5q66 0 116 -21q51 23 91 67zM266 264q47 0 74 19.5t27 55.5t-26.5 56t-73.5 20t-73.5 -20.5t-26.5 -57.5q0 -73 99 -73z
M393 -57q0 26 -26 36.5t-83 16.5q-63 6 -89 10q-52 -25 -52 -61q0 -63 122 -63q128 0 128 61z" />
    <glyph glyph-name="Gdotaccent" unicode="&#x120;" horiz-adv-x="769" 
d="M401 758q-37 0 -58.5 22t-21.5 60t21.5 60t58.5 22t59 -22.5t22 -59.5t-22 -59.5t-59 -22.5zM391 -11q-163 0 -257 98t-94 265q0 172 100 273.5t265 101.5q108 0 184.5 -46t111.5 -121l-115 -61q-52 105 -183 105q-99 0 -158 -66.5t-59 -181.5q0 -114 55 -178.5
t151 -64.5q86 0 141.5 48.5t57.5 122.5h-181v113h323v-79q0 -146 -96 -237.5t-246 -91.5z" />
    <glyph glyph-name="gdotaccent" unicode="&#x121;" horiz-adv-x="544" 
d="M270 560q-37 0 -58.5 22t-21.5 60t21.5 60t58.5 22t59 -22.5t22 -59.5t-22 -59.5t-59 -22.5zM536 486q-25 -31 -74 -58q26 -38 26 -90q0 -77 -60.5 -122.5t-163.5 -45.5q-39 0 -76 8q-19 -10 -19 -28q0 -19 20 -28.5t65 -14.5q141 -16 181 -33q86 -35 86 -123
q0 -82 -69 -123.5t-193 -41.5q-110 0 -175.5 37.5t-65.5 106.5q0 77 82 110q-44 31 -44 82q0 54 53 90q-62 43 -62 124q0 80 60.5 127.5t160.5 47.5q66 0 116 -21q51 23 91 67zM266 264q47 0 74 19.5t27 55.5t-26.5 56t-73.5 20t-73.5 -20.5t-26.5 -57.5q0 -73 99 -73z
M393 -57q0 26 -26 36.5t-83 16.5q-63 6 -89 10q-52 -25 -52 -61q0 -63 122 -63q128 0 128 61z" />
    <glyph glyph-name="Gcommaaccent" unicode="&#x122;" horiz-adv-x="769" 
d="M410 397h323v-79q0 -146 -96 -237.5t-246 -91.5q-163 0 -257 98t-94 265q0 172 100 273.5t265 101.5q108 0 184.5 -46t111.5 -121l-115 -61q-52 105 -183 105q-99 0 -158 -66.5t-59 -181.5q0 -114 55 -178.5t151 -64.5q86 0 141.5 48.5t57.5 122.5h-181v113zM395 -38
q37 0 60.5 -27.5t23.5 -69.5q0 -52 -32 -103t-88 -87l-44 60q54 36 77 81h-7q-30 0 -49 20t-19 51q0 32 22.5 53.5t55.5 21.5z" />
    <glyph glyph-name="gcommaaccent" unicode="&#x123;" horiz-adv-x="544" 
d="M271 542q-34 0 -56.5 26t-22.5 66q0 49 30 97t83 82l42 -56q-50 -35 -73 -77h7q28 0 46 -19t18 -48q0 -30 -21.5 -50.5t-52.5 -20.5zM536 486q-25 -31 -74 -58q26 -38 26 -90q0 -77 -60.5 -122.5t-163.5 -45.5q-39 0 -76 8q-19 -10 -19 -28q0 -19 20 -28.5t65 -14.5
q141 -16 181 -33q86 -35 86 -123q0 -82 -69 -123.5t-193 -41.5q-110 0 -175.5 37.5t-65.5 106.5q0 77 82 110q-44 31 -44 82q0 54 53 90q-62 43 -62 124q0 80 60.5 127.5t160.5 47.5q66 0 116 -21q51 23 91 67zM266 264q47 0 74 19.5t27 55.5t-26.5 56t-73.5 20t-73.5 -20.5
t-26.5 -57.5q0 -73 99 -73zM393 -57q0 26 -26 36.5t-83 16.5q-63 6 -89 10q-52 -25 -52 -61q0 -63 122 -63q128 0 128 61z" />
    <glyph glyph-name="Hcircumflex" unicode="&#x124;" horiz-adv-x="745" 
d="M268 747l-68 65l123 110q22 21 50 21q26 0 50 -21l122 -110l-67 -65l-105 94zM79 0v714h144v-294h300v294h144v-714h-144v293h-300v-293h-144z" />
    <glyph glyph-name="hcircumflex" unicode="&#x125;" 
d="M235 747l-105 94l-105 -94l-68 65l123 110q22 21 50 21q26 0 50 -21l122 -110zM369 513q77 0 120.5 -42.5t43.5 -121.5v-349h-138v317q0 43 -16 63t-51 20q-60 0 -128 -52v-348h-140v714h140v-259q83 58 169 58z" />
    <glyph glyph-name="Hbar" unicode="&#x126;" horiz-adv-x="759" 
d="M738 616v-100h-64v-516h-144v293h-300v-293h-144v516h-63v100h63v98h144v-98h300v98h144v-98h64zM530 420v96h-300v-96h300z" />
    <glyph glyph-name="hbar" unicode="&#x127;" 
d="M369 513q77 0 120.5 -42.5t43.5 -121.5v-349h-138v317q0 43 -16 63t-51 20q-60 0 -128 -52v-348h-140v546h-53v78h53v90h140v-90h114v-78h-114v-91q83 58 169 58z" />
    <glyph glyph-name="Itilde" unicode="&#x128;" horiz-adv-x="301" 
d="M225 763q-33 0 -75 24.5t-60 24.5q-37 0 -56 -52l-81 36q14 53 48.5 81.5t79.5 28.5q34 0 74.5 -24.5t58.5 -24.5q39 0 55 54l87 -31q-13 -54 -50 -85.5t-81 -31.5zM79 0v714h144v-714h-144z" />
    <glyph glyph-name="itilde" unicode="&#x129;" horiz-adv-x="251" 
d="M199 563q-33 0 -75 24.5t-60 24.5q-37 0 -56 -52l-81 36q14 53 48.5 81.5t79.5 28.5q34 0 74.5 -24.5t58.5 -24.5q39 0 55 54l87 -31q-13 -54 -50 -85.5t-81 -31.5zM59 0v500h132v-500h-132z" />
    <glyph glyph-name="Imacron" unicode="&#x12a;" horiz-adv-x="301" 
d="M4 879h298v-106h-298v106zM79 0v714h144v-714h-144z" />
    <glyph glyph-name="imacron" unicode="&#x12b;" horiz-adv-x="251" 
d="M-24 674h298v-106h-298v106zM59 0v500h132v-500h-132z" />
    <glyph glyph-name="Ibreve" unicode="&#x12c;" horiz-adv-x="301" 
d="M151 761q-78 0 -120 47t-40 114h99q-1 -30 14 -54t47 -24t47 24t14 54h99q2 -67 -40 -114t-120 -47zM79 0v714h144v-714h-144z" />
    <glyph glyph-name="ibreve" unicode="&#x12d;" horiz-adv-x="251" 
d="M126 560q-78 0 -120 47t-40 114h99q-1 -30 14 -54t47 -24t47 24t14 54h99q2 -67 -40 -114t-120 -47zM59 0v500h132v-500h-132z" />
    <glyph glyph-name="Iogonek" unicode="&#x12e;" horiz-adv-x="301" 
d="M214 -114l42 -79q-48 -43 -105 -43q-49 0 -80.5 31t-31.5 80q0 72 68 125h-28v714h144v-714q-38 -15 -56.5 -39t-18.5 -48q0 -17 9.5 -27.5t25.5 -10.5q15 0 31 11z" />
    <glyph glyph-name="iogonek" unicode="&#x12f;" horiz-adv-x="252" 
d="M126 560q-37 0 -58.5 22t-21.5 60t21.5 60t58.5 22t59 -22.5t22 -59.5t-22 -59.5t-59 -22.5zM186 -112l42 -79q-48 -43 -105 -43q-49 0 -81 31t-32 80q0 69 66 123h-16v500h132v-500h-1q-36 -14 -54 -37.5t-18 -46.5q0 -17 9.5 -28t26.5 -11q15 0 31 11z" />
    <glyph glyph-name="Idotaccent" unicode="&#x130;" horiz-adv-x="301" 
d="M152 758q-37 0 -58.5 22t-21.5 60t21.5 60t58.5 22t59 -22.5t22 -59.5t-22 -59.5t-59 -22.5zM79 0v714h144v-714h-144z" />
    <glyph glyph-name="dotlessi" unicode="&#x131;" horiz-adv-x="247" 
d="M58 0v500h132v-500h-132z" />
    <glyph glyph-name="IJ" unicode="&#x132;" horiz-adv-x="785" 
d="M478 -11q-134 0 -205 104l86 88q53 -58 109 -58q45 0 72 31.5t27 83.5v477h145v-483q0 -110 -63 -176.5t-171 -66.5zM79 0v714h144v-714h-144z" />
    <glyph glyph-name="ij" unicode="&#x133;" horiz-adv-x="514" 
d="M128 560q-37 0 -58.5 22t-21.5 60t21.5 60t58.5 22t59 -22.5t22 -59.5t-22 -59.5t-59 -22.5zM384 560q-38 0 -60 22t-22 60t22 60t60 22t60.5 -22t22.5 -60t-22.5 -60t-60.5 -22zM60 0v500h135v-500h-135zM282 -197q-44 0 -94 22l20 115q27 -10 51 -10q56 0 56 63v507
h137v-511q0 -186 -170 -186z" />
    <glyph glyph-name="Jcircumflex" unicode="&#x134;" horiz-adv-x="510" 
d="M261 747l-68 65l123 110q22 21 50 21q26 0 50 -21l122 -110l-67 -65l-105 94zM204 -11q-134 0 -205 104l86 88q53 -58 109 -58q45 0 72 31.5t27 83.5v477h145v-483q0 -110 -63 -176.5t-171 -66.5z" />
    <glyph glyph-name="jcircumflex" unicode="&#x135;" horiz-adv-x="262" 
d="M31 544l-68 65l123 110q22 21 50 21q26 0 50 -21l122 -110l-67 -65l-105 94zM35 -197q-43 0 -91 22l20 115q25 -10 49 -10q54 0 54 63v507h134v-511q0 -186 -166 -186z" />
    <glyph glyph-name="Kcommaaccent" unicode="&#x136;" horiz-adv-x="618" 
d="M340 359l292 -359h-178l-236 296v-296h-139v714h139v-315l235 315h159zM332 -30q37 0 60.5 -27.5t23.5 -69.5q0 -52 -32 -103t-88 -87l-44 60q54 36 77 81h-7q-30 0 -49 20t-19 51q0 32 22.5 53.5t55.5 21.5z" />
    <glyph glyph-name="kcommaaccent" unicode="&#x137;" horiz-adv-x="531" 
d="M331 272l206 -272h-161l-178 251v-251h-139v714h139v-429l177 215h151zM283 -27q37 0 60.5 -27.5t23.5 -69.5q0 -52 -32 -103t-88 -87l-44 60q54 36 77 81h-7q-30 0 -49 20t-19 51q0 32 22.5 53.5t55.5 21.5z" />
    <glyph glyph-name="kgreenlandic" unicode="&#x138;" horiz-adv-x="531" 
d="M537 0h-161l-178 252v-252h-138v500h138v-214l178 214h151l-196 -229z" />
    <glyph glyph-name="Lacute" unicode="&#x139;" horiz-adv-x="553" 
d="M33 815l169 164l77 -92l-189 -138zM136 0q-25 0 -41.5 16.5t-16.5 41.5v656h143v-594h317v-120h-402z" />
    <glyph glyph-name="lacute" unicode="&#x13a;" horiz-adv-x="264" 
d="M25 815l169 164l77 -92l-189 -138zM60 0v714h144v-714h-144z" />
    <glyph glyph-name="Lcommaaccent" unicode="&#x13b;" horiz-adv-x="553" 
d="M221 120h317v-120h-402q-25 0 -41.5 16.5t-16.5 41.5v656h143v-594zM313 -36q37 0 60.5 -27.5t23.5 -69.5q0 -52 -32 -103t-88 -87l-44 60q54 36 77 81h-7q-30 0 -49 20t-19 51q0 32 22.5 53.5t55.5 21.5z" />
    <glyph glyph-name="lcommaaccent" unicode="&#x13c;" horiz-adv-x="257" 
d="M196 714v-714h-137v714h137zM127 -36q37 0 60.5 -27.5t23.5 -69.5q0 -52 -32 -103t-88 -87l-44 60q54 36 77 81h-7q-30 0 -49 20t-19 51q0 32 22.5 53.5t55.5 21.5z" />
    <glyph glyph-name="Lcaron" unicode="&#x13d;" horiz-adv-x="568" 
d="M373 556l50 193l115 -30l-76 -186zM136 0q-25 0 -41.5 16.5t-16.5 41.5v656h143v-594h317v-120h-402z" />
    <glyph glyph-name="lcaron" unicode="&#x13e;" horiz-adv-x="281" 
d="M232 563l50 193l115 -30l-76 -186zM59 0v714h137v-714h-137z" />
    <glyph glyph-name="Ldot" unicode="&#x13f;" horiz-adv-x="554" 
d="M136 0q-25 0 -41.5 16.5t-16.5 41.5v656h143v-594h317v-120h-402zM396 310q-34 0 -56 22t-22 57t21.5 56.5t56.5 21.5t56.5 -21.5t21.5 -56.5t-21.5 -57t-56.5 -22z" />
    <glyph glyph-name="ldot" unicode="&#x140;" horiz-adv-x="411" 
d="M59 0v714h137v-714h-137zM333 296q-34 0 -56 22t-22 57t21.5 56.5t56.5 21.5t56.5 -21.5t21.5 -56.5t-21.5 -57t-56.5 -22z" />
    <glyph glyph-name="Lslash" unicode="&#x141;" horiz-adv-x="569" 
d="M237 120h317v-120h-402q-25 0 -41.5 16.5t-16.5 41.5v169l-40 -26l-50 74l90 60v379h143v-283l77 51l52 -75l-129 -85v-202z" />
    <glyph glyph-name="lslash" unicode="&#x142;" horiz-adv-x="348" 
d="M346 414l-105 -68v-346h-137v257l-44 -29l-48 73l92 60v353h137v-263l57 37z" />
    <glyph glyph-name="Nacute" unicode="&#x143;" horiz-adv-x="766" 
d="M528 887l-189 -138l-57 66l169 164zM555 714h131v-675q0 -21 -20.5 -33.5t-51.5 -12.5q-34 0 -52.5 9t-34.5 31l-316 447v-480h-133v661q0 29 21 43t55 14q40 0 58.5 -12t43.5 -48l299 -418v474z" />
    <glyph glyph-name="nacute" unicode="&#x144;" 
d="M433 678l-189 -138l-57 66l169 164zM369 513q77 0 120.5 -42.5t43.5 -121.5v-349h-138v317q0 43 -16 63t-51 20q-60 0 -128 -52v-348h-140v500h129v-53q88 66 180 66z" />
    <glyph glyph-name="Ncommaaccent" unicode="&#x145;" horiz-adv-x="766" 
d="M555 714h131v-675q0 -21 -20.5 -33.5t-51.5 -12.5q-34 0 -52.5 9t-34.5 31l-316 447v-480h-133v661q0 29 21 43t55 14q40 0 58.5 -12t43.5 -48l299 -418v474zM386 -27q37 0 60.5 -27.5t23.5 -69.5q0 -52 -32 -103t-88 -87l-44 60q54 36 77 81h-7q-30 0 -49 20t-19 51
q0 32 22.5 53.5t55.5 21.5z" />
    <glyph glyph-name="ncommaaccent" unicode="&#x146;" 
d="M369 513q77 0 120.5 -42.5t43.5 -121.5v-349h-138v317q0 43 -16 63t-51 20q-60 0 -128 -52v-348h-140v500h129v-53q88 66 180 66zM301 -27q37 0 60.5 -27.5t23.5 -69.5q0 -52 -32 -103t-88 -87l-44 60q54 36 77 81h-7q-30 0 -49 20t-19 51q0 32 22.5 53.5t55.5 21.5z" />
    <glyph glyph-name="Ncaron" unicode="&#x147;" horiz-adv-x="766" 
d="M389 757q-28 0 -50 21l-123 110l68 65l105 -94l105 94l67 -65l-122 -110q-24 -21 -50 -21zM555 714h131v-675q0 -21 -20.5 -33.5t-51.5 -12.5q-34 0 -52.5 9t-34.5 31l-316 447v-480h-133v661q0 29 21 43t55 14q40 0 58.5 -12t43.5 -48l299 -418v474z" />
    <glyph glyph-name="ncaron" unicode="&#x148;" 
d="M298 549q-28 0 -50 21l-123 110l68 65l105 -94l105 94l67 -65l-122 -110q-24 -21 -50 -21zM369 513q77 0 120.5 -42.5t43.5 -121.5v-349h-138v317q0 43 -16 63t-51 20q-60 0 -128 -52v-348h-140v500h129v-53q88 66 180 66z" />
    <glyph glyph-name="napostrophe" unicode="&#x149;" 
d="M148 724l-88 -189l-84 27l62 197zM369 513q77 0 120.5 -42.5t43.5 -121.5v-349h-138v317q0 43 -16 63t-51 20q-60 0 -128 -52v-348h-140v500h129v-53q88 66 180 66z" />
    <glyph glyph-name="Eng" unicode="&#x14a;" horiz-adv-x="778" 
d="M561 714h140v-691q0 -112 -66.5 -173.5t-165.5 -61.5q-96 0 -167 45l48 119q53 -28 109 -28q36 0 63 19t37 53l-348 493v-489h-133v661q0 29 21 43t55 14q40 0 58 -12.5t44 -47.5l305 -423v479z" />
    <glyph glyph-name="eng" unicode="&#x14b;" horiz-adv-x="590" 
d="M368 513q77 0 121.5 -42t44.5 -121v-361q0 -90 -48.5 -134.5t-118.5 -44.5q-46 0 -91 16l26 111q23 -7 40 -7q53 0 53 59v330q0 42 -16 61.5t-52 19.5q-60 0 -127 -51v-349h-140v500h129v-55q89 68 179 68z" />
    <glyph glyph-name="Omacron" unicode="&#x14c;" horiz-adv-x="788" 
d="M247 879h298v-106h-298v106zM393 -11q-159 0 -256 100t-97 265q0 168 97.5 270.5t257.5 102.5q159 0 256 -102t97 -269q0 -166 -97.5 -266.5t-257.5 -100.5zM395 115q96 0 151.5 63.5t55.5 178.5q0 117 -55.5 180.5t-151.5 63.5q-97 0 -153 -63.5t-56 -180.5
q0 -116 56 -179t153 -63z" />
    <glyph glyph-name="omacron" unicode="&#x14d;" horiz-adv-x="571" 
d="M136 674h298v-106h-298v106zM285 -13q-116 0 -184 72t-67 191q1 120 68.5 191.5t182.5 71.5q118 0 185 -70.5t67 -192.5q0 -120 -67.5 -191.5t-184.5 -71.5zM285 99q119 0 119 151t-119 151q-57 0 -87.5 -38t-30.5 -113q0 -151 118 -151z" />
    <glyph glyph-name="Obreve" unicode="&#x14e;" horiz-adv-x="788" 
d="M394 761q-78 0 -120 47t-40 114h99q-1 -30 14 -54t47 -24t47 24t14 54h99q2 -67 -40 -114t-120 -47zM393 -11q-159 0 -256 100t-97 265q0 168 97.5 270.5t257.5 102.5q159 0 256 -102t97 -269q0 -166 -97.5 -266.5t-257.5 -100.5zM395 115q96 0 151.5 63.5t55.5 178.5
q0 117 -55.5 180.5t-151.5 63.5q-97 0 -153 -63.5t-56 -180.5q0 -116 56 -179t153 -63z" />
    <glyph glyph-name="obreve" unicode="&#x14f;" horiz-adv-x="571" 
d="M286 560q-78 0 -120 47t-40 114h99q-1 -30 14 -54t47 -24t47 24t14 54h99q2 -67 -40 -114t-120 -47zM285 -13q-116 0 -184 72t-67 191q1 120 68.5 191.5t182.5 71.5q118 0 185 -70.5t67 -192.5q0 -120 -67.5 -191.5t-184.5 -71.5zM285 99q119 0 119 151t-119 151
q-57 0 -87.5 -38t-30.5 -113q0 -151 118 -151z" />
    <glyph glyph-name="Ohungarumlaut" unicode="&#x150;" horiz-adv-x="788" 
d="M246 802l97 184l96 -55l-117 -175zM410 802l114 184l93 -55l-131 -175zM393 -11q-159 0 -256 100t-97 265q0 168 97.5 270.5t257.5 102.5q159 0 256 -102t97 -269q0 -166 -97.5 -266.5t-257.5 -100.5zM395 115q96 0 151.5 63.5t55.5 178.5q0 117 -55.5 180.5t-151.5 63.5
q-97 0 -153 -63.5t-56 -180.5q0 -116 56 -179t153 -63z" />
    <glyph glyph-name="ohungarumlaut" unicode="&#x151;" horiz-adv-x="571" 
d="M129 593l97 184l96 -55l-117 -175zM293 593l114 184l93 -55l-131 -175zM285 -13q-116 0 -184 72t-67 191q1 120 68.5 191.5t182.5 71.5q118 0 185 -70.5t67 -192.5q0 -120 -67.5 -191.5t-184.5 -71.5zM285 99q119 0 119 151t-119 151q-57 0 -87.5 -38t-30.5 -113
q0 -151 118 -151z" />
    <glyph glyph-name="OE" unicode="&#x152;" horiz-adv-x="1114" 
d="M1071 595h-335v-171h293v-121h-293v-181h324v-122h-468v66q-85 -77 -211 -77q-157 0 -249 100t-92 268t92 269t249 101q125 0 211 -76v7q0 26 17.5 42t43.5 16h418v-121zM385 113q91 0 147 64.5t56 179.5q0 116 -56 181t-147 65q-92 0 -146 -64.5t-54 -181.5
q0 -116 54 -180t146 -64z" />
    <glyph glyph-name="oe" unicode="&#x153;" horiz-adv-x="904" 
d="M662 97q75 0 145 52l56 -88q-94 -73 -214 -73q-119 0 -186 75q-65 -76 -179 -76t-182.5 72t-67.5 191q1 120 68.5 191.5t181.5 71.5q118 0 183 -81q73 81 193 81q86 0 148 -46.5t62 -127.5q0 -62 -39 -102.5t-118 -40.5h-182q26 -99 131 -99zM659 405q-50 0 -86 -32.5
t-46 -89.5h157q30 0 46 15t16 40q0 27 -24.5 47t-62.5 20zM284 99q55 0 85 38t30 113t-30 113t-85 38t-85 -38t-30 -113t30 -113t85 -38z" />
    <glyph glyph-name="Racute" unicode="&#x154;" horiz-adv-x="641" 
d="M450 887l-189 -138l-57 66l169 164zM446 0l-155 268h-74v-268h-139v656q0 25 17 41.5t42 16.5h215q116 0 178.5 -61t62.5 -163q0 -167 -157 -209l174 -281h-164zM217 594v-211h115q116 0 116 108q0 48 -29 75.5t-85 27.5h-117z" />
    <glyph glyph-name="racute" unicode="&#x155;" horiz-adv-x="418" 
d="M360 678l-189 -138l-57 66l169 164zM343 513q45 0 76 -18l-28 -108q-35 11 -61 11q-72 0 -132 -56v-342h-138v500h133v-58q68 71 150 71z" />
    <glyph glyph-name="Rcommaaccent" unicode="&#x156;" horiz-adv-x="641" 
d="M436 281l174 -281h-164l-155 268h-74v-268h-139v656q0 25 17 41.5t42 16.5h215q116 0 178.5 -61t62.5 -163q0 -167 -157 -209zM217 594v-211h115q116 0 116 108q0 48 -29 75.5t-85 27.5h-117zM328 -27q37 0 60.5 -27.5t23.5 -69.5q0 -52 -32 -103t-88 -87l-44 60
q54 36 77 81h-7q-30 0 -49 20t-19 51q0 32 22.5 53.5t55.5 21.5z" />
    <glyph glyph-name="rcommaaccent" unicode="&#x157;" horiz-adv-x="418" 
d="M343 513q45 0 76 -18l-28 -108q-35 11 -61 11q-72 0 -132 -56v-342h-138v500h133v-58q68 71 150 71zM130 -34q37 0 60.5 -27.5t23.5 -69.5q0 -52 -32 -103t-88 -87l-44 60q54 36 77 81h-7q-30 0 -49 20t-19 51q0 32 22.5 53.5t55.5 21.5z" />
    <glyph glyph-name="Rcaron" unicode="&#x158;" horiz-adv-x="641" 
d="M312 757q-28 0 -50 21l-123 110l68 65l105 -94l105 94l67 -65l-122 -110q-24 -21 -50 -21zM446 0l-155 268h-74v-268h-139v656q0 25 17 41.5t42 16.5h215q116 0 178.5 -61t62.5 -163q0 -167 -157 -209l174 -281h-164zM217 594v-211h115q116 0 116 108q0 48 -29 75.5
t-85 27.5h-117z" />
    <glyph glyph-name="rcaron" unicode="&#x159;" horiz-adv-x="418" 
d="M226 549q-28 0 -50 21l-123 110l68 65l105 -94l105 94l67 -65l-122 -110q-24 -21 -50 -21zM343 513q45 0 76 -18l-28 -108q-35 11 -61 11q-72 0 -132 -56v-342h-138v500h133v-58q68 71 150 71z" />
    <glyph glyph-name="Sacute" unicode="&#x15a;" horiz-adv-x="581" 
d="M192 815l169 164l77 -92l-189 -138zM279 -11q-76 0 -144.5 27.5t-112.5 77.5l73 95q79 -79 184 -79q61 0 96 26.5t35 66.5q0 13 -3.5 24t-13 20t-16 14.5t-24.5 13t-26 10.5t-31.5 10.5t-31.5 10.5q-47 16 -79.5 31.5t-65.5 40t-50 60t-17 81.5q0 98 71 153t184 55
q124 0 222 -66l-59 -101q-81 51 -159 51q-53 0 -86 -22.5t-33 -62.5q0 -15 4 -27t17 -22.5l21 -17t31 -15.5t31.5 -12l38.5 -13q49 -16 81.5 -31t67 -39t51.5 -59.5t17 -81.5q0 -95 -77 -157t-196 -62z" />
    <glyph glyph-name="sacute" unicode="&#x15b;" horiz-adv-x="475" 
d="M146 605l169 164l77 -92l-189 -138zM229 -11q-130 0 -209 76l54 86q73 -59 149 -59q33 0 55.5 13t22.5 36q0 8 -3 15t-9.5 13t-12.5 10t-18 9t-19.5 7.5l-23 7.5t-22.5 7q-70 24 -107.5 56t-37.5 90q0 74 56.5 115.5t145.5 41.5q108 0 188 -58l-52 -85q-69 42 -130 42
q-33 0 -53 -12.5t-20 -32.5q0 -16 15 -28.5t27.5 -17t45.5 -15.5q34 -11 50.5 -17t44.5 -20.5t41.5 -29t24.5 -38t11 -52.5q0 -75 -62 -117.5t-152 -42.5z" />
    <glyph glyph-name="Scircumflex" unicode="&#x15c;" horiz-adv-x="581" 
d="M194 747l-68 65l123 110q22 21 50 21q26 0 50 -21l122 -110l-67 -65l-105 94zM279 -11q-76 0 -144.5 27.5t-112.5 77.5l73 95q79 -79 184 -79q61 0 96 26.5t35 66.5q0 13 -3.5 24t-13 20t-16 14.5t-24.5 13t-26 10.5t-31.5 10.5t-31.5 10.5q-47 16 -79.5 31.5t-65.5 40
t-50 60t-17 81.5q0 98 71 153t184 55q124 0 222 -66l-59 -101q-81 51 -159 51q-53 0 -86 -22.5t-33 -62.5q0 -15 4 -27t17 -22.5l21 -17t31 -15.5t31.5 -12l38.5 -13q49 -16 81.5 -31t67 -39t51.5 -59.5t17 -81.5q0 -95 -77 -157t-196 -62z" />
    <glyph glyph-name="scircumflex" unicode="&#x15d;" horiz-adv-x="475" 
d="M150 543l-68 65l123 110q22 21 50 21q26 0 50 -21l122 -110l-67 -65l-105 94zM229 -11q-130 0 -209 76l54 86q73 -59 149 -59q33 0 55.5 13t22.5 36q0 8 -3 15t-9.5 13t-12.5 10t-18 9t-19.5 7.5l-23 7.5t-22.5 7q-70 24 -107.5 56t-37.5 90q0 74 56.5 115.5t145.5 41.5
q108 0 188 -58l-52 -85q-69 42 -130 42q-33 0 -53 -12.5t-20 -32.5q0 -16 15 -28.5t27.5 -17t45.5 -15.5q34 -11 50.5 -17t44.5 -20.5t41.5 -29t24.5 -38t11 -52.5q0 -75 -62 -117.5t-152 -42.5z" />
    <glyph glyph-name="Scedilla" unicode="&#x15e;" horiz-adv-x="581" 
d="M279 -11q-76 0 -144.5 27.5t-112.5 77.5l73 95q79 -79 184 -79q61 0 96 26.5t35 66.5q0 13 -3.5 24t-13 20t-16 14.5t-24.5 13t-26 10.5t-31.5 10.5t-31.5 10.5q-47 16 -79.5 31.5t-65.5 40t-50 60t-17 81.5q0 98 71 153t184 55q124 0 222 -66l-59 -101q-81 51 -159 51
q-53 0 -86 -22.5t-33 -62.5q0 -15 4 -27t17 -22.5l21 -17t31 -15.5t31.5 -12l38.5 -13q49 -16 81.5 -31t67 -39t51.5 -59.5t17 -81.5q0 -95 -77 -157t-196 -62zM255 -267q-60 0 -106 23l27 80q30 -16 64 -16q49 0 49 27q0 15 -21 23t-55 6l14 71q79 9 125 -20t46 -81
q0 -46 -38.5 -79.5t-104.5 -33.5z" />
    <glyph glyph-name="scedilla" unicode="&#x15f;" horiz-adv-x="475" 
d="M229 -11q-130 0 -209 76l54 86q73 -59 149 -59q33 0 55.5 13t22.5 36q0 8 -3 15t-9.5 13t-12.5 10t-18 9t-19.5 7.5l-23 7.5t-22.5 7q-70 24 -107.5 56t-37.5 90q0 74 56.5 115.5t145.5 41.5q108 0 188 -58l-52 -85q-69 42 -130 42q-33 0 -53 -12.5t-20 -32.5
q0 -16 15 -28.5t27.5 -17t45.5 -15.5q34 -11 50.5 -17t44.5 -20.5t41.5 -29t24.5 -38t11 -52.5q0 -75 -62 -117.5t-152 -42.5zM192 -268q-60 0 -106 23l27 80q30 -16 64 -16q49 0 49 27q0 15 -21 23t-55 6l14 71q79 9 125 -20t46 -81q0 -46 -38.5 -79.5t-104.5 -33.5z" />
    <glyph glyph-name="Scaron" unicode="&#x160;" horiz-adv-x="581" 
d="M194 953l105 -94l105 94l67 -65l-122 -110q-24 -21 -50 -21q-28 0 -50 21l-123 110zM279 -11q-76 0 -144.5 27.5t-112.5 77.5l73 95q79 -79 184 -79q61 0 96 26.5t35 66.5q0 13 -3.5 24t-13 20t-16 14.5t-24.5 13t-26 10.5t-31.5 10.5t-31.5 10.5q-47 16 -79.5 31.5
t-65.5 40t-50 60t-17 81.5q0 98 71 153t184 55q124 0 222 -66l-59 -101q-81 51 -159 51q-53 0 -86 -22.5t-33 -62.5q0 -15 4 -27t17 -22.5l21 -17t31 -15.5t31.5 -12l38.5 -13q49 -16 81.5 -31t67 -39t51.5 -59.5t17 -81.5q0 -95 -77 -157t-196 -62z" />
    <glyph glyph-name="scaron" unicode="&#x161;" horiz-adv-x="475" 
d="M152 744l105 -94l105 94l67 -65l-122 -110q-24 -21 -50 -21q-28 0 -50 21l-123 110zM229 -11q-130 0 -209 76l54 86q73 -59 149 -59q33 0 55.5 13t22.5 36q0 8 -3 15t-9.5 13t-12.5 10t-18 9t-19.5 7.5l-23 7.5t-22.5 7q-70 24 -107.5 56t-37.5 90q0 74 56.5 115.5
t145.5 41.5q108 0 188 -58l-52 -85q-69 42 -130 42q-33 0 -53 -12.5t-20 -32.5q0 -16 15 -28.5t27.5 -17t45.5 -15.5q34 -11 50.5 -17t44.5 -20.5t41.5 -29t24.5 -38t11 -52.5q0 -75 -62 -117.5t-152 -42.5z" />
    <glyph glyph-name="Tcaron" unicode="&#x164;" horiz-adv-x="582" 
d="M186 953l105 -94l105 94l67 -65l-122 -110q-24 -21 -50 -21q-28 0 -50 21l-123 110zM567 714v-120h-203v-594h-144v594h-205v120h552z" />
    <glyph glyph-name="tcaron" unicode="&#x165;" horiz-adv-x="421" 
d="M458 726l-76 -186l-89 23l50 193zM297 110q39 0 80 27l43 -97q-67 -51 -157 -51q-81 0 -126 48t-45 135v234h-75v94h75v155h136v-155h162v-94h-162v-222q0 -40 20.5 -57t48.5 -17z" />
    <glyph glyph-name="Tbar" unicode="&#x166;" horiz-adv-x="592" 
d="M572 594h-203v-188h111v-101h-111v-305h-144v305h-110v101h110v188h-205v120h552v-120z" />
    <glyph glyph-name="tbar" unicode="&#x167;" horiz-adv-x="426" 
d="M381 137l43 -97q-67 -51 -157 -51q-81 0 -126 48t-45 135v68h-75v78h75v88h-75v94h75v155h136v-155h162v-94h-162v-88h161v-78h-161v-56q0 -40 20.5 -57t48.5 -17q39 0 80 27z" />
    <glyph glyph-name="Utilde" unicode="&#x168;" horiz-adv-x="702" 
d="M425 763q-33 0 -75 24.5t-60 24.5q-37 0 -56 -52l-81 36q14 53 48.5 81.5t79.5 28.5q34 0 74.5 -24.5t58.5 -24.5q39 0 55 54l87 -31q-13 -54 -50 -85.5t-81 -31.5zM350 -11q-131 0 -204.5 71t-73.5 192v462h144v-465q0 -136 134 -136q136 0 136 136v465h143v-462
q0 -121 -74 -192t-205 -71z" />
    <glyph glyph-name="utilde" unicode="&#x169;" horiz-adv-x="585" 
d="M227 612q-37 0 -56 -52l-81 36q14 53 48.5 81.5t79.5 28.5q34 0 74.5 -24.5t58.5 -24.5q39 0 55 54l87 -31q-13 -54 -50 -85.5t-81 -31.5q-33 0 -75 24.5t-60 24.5zM391 500h134v-500h-129v55q-85 -67 -178 -67q-74 0 -117.5 42t-43.5 122v348h136v-317q0 -82 68 -82
q61 0 130 58v341z" />
    <glyph glyph-name="Umacron" unicode="&#x16a;" horiz-adv-x="702" 
d="M204 879h298v-106h-298v106zM350 -11q-131 0 -204.5 71t-73.5 192v462h144v-465q0 -136 134 -136q136 0 136 136v465h143v-462q0 -121 -74 -192t-205 -71z" />
    <glyph glyph-name="umacron" unicode="&#x16b;" horiz-adv-x="585" 
d="M437 674v-106h-298v106h298zM391 500h134v-500h-129v55q-85 -67 -178 -67q-74 0 -117.5 42t-43.5 122v348h136v-317q0 -82 68 -82q61 0 130 58v341z" />
    <glyph glyph-name="Ubreve" unicode="&#x16c;" horiz-adv-x="702" 
d="M351 761q-78 0 -120 47t-40 114h99q-1 -30 14 -54t47 -24t47 24t14 54h99q2 -67 -40 -114t-120 -47zM350 -11q-131 0 -204.5 71t-73.5 192v462h144v-465q0 -136 134 -136q136 0 136 136v465h143v-462q0 -121 -74 -192t-205 -71z" />
    <glyph glyph-name="ubreve" unicode="&#x16d;" horiz-adv-x="585" 
d="M288 560q-78 0 -120 47t-40 114h99q-1 -30 14 -54t47 -24t47 24t14 54h99q2 -67 -40 -114t-120 -47zM391 500h134v-500h-129v55q-85 -67 -178 -67q-74 0 -117.5 42t-43.5 122v348h136v-317q0 -82 68 -82q61 0 130 58v341z" />
    <glyph glyph-name="Uring" unicode="&#x16e;" horiz-adv-x="702" 
d="M351 741q-48 0 -80.5 31t-32.5 77t32.5 77t80.5 31t80.5 -31t32.5 -77t-32.5 -77t-80.5 -31zM351 809q17 0 28.5 11.5t11.5 28.5t-11.5 28.5t-28.5 11.5q-18 0 -29.5 -11.5t-11.5 -28.5t11.5 -28.5t29.5 -11.5zM350 -11q-131 0 -204.5 71t-73.5 192v462h144v-465
q0 -136 134 -136q136 0 136 136v465h143v-462q0 -121 -74 -192t-205 -71z" />
    <glyph glyph-name="uring" unicode="&#x16f;" horiz-adv-x="585" 
d="M288 552q-48 0 -80.5 31t-32.5 77t32.5 77t80.5 31t80.5 -31t32.5 -77t-32.5 -77t-80.5 -31zM288 700q-18 0 -29.5 -11.5t-11.5 -28.5t11.5 -28.5t29.5 -11.5q17 0 28.5 11.5t11.5 28.5t-11.5 28.5t-28.5 11.5zM391 500h134v-500h-129v55q-85 -67 -178 -67
q-74 0 -117.5 42t-43.5 122v348h136v-317q0 -82 68 -82q61 0 130 58v341z" />
    <glyph glyph-name="Uhungarumlaut" unicode="&#x170;" horiz-adv-x="702" 
d="M203 802l97 184l96 -55l-117 -175zM367 802l114 184l93 -55l-131 -175zM350 -11q-131 0 -204.5 71t-73.5 192v462h144v-465q0 -136 134 -136q136 0 136 136v465h143v-462q0 -121 -74 -192t-205 -71z" />
    <glyph glyph-name="uhungarumlaut" unicode="&#x171;" horiz-adv-x="585" 
d="M324 722l-117 -175l-76 46l97 184zM371 547l-76 46l114 184l93 -55zM391 500h134v-500h-129v55q-85 -67 -178 -67q-74 0 -117.5 42t-43.5 122v348h136v-317q0 -82 68 -82q61 0 130 58v341z" />
    <glyph glyph-name="Uogonek" unicode="&#x172;" horiz-adv-x="702" 
d="M486 714h143v-462q0 -104 -55.5 -172t-156.5 -86q-64 -32 -64 -81q0 -17 10 -27.5t26 -10.5q15 0 31 11l42 -79q-48 -43 -105 -43q-49 0 -80.5 31t-31.5 80q0 65 58 117q-110 13 -170.5 82t-60.5 178v462h144v-465q0 -136 134 -136q136 0 136 136v465z" />
    <glyph glyph-name="uogonek" unicode="&#x173;" horiz-adv-x="585" 
d="M511 -113l42 -79q-48 -43 -105 -43q-49 0 -81 31t-32 80q0 71 68 124h-7v55q-85 -67 -178 -67q-74 0 -117.5 42t-43.5 122v348h136v-317q0 -82 68 -82q61 0 130 58v341h134v-500h-11l2 -1q-36 -14 -54 -37.5t-18 -46.5q0 -17 9.5 -28t26.5 -11q15 0 31 11z" />
    <glyph glyph-name="Wcircumflex" unicode="&#x174;" horiz-adv-x="974" 
d="M489 841l-105 -94l-68 65l123 110q22 21 50 21q26 0 50 -21l122 -110l-67 -65zM811 714h146l-163 -667q-14 -58 -101 -58q-89 0 -103 58l-104 386l-104 -386q-14 -58 -103 -58q-87 0 -100 58l-161 667h151l119 -557l133 478h133l135 -481z" />
    <glyph glyph-name="wcircumflex" unicode="&#x175;" horiz-adv-x="767" 
d="M383 638l-105 -94l-68 65l123 110q22 21 50 21q26 0 50 -21l122 -110l-67 -65zM630 500h126l-127 -456q-9 -28 -29 -39t-58 -11q-39 0 -59.5 11t-28.5 39l-70 284l-73 -284q-9 -29 -28.5 -39.5t-59.5 -10.5t-60 11t-28 39l-122 456h133l81 -370l95 370h133l89 -368z" />
    <glyph glyph-name="Ycircumflex" unicode="&#x176;" horiz-adv-x="651" 
d="M326 841l-105 -94l-68 65l123 110q22 21 50 21q26 0 50 -21l122 -110l-67 -65zM641 714l-244 -454v-260h-143v260l-243 454h155l160 -319l162 319h153z" />
    <glyph glyph-name="ycircumflex" unicode="&#x177;" horiz-adv-x="524" 
d="M269 638l-105 -94l-68 65l123 110q22 21 50 21q26 0 50 -21l122 -110l-67 -65zM381 500h139l-205 -513q-15 -37 -31 -66t-40 -58.5t-58 -46t-75 -16.5q-71 0 -121 45l48 94q30 -24 66 -24q53 0 84 71l13 32l-192 482h140l118 -336z" />
    <glyph glyph-name="Ydieresis" unicode="&#x178;" horiz-adv-x="651" 
d="M230 755q-33 0 -52.5 19.5t-19.5 53.5t19.5 54t52.5 20t52.5 -20t19.5 -54t-19.5 -53.5t-52.5 -19.5zM425 755q-33 0 -52.5 19.5t-19.5 53.5t20 54t52 20q33 0 53 -20t20 -54t-20 -53.5t-53 -19.5zM641 714l-244 -454v-260h-143v260l-243 454h155l160 -319l162 319h153z
" />
    <glyph glyph-name="Zacute" unicode="&#x179;" horiz-adv-x="594" 
d="M199 815l169 164l77 -92l-189 -138zM79 0q-38 0 -50 52t15 88l332 451h-323v123h444q38 0 53 -51t-15 -94l-331 -445h353v-124h-478z" />
    <glyph glyph-name="zacute" unicode="&#x17a;" horiz-adv-x="477" 
d="M129 606l169 164l77 -92l-189 -138zM71 0q-32 0 -42.5 39t11.5 65l244 298h-240l1 98h349q34 0 44 -43t-13 -69l-238 -288h256v-100h-372z" />
    <glyph glyph-name="Zdotaccent" unicode="&#x17b;" horiz-adv-x="594" 
d="M307 758q-37 0 -58.5 22t-21.5 60t21.5 60t58.5 22t59 -22.5t22 -59.5t-22 -59.5t-59 -22.5zM79 0q-38 0 -50 52t15 88l332 451h-323v123h444q38 0 53 -51t-15 -94l-331 -445h353v-124h-478z" />
    <glyph glyph-name="zdotaccent" unicode="&#x17c;" horiz-adv-x="477" 
d="M238 560q-37 0 -58.5 22t-21.5 60t21.5 60t58.5 22t59 -22.5t22 -59.5t-22 -59.5t-59 -22.5zM71 0q-32 0 -42.5 39t11.5 65l244 298h-240l1 98h349q34 0 44 -43t-13 -69l-238 -288h256v-100h-372z" />
    <glyph glyph-name="Zcaron" unicode="&#x17d;" horiz-adv-x="594" 
d="M202 953l105 -94l105 94l67 -65l-122 -110q-24 -21 -50 -21q-28 0 -50 21l-123 110zM79 0q-38 0 -50 52t15 88l332 451h-323v123h444q38 0 53 -51t-15 -94l-331 -445h353v-124h-478z" />
    <glyph glyph-name="zcaron" unicode="&#x17e;" horiz-adv-x="477" 
d="M135 745l105 -94l105 94l67 -65l-122 -110q-24 -21 -50 -21q-28 0 -50 21l-123 110zM71 0q-32 0 -42.5 39t11.5 65l244 298h-240l1 98h349q34 0 44 -43t-13 -69l-238 -288h256v-100h-372z" />
    <glyph glyph-name="Scommaaccent" unicode="&#x218;" horiz-adv-x="581" 
d="M335 419q49 -16 81.5 -31t67 -39t51.5 -59.5t17 -81.5q0 -95 -77 -157t-196 -62q-76 0 -144.5 27.5t-112.5 77.5l73 95q79 -79 184 -79q61 0 96 26.5t35 66.5q0 13 -3.5 24t-13 20t-16 14.5t-24.5 13t-26 10.5t-31.5 10.5t-31.5 10.5q-47 16 -79.5 31.5t-65.5 40t-50 60
t-17 81.5q0 98 71 153t184 55q124 0 222 -66l-59 -101q-81 51 -159 51q-53 0 -86 -22.5t-33 -62.5q0 -15 4 -27t17 -22.5l21 -17t31 -15.5t31.5 -12zM286 -39q37 0 60.5 -27.5t23.5 -69.5q0 -52 -32 -103t-88 -87l-44 60q54 36 77 81h-7q-30 0 -49 20t-19 51q0 32 22.5 53.5
t55.5 21.5z" />
    <glyph glyph-name="scommaaccent" unicode="&#x219;" horiz-adv-x="475" 
d="M271 306q34 -11 50.5 -17t44.5 -20.5t41.5 -29t24.5 -38t11 -52.5q0 -75 -62 -117.5t-152 -42.5q-130 0 -209 76l54 86q73 -59 149 -59q33 0 55.5 13t22.5 36q0 8 -3 15t-9.5 13t-12.5 10t-18 9t-19.5 7.5l-23 7.5t-22.5 7q-70 24 -107.5 56t-37.5 90q0 74 56.5 115.5
t145.5 41.5q108 0 188 -58l-52 -85q-69 42 -130 42q-33 0 -53 -12.5t-20 -32.5q0 -16 15 -28.5t27.5 -17t45.5 -15.5zM235 -37q37 0 60.5 -27.5t23.5 -69.5q0 -52 -32 -103t-88 -87l-44 60q54 36 77 81h-7q-30 0 -49 20t-19 51q0 32 22.5 53.5t55.5 21.5z" />
    <glyph glyph-name="uni021A" unicode="&#x21a;" horiz-adv-x="582" 
d="M15 714h552v-120h-203v-594h-144v594h-205v120zM292 -33q37 0 60.5 -27.5t23.5 -69.5q0 -52 -32 -103t-88 -87l-44 60q54 36 77 81h-7q-30 0 -49 20t-19 51q0 32 22.5 53.5t55.5 21.5z" />
    <glyph glyph-name="uni021B" unicode="&#x21b;" horiz-adv-x="398" 
d="M405 40q-67 -51 -157 -51q-81 0 -126 48t-45 135v234h-75v94h75v155h136v-155h162v-94h-162v-222q0 -40 20.5 -57t48.5 -17q39 0 80 27zM213 -35q37 0 60.5 -27.5t23.5 -69.5q0 -52 -32 -103t-88 -87l-44 60q54 36 77 81h-7q-30 0 -49 20t-19 51q0 32 22.5 53.5
t55.5 21.5z" />
    <glyph glyph-name="uni0237" unicode="&#x237;" horiz-adv-x="250" 
d="M26 -197q-43 0 -91 22l20 115q25 -10 49 -10q54 0 54 63v507h134v-511q0 -186 -166 -186z" />
    <glyph glyph-name="circumflex" unicode="&#x2c6;" horiz-adv-x="538" 
d="M164 544l-68 65l123 110q22 21 50 21q26 0 50 -21l122 -110l-67 -65l-105 94z" />
    <glyph glyph-name="caron" unicode="&#x2c7;" horiz-adv-x="513" 
d="M152 745l105 -94l105 94l67 -65l-122 -110q-24 -21 -50 -21q-28 0 -50 21l-123 110z" />
    <glyph glyph-name="breve" unicode="&#x2d8;" horiz-adv-x="400" 
d="M200 560q-78 0 -120 47t-40 114h99q-1 -30 14 -54t47 -24t47 24t14 54h99q2 -67 -40 -114t-120 -47z" />
    <glyph glyph-name="dotaccent" unicode="&#x2d9;" horiz-adv-x="304" 
d="M152 556q-37 0 -58.5 22t-21.5 60t21.5 60t58.5 22t59 -22.5t22 -59.5t-22 -59.5t-59 -22.5z" />
    <glyph glyph-name="ring" unicode="&#x2da;" horiz-adv-x="356" 
d="M179 552q-48 0 -80.5 31t-32.5 77t32.5 77t80.5 31t80.5 -31t32.5 -77t-32.5 -77t-80.5 -31zM179 620q17 0 28.5 11.5t11.5 28.5t-11.5 28.5t-28.5 11.5q-18 0 -29.5 -11.5t-11.5 -28.5t11.5 -28.5t29.5 -11.5z" />
    <glyph glyph-name="ogonek" unicode="&#x2db;" horiz-adv-x="384" 
d="M195 -236q-49 0 -80.5 31t-31.5 80q0 42 26 80t74 65l84 -20q-36 -14 -55 -38.5t-19 -48.5q0 -17 9 -27.5t25 -10.5q15 0 31 11l43 -78q-47 -44 -106 -44z" />
    <glyph glyph-name="tilde" unicode="&#x2dc;" horiz-adv-x="496" 
d="M321 563q-33 0 -75 24.5t-60 24.5q-37 0 -56 -52l-81 36q14 53 48.5 81.5t79.5 28.5q34 0 74.5 -24.5t58.5 -24.5q39 0 55 54l87 -31q-13 -54 -50 -85.5t-81 -31.5z" />
    <glyph glyph-name="hungarumlaut" unicode="&#x2dd;" horiz-adv-x="462" 
d="M45 593l97 184l96 -55l-117 -175zM209 593l114 184l93 -55l-131 -175z" />
    <glyph glyph-name="uni0394" unicode="&#x394;" horiz-adv-x="789" 
d="M36 0v95l277 579q23 48 82 48t82 -48l276 -579v-95h-717zM183 116h424l-213 457z" />
    <glyph glyph-name="uni03A9" unicode="&#x3a9;" horiz-adv-x="766" 
d="M603 114h125v-114h-291v113q144 88 144 252q0 105 -54.5 170.5t-145.5 65.5t-146.5 -66t-55.5 -171q0 -158 149 -254v-110h-291v114h123q-58 46 -92.5 114.5t-34.5 146.5q0 152 97.5 252.5t251.5 100.5t249.5 -100t95.5 -253q0 -80 -33.5 -147.5t-90.5 -113.5z" />
    <glyph glyph-name="uni03BC" unicode="&#x3bc;" horiz-adv-x="583" 
d="M521 163q0 -42 12 -56.5t45 -26.5l-39 -99q-97 9 -135 68q-66 -61 -152 -61q-33 0 -58 13v-187h-136v686h139v-310q0 -90 75 -90q57 0 110 58v342h139v-337z" />
    <glyph glyph-name="pi" unicode="&#x3c0;" horiz-adv-x="537" 
d="M535 391h-67v-225q0 -41 9.5 -57t39.5 -32l-49 -100q-139 29 -139 153v261h-127v-391h-138v391h-66v109h537v-109z" />
    <glyph glyph-name="Wgrave" unicode="&#x1e80;" horiz-adv-x="974" 
d="M611 813l-57 -66l-189 138l77 92zM811 714h146l-163 -667q-14 -58 -101 -58q-89 0 -103 58l-104 386l-104 -386q-14 -58 -103 -58q-87 0 -100 58l-161 667h151l119 -557l133 478h133l135 -481z" />
    <glyph glyph-name="wgrave" unicode="&#x1e81;" horiz-adv-x="767" 
d="M511 606l-57 -66l-189 138l77 92zM630 500h126l-127 -456q-9 -28 -29 -39t-58 -11q-39 0 -59.5 11t-28.5 39l-70 284l-73 -284q-9 -29 -28.5 -39.5t-59.5 -10.5t-60 11t-28 39l-122 456h133l81 -370l95 370h133l89 -368z" />
    <glyph glyph-name="Wacute" unicode="&#x1e82;" horiz-adv-x="974" 
d="M628 887l-189 -138l-57 66l169 164zM811 714h146l-163 -667q-14 -58 -101 -58q-89 0 -103 58l-104 386l-104 -386q-14 -58 -103 -58q-87 0 -100 58l-161 667h151l119 -557l133 478h133l135 -481z" />
    <glyph glyph-name="wacute" unicode="&#x1e83;" horiz-adv-x="767" 
d="M520 678l-189 -138l-57 66l169 164zM630 500h126l-127 -456q-9 -28 -29 -39t-58 -11q-39 0 -59.5 11t-28.5 39l-70 284l-73 -284q-9 -29 -28.5 -39.5t-59.5 -10.5t-60 11t-28 39l-122 456h133l81 -370l95 370h133l89 -368z" />
    <glyph glyph-name="Wdieresis" unicode="&#x1e84;" horiz-adv-x="974" 
d="M394 755q-33 0 -52.5 19.5t-19.5 53.5t19.5 54t52.5 20t52.5 -20t19.5 -54t-19.5 -53.5t-52.5 -19.5zM589 755q-33 0 -52.5 19.5t-19.5 53.5t20 54t52 20q33 0 53 -20t20 -54t-20 -53.5t-53 -19.5zM811 714h146l-163 -667q-14 -58 -101 -58q-89 0 -103 58l-104 386
l-104 -386q-14 -58 -103 -58q-87 0 -100 58l-161 667h151l119 -557l133 478h133l135 -481z" />
    <glyph glyph-name="wdieresis" unicode="&#x1e85;" horiz-adv-x="767" 
d="M286 556q-33 0 -52.5 19.5t-19.5 53.5t19.5 54t52.5 20t52.5 -20t19.5 -54t-19.5 -53.5t-52.5 -19.5zM481 556q-33 0 -52.5 20t-19.5 53q0 34 20 54t52 20q33 0 53 -20t20 -54t-20 -53.5t-53 -19.5zM630 500h126l-127 -456q-9 -28 -29 -39t-58 -11q-39 0 -59.5 11
t-28.5 39l-70 284l-73 -284q-9 -29 -28.5 -39.5t-59.5 -10.5t-60 11t-28 39l-122 456h133l81 -370l95 370h133l89 -368z" />
    <glyph glyph-name="Ygrave" unicode="&#x1ef2;" horiz-adv-x="651" 
d="M433 820l-57 -66l-189 138l77 92zM641 714l-244 -454v-260h-143v260l-243 454h155l160 -319l162 319h153z" />
    <glyph glyph-name="ygrave" unicode="&#x1ef3;" horiz-adv-x="524" 
d="M396 606l-57 -66l-189 138l77 92zM381 500h139l-205 -513q-15 -37 -31 -66t-40 -58.5t-58 -46t-75 -16.5q-71 0 -121 45l48 94q30 -24 66 -24q53 0 84 71l13 32l-192 482h140l118 -336z" />
    <glyph glyph-name="uni2009" unicode="&#x2009;" horiz-adv-x="75" 
 />
    <glyph glyph-name="endash" unicode="&#x2013;" horiz-adv-x="627" 
d="M59 361h510v-114h-510v114z" />
    <glyph glyph-name="emdash" unicode="&#x2014;" horiz-adv-x="867" 
d="M59 361h750v-114h-750v114z" />
    <glyph glyph-name="quoteleft" unicode="&#x2018;" horiz-adv-x="236" 
d="M127 685q29 0 48.5 -20.5t19.5 -51.5q0 -32 -23 -54t-56 -22q-37 0 -62 28t-25 74q0 54 38 106.5t105 87.5l34 -56q-76 -40 -99 -94q12 2 20 2z" />
    <glyph glyph-name="quoteright" unicode="&#x2019;" horiz-adv-x="233" 
d="M122 835q38 0 62.5 -27.5t24.5 -71.5q0 -56 -38 -109t-105 -88l-33 55q76 40 98 95q-12 -2 -19 -2q-30 0 -49.5 21t-19.5 51q0 33 23 54.5t56 21.5z" />
    <glyph glyph-name="quotesinglbase" unicode="&#x201a;" horiz-adv-x="249" 
d="M120 143q38 0 62.5 -27.5t24.5 -71.5q0 -56 -38 -109t-105 -88l-33 55q76 40 99 96q-9 -3 -20 -3q-30 0 -49.5 21t-19.5 51q0 33 23 54.5t56 21.5z" />
    <glyph glyph-name="quotedblleft" unicode="&#x201c;" horiz-adv-x="437" 
d="M204 779q-77 -40 -97 -96q12 2 20 2q30 0 49.5 -20.5t19.5 -51.5q0 -32 -23 -54t-56 -22q-38 0 -63 28t-25 74q0 56 37.5 109.5t104.5 87.5zM327 685q30 0 49.5 -20.5t19.5 -51.5q0 -32 -23 -54t-56 -22q-38 0 -63 28t-25 74q0 54 38.5 106.5t105.5 88.5l34 -56
q-76 -40 -99 -95q12 2 19 2z" />
    <glyph glyph-name="quotedblright" unicode="&#x201d;" horiz-adv-x="436" 
d="M122 835q38 0 62.5 -27.5t24.5 -71.5q0 -56 -38 -109t-106 -88l-32 54q76 40 98 96q-12 -2 -19 -2q-30 0 -49.5 21t-19.5 51q0 33 23 54.5t56 21.5zM325 835q38 0 63 -27.5t25 -71.5q0 -56 -38 -109t-106 -88l-33 55q76 40 99 96q-9 -3 -20 -3q-30 0 -49.5 21t-19.5 51
q0 33 23 54.5t56 21.5z" />
    <glyph glyph-name="quotedblbase" unicode="&#x201e;" horiz-adv-x="503" 
d="M120 144q38 0 62.5 -27.5t24.5 -71.5q0 -56 -38 -109t-105 -88l-33 55q76 40 99 96q-9 -3 -20 -3q-30 0 -49.5 21t-19.5 51q0 33 23 54.5t56 21.5zM323 144q38 0 62.5 -27.5t24.5 -71.5q0 -56 -38 -109t-105 -88l-33 55q76 40 99 96q-9 -3 -20 -3q-30 0 -49.5 21
t-19.5 51q0 33 23 54.5t56 21.5z" />
    <glyph glyph-name="dagger" unicode="&#x2020;" horiz-adv-x="520" 
d="M446 635v-114h-122v-635h-128v635h-124v114h124v216h128v-216h122z" />
    <glyph glyph-name="daggerdbl" unicode="&#x2021;" horiz-adv-x="554" 
d="M464 521h-122v-286h122v-114h-122v-235h-128v235h-124v114h124v286h-124v114h124v216h128v-216h122v-114z" />
    <glyph glyph-name="bullet" unicode="&#x2022;" horiz-adv-x="429" 
d="M214 222q-67 0 -109 41t-42 110t42 110t109 41t109.5 -41t42.5 -110t-42.5 -110t-109.5 -41z" />
    <glyph glyph-name="ellipsis" unicode="&#x2026;" horiz-adv-x="709" 
d="M118 -10q-34 0 -56 22t-22 57t21.5 56.5t56.5 21.5t56.5 -21.5t21.5 -56.5t-21.5 -57t-56.5 -22zM343 -10q-34 0 -56 22t-22 57t21.5 56.5t56.5 21.5t56.5 -21.5t21.5 -56.5t-21.5 -57t-56.5 -22zM567 -10q-34 0 -56 22t-22 57t21.5 56.5t56.5 21.5t56.5 -21.5
t21.5 -56.5t-21.5 -57t-56.5 -22z" />
    <glyph glyph-name="perthousand" unicode="&#x2030;" horiz-adv-x="1275" 
d="M210 338q-81 0 -131 53.5t-49 140.5q1 88 51 141.5t130 53.5q78 0 127 -54t49 -141t-49 -140.5t-128 -53.5zM100 0l551 714h119l-547 -714h-123zM209 428q36 0 56.5 27t20.5 77t-20 77t-56 27q-38 0 -58.5 -27t-20.5 -77t20.5 -77t57.5 -27zM667 -13q-80 0 -130 53.5
t-49 140.5q1 88 50.5 141.5t129.5 53.5q79 0 128 -53.5t49 -141.5q0 -87 -49 -140.5t-129 -53.5zM1068 -13q-81 0 -131 53.5t-49 140.5t51 141t130 54q79 0 127.5 -53.5t48.5 -141.5q0 -87 -49 -140.5t-128 -53.5zM666 77q37 0 57.5 27t20.5 77t-20 77t-57 27t-57.5 -27
t-20.5 -77t20.5 -77t56.5 -27zM1067 77q37 0 57 27t20 77t-20 77t-56 27q-38 0 -58.5 -27t-20.5 -77t20.5 -77t57.5 -27z" />
    <glyph glyph-name="guilsinglleft" unicode="&#x2039;" horiz-adv-x="324" 
d="M219 100l-182 177q-7 8 -7 21.5t7 21.5l182 177l65 -67l-135 -132l135 -132z" />
    <glyph glyph-name="guilsinglright" unicode="&#x203a;" horiz-adv-x="324" 
d="M105 100l-65 66l135 132l-135 132l65 67l182 -177q7 -8 7 -21.5t-7 -21.5z" />
    <glyph glyph-name="fraction" unicode="&#x2044;" horiz-adv-x="545" 
d="M498 714h80l-526 -714h-84z" />
    <glyph glyph-name="uni2070" unicode="&#x2070;" horiz-adv-x="379" 
d="M190 493q-77 0 -116.5 53t-39.5 142q0 90 39.5 143t116.5 53q76 0 115.5 -53t39.5 -143q0 -89 -39.5 -142t-115.5 -53zM190 564q75 0 75 124q0 125 -75 125q-76 0 -76 -125q0 -124 76 -124z" />
    <glyph glyph-name="uni2074" unicode="&#x2074;" horiz-adv-x="337" 
d="M309 647v-67h-40v-81h-80v81h-139q-25 0 -34 20.5t4 37.5l174 238q13 7 32 7q18 0 30.5 -8.5t12.5 -25.5v-202h40zM104 647h85v114z" />
    <glyph glyph-name="uni2075" unicode="&#x2075;" horiz-adv-x="317" 
d="M164 734q57 0 92 -32t35 -84q0 -57 -41 -91t-98 -34q-85 0 -127 65l56 43q31 -34 68 -34q26 0 42.5 14t16.5 36q0 21 -16.5 34.5t-41.5 13.5q-27 0 -56 -18l-49 40v160q0 30 32 30h192v-67h-149v-83q20 7 44 7z" />
    <glyph glyph-name="uni2076" unicode="&#x2076;" horiz-adv-x="334" 
d="M185 734q55 0 88.5 -32.5t33.5 -82.5q0 -53 -36 -89.5t-96 -36.5q-71 0 -107.5 49.5t-36.5 126.5q0 88 43.5 151.5t122.5 63.5q62 0 99 -41l-43 -53q-26 23 -57 23q-68 0 -83 -98q34 19 72 19zM175 563q25 0 40 15.5t15 37.5q0 24 -15 36.5t-39 12.5q-34 0 -64 -24
q8 -78 63 -78z" />
    <glyph glyph-name="uni2077" unicode="&#x2077;" horiz-adv-x="287" 
d="M226 877q27 0 38.5 -19t0.5 -45l-132 -314h-92l138 309h-157v69h204z" />
    <glyph glyph-name="uni2078" unicode="&#x2078;" horiz-adv-x="346" 
d="M240 699q76 -27 76 -96q0 -46 -38 -78t-105 -32t-105 32t-38 78q0 69 76 96q-61 26 -61 83q0 42 34.5 72t93.5 30t93.5 -30t34.5 -72q0 -57 -61 -83zM174 814q-22 0 -36 -11.5t-14 -30.5t14 -31t36 -12q21 0 34.5 12t13.5 31t-13.5 30.5t-34.5 11.5zM173 563
q26 0 42.5 14t16.5 36t-16.5 35.5t-42.5 13.5t-42.5 -13.5t-16.5 -35.5t16.5 -36t42.5 -14z" />
    <glyph glyph-name="uni2079" unicode="&#x2079;" horiz-adv-x="330" 
d="M160 884q71 0 104.5 -49t33.5 -128q0 -96 -42 -155t-121 -59q-62 0 -100 41l42 53q30 -24 59 -24q66 0 81 93q-33 -15 -67 -15q-55 0 -89 32.5t-34 83.5q0 53 36 90t97 37zM102 760q0 -23 14.5 -37t42.5 -14q29 0 60 17q-4 87 -62 87q-26 0 -40.5 -15t-14.5 -38z" />
    <glyph glyph-name="uni2080" unicode="&#x2080;" horiz-adv-x="379" 
d="M190 -169q-77 0 -116.5 53t-39.5 142q0 90 39.5 143t116.5 53q76 0 115.5 -53t39.5 -143q0 -89 -39.5 -142t-115.5 -53zM190 -98q75 0 75 124q0 125 -75 125q-76 0 -76 -125q0 -124 76 -124z" />
    <glyph glyph-name="uni2081" unicode="&#x2081;" horiz-adv-x="293" 
d="M205 -94h71v-69h-227v69h74v208l-65 -46l-44 57l126 94h31q15 0 24.5 -9.5t9.5 -24.5v-279z" />
    <glyph glyph-name="uni2082" unicode="&#x2082;" horiz-adv-x="321" 
d="M148 -50q-18 -19 -24 -42h162v-71h-253q-5 98 46 155q16 18 53 47t46 37q24 18 24 38q0 16 -12.5 26t-31.5 10t-38.5 -14.5t-31.5 -34.5l-61 39q17 37 52.5 60.5t80.5 23.5q55 0 91.5 -29.5t36.5 -77.5q0 -41 -34 -75q-19 -19 -56.5 -48t-49.5 -44z" />
    <glyph glyph-name="uni2083" unicode="&#x2083;" horiz-adv-x="326" 
d="M235 38q28 -11 43.5 -36t15.5 -56q0 -53 -42.5 -84t-99.5 -31q-44 0 -80 19t-53 51l54 45q26 -41 77 -41q26 0 44 13t18 34q0 20 -17 31t-43 11h-54v67h42q30 0 47 13.5t17 32.5q0 18 -13.5 30.5t-36.5 12.5q-39 0 -66 -36l-57 38q41 72 129 72q54 0 90 -30t36 -75
q0 -54 -51 -81z" />
    <glyph glyph-name="uni2084" unicode="&#x2084;" horiz-adv-x="337" 
d="M309 -15v-67h-40v-81h-80v81h-139q-25 0 -34 20.5t4 37.5l174 238q13 7 32 7q18 0 30.5 -8.5t12.5 -25.5v-202h40zM104 -15h85v114z" />
    <glyph glyph-name="uni2085" unicode="&#x2085;" horiz-adv-x="317" 
d="M164 72q57 0 92 -32t35 -84q0 -57 -41 -91t-98 -34q-85 0 -127 65l56 43q31 -34 68 -34q26 0 42.5 14t16.5 36q0 21 -16.5 34.5t-41.5 13.5q-27 0 -56 -18l-49 40v160q0 30 32 30h192v-67h-149v-83q20 7 44 7z" />
    <glyph glyph-name="uni2086" unicode="&#x2086;" horiz-adv-x="334" 
d="M185 72q55 0 88.5 -32.5t33.5 -82.5q0 -53 -36 -89.5t-96 -36.5q-71 0 -107.5 49.5t-36.5 126.5q0 88 43.5 151.5t122.5 63.5q62 0 99 -41l-43 -53q-26 23 -57 23q-68 0 -83 -98q34 19 72 19zM175 -99q25 0 40 15.5t15 37.5q0 24 -15 36.5t-39 12.5q-34 0 -64 -24
q8 -78 63 -78z" />
    <glyph glyph-name="uni2087" unicode="&#x2087;" horiz-adv-x="287" 
d="M226 215q27 0 38.5 -19t0.5 -45l-132 -314h-92l138 309h-157v69h204z" />
    <glyph glyph-name="uni2088" unicode="&#x2088;" horiz-adv-x="346" 
d="M240 37q76 -27 76 -96q0 -46 -38 -78t-105 -32t-105 32t-38 78q0 69 76 96q-61 26 -61 83q0 42 34.5 72t93.5 30t93.5 -30t34.5 -72q0 -57 -61 -83zM174 152q-22 0 -36 -11.5t-14 -30.5t14 -31t36 -12q21 0 34.5 12t13.5 31t-13.5 30.5t-34.5 11.5zM173 -99q26 0 42.5 14
t16.5 36t-16.5 35.5t-42.5 13.5t-42.5 -13.5t-16.5 -35.5t16.5 -36t42.5 -14z" />
    <glyph glyph-name="uni2089" unicode="&#x2089;" horiz-adv-x="330" 
d="M160 222q71 0 104.5 -49t33.5 -128q0 -96 -42 -155t-121 -59q-62 0 -100 41l42 53q30 -24 59 -24q66 0 81 93q-33 -15 -67 -15q-55 0 -89 32.5t-34 83.5q0 53 36 90t97 37zM102 98q0 -23 14.5 -37t42.5 -14q29 0 60 17q-4 87 -62 87q-26 0 -40.5 -15t-14.5 -38z" />
    <glyph glyph-name="Euro" unicode="&#x20ac;" horiz-adv-x="609" 
d="M535 172l63 -106q-90 -79 -220 -79q-119 0 -199 70.5t-107 186.5h-65v84h53q-1 10 -1 29v22h-52v84h63q27 120 109.5 192t204.5 72q132 0 210 -79l-66 -95q-66 55 -141 55q-64 0 -109 -38t-65 -107h237v-84h-250v-22q0 -20 1 -29h249v-84h-235q19 -65 63 -99.5t107 -34.5
q73 0 150 62z" />
    <glyph glyph-name="trademark" unicode="&#x2122;" horiz-adv-x="666" 
d="M31 646v68h236v-68h-83v-218h-71v218h-82zM541 714h59v-286h-68v158l-53 -92q-7 -15 -29 -15t-30 15l-54 92v-158h-68v286h60l92 -153z" />
    <glyph glyph-name="estimated" unicode="&#x212e;" horiz-adv-x="916" 
d="M464 -16q-178 0 -300 105.5t-122 262.5q0 158 122 264t300 106q175 0 298.5 -104.5t123.5 -270.5v-25h-666v-223q104 -71 244 -71q190 0 315 139l32 -30q-58 -71 -149 -112t-198 -41zM220 370h488v238q-105 71 -244 71q-140 0 -244 -72v-237z" />
    <glyph glyph-name="partialdiff" unicode="&#x2202;" horiz-adv-x="557" 
d="M159 750q171 -38 267.5 -152t96.5 -291q0 -150 -70.5 -235t-189.5 -85q-99 0 -164 64.5t-65 173.5q0 113 69.5 181.5t168.5 68.5q57 0 107 -26q-56 143 -257 194zM265 99q63 0 96 59t33 148v16q-46 42 -107 42q-55 0 -88.5 -39t-33.5 -101q0 -57 27 -91t73 -34z" />
    <glyph glyph-name="product" unicode="&#x220f;" horiz-adv-x="813" 
d="M754 714v-127h-88v-668h-142v668h-235v-668h-142v668h-88v127h695z" />
    <glyph glyph-name="summation" unicode="&#x2211;" horiz-adv-x="550" 
d="M62 -88v118l186 282l-192 288v55q0 25 17 42t42 17h396v-124h-295l158 -239q25 -38 0 -76l-158 -239h295v-124h-449z" />
    <glyph glyph-name="minus" unicode="&#x2212;" horiz-adv-x="451" 
d="M38 361h374v-114h-374v114z" />
    <glyph glyph-name="radical" unicode="&#x221a;" horiz-adv-x="770" 
d="M629 714h148l-366 -776q-22 -49 -89 -49q-68 0 -90 49l-136 294h-80v125h135q36 0 49 -30l122 -279z" />
    <glyph glyph-name="infinity" unicode="&#x221e;" horiz-adv-x="859" 
d="M637 475q80 0 131.5 -48t51.5 -122q0 -76 -54.5 -124.5t-136.5 -48.5q-104 0 -201 95q-97 -95 -203 -95q-79 0 -132.5 47.5t-53.5 122.5q0 77 55 125t136 48q108 0 201 -95q98 95 206 95zM151 302q0 -28 21.5 -45t56.5 -17q63 0 128 61q-68 66 -127 66q-33 0 -56 -17.5
t-23 -47.5zM627 240q35 0 57.5 17.5t22.5 47.5q0 28 -21.5 45t-58.5 17q-60 0 -126 -62q69 -65 126 -65z" />
    <glyph glyph-name="integral" unicode="&#x222b;" horiz-adv-x="423" 
d="M133 -187q-77 0 -130 45l46 106q33 -25 68 -25q34 0 56.5 23t22.5 65q0 49 -55.5 262t-55.5 289q0 95 57.5 151.5t135.5 56.5q82 0 138 -56l-64 -95q-29 26 -60 26q-30 0 -50.5 -23t-20.5 -67q0 -60 56 -269.5t56 -281.5q0 -94 -57 -150.5t-143 -56.5z" />
    <glyph glyph-name="approxequal" unicode="&#x2248;" horiz-adv-x="591" 
d="M388 311q-39 0 -73 19.5t-61.5 39t-48.5 19.5q-23 0 -39 -18.5t-20 -53.5l-88 30q4 67 48 107t99 40q38 0 70.5 -20.5t59 -41t48.5 -20.5q48 0 56 74l91 -20q-1 -72 -42.5 -113.5t-99.5 -41.5zM388 114q-39 0 -73 19.5t-61.5 39t-48.5 19.5q-23 0 -39 -18.5t-20 -53.5
l-88 30q4 67 48 107t99 40q38 0 70.5 -20.5t59 -41t48.5 -20.5q48 0 56 74l91 -20q-1 -72 -42.5 -113.5t-99.5 -41.5z" />
    <glyph glyph-name="notequal" unicode="&#x2260;" horiz-adv-x="493" 
d="M433 347h-123l-46 -86h169v-114h-229l-56 -105l-61 34l38 71h-66v114h126l46 86h-172v114h232l55 104l61 -35l-37 -69h63v-114z" />
    <glyph glyph-name="lessequal" unicode="&#x2264;" horiz-adv-x="460" 
d="M373 132l-301 172q-32 20 -32.5 53.5t31.5 52.5l302 173l48 -97l-235 -129l235 -127zM415 0h-371v97h371v-97z" />
    <glyph glyph-name="greaterequal" unicode="&#x2265;" horiz-adv-x="459" 
d="M97 132l-48 98l235 127l-235 129l48 97l302 -173q32 -19 31.5 -52.5t-32.5 -53.5zM55 0v97h371v-97h-371z" />
    <glyph glyph-name="lozenge" unicode="&#x25ca;" horiz-adv-x="583" 
d="M291 -110l-256 430l257 431l256 -431zM291 127l114 193l-114 193l-113 -193z" />
    <glyph glyph-name="Jacute" horiz-adv-x="516" 
d="M267 815l169 164l77 -92l-189 -138zM211 -11q-134 0 -205 104l86 88q53 -58 109 -58q45 0 72 31.5t27 83.5v477h145v-483q0 -110 -63 -176.5t-171 -66.5z" />
    <glyph glyph-name="Cacute.loclPLK" horiz-adv-x="702" 
d="M337 768l78 199l126 -1l-102 -198h-102zM382 -11q-149 0 -245.5 96t-96.5 268q0 171 99 272.5t255 101.5q93 0 166.5 -40.5t115.5 -112.5l-106 -71q-61 100 -172 100q-97 0 -154.5 -64.5t-57.5 -180.5q0 -115 58 -178t148 -63q116 0 203 101l89 -87q-121 -142 -302 -142z
" />
    <glyph glyph-name="Nacute.loclPLK" horiz-adv-x="766" 
d="M539 965l-102 -198h-102l78 199zM555 714h131v-675q0 -21 -20.5 -33.5t-51.5 -12.5q-34 0 -52.5 9t-34.5 31l-316 447v-480h-133v661q0 29 21 43t55 14q40 0 58.5 -12t43.5 -48l299 -418v474z" />
    <glyph glyph-name="Oacute.loclPLK" horiz-adv-x="788" 
d="M340 767l78 199l126 -1l-102 -198h-102zM393 -11q-159 0 -256 100t-97 265q0 168 97.5 270.5t257.5 102.5q159 0 256 -102t97 -269q0 -166 -97.5 -266.5t-257.5 -100.5zM395 115q96 0 151.5 63.5t55.5 178.5q0 117 -55.5 180.5t-151.5 63.5q-97 0 -153 -63.5t-56 -180.5
q0 -116 56 -179t153 -63z" />
    <glyph glyph-name="Sacute.loclPLK" horiz-adv-x="581" 
d="M245 767l78 199l126 -1l-102 -198h-102zM279 -11q-76 0 -144.5 27.5t-112.5 77.5l73 95q79 -79 184 -79q61 0 96 26.5t35 66.5q0 13 -3.5 24t-13 20t-16 14.5t-24.5 13t-26 10.5t-31.5 10.5t-31.5 10.5q-47 16 -79.5 31.5t-65.5 40t-50 60t-17 81.5q0 98 71 153t184 55
q124 0 222 -66l-59 -101q-81 51 -159 51q-53 0 -86 -22.5t-33 -62.5q0 -15 4 -27t17 -22.5l21 -17t31 -15.5t31.5 -12l38.5 -13q49 -16 81.5 -31t67 -39t51.5 -59.5t17 -81.5q0 -95 -77 -157t-196 -62z" />
    <glyph glyph-name="Zacute.loclPLK" horiz-adv-x="594" 
d="M252 767l78 199l126 -1l-102 -198h-102zM79 0q-38 0 -50 52t15 88l332 451h-323v123h444q38 0 53 -51t-15 -94l-331 -445h353v-124h-478z" />
    <glyph glyph-name="i.loclTRK" horiz-adv-x="247" 
d="M124 560q-37 0 -58.5 22t-21.5 60t21.5 60t58.5 22t59 -22.5t22 -59.5t-22 -59.5t-59 -22.5zM58 0v500h132v-500h-132z" />
    <glyph glyph-name="jacute" horiz-adv-x="260" 
d="M23 606l169 164l77 -92l-189 -138zM33 -197q-43 0 -91 22l20 115q25 -10 49 -10q54 0 54 63v507h134v-511q0 -186 -166 -186z" />
    <glyph glyph-name="cacute.loclPLK" horiz-adv-x="529" 
d="M226 556l71 201l126 -1l-95 -200h-102zM280 -12q-105 0 -175.5 69t-70.5 191q0 121 70.5 193t186.5 72q70 0 126 -29.5t86 -89.5l-103 -58q-35 65 -107 65q-53 0 -88 -38t-35 -114q0 -75 33.5 -111.5t85.5 -36.5q72 0 121 78l99 -57q-30 -62 -89.5 -98t-139.5 -36z" />
    <glyph glyph-name="nacute.loclPLK" 
d="M428 756l-95 -200h-102l71 201zM369 513q77 0 120.5 -42.5t43.5 -121.5v-349h-138v317q0 43 -16 63t-51 20q-60 0 -128 -52v-348h-140v500h129v-53q88 66 180 66z" />
    <glyph glyph-name="oacute.loclPLK" horiz-adv-x="571" 
d="M221 556l71 201l126 -1l-95 -200h-102zM285 -13q-116 0 -184 72t-67 191q1 120 68.5 191.5t182.5 71.5q118 0 185 -70.5t67 -192.5q0 -120 -67.5 -191.5t-184.5 -71.5zM285 99q119 0 119 151t-119 151q-57 0 -87.5 -38t-30.5 -113q0 -151 118 -151z" />
    <glyph glyph-name="sacute.loclPLK" horiz-adv-x="475" 
d="M190 555l71 201l126 -1l-95 -200h-102zM229 -11q-130 0 -209 76l54 86q73 -59 149 -59q33 0 55.5 13t22.5 36q0 8 -3 15t-9.5 13t-12.5 10t-18 9t-19.5 7.5l-23 7.5t-22.5 7q-70 24 -107.5 56t-37.5 90q0 74 56.5 115.5t145.5 41.5q108 0 188 -58l-52 -85q-69 42 -130 42
q-33 0 -53 -12.5t-20 -32.5q0 -16 15 -28.5t27.5 -17t45.5 -15.5q34 -11 50.5 -17t44.5 -20.5t41.5 -29t24.5 -38t11 -52.5q0 -75 -62 -117.5t-152 -42.5z" />
    <glyph glyph-name="zacute.loclPLK" horiz-adv-x="477" 
d="M174 556l71 201l126 -1l-95 -200h-102zM71 0q-32 0 -42.5 39t11.5 65l244 298h-240l1 98h349q34 0 44 -43t-13 -69l-238 -288h256v-100h-372z" />
    <glyph glyph-name="a.ss01" 
d="M406 500h123v-500h-125v47q-55 -60 -142 -60q-103 0 -165.5 72t-62.5 191q1 119 63.5 191t165.5 72q88 0 143 -60v47zM285 99q116 0 116 151q0 75 -30 113t-85 38q-56 0 -86 -38t-30 -113t30 -113t85 -38z" />
    <glyph glyph-name="aacute.ss01" 
d="M429 678l-189 -138l-57 66l169 164zM406 500h123v-500h-125v47q-55 -60 -142 -60q-103 0 -165.5 72t-62.5 191q1 119 63.5 191t165.5 72q88 0 143 -60v47zM285 99q116 0 116 151q0 75 -30 113t-85 38q-56 0 -86 -38t-30 -113t30 -113t85 -38z" />
    <glyph glyph-name="abreve.ss01" 
d="M293 560q-78 0 -120 47t-40 114h99q-1 -30 14 -54t47 -24t47 24t14 54h99q2 -67 -40 -114t-120 -47zM406 500h123v-500h-125v47q-55 -60 -142 -60q-103 0 -165.5 72t-62.5 191q1 119 63.5 191t165.5 72q88 0 143 -60v47zM285 99q116 0 116 151q0 75 -30 113t-85 38
q-56 0 -86 -38t-30 -113t30 -113t85 -38z" />
    <glyph glyph-name="acircumflex.ss01" 
d="M293 638l-105 -94l-68 65l123 110q22 21 50 21q26 0 50 -21l122 -110l-67 -65zM406 500h123v-500h-125v47q-55 -60 -142 -60q-103 0 -165.5 72t-62.5 191q1 119 63.5 191t165.5 72q88 0 143 -60v47zM285 99q116 0 116 151q0 75 -30 113t-85 38q-56 0 -86 -38t-30 -113
t30 -113t85 -38z" />
    <glyph glyph-name="adieresis.ss01" 
d="M196 556q-33 0 -52.5 19.5t-19.5 53.5t19.5 54t52.5 20t52.5 -20t19.5 -54t-19.5 -53.5t-52.5 -19.5zM391 556q-33 0 -52.5 20t-19.5 53q0 34 20 54t52 20q33 0 53 -20t20 -54t-20 -53.5t-53 -19.5zM406 500h123v-500h-125v47q-55 -60 -142 -60q-103 0 -165.5 72
t-62.5 191q1 119 63.5 191t165.5 72q88 0 143 -60v47zM285 99q116 0 116 151q0 75 -30 113t-85 38q-56 0 -86 -38t-30 -113t30 -113t85 -38z" />
    <glyph glyph-name="agrave.ss01" 
d="M421 606l-57 -66l-189 138l77 92zM406 500h123v-500h-125v47q-55 -60 -142 -60q-103 0 -165.5 72t-62.5 191q1 119 63.5 191t165.5 72q88 0 143 -60v47zM285 99q116 0 116 151q0 75 -30 113t-85 38q-56 0 -86 -38t-30 -113t30 -113t85 -38z" />
    <glyph glyph-name="amacron.ss01" 
d="M441 674v-106h-298v106h298zM406 500h123v-500h-125v47q-55 -60 -142 -60q-103 0 -165.5 72t-62.5 191q1 119 63.5 191t165.5 72q88 0 143 -60v47zM285 99q116 0 116 151q0 75 -30 113t-85 38q-56 0 -86 -38t-30 -113t30 -113t85 -38z" />
    <glyph glyph-name="aogonek.ss01" 
d="M524 -112l42 -79q-48 -43 -105 -43q-49 0 -80.5 31t-31.5 80q0 70 65 123h-10v47q-55 -60 -142 -60q-103 0 -165.5 72t-62.5 191q1 119 63.5 191t165.5 72q88 0 143 -60v47h123v-500h1q-36 -14 -54 -37.5t-18 -46.5q0 -17 9 -28t26 -11q15 0 31 11zM285 99q116 0 116 151
q0 75 -30 113t-85 38q-56 0 -86 -38t-30 -113t30 -113t85 -38z" />
    <glyph glyph-name="aring.ss01" 
d="M293 552q-48 0 -80.5 31t-32.5 77t32.5 77t80.5 31t80.5 -31t32.5 -77t-32.5 -77t-80.5 -31zM293 700q-18 0 -29.5 -11.5t-11.5 -28.5t11.5 -28.5t29.5 -11.5q17 0 28.5 11.5t11.5 28.5t-11.5 28.5t-28.5 11.5zM406 500h123v-500h-125v47q-55 -60 -142 -60
q-103 0 -165.5 72t-62.5 191q1 119 63.5 191t165.5 72q88 0 143 -60v47zM285 99q116 0 116 151q0 75 -30 113t-85 38q-56 0 -86 -38t-30 -113t30 -113t85 -38z" />
    <glyph glyph-name="atilde.ss01" 
d="M231 612q-37 0 -56 -52l-81 36q14 53 48.5 81.5t79.5 28.5q34 0 74.5 -24.5t58.5 -24.5q39 0 55 54l87 -31q-13 -54 -50 -85.5t-81 -31.5q-33 0 -75 24.5t-60 24.5zM406 500h123v-500h-125v47q-55 -60 -142 -60q-103 0 -165.5 72t-62.5 191q1 119 63.5 191t165.5 72
q88 0 143 -60v47zM285 99q116 0 116 151q0 75 -30 113t-85 38q-56 0 -86 -38t-30 -113t30 -113t85 -38z" />
    <glyph glyph-name="f.ss01" horiz-adv-x="373" 
d="M287 613q-93 0 -93 -93v-21l170 1v-94l-170 -1v-405h-134v511q0 51 13.5 90.5t34.5 62.5t49.5 38t55.5 20t56 5q77 0 155 -39l-37 -99q-54 24 -100 24z" />
    <glyph glyph-name="g.ss01" horiz-adv-x="582" 
d="M402 500h120v-455q0 -121 -70.5 -183t-188.5 -62q-112 0 -195 52l42 103q74 -42 148 -42q126 0 133 114q-58 -29 -118 -29q-105 0 -172 69t-67 185q0 124 67.5 192.5t165.5 68.5q75 0 135 -50v37zM173 256q0 -69 31 -106.5t89 -37.5q56 0 100 29v205q-47 55 -105 55
q-53 0 -84 -38t-31 -107z" />
    <glyph glyph-name="gbreve.ss01" horiz-adv-x="582" 
d="M294 561q-78 0 -120 47t-40 114h99q-1 -30 14 -54t47 -24t47 24t14 54h99q2 -67 -40 -114t-120 -47zM402 500h120v-455q0 -121 -70.5 -183t-188.5 -62q-112 0 -195 52l42 103q74 -42 148 -42q126 0 133 114q-58 -29 -118 -29q-105 0 -172 69t-67 185q0 124 67.5 192.5
t165.5 68.5q75 0 135 -50v37zM173 256q0 -69 31 -106.5t89 -37.5q56 0 100 29v205q-47 55 -105 55q-53 0 -84 -38t-31 -107z" />
    <glyph glyph-name="gcircumflex.ss01" horiz-adv-x="582" 
d="M294 639l-105 -94l-68 65l123 110q22 21 50 21q26 0 50 -21l122 -110l-67 -65zM402 500h120v-455q0 -121 -70.5 -183t-188.5 -62q-112 0 -195 52l42 103q74 -42 148 -42q126 0 133 114q-58 -29 -118 -29q-105 0 -172 69t-67 185q0 124 67.5 192.5t165.5 68.5
q75 0 135 -50v37zM173 256q0 -69 31 -106.5t89 -37.5q56 0 100 29v205q-47 55 -105 55q-53 0 -84 -38t-31 -107z" />
    <glyph glyph-name="gcommaaccent.ss01" horiz-adv-x="582" 
d="M284 542q-34 0 -56.5 26t-22.5 66q0 49 30 97t83 82l42 -56q-50 -35 -73 -77h7q28 0 46 -19t18 -48q0 -30 -21.5 -50.5t-52.5 -20.5zM402 500h120v-455q0 -121 -70.5 -183t-188.5 -62q-112 0 -195 52l42 103q74 -42 148 -42q126 0 133 114q-58 -29 -118 -29
q-105 0 -172 69t-67 185q0 124 67.5 192.5t165.5 68.5q75 0 135 -50v37zM173 256q0 -69 31 -106.5t89 -37.5q56 0 100 29v205q-47 55 -105 55q-53 0 -84 -38t-31 -107z" />
    <glyph glyph-name="gdotaccent.ss01" horiz-adv-x="582" 
d="M294 560q-37 0 -58.5 22t-21.5 60t21.5 60t58.5 22t59 -22.5t22 -59.5t-22 -59.5t-59 -22.5zM402 500h120v-455q0 -121 -70.5 -183t-188.5 -62q-112 0 -195 52l42 103q74 -42 148 -42q126 0 133 114q-58 -29 -118 -29q-105 0 -172 69t-67 185q0 124 67.5 192.5
t165.5 68.5q75 0 135 -50v37zM173 256q0 -69 31 -106.5t89 -37.5q56 0 100 29v205q-47 55 -105 55q-53 0 -84 -38t-31 -107z" />
    <glyph glyph-name="l.ss01" horiz-adv-x="369" 
d="M193 187q0 -40 19.5 -58t47.5 -18q35 0 70 20l40 -103q-61 -39 -143 -39t-127 51t-45 139v535h138v-527z" />
    <glyph glyph-name="lacute.ss01" horiz-adv-x="369" 
d="M11 799l169 164l77 -92l-189 -138zM193 187q0 -40 19.5 -58t47.5 -18q35 0 70 20l40 -103q-61 -39 -143 -39t-127 51t-45 139v535h138v-527z" />
    <glyph glyph-name="lcaron.ss01" horiz-adv-x="369" 
d="M228 563l50 193l115 -30l-76 -186zM193 187q0 -40 19.5 -58t47.5 -18q35 0 70 20l40 -103q-61 -39 -143 -39t-127 51t-45 139v535h138v-527z" />
    <glyph glyph-name="lcommaaccent.ss01" horiz-adv-x="369" 
d="M370 28q-61 -39 -143 -39t-127 51t-45 139v535h138v-527q0 -40 19.5 -58t47.5 -18q35 0 70 20zM206 -37q34 0 56.5 -26t22.5 -66q0 -49 -30 -97t-83 -82l-42 56q50 35 73 77h-7q-28 0 -46 19t-18 48q0 30 21.5 50.5t52.5 20.5z" />
    <glyph glyph-name="ldot.ss01" horiz-adv-x="437" 
d="M193 187q0 -40 19.5 -58t47.5 -18q35 0 70 20l40 -103q-61 -39 -143 -39t-127 51t-45 139v535h138v-527zM342 296q-34 0 -56 22t-22 57t21.5 56.5t56.5 21.5t56.5 -21.5t21.5 -56.5t-21.5 -57t-56.5 -22z" />
    <glyph glyph-name="lslash.ss01" horiz-adv-x="418" 
d="M374 131l40 -103q-61 -39 -143 -39t-127 51t-45 139v78l-45 -29l-48 73l93 61v352h138v-262l55 36l48 -74l-103 -67v-160q0 -40 19.5 -58t47.5 -18q35 0 70 20z" />
    <glyph glyph-name="y.ss01" horiz-adv-x="579" 
d="M388 500h131v-449q0 -124 -69.5 -187.5t-189.5 -63.5q-106 0 -189 48l38 101q69 -36 146 -36q133 0 133 120v3q-65 -41 -144 -41q-81 0 -135 46.5t-54 142.5v316h137v-303q0 -88 85 -88q58 0 111 41v350z" />
    <glyph glyph-name="yacute.ss01" horiz-adv-x="579" 
d="M427 678l-189 -138l-57 66l169 164zM388 500h131v-449q0 -124 -69.5 -187.5t-189.5 -63.5q-106 0 -189 48l38 101q69 -36 146 -36q133 0 133 120v3q-65 -41 -144 -41q-81 0 -135 46.5t-54 142.5v316h137v-303q0 -88 85 -88q58 0 111 41v350z" />
    <glyph glyph-name="ycircumflex.ss01" horiz-adv-x="579" 
d="M291 638l-105 -94l-68 65l123 110q22 21 50 21q26 0 50 -21l122 -110l-67 -65zM388 500h131v-449q0 -124 -69.5 -187.5t-189.5 -63.5q-106 0 -189 48l38 101q69 -36 146 -36q133 0 133 120v3q-65 -41 -144 -41q-81 0 -135 46.5t-54 142.5v316h137v-303q0 -88 85 -88
q58 0 111 41v350z" />
    <glyph glyph-name="ydieresis.ss01" horiz-adv-x="579" 
d="M193 556q-33 0 -52.5 19.5t-19.5 53.5t19.5 54t52.5 20t52.5 -20t19.5 -54t-19.5 -53.5t-52.5 -19.5zM388 556q-32 0 -52 20t-20 53q0 34 20 54t52 20q33 0 53 -20t20 -54t-20 -53.5t-53 -19.5zM388 500h131v-449q0 -124 -69.5 -187.5t-189.5 -63.5q-106 0 -189 48
l38 101q69 -36 146 -36q133 0 133 120v3q-65 -41 -144 -41q-81 0 -135 46.5t-54 142.5v316h137v-303q0 -88 85 -88q58 0 111 41v350z" />
    <glyph glyph-name="ygrave.ss01" horiz-adv-x="579" 
d="M418 606l-57 -66l-189 138l77 92zM388 500h131v-449q0 -124 -69.5 -187.5t-189.5 -63.5q-106 0 -189 48l38 101q69 -36 146 -36q133 0 133 120v3q-65 -41 -144 -41q-81 0 -135 46.5t-54 142.5v316h137v-303q0 -88 85 -88q58 0 111 41v350z" />
    <glyph glyph-name="f_f_j" horiz-adv-x="1035" 
d="M759 406h-170v-406h-134v406h-226v-406h-134v406h-72v94h72v24q0 49 15 87t37 59.5t51 35t52 17.5t44 4q87 0 154 -50l-46 -90q-44 26 -82 26q-41 0 -66 -22.5t-25 -69.5v-21h226v24q0 49 15 87t37 59.5t51 35t52 17.5t44 4q87 0 154 -50l-46 -90q-44 26 -82 26
q-41 0 -66 -22.5t-25 -69.5v-21h170v-94zM904 560q-38 0 -60 22t-22 60t22 60t60 22t60.5 -22t22.5 -60t-22.5 -60t-60.5 -22zM835 -7v507h137v-511q0 -186 -170 -186q-44 0 -94 22l20 115q27 -10 51 -10q56 0 56 63z" />
    <glyph glyph-name="f_i" horiz-adv-x="683" 
d="M95 524q0 49 15 87t37 59.5t51 35t52 17.5t44 4q87 0 154 -50l-46 -90q-44 26 -82 26q-41 0 -66 -22.5t-25 -69.5v-21h170v-94h-170v-406h-134v406h-72v94h72v24zM554 560q-37 0 -58.5 22t-21.5 60t21.5 60t58.5 22t59 -22.5t22 -59.5t-22 -59.5t-59 -22.5zM486 0v500
h135v-500h-135z" />
    <glyph glyph-name="f_j" horiz-adv-x="685" 
d="M399 406h-170v-406h-134v406h-72v94h72v24q0 49 15 87t37 59.5t51 35t52 17.5t44 4q87 0 154 -50l-46 -90q-44 26 -82 26q-41 0 -66 -22.5t-25 -69.5v-21h170v-94zM555 560q-37 0 -59.5 22t-22.5 60t22.5 60t59.5 22q38 0 60.5 -22t22.5 -60t-22.5 -60t-60.5 -22zM486 -7
v507h137v-511q0 -186 -170 -186q-45 0 -94 22l20 115q27 -10 51 -10q56 0 56 63z" />
    <glyph glyph-name="f_l" horiz-adv-x="682" 
d="M95 524q0 49 15 87t37 59.5t51 35t52 17.5t44 4q87 0 154 -50l-46 -90q-44 26 -82 26q-41 0 -66 -22.5t-25 -69.5v-21h170v-94h-170v-406h-134v406h-72v94h72v24zM484 714h137v-714h-137v714z" />
    <glyph glyph-name="t_t" horiz-adv-x="833" 
d="M297 110q39 0 80 27l43 -97q-67 -51 -157 -51q-81 0 -126 48t-45 135v234h-75v94h75v155h136v-155h162v-94h-162v-222q0 -40 20.5 -57t48.5 -17zM788 137l43 -97q-67 -51 -157 -51q-81 0 -126 48t-45 135v234h-75v94h75v155h136v-155h162v-94h-162v-222q0 -40 20.5 -57
t48.5 -17q39 0 80 27z" />
    <glyph glyph-name="f_f_i.001" horiz-adv-x="1012" 
d="M451 524q0 49 15 87t37 59.5t51 35t52 17.5t44 4q87 0 154 -50l-46 -90q-44 26 -82 26q-41 0 -66 -22.5t-25 -69.5v-21h170v-94h-170v-406h-134v406h-222v-406h-134v406h-72v94h72v24q0 49 15 87t37 59.5t51 35t52 17.5t44 4q87 0 154 -50l-46 -90q-44 26 -82 26
q-41 0 -66 -22.5t-25 -69.5v-21h222v24zM897 560q-37 0 -58.5 22t-21.5 60t21.5 60t58.5 22t59 -22.5t22 -59.5t-22 -59.5t-59 -22.5zM829 0v500h135v-500h-135z" />
    <glyph glyph-name="zero.lf" horiz-adv-x="662" 
d="M332 -11q-142 0 -215 99.5t-73 268.5q0 170 73 270t215 100q141 0 213.5 -100t72.5 -270q0 -169 -72.5 -268.5t-213.5 -99.5zM332 113q146 0 146 244q0 246 -146 246q-147 0 -147 -246q0 -244 147 -244z" />
    <glyph glyph-name="one.lf" horiz-adv-x="418" 
d="M272 726q35 0 52 -16t17 -38v-672h-142v542l-126 -90l-77 96l202 151q38 27 74 27z" />
    <glyph glyph-name="two.lf" horiz-adv-x="556" 
d="M240 201q-33 -41 -40 -78h309v-123h-463q-4 99 14 160t64 115q32 39 112.5 102t86.5 68q45 39 45 79q0 34 -25.5 56t-65.5 22q-42 0 -81 -27t-63 -68l-102 70q36 68 100 110t150 42q103 0 167 -54.5t64 -143.5q0 -83 -65 -151q-33 -33 -107 -89t-100 -90z" />
    <glyph glyph-name="three.lf" horiz-adv-x="571" 
d="M411 376q54 -20 85 -68t31 -105q0 -99 -77 -157t-183 -58q-87 0 -151 36.5t-93 95.5l95 75q49 -80 146 -80q55 0 89.5 28t34.5 67q0 44 -34 68t-87 24h-101v117h81q58 0 92 28t34 68q0 37 -27.5 62t-75.5 25q-79 0 -130 -74l-99 67q35 61 97.5 97.5t142.5 36.5
q101 0 166.5 -56.5t65.5 -139.5q0 -50 -27 -91t-75 -66z" />
    <glyph glyph-name="four.lf" horiz-adv-x="588" 
d="M551 273v-116h-74v-157h-134v157h-289q-20 0 -33.5 20t-13.5 45q0 27 14 47l317 430q18 25 67 25q30 0 51 -14t21 -41v-396h74zM171 273h172v238z" />
    <glyph glyph-name="five.lf" horiz-adv-x="556" 
d="M286 440q107 0 172 -60t65 -160q0 -107 -74 -169.5t-181 -62.5q-74 0 -135.5 31.5t-98.5 90.5l96 74q58 -69 133 -69q53 0 86 29t33 74q0 46 -33.5 73.5t-85.5 27.5q-55 0 -109 -35l-85 66v307q0 57 58 57h355v-117h-284v-172q40 15 88 15z" />
    <glyph glyph-name="six.lf" horiz-adv-x="593" 
d="M327 447q102 0 166 -62t64 -159q0 -100 -66.5 -169t-177.5 -69q-132 0 -201 96.5t-69 242.5q0 107 32 195.5t102.5 146.5t169.5 58q120 0 190 -77l-76 -91q-50 44 -111 44q-73 0 -113 -54.5t-53 -139.5q66 38 143 38zM313 109q51 0 81.5 32.5t30.5 81.5q0 48 -31.5 76
t-83.5 28q-66 0 -130 -48q8 -74 39.5 -122t93.5 -48z" />
    <glyph glyph-name="seven.lf" horiz-adv-x="504" 
d="M431 714q36 0 52 -37t-3 -83l-250 -594h-157l264 592h-318v122h412z" />
    <glyph glyph-name="eight.lf" horiz-adv-x="614" 
d="M430 377q66 -24 105 -71.5t39 -112.5q0 -85 -71 -145.5t-196 -60.5t-196.5 60.5t-71.5 145.5q0 65 39 112.5t105 70.5q-115 53 -115 159q0 79 64.5 135.5t174.5 56.5t174 -56.5t64 -135.5q0 -106 -115 -158zM308 609q-46 0 -75 -25t-29 -64t29 -64t75 -25q45 0 73.5 25
t28.5 64t-28.5 64t-73.5 25zM307 105q54 0 89 29.5t35 74.5t-35 74t-89 29t-89 -29t-35 -74t35 -74.5t89 -29.5z" />
    <glyph glyph-name="nine.lf" horiz-adv-x="583" 
d="M280 727q68 0 119.5 -27.5t81.5 -75.5t44.5 -107t14.5 -127q0 -183 -75 -293.5t-221 -110.5q-107 0 -184 64l60 100q56 -41 117 -41q135 0 161 189q-66 -32 -135 -32q-102 0 -165.5 62t-63.5 160q0 99 66 169t180 70zM162 492q0 -47 30.5 -76.5t86.5 -29.5q62 0 124 36
q-8 182 -129 182q-51 0 -81.5 -32.5t-30.5 -79.5z" />
    <glyph glyph-name="zero.num" horiz-adv-x="379" 
d="M190 333q-77 0 -116.5 53t-39.5 142q0 90 39.5 143t116.5 53q76 0 115.5 -53t39.5 -143q0 -89 -39.5 -142t-115.5 -53zM190 404q75 0 75 124q0 125 -75 125q-76 0 -76 -125q0 -124 76 -124z" />
    <glyph glyph-name="one.num" horiz-adv-x="293" 
d="M205 408h71v-69h-227v69h74v208l-65 -46l-44 57l126 94h31q15 0 24.5 -9.5t9.5 -24.5v-279z" />
    <glyph glyph-name="two.num" horiz-adv-x="321" 
d="M148 452q-18 -19 -24 -42h162v-71h-253q-5 98 46 155q16 18 53 47t46 37q24 18 24 38q0 16 -12.5 26t-31.5 10t-38.5 -14.5t-31.5 -34.5l-61 39q17 37 52.5 60.5t80.5 23.5q55 0 91.5 -29.5t36.5 -77.5q0 -41 -34 -75q-19 -19 -56.5 -48t-49.5 -44z" />
    <glyph glyph-name="three.num" horiz-adv-x="326" 
d="M235 540q28 -11 43.5 -36t15.5 -56q0 -53 -42.5 -84t-99.5 -31q-44 0 -80 19t-53 51l54 45q26 -41 77 -41q26 0 44 13t18 34q0 20 -17 31t-43 11h-54v67h42q30 0 47 13.5t17 32.5q0 18 -13.5 30.5t-36.5 12.5q-39 0 -66 -36l-57 38q41 72 129 72q54 0 90 -30t36 -75
q0 -54 -51 -81z" />
    <glyph glyph-name="four.num" horiz-adv-x="337" 
d="M309 487v-67h-40v-81h-80v81h-139q-25 0 -34 20.5t4 37.5l174 238q13 7 32 7q18 0 30.5 -8.5t12.5 -25.5v-202h40zM104 487h85v114z" />
    <glyph glyph-name="five.num" horiz-adv-x="317" 
d="M164 574q57 0 92 -32t35 -84q0 -57 -41 -91t-98 -34q-85 0 -127 65l56 43q31 -34 68 -34q26 0 42.5 14t16.5 36q0 21 -16.5 34.5t-41.5 13.5q-27 0 -56 -18l-49 40v160q0 30 32 30h192v-67h-149v-83q20 7 44 7z" />
    <glyph glyph-name="six.num" horiz-adv-x="334" 
d="M185 574q55 0 88.5 -32.5t33.5 -82.5q0 -53 -36 -89.5t-96 -36.5q-71 0 -107.5 49.5t-36.5 126.5q0 88 43.5 151.5t122.5 63.5q62 0 99 -41l-43 -53q-26 23 -57 23q-68 0 -83 -98q34 19 72 19zM175 403q25 0 40 15.5t15 37.5q0 24 -15 36.5t-39 12.5q-34 0 -64 -24
q8 -78 63 -78z" />
    <glyph glyph-name="seven.num" horiz-adv-x="287" 
d="M226 717q27 0 38.5 -19t0.5 -45l-132 -314h-92l138 309h-157v69h204z" />
    <glyph glyph-name="eight.num" horiz-adv-x="346" 
d="M240 539q76 -27 76 -96q0 -46 -38 -78t-105 -32t-105 32t-38 78q0 69 76 96q-61 26 -61 83q0 42 34.5 72t93.5 30t93.5 -30t34.5 -72q0 -57 -61 -83zM174 654q-22 0 -36 -11.5t-14 -30.5t14 -31t36 -12q21 0 34.5 12t13.5 31t-13.5 30.5t-34.5 11.5zM173 403
q26 0 42.5 14t16.5 36t-16.5 35.5t-42.5 13.5t-42.5 -13.5t-16.5 -35.5t16.5 -36t42.5 -14z" />
    <glyph glyph-name="nine.num" horiz-adv-x="330" 
d="M160 724q71 0 104.5 -49t33.5 -128q0 -96 -42 -155t-121 -59q-62 0 -100 41l42 53q30 -24 59 -24q66 0 81 93q-33 -15 -67 -15q-55 0 -89 32.5t-34 83.5q0 53 36 90t97 37zM102 600q0 -23 14.5 -37t42.5 -14q29 0 60 17q-4 87 -62 87q-26 0 -40.5 -15t-14.5 -38z" />
    <glyph glyph-name="zero.slash" horiz-adv-x="662" 
d="M332 727q141 0 213.5 -100t72.5 -270q0 -169 -72.5 -268.5t-213.5 -99.5q-142 0 -215 99.5t-73 268.5q0 170 73 270t215 100zM332 603q-147 0 -147 -246q0 -63 10 -110l226 320q-34 36 -89 36zM332 113q146 0 146 244q0 65 -12 118l-227 -323q34 -39 93 -39z" />
    <glyph glyph-name="zero.tf" horiz-adv-x="660" 
d="M331 -11q-142 0 -215 99.5t-73 268.5q0 170 73 270t215 100q141 0 213.5 -100t72.5 -270q0 -169 -72.5 -268.5t-213.5 -99.5zM331 113q146 0 146 244q0 246 -146 246q-147 0 -147 -246q0 -244 147 -244z" />
    <glyph glyph-name="one.tf" horiz-adv-x="660" 
d="M433 123h149v-123h-448v123h158v420l-127 -91l-77 96l203 151q38 27 74 27q34 0 51 -16t17 -38v-549z" />
    <glyph glyph-name="two.tf" horiz-adv-x="660" 
d="M301 201q-33 -41 -40 -78h309v-123h-463q-4 99 14 160t64 115q32 39 112.5 102t86.5 68q45 39 45 79q0 34 -25.5 56t-65.5 22q-42 0 -81 -27t-63 -68l-102 70q36 68 100 110t150 42q103 0 167 -54.5t64 -143.5q0 -83 -65 -151q-33 -33 -107 -89t-100 -90z" />
    <glyph glyph-name="three.tf" horiz-adv-x="660" 
d="M462 376q54 -20 85 -68t31 -105q0 -99 -77 -157t-183 -58q-87 0 -151 36.5t-93 95.5l95 75q49 -80 146 -80q55 0 89.5 28t34.5 67q0 44 -34 68t-87 24h-101v117h81q58 0 92 28t34 68q0 37 -27.5 62t-75.5 25q-79 0 -130 -74l-99 67q35 61 97.5 97.5t142.5 36.5
q101 0 166.5 -56.5t65.5 -139.5q0 -50 -27 -91t-75 -66z" />
    <glyph glyph-name="four.tf" horiz-adv-x="660" 
d="M597 273v-116h-74v-157h-134v157h-289q-20 0 -33.5 20t-13.5 45q0 27 14 47l317 430q18 25 67 25q30 0 51 -14t21 -41v-396h74zM217 273h172v238z" />
    <glyph glyph-name="five.tf" horiz-adv-x="660" 
d="M341 440q107 0 172 -60t65 -160q0 -107 -74 -169.5t-181 -62.5q-74 0 -135.5 31.5t-98.5 90.5l96 74q58 -69 133 -69q53 0 86 29t33 74q0 46 -33.5 73.5t-85.5 27.5q-55 0 -109 -35l-85 66v307q0 57 58 57h355v-117h-284v-172q41 15 88 15z" />
    <glyph glyph-name="six.tf" horiz-adv-x="660" 
d="M365 447q102 0 166 -62t64 -159q0 -100 -66.5 -169t-177.5 -69q-132 0 -201 96.5t-69 242.5q0 107 32 195.5t102.5 146.5t169.5 58q120 0 190 -77l-76 -91q-50 44 -111 44q-73 0 -113 -54.5t-53 -139.5q66 38 143 38zM351 109q51 0 81.5 32.5t30.5 81.5q0 48 -31.5 76
t-83.5 28q-66 0 -130 -48q8 -74 39.5 -122t93.5 -48z" />
    <glyph glyph-name="seven.tf" horiz-adv-x="660" 
d="M517 714q36 0 52 -37t-3 -83l-250 -594h-157l264 592h-318v122h412z" />
    <glyph glyph-name="eight.tf" horiz-adv-x="660" 
d="M453 377q66 -24 105 -71.5t39 -112.5q0 -85 -71 -145.5t-196 -60.5t-196.5 60.5t-71.5 145.5q0 65 39 112.5t105 70.5q-115 53 -115 159q0 79 64.5 135.5t174.5 56.5t174 -56.5t64 -135.5q0 -106 -115 -158zM331 609q-46 0 -75 -25t-29 -64t29 -64t75 -25q45 0 73.5 25
t28.5 64t-28.5 64t-73.5 25zM330 105q54 0 89 29.5t35 74.5t-35 74t-89 29t-89 -29t-35 -74t35 -74.5t89 -29.5z" />
    <glyph glyph-name="nine.tf" horiz-adv-x="660" 
d="M329 727q68 0 119.5 -27.5t81.5 -75.5t44.5 -107t14.5 -127q0 -183 -75 -293.5t-221 -110.5q-107 0 -184 64l60 100q56 -41 117 -41q135 0 161 189q-66 -32 -135 -32q-102 0 -165.5 62t-63.5 160q0 99 66 169t180 70zM211 492q0 -47 30.5 -76.5t86.5 -29.5q62 0 124 36
q-8 182 -129 182q-51 0 -81.5 -32.5t-30.5 -79.5z" />
    <glyph glyph-name="zero.dnom" horiz-adv-x="379" 
d="M190 -8q-77 0 -116.5 53t-39.5 142q0 90 39.5 143t116.5 53q76 0 115.5 -53t39.5 -143q0 -89 -39.5 -142t-115.5 -53zM190 63q75 0 75 124q0 125 -75 125q-76 0 -76 -125q0 -124 76 -124z" />
    <glyph glyph-name="one.dnom" horiz-adv-x="293" 
d="M205 66h71v-69h-227v69h74v208l-65 -46l-44 57l126 94h31q15 0 24.5 -9.5t9.5 -24.5v-279z" />
    <glyph glyph-name="two.dnom" horiz-adv-x="321" 
d="M148 110q-18 -19 -24 -42h162v-71h-253q-5 98 46 155q16 18 53 47t46 37q24 18 24 38q0 16 -12.5 26t-31.5 10t-38.5 -14.5t-31.5 -34.5l-61 39q17 37 52.5 60.5t80.5 23.5q55 0 91.5 -29.5t36.5 -77.5q0 -41 -34 -75q-19 -19 -56.5 -48t-49.5 -44z" />
    <glyph glyph-name="three.dnom" horiz-adv-x="326" 
d="M235 198q28 -11 43.5 -36t15.5 -56q0 -53 -42.5 -84t-99.5 -31q-44 0 -80 19t-53 51l54 45q26 -41 77 -41q26 0 44 13t18 34q0 20 -17 31t-43 11h-54v67h42q30 0 47 13.5t17 32.5q0 18 -13.5 30.5t-36.5 12.5q-39 0 -66 -36l-57 38q41 72 129 72q54 0 90 -30t36 -75
q0 -54 -51 -81z" />
    <glyph glyph-name="four.dnom" horiz-adv-x="337" 
d="M309 145v-67h-40v-81h-80v81h-139q-25 0 -34 20.5t4 37.5l174 238q13 7 32 7q18 0 30.5 -8.5t12.5 -25.5v-202h40zM104 145h85v114z" />
    <glyph glyph-name="five.dnom" horiz-adv-x="317" 
d="M164 232q57 0 92 -32t35 -84q0 -57 -41 -91t-98 -34q-85 0 -127 65l56 43q31 -34 68 -34q26 0 42.5 14t16.5 36q0 21 -16.5 34.5t-41.5 13.5q-27 0 -56 -18l-49 40v160q0 30 32 30h192v-67h-149v-83q20 7 44 7z" />
    <glyph glyph-name="six.dnom" horiz-adv-x="334" 
d="M185 232q55 0 88.5 -32.5t33.5 -82.5q0 -53 -36 -89.5t-96 -36.5q-71 0 -107.5 49.5t-36.5 126.5q0 88 43.5 151.5t122.5 63.5q62 0 99 -41l-43 -53q-26 23 -57 23q-68 0 -83 -98q34 19 72 19zM175 61q25 0 40 15.5t15 37.5q0 24 -15 36.5t-39 12.5q-34 0 -64 -24
q8 -78 63 -78z" />
    <glyph glyph-name="seven.dnom" horiz-adv-x="287" 
d="M226 375q27 0 38.5 -19t0.5 -45l-132 -314h-92l138 309h-157v69h204z" />
    <glyph glyph-name="eight.dnom" horiz-adv-x="346" 
d="M240 197q76 -27 76 -96q0 -46 -38 -78t-105 -32t-105 32t-38 78q0 69 76 96q-61 26 -61 83q0 42 34.5 72t93.5 30t93.5 -30t34.5 -72q0 -57 -61 -83zM174 312q-22 0 -36 -11.5t-14 -30.5t14 -31t36 -12q21 0 34.5 12t13.5 31t-13.5 30.5t-34.5 11.5zM173 61q26 0 42.5 14
t16.5 36t-16.5 35.5t-42.5 13.5t-42.5 -13.5t-16.5 -35.5t16.5 -36t42.5 -14z" />
    <glyph glyph-name="nine.dnom" horiz-adv-x="330" 
d="M160 382q71 0 104.5 -49t33.5 -128q0 -96 -42 -155t-121 -59q-62 0 -100 41l42 53q30 -24 59 -24q66 0 81 93q-33 -15 -67 -15q-55 0 -89 32.5t-34 83.5q0 53 36 90t97 37zM102 258q0 -23 14.5 -37t42.5 -14q29 0 60 17q-4 87 -62 87q-26 0 -40.5 -15t-14.5 -38z" />
    <glyph glyph-name="acutecomb.loclPLK" horiz-adv-x="0" 
d="M-233 556l71 201l126 -1l-95 -200h-102z" />
    <glyph glyph-name="caron.alt" horiz-adv-x="286" 
d="M61 563l50 193l115 -30l-76 -186z" />
    <glyph glyph-name="acute.case" horiz-adv-x="313" 
d="M34 815l169 164l77 -92l-189 -138z" />
    <glyph glyph-name="breve.case" horiz-adv-x="400" 
d="M200 761q-78 0 -120 47t-40 114h99q-1 -30 14 -54t47 -24t47 24t14 54h99q2 -67 -40 -114t-120 -47z" />
    <glyph glyph-name="caron.case" horiz-adv-x="437" 
d="M113 953l105 -94l105 94l67 -65l-122 -110q-24 -21 -50 -21q-28 0 -50 21l-123 110z" />
    <glyph glyph-name="cedilla.case" horiz-adv-x="305" 
d="M135 -255q-60 0 -106 23l27 80q30 -16 64 -16q49 0 49 27q0 15 -21 23t-55 6l14 71q79 9 125 -20t46 -81q0 -46 -38.5 -79.5t-104.5 -33.5z" />
    <glyph glyph-name="circumflex.case" horiz-adv-x="438" 
d="M114 747l-68 65l123 110q22 21 50 21q26 0 50 -21l122 -110l-67 -65l-105 94z" />
    <glyph glyph-name="dieresis.case" horiz-adv-x="367" 
d="M85 755q-33 0 -52.5 19.5t-19.5 53.5t19.5 54t52.5 20t52.5 -20t19.5 -54t-19.5 -53.5t-52.5 -19.5zM280 755q-32 0 -52 19.5t-20 53.5t20 54t52 20q33 0 53 -20t20 -54t-20 -53.5t-53 -19.5z" />
    <glyph glyph-name="dotaccent.case" horiz-adv-x="302" 
d="M151 758q-37 0 -58.5 22t-21.5 60t21.5 60t58.5 22t59 -22.5t22 -59.5t-22 -59.5t-59 -22.5z" />
    <glyph glyph-name="grave.case" horiz-adv-x="318" 
d="M283 813l-57 -66l-189 138l77 92z" />
    <glyph glyph-name="hungarumlaut.case" horiz-adv-x="422" 
d="M25 802l97 184l96 -55l-117 -175zM189 802l114 184l93 -55l-131 -175z" />
    <glyph glyph-name="macron.case" horiz-adv-x="429" 
d="M66 879h298v-106h-298v106z" />
    <glyph glyph-name="ogonek.case" horiz-adv-x="327" 
d="M144 -236q-49 0 -80.5 31t-31.5 80q0 43 28.5 84t80.5 67l75 -26q-38 -15 -56.5 -39t-18.5 -48q0 -17 9.5 -27.5t25.5 -10.5q14 0 31 11l42 -79q-48 -43 -105 -43z" />
    <glyph glyph-name="ring.case" horiz-adv-x="288" 
d="M144 741q-48 0 -80.5 31t-32.5 77t32.5 77t80.5 31t80.5 -31t32.5 -77t-32.5 -77t-80.5 -31zM144 809q17 0 28.5 11.5t11.5 28.5t-11.5 28.5t-28.5 11.5q-18 0 -29.5 -11.5t-11.5 -28.5t11.5 -28.5t29.5 -11.5z" />
    <glyph glyph-name="tilde.case" horiz-adv-x="497" 
d="M322 763q-33 0 -75 24.5t-60 24.5q-37 0 -56 -52l-81 36q14 53 48.5 81.5t79.5 28.5q34 0 74.5 -24.5t58.5 -24.5q39 0 55 54l87 -31q-13 -54 -50 -85.5t-81 -31.5z" />
    <glyph glyph-name="NULL" horiz-adv-x="0" 
 />
    <glyph glyph-name="commaccent" horiz-adv-x="171" 
d="M114 -27q37 0 60.5 -27.5t23.5 -69.5q0 -52 -32 -103t-88 -87l-44 60q54 36 77 81h-7q-30 0 -49 20t-19 51q0 32 22.5 53.5t55.5 21.5z" />
    <glyph glyph-name="commaccent.case" horiz-adv-x="169" 
d="M114 -27q37 0 60.5 -27.5t23.5 -69.5q0 -52 -32 -103t-88 -87l-44 60q54 36 77 81h-7q-30 0 -49 20t-19 51q0 32 22.5 53.5t55.5 21.5z" />
    </font>
</defs>
</svg>
